<svg id="Layer_1" data-name="Layer 1" xmlns="http://www.w3.org/2000/svg" viewBox="0 0 792 1224"><defs><style>.cls-1{fill:#00aeef;}.cls-2{fill:#231f20;}.cls-3{fill:#ffd100;}.cls-4{fill:#ec008c;}</style></defs><title>aktivo_poster</title><g id="_Group_" data-name="&lt;Group&gt;"><g id="_Group_2" data-name="&lt;Group&gt;"><polygon id="_Path_" data-name="&lt;Path&gt;" class="cls-1" points="684.53 1164 732 1164 732 1136.49 684.53 1164"/><polygon id="_Path_2" data-name="&lt;Path&gt;" class="cls-2" points="692 1147 714 1133.83 714 1133.59 692 1120 692 1147"/></g><polygon id="_Path_3" data-name="&lt;Path&gt;" class="cls-3" points="679 1094 666 1094 666 1164 679 1164 679 1137.72 679 1099.79 679 1094"/><polygon id="_Path_4" data-name="&lt;Path&gt;" class="cls-4" points="692 1094 692 1106.35 732 1129.67 732 1094 692 1094"/></g><path class="cls-2" d="M59.42,104.25l1.65-17.5,7.33-6.32H88l5.86,1.19,4.4,5.59v20.53l-.37,16.77L92.14,133H70.33l-9.26-8.8L59.42,113Zm12,23.82H89.2l3.57-5.5V89.77l-2.47-4.4H66.48l-1.19,1.28V121.2Z"/><path class="cls-2" d="M130.1,80.88h21.35v4.95H130.19V132.2h-5.5V85.83h-9.35l-.92-4.95h10.26V65.31l1.65-6.41h16.31l8.8,1.83-2.75,4.95-9.16-1.83H129.09Z"/><path class="cls-2" d="M186.63,80.88l11.73,46.37h11l8.15-35,1.37-11.36h7l-2.57,11L211.1,142.55l-1.83,8h-7.7l2.93-6.41,3.94-11.91H194.61L180.22,80.88Z"/><path class="cls-2" d="M308.09,88.95v31.89l-.73,11.36h-6.14l1.37-10.26V91.42l-1.19-3.76-3.11-1.83h-11L278.77,89v31.8L278,132.2H271.9l1.37-10.26V91.42l-1.19-3.76L269,85.83H258l-8.52,3.3V132.2h-5.5V94.54l-3.67-13.65h6.78L248.53,86l12.83-5.13h9.9l6.23,2.75.55,2.29,12.65-5h9.9l6.23,2.75Z"/><path class="cls-2" d="M355.25,89.41l-2.47-3.57H338.12l-7,2.66.92,32.71,4.22,6H347L362,125v3.48l-6.6,3.76H333l-6.51-8.8L325.75,113v-8.71l.73-18.6,10.08-4.76h13.2L358,82.08l2.57,3.76v25.84l-10.45.92h-6.23l-1.28-2.93v-2.38l2.2.37h10.45Z"/><path class="cls-2" d="M408.48,80.88l.18,14.48-3.94,1.56-1.56-11.09H385.75V132.2h-5.5V94.54l-1.1-13.65Z"/><path class="cls-2" d="M422.64,111.12v-22l-1.83-8.25h7.33v30.24Z"/><path class="cls-2" d="M449.67,84.46l-2.2.82.28,18.51,3.94-.73h18l4.76,4.12v14.48l-2.57,7-6.78,3.57H447.84l-8.15-9.35,4.67-2.66,6.14,7.06H466l2.75-4.67V110.12l-2.66-2.38H449.86l-4.31.73-3.48-6.69V85.19l2.57-2.93L448,79.6h20.8l3.57,1.65,1.83,3.48L470.66,87l-1.83-2.57Z"/><path class="cls-2" d="M533.15,80.88H554.5v4.95H533.24V132.2h-5.5V85.83h-9.35l-.92-4.95h10.26V65.31l1.65-6.41H545.7l8.8,1.83-2.75,4.95-9.16-1.83H532.14Z"/><path class="cls-2" d="M575.42,58.89l-.92,8.34v65H569V72.55l-1.83-13.65Z"/><path class="cls-2" d="M622.21,89.41l-2.47-3.57H605.08l-7,2.66L599,121.2l4.22,6H614L629,125v3.48l-6.6,3.76H599.94l-6.51-8.8L592.7,113v-8.71l.73-18.6,10.08-4.76h13.2L625,82.08l2.57,3.76v25.84l-10.45.92h-6.23l-1.28-2.93v-2.38l2.2.37h10.45Z"/><path class="cls-2" d="M655,84.46l-2.2.82.28,18.51,3.94-.73h18l4.76,4.12v14.48l-2.57,7-6.78,3.57H653.17L645,122.85l4.67-2.66,6.14,7.06h15.49l2.75-4.67V110.12l-2.66-2.38H655.19l-4.31.73-3.48-6.69V85.19L650,82.26l3.39-2.66h20.8l3.57,1.65,1.83,3.48L676,87l-1.83-2.57Z"/><path class="cls-2" d="M735.32,89.31v31.52l-.73,11.36-6.14.37,1.37-10.63V91.79L728.63,88l-3.12-1.83h-11L703.8,90.32V132.2h-5.5V72.55l-1.83-13.65h8.25l-.92,8.34v19.7l14.11-5.68h9.9L734,84Z"/><path class="cls-2" d="M81.12,201l-11.19,1.7H63l-2.44-2.24-.68-3.8-.07-26.52H52.43l-.68-5.43h8v-9.5h7.05l-.07,9.5H80.92v5.43H66.74L66.54,197h6.11L79,195.7h1.9Z"/><path class="cls-2" d="M120,170.6v23.68l-.54,8.41-7.19.27,1-7.87v-21l-.88-2.31-2.1-1.42-7.19.07L96.77,173v29.64H90V158.52l-1.83-10.11h9.29l-.68,6.17v13.84l8.89-3.8h8.14l4.82,1.76Z"/><path class="cls-2" d="M152.29,171.89l-1.83-1.83h-9.36l-4.41,1.56.61,22.73,2.65,3.05,8.28-.2,11.13-1.7v4.88l-5.7,2.58H137.23l-6.38-4.75-.75-9.5v-7l1-12.62,5.56-4.68h12.89l5.9.88,3.26,2.58v10.65l-.2,8.75-8.68.68h-5l-.95-2.1V182.2l2,.34h6.38Z"/><path class="cls-2" d="M210.29,171.89l-1.83-1.83H199.1l-4.41,1.56.61,22.73,2.65,3.05,8.28-.2,11.13-1.7v4.88l-5.7,2.58H195.23l-6.38-4.75-.75-9.5v-7l1-12.62,5.56-4.68h12.89l5.9.88,3.26,2.58v10.65l-.2,8.75-8.68.68h-5l-.95-2.1V182.2l2,.34h6.38Z"/><path class="cls-2" d="M258.52,202.68h-7.33l-3.53-8v-8.75l-14.52-.07.07,10.24,2,1.09h1.7l4.48-.2.61,3.32-1.49,2.37h-9.23l-3.32-1.15-1-3.87v-7.73l.81-8.62,6-.61h14v-8l-.88-1.42-1.63-1.36-11.4.07-5.29.88v-5.09l4-1.29h17.09l2.58,1.36,2.31,4.55v22.45Z"/><path class="cls-2" d="M273.15,203l-7.26-.27-.54-8.41V174.8l-.81-10.11h27.14v5.43H272.13v25Z"/><path class="cls-2" d="M319.34,201l-11.19,1.7h-6.92l-2.44-2.24-.68-3.8L298,170.12h-7.39l-.68-5.43h8v-9.5H305l-.07,9.5h14.18v5.43H305l-.2,26.86h6.1l6.38-1.29h1.9Z"/><path class="cls-2" d="M358.26,170.6v23.68l-.54,8.41-7.19.27,1-7.87v-21l-.88-2.31-2.1-1.42-7.19.07L335,173v29.64H328.2V158.52l-1.83-10.11h9.29l-.68,6.17v13.84l8.89-3.8H352l4.82,1.76Z"/><path class="cls-2" d="M391.09,164.69l6.17,32h6.65l6.51-16.28-3.26-15.67h7.12l6.17,32h8.48l2-17.71.2-8.55-.81-5.7h8.28l-.88,15.4-4.61,19.81-3.73,2.78H415.11l-2.65-13.57h-1.29l-5.63,13.57H391.91l-7.87-38Z"/><path class="cls-2" d="M477.81,202.68h-7.33l-3.53-8v-8.75l-14.52-.07.07,10.24,2,1.09h1.7l4.48-.2.61,3.32-1.49,2.37h-9.23l-3.32-1.15-1-3.87v-7.73l.81-8.62,6-.61h14v-8l-.88-1.42-1.63-1.36-11.4.07-5.29.88v-5.09l4-1.29h17.1l2.58,1.36,2.31,4.55v22.45Z"/><path class="cls-2" d="M494.58,169.17l-1.83.61L493,181l3.87-.61h12.41l3.53,2.58v13.23l-2.85,4.48-5.43,2H490.38l-5.83-6.92,5.7-3.8,4.55,5.49h9l2-2.58v-8.34l-2-1.29H492.75l-4.07,1-2.58-6.11V167.41l2.78-1.83,4.07-1.49h13.36l5,1.09,1.36,5.16-5.16,1.22-1.15-2.37Z"/><path class="cls-2" d="M594,170.66v23.61l-.54,8.41-7.26.07,1-7.67V173.85l-.88-2.31-2.1-1.42-7,.07-5,2v22l-.54,8.41-7.26.07,1-7.67V173.85l-.88-2.31-2.1-1.42-7,.07-5,2v30.46h-6.78V174.8l-2.71-10.11h7.73l.95,3.32,8.28-3.32h8l4.82,1.83.54,1.56,8.34-3.39h8l4.82,1.83Z"/><path class="cls-2" d="M635.07,202.68h-7.33l-3.53-8v-8.75l-14.52-.07.07,10.24,2,1.09h1.7l4.48-.2.61,3.32L617,202.68H607.8l-3.32-1.15-1-3.87v-7.73l.81-8.62,6-.61h14v-8l-.88-1.42-1.63-1.36-11.4.07-5.29.88v-5.09l4-1.29h17.1l2.58,1.36,2.31,4.55v22.45Z"/><path class="cls-2" d="M660.11,199.22l-2.31,3.8-7.67.2-4.88-1.7L642.14,195l-.41-13.84.88-9.09,3-5.43,8.14-2.85h6l5.9.47v-5.83l-1.83-10h8.62V193.8l3.39,8.89H669l-3.32-9.77V170.33l-5.7-.68-7.26.07-3,1.09-.95,10v8.55l1.08,7.94h6l4.21-.34Z"/><path class="cls-2" d="M705.78,171.89l-1.83-1.83h-9.36l-4.41,1.56.61,22.73,2.65,3.05,8.28-.2,11.13-1.7v4.88l-5.7,2.58H690.72l-6.38-4.75-.75-9.5v-7l1-12.62,5.56-4.68h12.89l5.9.88,3.26,2.58v10.65l-.2,8.75-8.68.68h-5l-.95-2.1V182.2l2,.34h6.38Z"/><path class="cls-2" d="M738,185v20.55l-6.31,6.31H721.08v-6.51h11.26V190.81H719.73V185Z"/><path class="cls-2" d="M81.47,268.23h-7l-2.84-6.45v-6.66l-11-.05.05,7.21,1.53.71h1.42l3.44-.22.66,3.44-1.37,2H59l-3.33-.93-.71-3.5V258l.82-7.21,5.19-.44H71.63v-5.57l-.71-1.15-1.31-1.09-8.85.05-4.26.71v-4.81l3.17-1h14l2.62,1.09,1.86,3.66v18.13Z"/><path class="cls-2" d="M113.08,242.45v19l-.44,6.77-6.94.22.82-6.34V245.57l-.71-1.69-1.58-1.15-5.19.05-4.75,2v23.43H87.73V245.78l-2.19-8.14h7.32l.82,2.95,7.37-2.95h6.72l4,1.37Z"/><path class="cls-2" d="M135.42,264.68l-1.64,3.77-5.63.22-4.31-1-3.22-4.42-.55-10.11.55-8.9,2.35-4.32,6.77-2.89h5.41l4.48.38v-4.75L138,224.54h8.47l-.27,5v31.57l2.73,7.16h-6.61l-2.68-7.87V243.11l-4.15-.49h-5.24l-2.62.82-.71,7.37v7l.87,5.19h4.75l2.9-.27Z"/><path class="cls-2" d="M168.91,251.36l1.26-10.43,5.74-3.77H187l5.68.71,2.62,5.68V256l-.93,8.3L190,268.84H177.32l-6.88-4-1.53-8Zm9.56,11.85h7.65l2.35-1.91V245.13L187,242.51H177.7l-1.8.76v16.61Z"/><path class="cls-2" d="M213.54,237.65h10.21v5.08h-9.94v25.51h-6.55V242.73h-5.57l-.55-5.08h6.12v-8.47l2.08-4.64h9.18l5.24,1.09L222.11,231l-4.64-1.09h-5.63Z"/><path class="cls-2" d="M267.56,242.23v19.23l-.44,6.77-6.88.22.82-6.34V245.78l-.71-1.69-1.58-1.15-5.46.05-4.48,1.91v23.32h-6.55V232.67l-1.64-8.14h8.74l-.55,5v10.82l6.5-2.89h6.94l4,1.37Z"/><path class="cls-2" d="M281.92,231.91h-5.68l-2.29-2.29v-5.08h8Zm-6,36.32V243.65l-1.64-6h8.19v30.59Z"/><path class="cls-2" d="M298.1,242l-1.58.49.16,8.08,3.49-.55h9.61l2.84,1.91v11.63L310,266.92l-4.59,1.31H293.51l-4.59-5.57,5.52-3.77,3.66,4.48h6.23l1.64-1.69v-6.34l-1.58-.87h-8.57l-3.66,1-2.08-5.35V239.61l2.62-1.31,3.93-1h9.94l4.86.87,1.09,5.13-5.13.82-.82-2.08Z"/><path class="cls-2" d="M343.61,242l-1.58.49.16,8.08,3.5-.55h9.61l2.84,1.91v11.63l-2.62,3.33-4.59,1.31H339l-4.59-5.57,5.52-3.77,3.66,4.48h6.23l1.64-1.69v-6.34l-1.58-.87h-8.58l-3.66,1-2.08-5.35V239.61l2.62-1.31,3.93-1h9.94l4.86.87,1.09,5.13-5.13.82-.82-2.08Z"/><path class="cls-2" d="M370.62,237.65l4.75,24.74h4.81l4.75-12.13-2.68-12.62h6.83l4.81,24.74h5.9l1.47-13.27.06-6.88-.66-4.59h8l-.71,12.4L403.39,266l-2.95,2.24H388.75l-2-10h-1.2l-4.15,10H370.13l-6.34-30.59Z"/><path class="cls-2" d="M432.35,243.82l-1.47-1.2h-7l-3.22,1.09.49,17.7,2,1.86,6.77-.16,9-1.42v4.86l-4.92,2H420.77L415,265.45l-.71-8.36v-5.84l1-9.67,3.77-4.26h11.63l4.64.71,3.17,2v9.61l-.22,6.12-7.37.55h-4.26l-.76-1.64v-3.71l1.8.27h4.64Z"/><path class="cls-2" d="M472.12,268.23h-7l-2.84-6.45v-6.66l-11-.05.06,7.21,1.53.71h1.42l3.44-.22.65,3.44-1.37,2h-7.43l-3.33-.93-.71-3.5V258l.82-7.21,5.19-.44h10.71v-5.57l-.71-1.15-1.31-1.09-8.85.05-4.26.71v-4.81l3.17-1h14l2.62,1.09,1.86,3.66v18.13Z"/><path class="cls-2" d="M498.09,267l-8.85,1.26h-5.79l-2.24-1.91-.55-3.88-.05-19.72h-5.74l-.55-5.08h6.23V230h6.72l-.06,7.65h10.71v5.08H487.17l-.11,20h4.37l5-.87h1.53Z"/><path class="cls-2" d="M537.75,267l-8.85,1.26h-5.79l-2.24-1.91-.55-3.88-.05-19.72h-5.74l-.55-5.08h6.23V230h6.72l-.06,7.65h10.71v5.08H526.83l-.11,20h4.37l5-.87h1.53Z"/><path class="cls-2" d="M569.24,242.23v19.23l-.44,6.77-6.88.22.82-6.34V245.78l-.71-1.69-1.58-1.15L555,243l-4.48,1.91v23.32h-6.55V232.67l-1.64-8.14H551l-.55,5v10.82l6.5-2.89h6.94l4,1.37Z"/><path class="cls-2" d="M594.45,243.82l-1.47-1.2h-7l-3.22,1.09.49,17.7,2,1.86,6.77-.16,9-1.42v4.86l-4.92,2H582.87l-5.74-3.11-.71-8.36v-5.84l1-9.67,3.77-4.26h11.63l4.64.71,3.17,2v9.61l-.22,6.12-7.37.55h-4.26l-.76-1.64v-3.71l1.8.27h4.64Z"/><path class="cls-2" d="M631.54,242l-1.58.49.16,8.08,3.5-.55h9.61l2.84,1.91v11.63l-2.62,3.33-4.59,1.31H627l-4.59-5.57,5.52-3.77,3.66,4.48h6.23l1.64-1.69v-6.34l-1.58-.87h-8.58l-3.66,1-2.08-5.35V239.61l2.62-1.31,3.93-1H640l4.86.87,1.09,5.13-5.13.82L640,242Z"/><path class="cls-2" d="M671.21,243.82l-1.47-1.2h-7l-3.22,1.09.49,17.7,2,1.86,6.77-.16,9-1.42v4.86l-4.92,2H659.63l-5.74-3.11-.71-8.36v-5.84l1-9.67,3.77-4.26h11.63l4.64.71,3.17,2v9.61l-.22,6.12-7.37.55h-4.26l-.76-1.64v-3.71l1.8.27h4.64Z"/><path class="cls-2" d="M711,268.23h-7l-2.84-6.45v-6.66l-11-.05.06,7.21,1.53.71h1.42l3.44-.22.65,3.44-1.37,2h-7.43l-3.33-.93-.71-3.5V258l.82-7.21,5.19-.44h10.71v-5.57l-.71-1.15-1.31-1.09-8.85.05-4.26.71v-4.81l3.17-1h14l2.62,1.09,1.86,3.66v18.13Z"/><path class="cls-2" d="M724.63,242l-1.58.49.16,8.08,3.5-.55h9.61l2.84,1.91v11.63l-2.62,3.33L732,268.23H720l-4.59-5.57,5.52-3.77,3.66,4.48h6.23l1.64-1.69v-6.34l-1.58-.87h-8.58l-3.66,1-2.08-5.35V239.61l2.62-1.31,3.93-1h9.94l4.86.87,1.09,5.13-5.13.82L733.1,242Z"/><path class="cls-2" d="M82.4,298.78l.15,14.83-10.71,1.27-1.27-6.22H65.32v32.06H51.84V309.94l-.9-11.16Z"/><path class="cls-2" d="M85.6,317.35,87.7,303l9.74-5.17H112l10.78,1,3.59,11v17.3L124,336.3l-7.19,5.32H99.76l-11.38-3.74L85.6,325Zm16.4,13h6.44l3.52-.75V312.11l-2-3.59h-6l-4,1v17.23Z"/><path class="cls-2" d="M154,309.86h-8.09L142.8,311l.52,17.53,2.92.45,9.29.15,10.34-2.25.75,11.38-11.38,2.47H133.52l-2-5.32-1-11.53V317.5l2.17-11.91,2-7h18.5l11.16.75,2.25,16.55-11.16,1.12Z"/><path class="cls-2" d="M211.38,334l5.47,6.74H199.17l-3.45-6.29-7-10.78h-4.12v17.08H171.09V292l-3-11.16h17.23l-.75,6.82v26.14H190l8.16-11.23,1.42-3.74h17.23L212.2,304l-11.08,15Z"/><path class="cls-2" d="M235.08,307.84l-2.55.67.22,7,6.37-.9h11.68l3.9,1.87V336.6L249.61,340l-7,.67H224l-5.92-7.64,11.31-8.16,5,6.52h4.42l2.25-.82v-7.19L238.9,323H228.64l-6.52,2.1-2.85-9.21v-15.2l5.09-1.2,8-.67h10.26l10.41,1,1.5,11.23-11.16.37-.75-3.59Z"/><path class="cls-2" d="M279.86,317.35,282,303l9.74-5.17h14.53l10.78,1,3.59,11v17.3l-2.32,9.14-7.19,5.32H294l-11.38-3.74L279.86,325Zm16.4,13h6.44l3.52-.75V312.11l-2-3.59h-6l-4,1v17.23Z"/><path class="cls-2" d="M343.6,298.78h10.93v9.89h-9.89v32.06H331.16V308.66h-7.64l-.75-9.89h8.39V288.29l4.34-7.49h11.83l7.19,1.5-2.25,10.64-5.24-1.5h-6.89Z"/><path class="cls-2" d="M415.57,304.47v27l-.6,9.29-13.78.3,1.12-8.69V312.18l-1-1.57-1.8-1.57-6,.07L390,310.76v30H376.54V292l-3-11.16h17.23l-.75,6.82v13.33l6.29-3.07h10.86l5.84,1.5Z"/><path class="cls-2" d="M421.25,340.72v-32.2l-3-9.74h16.48v41.94Zm13.48-47.18H422.44l-3.15-3.15V280.8h15.43Z"/><path class="cls-2" d="M455.31,307.84l-2.55.67.22,7,6.37-.9H471l3.9,1.87V336.6L469.84,340l-7,.67H444.22l-5.92-7.64,11.31-8.16,5,6.52h4.42l2.25-.82v-7.19l-2.17-.45H448.87l-6.52,2.1-2.85-9.21v-15.2l5.09-1.2,8-.67h10.26l10.41,1,1.5,11.23-11.16.37-.75-3.59Z"/><path class="cls-2" d="M514.17,330.91l4-.07h4.34l5.62-.37v-19.1L524.73,310h-3.89l.6-11.23,5.69-1.12h8l6.29,2.32.75,7v24.64l-8.76,9.81-9.36.82h-5.32l-18-1.65V292l-3-11.16h15.73l.75,6.82Z"/><path class="cls-2" d="M546.47,317.35l2.1-14.31,9.74-5.17h14.53l10.79,1,3.59,11v17.3l-2.32,9.14-7.19,5.32H560.62l-11.38-3.74L546.47,325Zm16.4,13h6.44l3.52-.75V312.11l-2-3.59h-6l-4,1v17.23Z"/><path class="cls-2" d="M631.69,305.37v26.06l-.6,9.29-14,.3,1.12-8.69V311.88l-1-1.57-1.8-1.57-5.24.07-4.27,1.95v30H592.45V309.94l-3-11.16H604l.9,3.22,8.09-3.22h10.34l5.84,1.5Z"/><path class="cls-2" d="M661.51,308.74l-2-.37H652.3l-3.15.9.52,21.72,1.95.22,9.89-.52,12.28-2v10.56l-8.16,2.4H647.88l-10.34-1.27-1.35-14.46V317l2.1-11.31,2-7.79h21.2l6,1,6.59,2.32v17.45l-.67,4.64-11.61.75h-6.59l-1-2.1v-8.24l3.15.45h4.19Z"/><path class="cls-2" d="M695.13,307.84l-2.55.67.22,7,6.37-.9h11.68l3.9,1.87V336.6L709.66,340l-7,.67H684l-5.92-7.64,11.31-8.16,5,6.52h4.42l2.25-.82v-7.19L699,323H688.69l-6.52,2.1-2.85-9.21v-15.2l5.09-1.2,8-.67H702.7l10.41,1,1.5,11.23-11.16.37-.75-3.59Z"/><path class="cls-2" d="M742.1,319.15v24.72l-9,9H719.93V340.72h12.43V330.53H719.93V319.15Z"/><path class="cls-2" d="M92.77,417.88,79,420H71l-2.62-2.62-.82-3.61-.08-33.92H58.19l-.82-5.74h10V362.66h7.21l-.08,11.47h18v5.74h-18l-.25,34.25h8l7.95-1.8h2.29Z"/><path class="cls-2" d="M132.17,374.13l.16,13.6-5.16,1.39-1.39-9.26h-13.6V420H105.3V386.34l-1-12.21Z"/><path class="cls-2" d="M170.2,382.4,168,379.78h-12l-5.74,2L151,410l3.44,4.34,9.83-.08,13.44-2V417l-6.56,3.2H151.27l-6.88-6.56L143.57,403v-8.11l1-15.81,7.62-5.08h14.09l7.21,1.07,3.28,3.2v11.55l-.16,11.72-10,.82h-5.9l-1.15-2.54v-3.52l2.21.41h8.44Z"/><path class="cls-2" d="M217.23,382.4,215,379.78H203l-5.74,2,.82,28.19,3.44,4.34,9.83-.08,13.44-2V417l-6.56,3.2H198.3l-6.88-6.56L190.6,403v-8.11l1-15.81L199.2,374H213.3l7.21,1.07,3.28,3.2v11.55l-.16,11.72-10,.82h-5.9l-1.15-2.54v-3.52l2.21.41h8.44Z"/><path class="cls-2" d="M248.45,378.63l-2.13.74.25,14.83,4.18-.74h15.4l4.26,3.36v14.75l-2.95,5.74-6.39,2.7H244.68l-7.13-8.36,5.82-3.69,5.49,6.47h12l2.46-3.52V400.43l-2.38-1.8H247.14l-4.51,1-3.11-6.8V377.65l2.95-2.38,4.18-2h17.13l4.84,1.39,1.64,4.92-5,1.72-1.48-2.62Z"/><path class="cls-2" d="M307.28,394.94l1.64-15.65,7.37-5.65H333.5l6.56,1.07,3.93,6.39v18.44l-.82,14-5.65,7.29H318.18L309,413.7l-1.72-10.9Zm12.13,19.83h14.18l3.28-4.1V383.39l-2.21-3.93H316.29l-1.72,1.15v28.52Z"/><path class="cls-2" d="M371.8,374.13h17.62v5.74H372.05V420h-6.88V379.86h-8.36l-.82-5.74h9.18V360.69l2.13-6.23h14.26l7.87,1.64L387,362l-7.7-1.64h-9Z"/><path class="cls-2" d="M454.4,381.42v28.43L453.74,420l-7.37.33,1.23-9.5v-26l-1.07-3-2.62-1.64h-9.18l-8.44,3.36V420h-6.88V366.67l-2-12.21h9.67l-.82,7.46V379l11.47-4.83h9.42l5.74,2.29Z"/><path class="cls-2" d="M475.59,363.8H470l-3.44-3.44v-5.9h9ZM470,420V382.16l-2-8h8.85V420Z"/><path class="cls-2" d="M500.41,378.63l-2.13.74.25,14.83,4.18-.74h15.4l4.26,3.36v14.75l-2.95,5.74L513,420H496.65l-7.13-8.36,5.82-3.69,5.49,6.47h12l2.46-3.52V400.43l-2.38-1.8H499.1l-4.51,1-3.11-6.8V377.65l2.95-2.38,4.18-2h17.13l4.83,1.39,1.64,4.92-5,1.72-1.47-2.62Z"/><path class="cls-2" d="M596,381.42v28.43L595.38,420l-7.37.33,1.23-9.5v-26l-1.07-3-2.62-1.64h-9.18l-8.44,3.36V420H561V366.67l-2-12.21h9.67l-.82,7.46V379l11.47-4.83h9.42l5.74,2.29Z"/><path class="cls-2" d="M645.84,420H638.3L634,410.34V399.28H615.52l.08,13.52,2.54,1.56H620l5.74-.25.49,3.11L624.7,420H613.55l-3.28-1.39L609,414.36v-9.75l.74-10.08,6.8-.74H634V383.06L633,381.34l-2-1.64-14.26.08-6.39,1.07v-5.33l4.83-1.56h20.49l2.46,1.64,2.79,5.49v27Z"/><path class="cls-2" d="M664.41,363.8h-5.57l-3.44-3.44v-5.9h9ZM658.84,420V382.16l-2-8h8.85V420Z"/><path class="cls-2" d="M707.4,374.13l.16,13.6-5.16,1.39L701,379.86H687.4V420h-6.88V386.34l-1-12.21Z"/><path class="cls-2" d="M731.2,399v24.42L724,430.67H711.53v-6.88h13.6V405.1H709.57V399Z"/><path class="cls-2" d="M83.69,485.45H77.22l-3.11-7.07v-7.73l-12.82-.06.06,9,1.74,1h1.5l4-.18.54,2.94-1.32,2.1H59.61l-2.94-1-.9-3.41v-6.83l.72-7.61,5.27-.54H74.11V459l-.78-1.26-1.44-1.2-10.06.06-4.67.78v-4.49l3.53-1.14h15.1l2.28,1.2,2,4v19.83Z"/><path class="cls-2" d="M118.36,457.17V478l-.48,7.43-6.41.24.9-6.95V460l-.78-2-1.8-1.26-6.23.06-5.81,2.4v26.3h-6V460.83l-2.4-8.93h6.83l1,3.47,8.63-3.47h7.07l4.31,1.62Z"/><path class="cls-2" d="M143.47,482.39l-2,3.35-6.77.18-4.31-1.5-2.76-5.75-.36-12.22.78-8,2.64-4.79,7.19-2.52h5.33l5.21.42v-5.15l-1.62-8.87h7.61V477.6l3,7.85h-6.05l-2.94-8.63V456.87l-5-.6-6.41.06-2.64,1-.84,8.87v7.55l1,7h5.33l3.71-.3Z"/><path class="cls-2" d="M202.72,484l-9.88,1.5h-6.11l-2.16-2-.6-3.36-.06-23.42h-6.53l-.6-4.79h7.07v-8.39h6.23L190,451.9h12.52v4.79H190l-.18,23.72h5.39l5.63-1.14h1.68Z"/><path class="cls-2" d="M237.17,457.11V478l-.48,7.43-6.35.24.9-6.95V460.23l-.78-2-1.86-1.26-6.35.06-5.63,2.28v26.18h-6v-39L209,437.53h8.21l-.6,5.45V455.2l7.85-3.35h7.19l4.25,1.56Z"/><path class="cls-2" d="M265.74,458.25l-1.62-1.62h-8.27L252,458l.54,20.07,2.34,2.7,7.31-.18,9.82-1.5v4.31l-5,2.28h-14.5l-5.63-4.19-.66-8.39v-6.17l.9-11.14,4.91-4.13h11.38l5.21.78,2.88,2.28v9.41l-.18,7.73-7.67.6h-4.43l-.84-1.86v-3.24l1.8.3h5.63Z"/><path class="cls-2" d="M305.64,455.86l-1.62.54.18,9.94,3.41-.54h11l3.12,2.28v11.68l-2.52,4-4.79,1.74H301.93l-5.15-6.11,5-3.35,4,4.85h8l1.8-2.28v-7.37l-1.74-1.14H304l-3.59.9-2.28-5.39V454.3l2.46-1.62,3.59-1.32H316l4.37,1,1.2,4.55L317,458l-1-2.1Z"/><path class="cls-2" d="M357.83,480.06l4.37,5.39h-8.09l-3.41-5-6.29-9.53h-7.25v14.56h-6v-39l-1.62-8.93h8.21l-.6,5.45V466.1h7l8.15-11.2,1.62-3h8.27l-3.59,4.19-9,12Z"/><path class="cls-2" d="M375.31,451.9l7.07,28.22h6.05l4.07-21.57.3-6.65h7.79l-1.08,6.77-9,33.55-.78,5.21h-8l1.92-3.77,2.94-8.21h-8.81l-9.41-33.55Z"/><path class="cls-2" d="M423,467.06l1.26-11.44,5.81-4.13h12.4l5.45.78,2.88,5.33v13.6l-.78,9.7L445.58,486H431.5l-7.07-4.85L423,472.87Zm9.58,13.84H442l2.52-2.58v-19l-1.62-2.88H431l-1.56.84v19.65Z"/><path class="cls-2" d="M471,451.9h12.16v4.79H471.21v28.75h-6V456.7h-6.11l-.6-4.79h6.71v-9.58l1.92-4.79h10.24l5.75,1.2-1.8,5-5.39-1.2h-6.41Z"/><path class="cls-2" d="M530.88,457.11V478l-.48,7.43-6.35.24.9-6.95V460.23l-.78-2-1.86-1.26L516,457l-5.63,2.28v26.18h-6v-39l-1.62-8.93h8.21l-.6,5.45V455.2l7.85-3.35h7.19l4.25,1.56Z"/><path class="cls-2" d="M546.46,444.89h-5l-2.52-2.52v-4.85h7.55Zm-5.21,40.56V458.07l-1.62-6.17h7.61v33.55Z"/><path class="cls-2" d="M564.38,455.86l-1.62.54.18,9.94,3.41-.54h11l3.11,2.28v11.68l-2.52,4-4.79,1.74H560.66l-5.15-6.11,5-3.35,4,4.85h8l1.8-2.28v-7.37l-1.74-1.14h-9.82l-3.59.9-2.28-5.39V454.3l2.46-1.62,3.59-1.32h11.8l4.37,1,1.2,4.55L575.76,458l-1-2.1Z"/><path class="cls-2" d="M614.47,455.86l-1.62.54.18,9.94,3.41-.54h11l3.11,2.28v11.68l-2.52,4-4.79,1.74H610.75l-5.15-6.11,5-3.35,4,4.85h8l1.8-2.28v-7.37l-1.74-1.14h-9.82l-3.59.9L607,465.56V454.3l2.46-1.62,3.59-1.32h11.8l4.37,1,1.2,4.55L625.85,458l-1-2.1Z"/><path class="cls-2" d="M666.66,480.06l4.37,5.39h-8.09l-3.41-5-6.29-9.53H646v14.56h-6v-39l-1.62-8.93h8.21L646,443V466.1h7l8.15-11.2,1.62-3H671l-3.59,4.19-9,12Z"/><path class="cls-2" d="M678.81,459.33l.54-7.43h6.41l-1,6.71V480.3h14.62V451.9h6v28.46l.72,5.09H678.81Z"/><path class="cls-2" d="M722.31,437.53l-.6,5.45v42.47h-6v-39l-1.62-8.93Z"/><path class="cls-2" d="M738.79,437.53l-.6,5.45v42.47h-6v-39l-1.62-8.93Z"/><path class="cls-2" d="M65.13,547.47,69,547.4h4.14l5.35-.36v-18.2l-3.28-1.28H71.48l.57-10.7,5.42-1.07h7.64l6,2.21.71,6.64v23.48l-8.35,9.35-8.92.78H69.48l-17.2-1.57V510.36l-2.85-10.63h15l.71,6.49Z"/><path class="cls-2" d="M96.56,525.7l.64-8.85h13.34l-1.14,8v21.27h11.7V516.85h12.84v29.33l.86,10.63H96.56Z"/><path class="cls-2" d="M168,555.53l-10.85,1.28h-8.56l-4-2.85-.71-8.28-.07-19.41h-6.49l-.71-9.42h7.21l-.07-10h13l-.07,10h11.13v9.42h-11.2l-.14,20.19h3.57l5.78-.5h2Z"/><path class="cls-2" d="M189.17,534.55l2-13.63,9.28-4.92h13.84l10.28.93L228,527.42V543.9l-2.21,8.71-6.85,5.07H202.66l-10.85-3.57-2.64-12.27ZM204.8,547h6.14l3.35-.71v-16.7l-1.93-3.43h-5.71l-3.78,1v16.41Z"/><path class="cls-2" d="M249.9,516.85h10.42v9.42H250.9v30.54H238.06V526.27h-7.28l-.71-9.42h8v-10l4.14-7.14h11.27l6.85,1.43-2.14,10.13-5-1.43h-6.57Z"/><path class="cls-2" d="M318.48,522.28V548l-.57,8.85-13.13.29,1.07-8.28v-19.2l-.93-1.5-1.71-1.5-5.71.07-3.35,1.57v28.54H281.3V510.36l-2.85-10.63h16.41l-.71,6.49v12.7l6-2.93h10.35l5.57,1.43Z"/><path class="cls-2" d="M323.9,556.82V526.13L321,516.85h15.7v40Zm12.84-45H325l-3-3v-9.13h14.7Z"/><path class="cls-2" d="M356.36,525.49l-2.43.64.21,6.71,6.07-.86h11.13l3.71,1.78v19.13l-4.85,3.28-6.71.64H345.8l-5.64-7.28,10.77-7.78,4.78,6.21h4.21l2.14-.78v-6.85L360,539.9h-9.78l-6.21,2-2.71-8.78V518.64l4.85-1.14,7.64-.64h9.78l9.92,1,1.43,10.7-10.63.36-.71-3.43Z"/><path class="cls-2" d="M423.15,526.34l-1.93-.36h-6.85l-3,.86.5,20.69,1.86.21,9.42-.5,11.7-1.93v10.06l-7.78,2.28H410.17l-9.85-1.21L399,542.69v-8.49l2-10.78L403,516h20.2l5.71.93,6.28,2.21v16.63l-.64,4.42-11.06.71h-6.28l-1-2v-7.85l3,.43h4Z"/><path class="cls-2" d="M452.93,516.85l7,28.54h4.42l1.93-22.55-1.07-6h17V524l-13.06,40.89v6.21H452.57l2.14-3.57,4.5-10.7H449.15l-11.2-40Z"/><path class="cls-2" d="M508.24,526.34l-1.93-.36h-6.85l-3,.86.5,20.69,1.86.21,9.42-.5,11.7-1.93v10.06l-7.78,2.28H495.25l-9.85-1.21-1.28-13.77v-8.49l2-10.78L488,516h20.2l5.71.93,6.28,2.21v16.63l-.64,4.42-11.06.71h-6.28l-1-2v-7.85l3,.43h4Z"/><path class="cls-2" d="M538,547.47l3.85-.07H546l5.35-.36v-18.2l-3.28-1.28h-3.71l.57-10.7,5.42-1.07H558l6,2.21.71,6.64v23.48l-8.35,9.35-8.92.78h-5.07l-17.2-1.57V510.36l-2.85-10.63h15l.71,6.49Z"/><path class="cls-2" d="M598.94,516.85l.14,14.13-10.2,1.21-1.21-5.92h-5v30.54H569.83V527.49L569,516.85Z"/><path class="cls-2" d="M602,534.55l2-13.63,9.28-4.92h13.84l10.28.93,3.43,10.49V543.9l-2.21,8.71-6.85,5.07H615.49l-10.85-3.57L602,541.83ZM617.63,547h6.14l3.35-.71v-16.7l-1.93-3.43h-5.71l-3.78,1v16.41Z"/><path class="cls-2" d="M656.38,516.85l5.5,28.54h4.07l4.21-12.06-3.64-16.48h13.27l5.57,28.54h4.07l1.21-13.56-.28-9-.86-6H705l-.86,16.2L695,553.89l-3.64,2.93h-16l-2.07-9.49H671l-3.85,9.49H651.39l-8.28-40Z"/><path class="cls-2" d="M723.88,525.49l-2.43.64.21,6.71,6.06-.86h11.13l3.71,1.78v19.13l-4.85,3.28-6.71.64h-17.7l-5.64-7.28,10.77-7.78,4.78,6.21h4.21l2.14-.78v-6.85l-2.07-.43h-9.78l-6.21,2-2.71-8.78V518.64l4.85-1.14,7.64-.64h9.78l9.92,1,1.43,10.7-10.63.36-.71-3.43Z"/><path class="cls-2" d="M90.59,634.33,78,636.11H69.81l-3.18-2.71-.78-5.5-.08-28H57.64l-.78-7.21H65.7V581.84h9.54l-.08,10.85h15.2v7.21H75.08l-.15,28.45h6.2l7.06-1.24h2.17Z"/><path class="cls-2" d="M135,599.21V626.5l-.62,9.61-9.77.31,1.16-9V604.25l-1-2.4-2.25-1.63-7.75.08L108.41,603v33.11H99.1V585.64l-2.32-11.55h12.4l-.78,7.05v15.35l9.23-4.11h9.85l5.66,1.94Z"/><path class="cls-2" d="M170.49,601.45l-2.09-1.71h-9.92l-4.57,1.55.7,25.12,2.79,2.64,9.61-.23,12.72-2v6.9l-7,2.87H154.06l-8.14-4.42-1-11.86V612l1.4-13.72,5.35-6h16.51l6.59,1,4.5,2.79v13.65l-.31,8.68-10.47.78h-6l-1.08-2.33v-5.27l2.56.39h6.59Z"/><path class="cls-2" d="M221.35,628.51l6.51.7h4.5l5.12-1,3.1-4.26V602.62l-4.5-2.79-7.13.08.31-7.52,5.43-1.16,8.53.54,6.51,3.8.62,6.82v21.55l-7.13,10.93-9.3,2.33h-5.5L212.05,635V585.64l-2.33-11.55h10.85l.77,7.05Z"/><path class="cls-2" d="M270.82,574.09l-.78,7.05v55h-9.3V585.64l-2.33-11.55Z"/><path class="cls-2" d="M291.11,584.55H283l-3.26-3.26v-7.21h11.32Zm-8.53,51.56V601.22l-2.33-8.53h11.63v43.42Z"/><path class="cls-2" d="M332.61,634.33l-12.56,1.78h-8.22l-3.18-2.71-.78-5.5-.08-28h-8.14l-.77-7.21h8.84V581.84h9.54l-.08,10.85h15.2v7.21H317.11L317,628.36h6.2l7.06-1.24h2.17Z"/><path class="cls-2" d="M377,599.21V626.5l-.62,9.61-9.77.31,1.16-9V604.25l-1-2.4-2.25-1.63-7.75.08L350.43,603v33.11h-9.3V585.64l-2.33-11.55h12.4l-.77,7.05v15.35l9.23-4.11h9.85l5.66,1.94Z"/><path class="cls-2" d="M412.52,601.45l-2.09-1.71H400.5l-4.57,1.55.7,25.12,2.79,2.64,9.61-.23,12.72-2v6.9l-7,2.87H396.08l-8.14-4.42-1-11.86V612l1.4-13.72,5.35-6h16.51l6.59,1,4.5,2.79v13.65l-.31,8.68-10.47.78h-6l-1.09-2.33v-5.27l2.56.39h6.59Z"/><path class="cls-2" d="M471.05,597.73l2.33-5.35,8-.31,6.13,1.47,4.57,6.28.78,14.34-.78,12.64-3.8,6.2-9.15,4h-7.68l-6.36-.54v8.14l2.33,7H455l.78-7V602.85l-3.88-10.16h9.38l3.8,11.16v24.5l5.89.7h7.44l3.72-1.16,1-10.47v-10l-1.24-7.37h-6.75l-4.11.39Z"/><path class="cls-2" d="M502.24,612.15,504,597.34l8.14-5.35H528l8.06,1,3.72,8.06v17.68l-1.32,11.78-6.2,6.43H514.18l-9.77-5.74-2.17-11.4ZM515.81,629h10.85l3.33-2.71V603.32l-2.09-3.72H514.72l-2.56,1.09v23.57Z"/><path class="cls-2" d="M556.74,592.69l6.74,35.12h6.82l6.74-17.21-3.8-17.91h9.69l6.82,35.12h8.37L600.24,609l.08-9.77-.93-6.51h11.32l-1,17.6-6.43,22.64-4.19,3.18H582.48l-2.87-14.19h-1.71L572,636.11H556l-9-43.42Z"/><path class="cls-2" d="M644.09,601.45,642,599.75h-9.92l-4.57,1.55.7,25.12,2.79,2.64,9.61-.23,12.72-2v6.9l-7,2.87H627.66l-8.14-4.42-1-11.86V612l1.4-13.72,5.35-6h16.51l6.59,1,4.5,2.79v13.65l-.31,8.68-10.47.78h-6l-1.09-2.33v-5.27l2.56.39h6.59Z"/><path class="cls-2" d="M691.91,592.69l.16,13.8-7.21,1.32-1.32-7.91H673.46v36.21h-9.3V604.25l-.93-11.55Z"/><path class="cls-2" d="M712,598.9l-2.25.7.23,11.48,5-.78h13.65l4,2.71v16.51l-3.72,4.73-6.51,1.86h-16.9L699,628.2l7.83-5.35,5.19,6.36h8.84l2.33-2.4v-9l-2.25-1.24H708.73l-5.2,1.4-2.95-7.6V595.48l3.72-1.86,5.58-1.47H724l6.9,1.24,1.55,7.29-7.29,1.16L724,598.9Z"/><path class="cls-2" d="M86.75,670.26v13.8L86.43,689l-7.41.16.6-4.6V673.71l-.52-.83-1-.83-2.77,0-1.31.59v11.38L73.75,689l-7.41.16.59-4.6V673.71l-.51-.83-1-.83-2.78,0-1.31.59V689H54.24V672.68l-1.59-5.91h7.69l.4,1.39,3.41-1.39h5.47l3.09.79.36.71,3.77-1.51h5.47l3.09.79Z"/><path class="cls-2" d="M110.48,689H103L101,684.3v-4l-6.34-.08,0,3.09.91.08h1.23l2.06-.24.87,4.16L98.35,689H93l-3.81-.67L88.84,685v-3.45l1-5.83,4.56-.24H101v-2.14l-.51-.83-1-.79-5.63,0-3.09.52v-5l2.26-.75h10.63l3.09.79,1.35,2.66v13.32Z"/><path class="cls-2" d="M124,684.81l-.67,4.24-3.05.24h-3.93l-3.93-1.51-.75-4.92v-10l1.55-2.93,5.47-3.45h5.11l2.58.28v-3.65l-1.59-5.87h9.52l-.79,3.61v22.92l2,5.19h-7.18l-1.94-5.71V672.84l-2.06-.36-2.54,0-2.3.4-.48,3.81v5.43l.71,1.19h3.21l1.07-.16Z"/><path class="cls-2" d="M150.47,672l-1.07-.2H145.6l-1.67.48.28,11.5,1,.12,5.23-.28,6.5-1.07v5.59l-4.32,1.27h-9.4l-5.47-.67-.71-7.65v-4.72l1.11-6,1.07-4.12h11.22l3.17.52,3.49,1.23v9.24l-.36,2.46-6.15.4h-3.49l-.55-1.11v-4.36l1.66.24h2.22Z"/><path class="cls-2" d="M203.68,670.26v13.8l-.32,4.92-7.41.16.59-4.6V673.71l-.52-.83-1-.83-2.78,0-1.31.59v11.38l-.32,4.92-7.41.16.59-4.6V673.71l-.52-.83-1-.83-2.77,0-1.31.59V689h-7.14V672.68l-1.59-5.91h7.69l.4,1.39,3.41-1.39h5.47l3.09.79.36.71,3.77-1.51h5.47l3.09.79Z"/><path class="cls-2" d="M206.81,689v-17l-1.59-5.15h8.72V689Zm7.14-25h-6.5l-1.67-1.67v-5.07h8.17Z"/><path class="cls-2" d="M228.76,684.81l-.67,4.24-3.05.24h-3.93l-3.92-1.51-.75-4.92v-10l1.55-2.93,5.47-3.45h5.11l2.58.28v-3.65l-1.59-5.87h9.52l-.79,3.61v22.92l2,5.19h-7.18l-1.94-5.71V672.84l-2.06-.36-2.54,0-2.3.4-.47,3.81v5.43l.71,1.19h3.21l1.07-.16Z"/><path class="cls-2" d="M241.35,673.16,242.9,667l8.25-.91h2.74l8.64,1-.4,3.61v24.9l-4,1.23H245.28l-3.05-.79v-5.95l2.89.79H255v-19l-1.19-.32-3.41,0-1.23.44-.47,3.88v4l4.2,1.19-1.23,5.39-4.84-.4-5.07-1.78-.4-4.24Z"/><path class="cls-2" d="M286.12,689h-7.45l-2.06-4.68v-4l-6.34-.08,0,3.09.91.08h1.23l2.06-.24.87,4.16L274,689H268.6l-3.81-.67-.32-3.33v-3.45l1-5.83,4.56-.24h6.58v-2.14l-.52-.83-1-.79-5.63,0-3.09.52v-5l2.26-.75H279.3l3.09.79,1.35,2.66v13.32Z"/><path class="cls-2" d="M304.34,666.77l.08,7.85-5.67.67-.67-3.29H295.3v17h-7.14V672.68l-.48-5.91Z"/><path class="cls-2" d="M318.73,684.81l-.67,4.24-3.05.24h-3.93l-3.93-1.51-.75-4.92v-10l1.55-2.93,5.47-3.45h5.11l2.58.28v-3.65l-1.59-5.87H329l-.79,3.61v22.92l2,5.19h-7.18l-1.94-5.71V672.84l-2.06-.36-2.54,0-2.3.4-.48,3.81v5.43l.71,1.19h3.21l1.07-.16Z"/><path class="cls-2" d="M345.19,672l-1.07-.2h-3.81l-1.66.48.28,11.5,1,.12,5.23-.28,6.5-1.07v5.59l-4.32,1.27H338l-5.47-.67-.71-7.65v-4.72l1.11-6L334,666.3h11.22l3.17.52,3.49,1.23v9.24l-.36,2.46-6.15.4h-3.49l-.55-1.11v-4.36l1.67.24h2.22Z"/><path class="cls-2" d="M374,666.77h5.79V672h-5.23v17h-7.14V672h-4l-.4-5.23h4.44v-5.55l2.3-4H376l3.81.79-1.19,5.63-2.77-.79h-3.65Z"/><path class="cls-2" d="M381.23,676.6l1.11-7.57,5.15-2.74h7.69l5.71.52,1.9,5.83v9.16l-1.23,4.84-3.81,2.82h-9l-6-2-1.47-6.82Zm8.68,6.9h3.41l1.86-.4v-9.28l-1.07-1.9h-3.17l-2.1.55v9.12Z"/><path class="cls-2" d="M422,666.77l.08,7.85-5.67.67-.67-3.29h-2.78v17h-7.14V672.68l-.48-5.91Z"/><path class="cls-2" d="M449.42,688.26l-6,.71h-4.76l-2.22-1.59-.4-4.6L436,672h-3.61l-.4-5.23h4l0-5.55h7.22l0,5.55h6.18V672h-6.22L443,683.23h2l3.21-.28h1.11Z"/><path class="cls-2" d="M472.21,669.78v14.27L471.9,689l-7.3.16.59-4.6V673.87l-.52-.83-1-.83-3.17,0-1.86.87V689h-7.14V663.16L450,657.26h9.12l-.4,3.61v7.06L462,666.3h5.75l3.09.79Z"/><path class="cls-2" d="M488.31,672l-1.07-.2h-3.81l-1.67.48.28,11.5,1,.12,5.23-.28,6.5-1.07v5.59l-4.32,1.27h-9.4l-5.47-.67-.71-7.65v-4.72l1.11-6,1.07-4.12h11.22l3.17.52L495,668v9.24l-.36,2.46-6.15.4H485l-.55-1.11v-4.36l1.66.24h2.22Z"/><path class="cls-2" d="M516.81,671.57l-1.35.36.12,3.73,3.37-.48h6.18l2.06,1v10.63l-2.7,1.82-3.73.36h-9.83l-3.13-4,6-4.32,2.66,3.45h2.34l1.19-.44v-3.81l-1.15-.24h-5.43L510,680.69l-1.51-4.88v-8l2.7-.63,4.24-.36h5.43l5.51.55.79,5.95-5.91.2-.4-1.9Z"/><path class="cls-2" d="M530,676.6,531.1,669l5.15-2.74h7.69l5.71.52,1.9,5.83v9.16l-1.23,4.84-3.81,2.82h-9l-6-2L530,680.65Zm8.68,6.9h3.41l1.86-.4v-9.28l-1.07-1.9H539.7l-2.1.55v9.12Z"/><path class="cls-2" d="M575.39,670.26v13.8l-.32,4.92-7.41.16.59-4.6V673.71l-.52-.83-1-.83-2.77,0-2.26,1V689h-7.14V672.68L553,666.77h7.69l.48,1.71,4.28-1.71H571l3.09.79Z"/><path class="cls-2" d="M586.79,671.57l-1.35.36.12,3.73,3.37-.48h6.18l2.06,1v10.63l-2.7,1.82-3.73.36h-9.83l-3.13-4,6-4.32,2.66,3.45h2.34l1.19-.44v-3.81l-1.15-.24h-5.43l-3.45,1.11-1.51-4.88v-8l2.7-.63,4.24-.36h5.43l5.51.55.79,5.95-5.91.2-.4-1.9Z"/><path class="cls-2" d="M610.5,676.6l1.11-7.57,5.15-2.74h7.69l5.71.52,1.9,5.83v9.16l-1.23,4.84L627,689.45h-9l-6-2-1.47-6.82Zm8.68,6.9h3.41l1.86-.4v-9.28l-1.07-1.9h-3.17l-2.1.55v9.12Z"/><path class="cls-2" d="M644.49,666.77h5.79V672H645v17h-7.14V672h-4l-.4-5.23h4.44v-5.55l2.3-4h6.26l3.81.79-1.19,5.63-2.77-.79h-3.65Z"/><path class="cls-2" d="M695.23,670.26v13.8l-.32,4.92-7.41.16.59-4.6V673.71l-.52-.83-1-.83-2.77,0-1.31.59v11.38l-.32,4.92-7.41.16.59-4.6V673.71l-.52-.83-1-.83-2.77,0-1.31.59V689h-7.14V672.68l-1.59-5.91h7.69l.4,1.39,3.41-1.39h5.47l3.09.79.36.71,3.77-1.51h5.47l3.09.79Z"/><path class="cls-2" d="M711.15,672l-1.07-.2h-3.81l-1.67.48.28,11.5,1,.12,5.23-.28,6.5-1.07v5.59l-4.32,1.27h-9.4l-5.47-.67-.71-7.65v-4.72l1.11-6,1.07-4.12h11.22l3.17.52,3.49,1.23v9.24l-.36,2.46-6.15.4h-3.49l-.55-1.11v-4.36l1.66.24h2.22Z"/><path class="cls-2" d="M742.24,670.26v13.8l-.32,4.92-7.41.16.59-4.6V673.71l-.52-.83-1-.83-2.77,0-2.26,1V689h-7.14V672.68l-1.59-5.91h7.69l.48,1.71,4.28-1.71h5.47l3.09.79Z"/><path class="cls-2" d="M60.9,760.73l2.22-21.2,10-7.66H96.43l8.88,1.44,5.33,8.66v25l-1.11,19-7.66,9.88H75.67l-12.43-9.66L60.9,771.39ZM77.33,787.6H96.54L101,782v-37l-3-5.33H73.11l-2.33,1.55v38.63Z"/><path class="cls-2" d="M148.32,732.53h23.87v7.77H148.66v54.4h-9.33V740.3H128l-1.11-7.77h12.43V714.32l2.89-8.44h19.32l10.66,2.22-3.33,8-10.44-2.22H146.22Z"/><path class="cls-2" d="M260.23,742.41v38.52l-.89,13.77-10,.44L251,782.27V747.07L249.57,743,246,740.75H233.58l-11.43,4.55v49.4h-9.33V722.43l-2.66-16.54h13.1L222.15,716v23.2l15.54-6.55h12.77l7.77,3.11Z"/><path class="cls-2" d="M288.93,718.54h-7.55l-4.66-4.66v-8h12.21Zm-7.55,76.16V743.41l-2.66-10.88h12V794.7Z"/><path class="cls-2" d="M322.57,738.64l-2.89,1,.33,20.09,5.66-1h20.87l5.77,4.55v20l-4,7.77-8.66,3.66h-22.2l-9.66-11.32,7.88-5,7.44,8.77h16.32l3.33-4.77V768.17l-3.22-2.44H320.79l-6.11,1.33-4.22-9.21V737.3l4-3.22,5.66-2.78h23.2l6.55,1.89,2.22,6.66-6.77,2.33-2-3.55Z"/><path class="cls-2" d="M414,786l11.32,1.66h6.44l8.77-2,5.11-9.77V744.19L438.36,739l-12.88.22.22-7.33L433,730.2l12.32,1.22,9.33,6.66.78,9.44v27.42L447,791.26l-13,4.55h-7.88l-21.43-3.44V722.43l-2.66-16.54h10.88L414,716Z"/><path class="cls-2" d="M511.23,732.53l.22,18.43-7,1.89-1.89-12.54H484.15v54.4h-9.33V749.07l-1.33-16.54Z"/><path class="cls-2" d="M575.43,794.7H565.22l-5.77-13.1v-15H534.36l.11,18.32,3.44,2.11h2.55l7.77-.33.67,4.22-2.11,3.77h-15.1l-4.44-1.89L525.47,787V773.83l1-13.66,9.21-1h23.76V744.63L558,742.3l-2.66-2.22-19.32.11-8.66,1.44v-7.22l6.55-2.11h27.75l3.33,2.22,3.77,7.44V778.6Z"/><path class="cls-2" d="M600.6,718.54H593l-4.66-4.66v-8H600.6ZM593,794.7V743.41l-2.66-10.88h12V794.7Z"/><path class="cls-2" d="M671.23,742.3v38.63l-.89,13.77-10.1.44,1.66-12.88V746.63l-1.44-4.11-3.55-2.22H644.69L633,744.85V794.7h-9.33V749.07l-4.44-16.54h10.88L632,739.3l16.76-6.77h12.66l7.77,3.11Z"/><path class="cls-2" d="M703.31,738.64l-2.89,1,.33,20.09,5.66-1h20.87l5.77,4.55v20l-4,7.77-8.66,3.66H698.2l-9.66-11.32,7.88-5,7.44,8.77h16.32l3.33-4.77V768.17l-3.22-2.44H701.53l-6.11,1.33-4.22-9.21V737.3l4-3.22,5.66-2.78h23.2l6.55,1.89,2.22,6.66-6.77,2.33-2-3.55Z"/><path class="cls-2" d="M93.58,874H85l-3.48-7.9v-8.17l-13.46-.07.07,8.84,1.88.87h1.74L76,867.3l.8,4.22L75.1,874H66l-4.09-1.14L61,868.57v-7.17l1-8.84L68.4,852H81.53V845.2l-.87-1.41L79,842.46l-10.85.07-5.22.87V837.5l3.88-1.27H84.07l3.21,1.34,2.28,4.49v22.23Z"/><path class="cls-2" d="M109.58,820.42l-.67,6.09V874h-8V830.4l-2-10Z"/><path class="cls-2" d="M127.63,820.42l-.67,6.09V874h-8V830.4l-2-10Z"/><path class="cls-2" d="M153.81,853.3l1.54-12.79,7-4.62H176l7,.87,3.21,7V859l-1.14,10.18-5.36,5.56h-15.6l-8.44-5-1.88-9.84Zm11.72,14.53h9.37l2.88-2.34V845.67L176,842.46H164.59l-2.21.94v20.36Z"/><path class="cls-2" d="M208.28,836.5H220.8v6.23H208.62V874h-8V842.72h-6.83l-.67-6.23h7.5V826.12l2.55-5.69h11.25l6.43,1.34-2,6.56L213.1,827h-6.9Z"/><path class="cls-2" d="M267.34,872.46,256.49,874h-7.1l-2.75-2.34L246,866.9l-.07-24.17h-7l-.67-6.23h7.63v-9.37h8.24L254,836.5h13.12v6.23H253.95l-.13,24.58h5.36l6.09-1.07h1.87Z"/><path class="cls-2" d="M305.69,842.12v23.57l-.54,8.3-8.44.27,1-7.77v-20l-.87-2.08L294.91,843l-6.7.07-5.49,2.34V874h-8V830.4l-2-10H283.4l-.67,6.09v13.26l8-3.55h8.5l4.89,1.67Z"/><path class="cls-2" d="M336.35,844.06l-1.81-1.47H326l-4,1.34.6,21.7L325,867.9l8.3-.2,11-1.74v6l-6,2.48H322.15l-7-3.82-.87-10.25v-7.17l1.21-11.85,4.62-5.22h14.26L340,837l3.88,2.41v11.79l-.27,7.5-9,.67h-5.22l-.94-2v-4.55l2.21.34h5.69Z"/><path class="cls-2" d="M423.8,842.39v23.3l-.54,8.3-8.5.13,1-7.63V846.21l-.87-2.08L413,842.72l-6.36.07-4.22,1.81v21.09l-.54,8.3-8.5.13,1-7.63V846.21l-.87-2.08-1.94-1.41-6.36.07-4.22,1.81V874h-8V846.47l-2.68-10h9l.87,3,7.57-3h8.24l4.89,1.67.54,1.47,7.77-3.15h8.24l4.89,1.67Z"/><path class="cls-2" d="M454.34,844.06l-1.81-1.47H444l-4,1.34.6,21.7L443,867.9l8.3-.2,11-1.74v6l-6,2.48H440.15l-7-3.82-.87-10.25v-7.17l1.21-11.85,4.62-5.22h14.26L458,837l3.88,2.41v11.79l-.27,7.5-9,.67h-5.22l-.94-2v-4.55l2.21.34h5.69Z"/><path class="cls-2" d="M480.14,820.42l-.67,6.09V874h-8V830.4l-2-10Z"/><path class="cls-2" d="M520,874H511.4l-3.48-7.9v-8.17l-13.46-.07.07,8.84,1.87.87h1.74l4.22-.27.8,4.22L501.49,874h-9.11l-4.08-1.14-.87-4.29v-7.17l1-8.84,6.36-.54h13.13V845.2L507,843.8l-1.61-1.34-10.85.07-5.22.87V837.5l3.88-1.27h17.21l3.21,1.34,2.28,4.49v22.23Z"/><path class="cls-2" d="M558.49,842.39v23.3L558,874l-8.5.27,1-7.77V846.21l-.87-2.08-1.94-1.41-6.36.07-5.83,2.48V874h-8V846.47l-2.68-10h9l1,3.62,9-3.62H552l4.89,1.67Z"/><path class="cls-2" d="M586.66,842.72h-7.9l-4.15,1.81.27,20.49,2.75,2,7.23.07,10.11-2,.33,6.36L587.8,874h-17l-2.95-4.75L567,859.6V853.3l1.34-12.19,5.83-5.22H586l7.3.67,1.67,9.37-7,1Z"/><path class="cls-2" d="M634.23,842.12v23.57l-.54,8.3-8.44.27,1-7.77v-20l-.87-2.08L623.45,843l-6.7.07-5.49,2.34V874h-8V830.4l-2-10h10.71l-.67,6.09v13.26l8-3.55h8.5l4.89,1.67Z"/><path class="cls-2" d="M642.64,853.3l1.54-12.79,7-4.62h13.66l7,.87,3.21,7V859l-1.14,10.18-5.36,5.56H653l-8.44-5-1.87-9.84Zm11.72,14.53h9.37l2.88-2.34V845.67l-1.81-3.21H653.42l-2.21.94v20.36Z"/><path class="cls-2" d="M692.69,820.42l-.67,6.09V874h-8V830.4l-2-10Z"/><path class="cls-2" d="M708.41,836.5,716,866.83h6.09L726,843.46v-7h10.51l-.94,7.37-10.58,37.7-.67,5.83H713.7l2.08-4,3.55-9.37h-9.78L699,836.5Z"/><path class="cls-2" d="M80.17,922.07H72l-3.11,1.14.53,17.73,3,.45,9.4.15,10.46-2.27L93,950.79l-11.52,2.5h-22l-2-5.38-1-11.67V929.8l2.2-12,2-7H79.42l11.29.76L93,928.21l-11.29,1.14Z"/><path class="cls-2" d="M111.9,892.67l-.76,6.9v53.72H97.5V904l-3-11.29Z"/><path class="cls-2" d="M115,929.65l2.12-14.47,9.85-5.23h14.7l10.91,1,3.64,11.14v17.5l-2.35,9.24-7.27,5.38H129.31l-11.52-3.79-2.8-13Zm16.59,13.18h6.52l3.56-.76V924.35l-2-3.64h-6.06l-4,1.06V939.2Z"/><path class="cls-2" d="M161,920.25l.68-9.4H175.9l-1.21,8.49v22.58h12.43V910.86h13.64V942l.91,11.29H161Z"/><path class="cls-2" d="M229.13,945.33l-1.29,8.11-5.83.46h-7.5L207,951l-1.44-9.4V922.53l3-5.61L219,910.33h9.77l4.92.53v-7l-3-11.21h18.18l-1.52,6.9v43.79l3.79,9.93H237.39l-3.71-10.91V922.45l-3.94-.68-4.85.08-4.39.76-.91,7.27v10.38l1.36,2.27h6.14l2-.3Z"/><path class="cls-2" d="M270,920l-2.58.68.23,7.12,6.44-.91h11.82l3.94,1.89v20.31l-5.15,3.48-7.12.68H258.78l-6-7.73,11.44-8.26,5.08,6.59h4.47l2.27-.83v-7.27l-2.2-.46H263.48l-6.59,2.12L254,928.13V912.75l5.15-1.21,8.11-.68h10.38l10.53,1.06,1.51,11.37-11.29.38-.76-3.64Z"/><path class="cls-2" d="M327.89,910.86l5.83,30.31H338l4.47-12.81-3.86-17.5h14.09l5.91,30.31H363l1.29-14.4-.3-9.55-.91-6.36h16.52l-.91,17.2-9.77,22.12L365,953.29H348l-2.2-10.08h-2.42l-4.09,10.08H322.58l-8.79-42.43Z"/><path class="cls-2" d="M408.23,920.94l-2-.38h-7.27l-3.18.91.53,22,2,.23,10-.53,12.43-2v10.68l-8.26,2.42h-18L384,952.91l-1.36-14.62v-9l2.12-11.44,2-7.88h21.44l6.06,1,6.67,2.35v17.65l-.68,4.7-11.74.76h-6.67l-1.06-2.12v-8.33l3.18.46h4.24Z"/><path class="cls-2" d="M457.62,910.86l.15,15-10.84,1.29-1.29-6.29h-5.3v32.43H426.7V922.15l-.91-11.29Z"/><path class="cls-2" d="M486.47,920.94l-2-.38h-7.27l-3.18.91.53,22,2,.23,10-.53,12.43-2v10.68l-8.26,2.42h-18l-10.46-1.29-1.36-14.62v-9L463,917.83l2-7.88h21.44l6.06,1,6.67,2.35v17.65l-.68,4.7-11.74.76h-6.67L479,934.27v-8.33l3.18.46h4.24Z"/><path class="cls-2" d="M588.15,917.53v26.37l-.61,9.4-14.17.3,1.14-8.79V924.12l-1-1.59-1.82-1.59-5.3.08-2.5,1.14v21.75l-.61,9.4-14.17.3,1.14-8.79V924.12l-1-1.59-1.82-1.59-5.3.08-2.5,1.14v31.14H526V922.15l-3-11.29h14.7l.76,2.65,6.52-2.65h10.46l5.91,1.52.68,1.36,7.2-2.88h10.46l5.91,1.52Z"/><path class="cls-2" d="M633,953.29H618.77l-3.94-8.94V936.7l-12.12-.15.08,5.91,1.74.15h2.35l3.94-.45,1.67,8-2.65,3.18h-10.3L592.25,952l-.61-6.36V939l1.89-11.14,8.71-.45h12.58v-4.09l-1-1.59L612,920.25l-10.76.08-5.91,1v-9.62l4.32-1.44H620l5.91,1.52,2.58,5.08V942.3Z"/><path class="cls-2" d="M658.38,945.33l-1.29,8.11-5.83.46h-7.5l-7.5-2.88-1.44-9.4V922.53l3-5.61,10.46-6.59H658l4.92.53v-7l-3-11.21h18.18l-1.52,6.9v43.79l3.79,9.93H666.64l-3.71-10.91V922.45l-3.94-.68-4.85.08-4.39.76-.91,7.27v10.38l1.36,2.27h6.14l2-.3Z"/><path class="cls-2" d="M708.43,920.94l-2-.38h-7.27l-3.18.91.53,22,2,.23,10-.53,12.43-2v10.68l-8.26,2.42h-18l-10.46-1.29-1.36-14.62v-9l2.12-11.44,2-7.88h21.44l6.06,1,6.67,2.35v17.65l-.68,4.7-11.74.76h-6.67L701,934.27v-8.33l3.18.46h4.24Z"/><path class="cls-2" d="M739.74,938.44v14.85H724.89V938.44Z"/><g id="_Group_3" data-name="&lt;Group&gt;"><path class="cls-2" d="M83.43,1145.25h-4l-2.27-5.16v-5.9H67.26l0,7.21,1.35.83h1l3.06-.13.26,1.66-.83,1.49H66.21l-1.75-.74-.7-2.27V1137l.39-5.38,3.63-.39h9.35v-5.73l-.57-.92-1-.87-7.61,0-3.41.57v-2.84l2.58-.83H78l1.31.87,1.49,2.93v14.43Z"/><path class="cls-2" d="M109.31,1141.31l3.19,3.93h-5l-2.58-3.67-4.72-7.08H94.36v10.75H90.69v-28.46l-1-6.51H94.8l-.44,4v17.22h5.42L106,1123l1.22-2.19h5.25l-2.58,3.06-6.6,8.74Z"/><path class="cls-2" d="M134.62,1144.11l-7.34,1.14H123l-1.4-1.4-.44-1.92,0-18.1h-4.94l-.44-3.06h5.33v-6.12h3.85l0,6.12h9.62v3.06h-9.62l-.13,18.27H129l4.24-1h1.22Z"/><path class="cls-2" d="M145.46,1115.26h-3l-1.84-1.84v-3.15h4.81Zm-3,30V1125l-1-4.28h4.72v24.48Z"/><path class="cls-2" d="M174.79,1127.5l-4.42,16.22-2.49,1.53H159.4l-4.59-16.35-2.49-8.13h4.24l1.92,7.21,3.76,14h5.25l3.37-14.38,1.71-6.82h4.24Z"/><path class="cls-2" d="M182.44,1131.87l.87-8.35,3.93-3h9.18l3.5.57,2.1,3.41v9.84l-.44,7.48-3,3.89H188.25l-4.9-3.8-.92-5.81Zm6.47,10.58h7.56l1.75-2.19v-14.56l-1.18-2.1h-9.79l-.92.61v15.21Z"/><path class="cls-2" d="M230.56,1122.51l1.62-2,5.25-.13,2.93,1.36,1.53,4.63.17,9.66-.7,4.81-2.4,3.67-4.63,1.31h-3.54l-4-.31V1150l1,4h-5.16l.44-4v-23.52l-2.19-5.73h3.72l2.14,6.3v15.17l4,.44h5l1.84-.79.57-7v-5.38l-.61-5.9h-4l-3,.26Z"/><path class="cls-2" d="M250.23,1131.87l.87-8.35,3.93-3h9.18l3.5.57,2.1,3.41v9.84l-.44,7.48-3,3.89H256l-4.9-3.8-.92-5.81Zm6.47,10.58h7.56l1.75-2.19v-14.56l-1.18-2.1H255l-.92.61v15.21Z"/><path class="cls-2" d="M283.28,1123.17l-1.14.39.13,7.91,2.23-.39h8.22l2.27,1.79v7.87l-1.57,3.06-3.41,1.44h-8.74l-3.8-4.46,3.1-2,2.93,3.45h6.43l1.31-1.88v-5.6l-1.27-1h-7.39l-2.4.52-1.66-3.63v-8.09l1.57-1.27,2.23-1.09h9.14l2.58.74.87,2.62-2.67.92-.79-1.4Z"/><path class="cls-2" d="M319.47,1144.11l-7.34,1.14h-4.28l-1.4-1.4-.44-1.92,0-18.1H301l-.44-3.06h5.33v-6.12h3.85l0,6.12h9.62v3.06h-9.62l-.13,18.27h4.28l4.24-1h1.22Z"/><path class="cls-2" d="M339.71,1125.18l-1.18-1.4h-6.43l-3.06,1.09.44,15,1.84,2.32,5.25,0,7.17-1.09v2.54l-3.5,1.71H329.61l-3.67-3.5-.44-5.68v-4.33l.52-8.44,4.07-2.71h7.52l3.85.57,1.75,1.71v6.16l-.09,6.25-5.33.44h-3.15l-.61-1.36v-1.88l1.18.22h4.5Z"/><path class="cls-2" d="M367.51,1120.76l.09,7.26-2.75.74-.74-4.94h-7.26v21.42h-3.67v-18l-.52-6.51Z"/></g></svg>