<svg xmlns="http://www.w3.org/2000/svg" viewBox="0 0 720 860"><title>mage_full</title><g id="Layer_2" data-name="Layer 2"><path d="M51.59,11V23.13H71.72v6H51.59V41.25H71.72v6H51.59V59.38H71.72v6H44.9V47.29H31.42V65.42H4.61v-6H24.74V47.29H4.61v-6H24.74V29.17H4.61v-6H24.74V11H4.61V5h67.1v6ZM44.9,11H31.42V41.25H44.9ZM152.17,65.42h-47V29.17H85.07v-6H105.2V11H85.07V5h67.1ZM85.07,41.25h6.68V65.42H85.07ZM145.49,11H111.88V23.13h33.61Zm0,18.13H111.88V59.38h33.61ZM118.57,47.29v-6h20.24v6ZM165.53,5h6.68V65.42h-6.68Zm67.1,6H192.34V59.38h40.29v6h-47V5h47Zm0,36.25H205.82V23.09l26.81,0ZM212.51,29.13V41.25h13.44V29.17ZM313.09,65.42h-47V29.17H246v-6h20.13V11H246V5h67.1ZM246,41.25h6.68V65.42H246ZM306.41,11H272.8V59.38h33.61ZM286.28,47.29V23.09H293V47.29ZM393.55,5v6h-67.1V5Zm-67.1,18.13h67.1v6H353.26V41.25h40.29v6H353.26V59.38h40.29v6h-47V29.17H326.45Zm0,18.13h6.68V65.42h-6.68ZM474,5v6h-67.1V5Zm-67.1,18.13H474v6H433.72V65.42H427V29.17H406.91Zm0,18.13h6.68V65.42h-6.68Zm47,0H474V65.42H447.2V41.21h6.68Zm0,6V59.38h13.44V47.29Zm61.58-18.13V41.25h20.13v6H508.78V23.09h6.68v0h39V65.42h-67.1V5h67.1v6H494.05V59.38h53.74V29.17ZM614.8,11V23.13h20.13v6h-67.1v-6H588V11H567.83V5h26.81V23.13h13.48V5h26.81v6Zm-47,30.21h67.1v6H614.8V59.38h20.13v6H608.12V47.29H594.64V65.42H567.83v-6H588V47.29H567.83ZM675.1,65.42H648.28v-6h20.13V11H648.28V5H675.1Zm-18-42.29V47.29H650.4V23.13ZM715.39,11H695.26V59.38h20.13v6H688.58V5h26.81Zm-8.8,36.25V23.13h6.68V47.29Z"/><path d="M71.72,94.91v6H51.59V137.2h-47V94.91H24.74v0h6.68v24.21H24.74V100.95H11.3v30.21H44.9V82.82H4.61v-6H70.47v6H51.59V94.91ZM65,113.41h6.68V137.2H65Zm67,17.75h13.44V96.42h6.68V137.2H125.36V100.95H111.88V137.2H105.2V100.95H85.07v-6H105.2V82.82H85.07v-6h26.81V94.91h13.48V76.78h26.81v6H132ZM85.07,113h6.68V137.2H85.07Zm140.88,2.27h6.68v21.9h-47V100.95H165.53v-6h20.13V82.82H165.53v-6h26.81v54.38h13.48V114.54h6.68v16.62h13.44ZM165.53,113h6.68V137.2h-6.68Zm67.1-12.08H205.82V76.74h6.68v0h20.13Zm-6.68-18.13H212.51V94.91h13.44Zm87.14,54.38h-6.68V82.82H293V137.2H266.12V82.82l-13.44,0V137.2H246V76.82l20.13,0h6.68v54.38h13.48V76.78h26.81Zm80.46-60.42V137.2H366.7v-6l0-48.34H353.26V137.2h-6.68V100.95H326.45v-6h20.13V82.82H326.45v-6h47v6l0,48.34h13.48V76.78ZM326.45,113h6.68V137.2h-6.68ZM474,137.2h-67.1V76.78H474Zm-6.68-54.38H413.59v48.34h53.74Zm-40.25,12h6.68v0h20.13v24.17H427.07ZM433.76,113H447.2V100.95H433.76Zm120.71,6-40.29,0V137.2h-6.68V100.95H487.37v-6h20.13V82.82H487.37v-6h67.1Zm-67.1-6h6.68V137.2h-6.68Zm60.42-30.21H514.18V113l33.61,0Zm-26.92,18.13v-6H541.1v6Zm6.8,30.17,26.81,0v6l-26.81,0Zm107.27-12h-67.1V76.78h67.1Zm-67.1,12.08h67.1v6h-67.1Zm60.42-48.34H574.51V113h53.74Zm-39.65,18.13v-6h25.57v6Zm126.79,0H695.26v30.21H708.7V113h6.68V137.2H688.58V100.95H675.1V137.2h-6.68V100.95H648.28v-6h20.13V82.82H648.28v-6h67.1ZM648.28,113H655V137.2h-6.68ZM708.7,82.82H675.1V94.91H708.7Z"/><path d="M71.72,154.6H11.3v30.21H51.59v6h-47V148.56h67.1Zm0,12.08V209H4.61v-6H65V172.73H24.74v-6Zm80.46-18.13v6H85.07v-6Zm0,18.13v24.17h-6.68V172.73H132v30.21h20.13v6H85.07v-6H105.2V172.73H91.76v18.13H85.07V166.69Zm-26.81,6H111.88v30.21h13.48Zm107.27-24.17V209h-6.68V172.73H212.51V209H185.66V172.73H165.53v-6h20.13V154.6H165.53v-6h26.81v54.38h13.48V166.69h20.13V154.6H205.78v-6Zm-67.1,36.25h6.68V209h-6.68ZM313.09,154.6H293v48.34h20.13v6H246v-6h20.13V154.6H246v-6H272.8v54.38h13.48V148.56h26.81Zm-58.3,12.08v24.17H248.1V166.69Zm49.51,24.17V166.69H311v24.17Zm89.26-42.29V209H366.74V172.73H353.26V209h-6.68v0H326.45V148.56h6.68V202.9h13.44V148.56h6.68v18.13h13.48V148.56h6.68v54.38h13.44V148.56ZM474,169h-6.68V154.6H453.88v21.15H474v6H453.88v21.15h13.44V188.59H474V209H447.2V181.79H433.72V209H406.91V188.59h6.68v14.35H427V181.79H406.91v-6H427V154.6H413.59V169h-6.68V148.56h26.81v27.19H447.2V148.56H474Zm80.46,21.9H534.34v12.08h20.13v6h-67.1v-6h20.13V190.85H487.37V148.56h26.81v24.17h-6.68V154.6H494.05v30.21h20.13v18.13h13.48V184.81h20.13V154.6H534.34v18.13h-6.68V148.56h26.81Zm80.46-18.13H567.86v-6h60.38V154.6H567.83v-6h67.1Zm0,12.08v6H574.51v12.08h60.42v6h-67.1V184.81ZM675.1,154.6v12.08h40.29v24.17H675.1v12.08h40.29v6h-67.1v-6h20.13V154.6H648.28v-6h67.1v6ZM655,190.85h-6.68V166.69H655Zm20.13-18.13v12.08H708.7V172.73Z"/><path d="M52,227.52v10.57H71.72v7.17H52v10.57H71.72V263H52v10.57H71.72v7.17H44.07V263H32.25v17.75H4.61v-7.17H24.32V263H4.61v-7.17H24.32V245.26H4.61v-7.17H24.32V227.52H4.61v-7.17h67.1v7.17Zm-7.93,0H32.25v28.32H44.07Zm108.1,53.24H104.78v-35.5H85.07v-7.17h19.71V227.52H85.07v-7.17h67.1Zm-67.1-24.92H93v24.92H85.07Zm59.17-28.32H112.71v10.57h31.53Zm0,17.75H112.71v28.32h31.53ZM119,263v-7.17h19V263Zm46.51-42.67h7.93v60.42h-7.93Zm67.1,7.17H193.17v46.07h39.46v7.17H185.24V220.34h47.39Zm0,35.5H205v-25l27.64,0Zm-19.71-17.79v10.61H224.7V245.26Zm100.17,35.53H265.7v-35.5H246v-7.17H265.7V227.52H246v-7.17h67.1ZM246,255.84h7.93v24.92H246Zm59.17-28.32H273.63v46.07h31.53ZM285.45,263v-25h7.93v25Zm108.1-42.67v7.17h-67.1v-7.17Zm-67.1,17.75h67.1v7.17H354.09v10.57h39.46V263H354.09v10.57h39.46v7.17H346.16v-35.5H326.45Zm0,17.75h7.93v24.92h-7.93ZM474,220.34v7.17h-67.1v-7.17Zm-67.1,17.75H474v7.17H434.55v35.5h-7.93v-35.5H406.91Zm0,17.75h7.93v24.92h-7.93Zm67.1,0v24.92H446.37V255.84ZM466.08,263H454.3v10.57h11.78Zm50-17.75v10.57h19.71V263H508.14V238.09h46.33v42.67h-67.1V220.34h67.1v7.17H495.3v46.07h51.24V245.26Zm99.15-17.75v10.57h19.71v7.17h-67.1v-7.17h19.71V227.52H567.83v-7.17h27.64v17.75h11.82V220.34h27.64v7.17Zm-47.39,28.32h67.1V263H615.22v10.57h19.71v7.17H607.29V263H595.47v17.75H567.83v-7.17h19.71V263H567.83Zm108.1,24.92H648.28v-7.17H668V227.52H648.28v-7.17h27.64Zm-18-42.67V263H650V238.09Zm57.44-10.57H695.68v46.07h19.71v7.17H687.75V220.34h27.64ZM705.72,263V238.09h8V263Z"/><path d="M71.72,309.87V317H52v31.83h-.42v3.66h-47V309.87H24.32v0h7.93v25H24.32V317H12.54v28.32H44.07V299.3H4.61v-7.17H70.7v7.17H52v10.57Zm-7.93,18.05h7.93v24.62H63.79Zm68.68,17.45h11.78V311.08h7.93v41.46H124.53V317H112.71v35.5h-7.93V317H85.07v-7.17h19.71V299.3H85.07v-7.17h27.64v17.75h11.82V292.12h27.64v7.17H132.46ZM85.07,327.62H93v24.92H85.07Zm139.63,1.81h7.93v23.11H185.24V317H165.53v-7.17h19.71V299.3H165.53v-7.17h27.64v53.24H205V328.83h7.93v16.54H224.7Zm-59.17-1.81h7.93v24.92h-7.93Zm67.1-35.5V317H205v-25h7.93v0Zm-7.93,7.17H212.92v10.57H224.7Zm88.39,53.24h-7.93V299.3H293.38v53.24H265.7V299.3l-11.78,0v53.21H246V292.16l19.71,0h7.93v53.24h11.82V292.12h27.64Zm80.46-60.42v60.42H365.87l0-53.24H354.09v53.24h-7.93V317H326.45v-7.17h19.71V299.3H326.45v-7.17h47.39l0,53.24h11.82V292.12Zm-67.1,35.5h7.93v24.92h-7.93ZM474,352.54h-67.1V292.12H474Zm-7.93-53.24H414.84v46.07h51.24Zm-39.42,10.54h7.93v0H454.3v24.92H426.66Zm7.93,7.21v10.57h11.78V317Zm119.88,17.75-39.46,0v17.79h-7.93V317H487.37v-7.17h19.71V299.3H487.37v-7.17h67.1Zm-67.1-7.17h7.93v24.92h-7.93Zm59.17-28.32H515v28.28l31.53,0ZM521.31,317v-7.17h19V317Zm5.51,28.28,27.64,0v7.17l-27.64,0Zm108.1-10.54h-67.1V292.12h67.1Zm-67.1,10.57h67.1v7.17h-67.1ZM627,299.3H575.76v28.32H627ZM588.07,317v-7.17h26.62V317Zm127.32,0H695.68v28.32h11.78V327.62h7.93v24.92H687.75V317H675.93v35.5H668V317H648.28v-7.17H668V299.3H648.28v-7.17h67.1Zm-67.1,10.57h7.93v24.92h-7.93Zm59.17-28.32H675.93v10.57h31.53Z"/><path d="M71.72,371.08H12.54V399.4H52v7.17H4.61V363.9h67.1ZM24.32,381.65H71.72v42.67H4.61v-7.17H63.79V388.82H24.32ZM152.17,363.9v7.17H85.07V363.9Zm0,17.75v24.92h-7.93V388.82H132.46v28.32h19.71v7.17H85.07v-7.17h19.71V388.82H93v17.75H85.07V381.65Zm-27.64,7.17H112.71v28.32h11.82Zm108.1-24.92v60.42H224.7v-35.5H212.92v35.5H185.24v-35.5H165.53v-7.17h19.71V371.08H165.53V363.9h27.64v53.24H205v-35.5H224.7V371.08H205V363.9Zm-67.1,35.5h7.93v24.92h-7.93Zm147.56-28.32H293.38v46.07h19.71v7.17H246v-7.17H265.7V371.08H246V363.9h27.64v53.24h11.82V363.9h27.64Zm-57.44,10.57v24.92h-7.93V381.65Zm47.77,24.92V381.65h8v24.92Zm90.13-42.67v60.42H365.91v-35.5H354.09v35.5h-7.93v0H326.45V363.9h7.93v53.21h11.78V363.9h7.93v17.75h11.82V363.9h7.93v53.24h11.78V363.9ZM474,384.25h-7.93V371.08H454.3v19.45H474v7.17H454.3v19.45h11.78V404H474v20.35H446.37V397.7H434.55v26.62H406.91V404h7.93v13.18h11.78V397.7H406.91v-7.17h19.71V371.08H414.84v13.18h-7.93V363.9h27.64v26.62h11.82V363.9H474Zm80.46,22.32H534.76v10.57h19.71v7.17h-67.1v-7.17h19.71V406.57H487.37V363.9h27.45v1.85H515v23.07h-7.93V371.08H495.3V399.4H515v17.75h11.82V399.4h19.71V371.08H534.76v17.75h-7.93V365.75h.23V363.9h27.42Zm80.46-17.75H567.86v-7.17H627V371.08H567.83V363.9h67.1Zm0,10.57v7.17H575.76v10.57h59.17v7.17h-67.1V399.4Zm41-28.32v10.57h39.46v24.92H675.93v10.57h39.46v7.17h-67.1v-7.17H668V371.08H648.28V363.9h67.1v7.17Zm-19.71,35.5h-7.93V381.65h7.93Zm19.71-17.75V399.4h31.53V388.82Z"/><path d="M52.83,445.12v7.55H71.72v9.44H52.83v7.55H71.72v9.44H52.83v7.55H71.72v9.44H42.41v-17H34v17H4.61v-9.44H23.49v-7.55H4.61v-9.44H23.49v-7.55H4.61v-9.44H23.49v-7.55H4.61v-9.44h67.1v9.44Zm-10.42,0H34v24.55h8.46Zm109.76,51H104v-34H85.07v-9.44H104v-7.55H85.07v-9.44h67.1Zm-67.1-26.43H95.53V496.1H85.07Zm56.64-24.55h-27.3v7.55h27.3Zm0,17h-27.3v24.55h27.3Zm-21.83,17v-9.44h16.39v9.44Zm45.64-43.43H176V496.1H165.53Zm67.1,9.44H194.87v41.54h37.76v9.44H184.41V435.68h48.22Zm0,34h-29.3V452.64l29.3,0Zm-18.88-17v7.59h8.42v-7.55Zm99.34,34H264.87v-34H246v-9.44h18.88v-7.55H246v-9.44h67.1ZM246,469.63h10.46V496.1H246Zm56.64-24.51h-27.3v41.54h27.3Zm-18.84,34V452.64h10.42v26.47Zm109.76-43.43v9.44h-67.1v-9.44Zm-67.1,17h67.1v9.44H355.79v7.55h37.76v9.44H355.79v7.55h37.76v9.44H345.33v-34H326.45Zm0,17h10.46V496.1H326.45Zm147.56-34v9.44h-67.1v-9.44Zm-67.1,17H474v9.44H436.25v34H425.79v-34H406.91Zm0,17h10.46V496.1H406.91Zm67.1,0V496.1h-29.3V469.67Zm-10.46,9.44h-8.42v7.55h8.42Zm53.72-17v7.55h18.88v9.44H506.81V452.67h47.66V496.1h-67.1V435.68h67.1v9.44H497.83v41.54H544V462.11Zm98.77-17v7.55h18.88v9.44h-67.1v-9.44h18.88v-7.55H567.83v-9.44h29.34v17h8.46v-17h29.3v9.44Zm-48.22,24.55h67.1v9.44H616v7.55h18.88v9.44h-29.3v-17h-8.46v17H567.83v-9.44h18.88v-7.55H567.83Zm109.8,26.43H648.28v-9.44h18.88V445.12H648.28v-9.44h29.34Zm-18-43.43v26.43H649.23V452.67Zm55.74-7.55H696.51v41.54h18.88v9.44h-29.3V435.68h29.3Zm-11.37,34V452.67h10.46v26.43Z"/><path d="M71.72,524.45v9.44H52.83v32H51.59v2h-47V524.45H23.49v0H34v26.47H23.49v-17H15.07v24.55H42.41V516.9H4.61v-9.44H71.19v9.44H52.83v7.55ZM61.26,541.6H71.72v26.28H61.26Zm72,16.84h8.42V525.1h10.46v42.78h-29.3v-34h-8.46v34H104v-34H85.07v-9.44H104V516.9H85.07v-9.44h29.34v17h8.46v-17h29.3v9.44H133.29Zm-48.22-17H95.53v26.47H85.07Zm137.1,1h10.46v25.49H184.41v-34H165.53v-9.44h18.88V516.9H165.53v-9.44h29.34v51h8.46V542.09h10.42v16.35h8.42Zm-56.64-1H176v26.47H165.53Zm67.1-7.51h-29.3V507.46h29.3Zm-10.46-17h-8.42v7.55h8.42Zm90.92,51H302.63v-51h-8.42v51H264.87v-51l-8.42,0v50.94H246V507.5l18.88,0h10.46v51h8.46v-51h29.3Zm80.46-60.42v60.42H364.21l0-51h-8.46v51H345.33v-34H326.45v-9.44h18.88V516.9H326.45v-9.44h48.22v51h8.42v-51Zm-67.1,33.95h10.46v26.47H326.45ZM474,567.88h-67.1V507.46H474Zm-10.46-51H417.37v41.54h46.18Zm-37.72,7.51h10.42v0h18.88v26.43h-29.3Zm10.42,9.48v7.55h8.46v-7.55Zm118.22,17-37.76,0v17H506.25v-34H487.37v-9.44h18.88V516.9H487.37v-9.44h67.1Zm-67.1-9.48h10.46v26.47H487.37ZM544,516.9h-27.3v24.51l27.3,0Zm-21.83,17v-9.44h16.39v9.44Zm3,24.51h29.3v9.44h-29.3Zm109.76-7.51h-67.1V507.46h67.1Zm-67.1,7.55h67.1v9.44h-67.1Zm56.64-41.54H578.29v24.55h46.18Zm-37.46,17v-9.44h28.77v9.44Zm128.38,0H696.51v24.55h8.42v-17h10.46v26.47h-29.3v-34h-8.46v34H667.17v-34H648.28v-9.44h18.88V516.9H648.28v-9.44h67.1Zm-67.1,7.51h10.46v26.47H648.28Zm56.64-24.51h-27.3v7.55h27.3Z"/><path d="M52.87,622.67H4.61V579.24h67.1v9.44H15.07v24.55h37.8Zm18.88-17h0v34H4.61v-9.44H61.33V605.67H23.49v-9.44H71.75Zm80.42-26.43v9.44H85.07v-9.44Zm0,17v26.43H141.71v-17h-8.42v24.55h18.88v9.44H85.07v-9.44H104V605.67H95.53v17H85.07V596.23Zm-29.3,9.44h-8.46v24.55h8.46Zm109.76-26.43v60.42H222.17v-34h-8.42v34H184.41v-34H165.53v-9.44h18.88v-7.55H165.53v-9.44h29.34v51h8.46v-34h18.84v-7.55H203.29v-9.44Zm-67.1,33.95H176v26.47H165.53Zm147.56-24.51H294.21v41.54h18.88v9.44H246v-9.44h18.88V588.68H246v-9.44h29.34v51h8.46v-51h29.3Zm-55.74,7.55v26.43H246.93V596.23Zm44.37,26.43V596.23h10.46v26.43Zm91.83-43.43v60.42h-29.3v-34h-8.46v34H345.33v0H326.45V579.24h10.46v50.94h8.42V579.24h10.46v17h8.46v-17h10.42v51h8.42v-51ZM474,599.52H463.55V588.68h-8.42v16H474v9.44H455.13v16h8.42V619.38H474v20.28h-29.3V614.17h-8.46v25.49H406.91V619.38h10.46v10.84h8.42v-16H406.91v-9.44h18.88v-16h-8.42v10.84H406.91V579.24h29.34v25.49h8.46V579.24H474Zm80.46,23.15H535.59v7.55h18.88v9.44h-67.1v-9.44h18.88v-7.55H487.37V579.24h28.7v1h.64v25.49H506.25v-17h-8.42v24.55h18.88v17h8.46v-17H544V588.68h-8.42v17H525.17V580.22h.64v-1h28.66Zm80.46-17H567.86v-9.44h56.61v-7.55H567.83v-9.44h67.1Zm0,7.55v9.44H578.29v7.55h56.64v9.44h-67.1V613.23Zm42.7-24.55v7.55h37.76v26.43H677.63v7.55h37.76v9.44h-67.1v-9.44h18.88V588.68H648.28v-9.44h67.1v9.44Zm-18.88,34H648.28V596.23h10.46Zm18.88-17v7.55h27.3v-7.55Z"/><path d="M53.82,663.1v4h17.9v12.08H53.82v4h17.9v12.08H53.82v4h17.9v12.08H40.45V695.32H35.92v16.12H4.61V699.36H22.55v-4H4.61V683.23H22.55v-4H4.61V667.11H22.55v-4H4.61V651h67.1V663.1Zm-13.37,0H35.92v20.13h4.53Zm111.73,48.34H103V679.19H85.07V667.11H103v-4H85.07V651h67.1Zm-67.1-28.21H98.44v28.21H85.07Zm53.74-20.13H116.38v4h22.43Zm0,16.09H116.38v20.16h22.43Zm-17.9,16.12V683.23h13.37v12.08ZM165.53,651H178.9v60.42H165.53Zm67.1,12.08h-35.8v36.25h35.8v12.08H183.47V651h49.17Zm0,32.21H201.37V667.11h31.27Zm-13.37-16.12h-4.53v4h4.53Zm93.83,32.25H263.93V679.19H246V667.11h17.94v-4H246V651h67.1ZM246,683.19h13.37v28.25H246Zm53.74-20.09H277.29v36.25h22.43Zm-17.9,32.25V667.11h13.37v28.25ZM393.55,651V663.1h-67.1V651Zm-67.1,16.09h67.1v12.08h-35.8v4h35.8v12.08h-35.8v4h35.8v12.08H344.39V679.19H326.45Zm0,16.12h13.37v28.21H326.45ZM474,651V663.1h-67.1V651Zm-67.1,16.09H474v12.08h-35.8v32.25H424.84V679.19H406.91Zm0,16.12h13.37v28.21H406.91Zm67.1,0v28.21H442.74V683.23Zm-13.37,12.08h-4.53v4h4.53Zm58-16.12v4h17.9v12.08H505.3V667.11h49.17v44.33h-67.1V651h67.1V663.1H500.73v36.25H541.1V679.19ZM617,663.1v4h17.9v12.08h-67.1V667.11h17.94v-4H567.83V651h31.3v16.09h4.53V651h31.27V663.1Zm-49.2,20.13h67.1v12.08H617v4h17.9v12.08H603.66V695.32h-4.53v16.12h-31.3V699.36h17.94v-4H567.83Zm111.76,28.21h-31.3V699.36h17.94V663.1H648.28V651h31.3Zm-17.94-16.12H648.28V667.11h13.37Zm53.74-32.21h-17.9v36.25h17.9v12.08H684.12V651h31.27Zm-13.37,4h13.37v28.21H702Z"/><path d="M53.82,734.88v4h17.9V751H53.82v32.25H4.61V738.89h31.3v28.25H22.55V751H18v20.16H40.45V734.88H4.61V722.8h67.1v12.08ZM58.35,755H71.72v28.25H58.35Zm75.93,16.16h4.53V738.89h13.37v44.33H120.91V751h-4.53v32.25H103V751H85.07V738.89H103v-4H85.07V722.8h31.3v16.09h4.53V722.8h31.27v12.08h-17.9ZM85.07,755H98.44v28.25H85.07Zm134.19,0h13.37v28.25H183.47V751H165.53V738.89h17.94v-4H165.53V722.8h31.3v48.34h4.53V755h13.37v16.16h4.53Zm-53.74,0H178.9v28.25H165.53Zm67.1-4H201.37V722.8h31.27Zm-13.37-16.09h-4.53v4h4.53Zm93.83,48.34H299.72V734.88h-4.53v48.34H263.93V734.88l-4.57,0v48.3H246V722.84l17.94,0h13.37v48.34h4.53V722.8h31.27Zm80.46-60.42v60.42H362.28V734.88h-4.53v48.34H344.39V751H326.45V738.89h17.94v-4H326.45V722.8h49.2v48.34h4.53V722.8ZM326.45,755h13.37v28.25H326.45ZM474,783.22h-67.1V722.8H474Zm-13.37-48.34H420.28v36.25h40.37Zm-35.8,4h31.27V767.1H424.84ZM438.21,751v4h4.53v-4ZM554.47,767.1h-35.8v16.12H505.3V751H487.37V738.89H505.3v-4H487.37V722.8h67.1ZM487.37,755h13.37v28.25H487.37Zm53.74-20.09H518.67V755H541.1ZM523.2,751V738.89h13.37V751Zm0,20.13h31.27v12.08H523.2Zm111.73-4h-67.1V722.8h67.1Zm-67.1,4h67.1v12.08h-67.1Zm53.74-36.25H581.19V755h40.37ZM585.76,751V738.93H617V751Zm129.63,0h-17.9v20.16H702V755h13.37v28.25H684.12V751h-4.53v32.25H666.22V751H648.28V738.89h17.94v-4H648.28V722.8h67.1Zm-67.1,4h13.37v28.25H648.28ZM702,734.88H679.59v4H702Z"/><path d="M53.89,838.88H4.61v-44.3h67.1v12.08H18v20.13H53.89Zm17.86-16.12h0V855H4.61V842.92H58.42V822.75H22.51V810.67H71.75Zm80.42-28.17v12.08H85.07V794.58Zm0,16.09v28.25H138.81V822.75h-4.53v20.16h17.9V855H85.07V842.92H103V822.75H98.44v16.16H85.07V810.67Zm-31.27,12.08h-4.53v20.16h4.53ZM232.63,855H219.27V822.75h-4.53V855H183.47V822.75H165.53V810.67h17.94v-4H165.53V794.58h31.3v48.34h4.53V810.67h17.9v-4h-17.9V794.58h31.27Zm-67.1-28.25H178.9V855H165.53Zm147.56-20.09h-17.9v36.25h17.9V855H246V842.92h17.94V806.66H246V794.58h31.3v48.34h4.53V794.58h31.27Zm-53.74,32.25H246V810.67h13.37Zm40.37-28.25h13.37v28.25H299.72Zm93.83-16.09V855H362.28V822.75h-4.53V855H344.39v0H326.45V794.58h13.37v48.3h4.57v-48.3h13.37v16.09h4.53V794.58h13.37v48.34h4.53V794.58ZM474,814.75H460.64v-8.08h-4.53v12.08H474v12.08h-17.9v12.08h4.53v-8.08H474V855H442.74V830.83h-4.53V855h-31.3V834.84h13.37v8.08h4.57V830.83H406.91V818.75h17.94V806.66h-4.57v8.08H406.91V794.58h31.3v24.17h4.53V794.58H474Zm80.46,24.17h-17.9v4h17.9V855h-67.1V842.92H505.3v-4H487.37V794.58h31.3v28.25H505.3V806.66h-4.57v20.16h17.94v16.09h4.53V826.83h17.9V806.66h-4.53v16.16H523.2V794.58h31.27Zm80.46-16.12H567.86V810.71h53.7v-4H567.83V794.58h67.1Zm0,4v12.08H581.19v4h53.74V855h-67.1V826.79Zm44.66-20.13v4h35.8v28.21h-35.8v4h35.8V855h-67.1V842.92h17.94V806.66H648.28V794.58h67.1v12.08Zm-17.94,32.25H648.28V810.71h13.37Zm17.94-16.12v4H702v-4Z"/></g></svg>