<?xml version="1.0" encoding="utf-8"?>
<!-- Generator: Adobe Illustrator 19.2.1, SVG Export Plug-In . SVG Version: 6.00 Build 0)  -->
<!DOCTYPE svg PUBLIC "-//W3C//DTD SVG 1.1//EN" "http://www.w3.org/Graphics/SVG/1.1/DTD/svg11.dtd">
<svg version="1.1" id="Layer_1" xmlns="http://www.w3.org/2000/svg" xmlns:xlink="http://www.w3.org/1999/xlink" x="0px" y="0px"
	 viewBox="0 0 600 240" style="enable-background:new 0 0 600 240;" xml:space="preserve">
<style type="text/css">
	.st0{fill:#FFFFFF;}
	.st1{fill:#231F20;}
	.st2{fill:#896F42;}
	.st3{fill:#9F9F9F;}
	.st4{fill:#A03800;}
	.st5{fill:#0889A0;}
</style>
<title>heldin-assets</title>
<rect x="-0.7" y="1.9" class="st0" width="600" height="240"/>
<path class="st1" d="M356.2,170.6l0.7,3.5c-3.1,3.5-6.1,6.5-8.5,6.5c-1.7,0-2.7-1.4-2.5-5.6l0.5-8.7h-0.1
	c-3.5,8.1-7.3,14.4-10.5,14.4s-4.8-6.5-4.8-12.5c0-10.4,4.5-15.6,9.5-15.6c2.2,0.1,4.3,0.7,6.1,1.9l0.1-3.2h4.2l-0.8,23.6
	c0,0.8,0.2,1.2,0.6,1.2C351.5,176.2,353.3,174.2,356.2,170.6L356.2,170.6L356.2,170.6z M346.2,157.9c-2.4-1.3-4.5-2.1-6-2.1
	c-3.5,0-5.1,4.8-5.1,10c0,4.3,1,10.8,2,10.8C338.4,176.5,344.7,166.1,346.2,157.9L346.2,157.9z"/>
<path class="st1" d="M375.9,152.4c3.2,0,4.8,6.5,4.8,12.5c0,10.4-4.5,15.6-9.5,15.6c-2.2-0.1-4.3-0.7-6.1-1.9v1.8h-4.2v-41.8
	c-1.1,0.1-2.9,0.1-5.9,0.1l0.1-2.9c3.3,0,6.7-0.3,10-0.7v32h0.1C368.7,158.8,372.7,152.5,375.9,152.4L375.9,152.4L375.9,152.4z
	 M371.4,177.5c3.5,0,5.1-4.8,5.1-10c0-4.3-1-10.8-2-10.8c-1.2,0-7.7,10.4-9.1,18.6C367.8,176.7,370,177.5,371.4,177.5L371.4,177.5
	L371.4,177.5z"/>
<path class="st1" d="M394.8,155.8c-3.8,0-5.2,3.9-5.2,9.8c0,6.8,2.3,12,5.9,12c2.8,0,5-2.9,7-5.3l0.7,3.3c-1.9,2.7-5.6,5.2-9.2,5.2
	c-5.3,0-8.6-5.9-8.6-12.4c0-7.6,4.3-15.9,11.2-15.9c3,0,6,1.6,6,4.6c-0.1,1.6-0.7,3.1-1.6,4.4l-1.8,0.1
	C399,157.7,397.4,155.8,394.8,155.8L394.8,155.8L394.8,155.8z"/>
<path class="st1" d="M433,174.4c-3.1,3.5-6.1,6.5-8.5,6.5c-1.7,0-2.5-1.4-2.5-5.6V166h-0.1c-3.5,8.5-7.5,14.8-10.7,14.8
	s-4.8-6.5-4.8-12.5c0-10.4,4.5-15.6,9.5-15.6c2.2,0.1,4.3,0.7,6.1,1.9v-15.9c-1.1,0.1-2.9,0.1-5.9,0.1l0.1-2.9c3.3,0,6.7-0.3,10-0.7
	v39.9c0,0.8,0.2,1.2,0.6,1.2c0.9,0,2.7-1.9,5.6-5.6L433,174.4z M421.8,157.9c-2.4-1.4-4.6-2.2-6-2.2c-3.5,0-5.1,4.8-5.1,10
	c0,4.3,1,10.8,2,10.8C413.9,176.5,420.3,166.1,421.8,157.9L421.8,157.9z"/>
<path class="st1" d="M453.1,175.5c-1.9,2.7-5.6,5.2-9.2,5.2c-5.3,0-8.6-5.9-8.6-12.4c0-7.6,4-15.9,11.2-15.9c3.1,0,6.3,1.6,6.3,4.4
	c0,4.4-7.7,10.7-12.8,14c0.8,4.1,2.7,6.8,5.4,6.8s5-2.9,7-5.3L453.1,175.5z M439.4,165.5c0,0.9,0,1.7,0.1,2.6
	c4.5-3.2,9.2-6.7,9.2-9.4c0-1.9-2.2-3-4.1-3C440.8,155.8,439.4,159.7,439.4,165.5L439.4,165.5z"/>
<path class="st1" d="M471.4,135.5c3.3,0,6.3,1.6,6.3,4.6c-0.1,1.6-0.7,3.1-1.6,4.4l-1.8,0.1c-0.1-3.8-0.8-5.9-4-5.9
	c-5.2,0-6,5.6-6,11.6v2.8h6.4l-0.7,2.6h-5.7v27.6h-4.2v-27.6h-5.5v-2.6h5.5C460,140.5,465.3,135.5,471.4,135.5L471.4,135.5
	L471.4,135.5z"/>
<path class="st1" d="M492.2,165.9c0,4,0.4,9.8,0.4,13.8c0,9.4-4.3,15.8-13.3,15.8c-4.9,0-11.8-1.7-11.8-5.4c0-2.1,2.3-4.4,6.2-7.1
	l3.5,0.7c-2.7,1.9-5,3.5-5,5c0,2,4.9,3.7,9.1,3.7c5.7,0,7.2-2.5,7.2-10.6c0-4.7-0.4-11.1-0.4-15.8h-0.1c-3.5,8.5-7.5,14.8-10.7,14.8
	s-4.8-6.5-4.8-12.5c0-10.4,4.5-15.6,9.5-15.6c2.2,0.1,4.3,0.7,6.1,1.9v-3.2h4.2L492.2,165.9L492.2,165.9L492.2,165.9z M487.8,157.9
	c-2.4-1.4-4.6-2.2-6-2.2c-3.5,0-5.1,4.8-5.1,10c0,4.3,1,10.8,2,10.8C479.9,176.5,486.4,166.1,487.8,157.9L487.8,157.9z"/>
<path class="st1" d="M503.2,165.4h0.1c3.3-8.1,8.7-13,11.8-13c2.2,0,2.9,2.4,2.9,7.6c0,3.6,0,8.3-0.2,14.6c0,0.8-0.1,1.4,0.3,1.4
	c0.8,0,3-2.1,5.9-5.8l0.7,3.9c-3.1,3.5-6,6.5-8.5,6.5c-1.5,0-2.7-1.1-2.7-4.6v-12.8c0-3.5-0.4-6.1-1.2-6.1c-1.3,0-9.2,7.7-9.2,20.2
	v2.7H499v-40.6c-1.1,0.1-2.9,0.2-5.9,0.2l0.1-2.9c3.4-0.1,6.7-0.6,10-1.4L503.2,165.4L503.2,165.4L503.2,165.4z"/>
<path class="st2" d="M80.4,176.3c1.5,0.2,3,0.2,4.5-0.1v2.3c-1.7,1-3.5,2-5,2c-2.2,0-3.9-1.9-4.4-3.9c-2.1,2.5-5.1,4-8.4,4.2
	c-4.1,0-6.3-2.9-6.3-6.5c0-1.8,0.4-3.6,1.2-5.2c4.4-1.1,8.8-2,13.3-2.4l0.1-6.3c0-3.9-1.5-5.3-4.8-5.3c-1.4,0-2.7,0.1-4.1,0.3
	c0.2,1.9,0.7,3.7,1.4,5.5l-4.6,1.2c-0.8-1.1-1.2-2.4-1.3-3.7c0-4.2,4.8-6,9.2-6c2,0,3.9,0.3,5.8,1c2.5,1.1,3.2,3,3.1,6.9L80,171.7
	C79.9,173.2,80,174.8,80.4,176.3L80.4,176.3L80.4,176.3z M69.4,177.1c2.1-0.1,4.2-0.9,5.8-2.1l0.1-5.5c-3.1,0.3-6.2,0.9-9.3,1.7
	c-0.2,0.7-0.2,1.4-0.2,2.1C65.8,175.6,66.9,177.1,69.4,177.1L69.4,177.1L69.4,177.1z"/>
<path class="st2" d="M104,152.4c6.3,0,11.5,4.2,11.5,12.4c0,7.5-4.2,16-15.6,16c-3.4-0.1-6.7-0.4-10-1c0.2-7.8,0.2-14.1,0.2-19.5
	c0-8.5-0.1-17.2-0.2-20.9l-5.1-0.1l0.1-3c3.5-0.1,7.8-0.4,10.2-0.7l0.4,0.4c-0.4,1.5-0.6,10.6-0.6,20
	C97.4,153.7,100.6,152.4,104,152.4L104,152.4z M110,166.5c0-3.6-0.8-6.9-3.2-8.6c-1.3-0.8-2.8-1.2-4.4-1.1c-2.5,0-5,0.4-7.4,1.2
	v18.6l12.3-0.1C109.1,173.6,110.1,170,110,166.5z"/>
<path class="st2" d="M124.4,164.7c0,7.9,4,11.8,10,11.8c2.6-0.1,5.1-0.8,7.4-2l0.4,3.1c-2.8,2-6.1,3.2-9.6,3.2
	c-7.3,0-13.3-5.2-13.3-14.3c0-10.2,6.9-14.1,12.9-14.1c5,0,10.4,2.7,10.4,7.1c0,0.6-0.1,1.2-0.4,1.8h-5.4c0.2-0.6,0.3-1.3,0.3-1.9
	c0-0.9-0.5-1.8-1.2-2.3c-1.6-1.1-3.5-1.6-5.4-1.5c-1.4-0.1-2.8,0.2-4.1,0.9C125.2,157.8,124.4,161.6,124.4,164.7L124.4,164.7
	L124.4,164.7z"/>
<path class="st2" d="M171.6,176.2h5.1l-0.1,3.3c-2.7,0.2-7.7,0.7-8.8,0.9c-0.2-1.3-0.6-2.6-0.9-3.9c-2.7,2.7-6.2,4.2-10,4.4
	c-5.5,0-10.8-4-10.8-12.5c0-7.3,4-15.9,14.3-15.9c2.1,0,4.3,0.4,6.3,1.1c0-6.6-0.1-10.4-0.3-14.1l-5.1-0.1l0.1-3
	c3.5-0.1,7.8-0.4,10.2-0.7l0.4,0.4c-0.4,1.6-0.6,11.8-0.6,21.9C171.4,165.7,171.5,173.2,171.6,176.2L171.6,176.2L171.6,176.2z
	 M155,175.4c1.3,0.7,2.7,1.1,4.1,1c2.6-0.1,5.2-0.6,7.6-1.7v-18.2h-12.9c-1.4,3.1-2.2,6.5-2.1,9.9
	C151.7,170.3,152.4,173.7,155,175.4L155,175.4L155,175.4z"/>
<path class="st2" d="M203.2,163.1c0,0.4,0,0.7-0.1,1.1c-4.9,0.6-13.8,1.1-18.3,1.2c0.2,7.4,4.2,11.1,10,11.1c2.6-0.1,5.1-0.8,7.4-2
	l0.4,3.1c-2.8,2.1-6.1,3.2-9.6,3.2c-7.3,0-13.3-5.2-13.3-14.3c0-10.2,6.9-14.1,12.9-14.1C199.2,152.4,203.1,157.3,203.2,163.1
	L203.2,163.1L203.2,163.1z M191.4,155.4c-1.4,0-2.7,0.2-4,0.7c-1.5,1.9-2.3,4.2-2.5,6.6c3.3-0.2,8.4-0.6,12.4-0.9v-0.3
	C197.4,156.6,195.4,155.4,191.4,155.4L191.4,155.4L191.4,155.4z"/>
<path class="st2" d="M222.3,135.5c5.8,0,8.8,2.6,8.8,5.4c-0.1,0.9-0.3,1.7-0.6,2.5h-4.6c0.1-0.4,0.2-0.9,0.2-1.4
	c0-2.1-1.5-2.7-4.6-2.7c-2.3,0-4.6,0.4-6.7,1.1c1,2.4,1.6,3.6,1.6,5.3v7.5h7.7l-0.6,3.7h-7.1v0.8c0,7.9,0.1,15.7,0.2,18.9
	c0.8,0,2.9,0.2,4.7,0.4l-0.1,3.1c-2.2-0.2-4.7-0.3-7.3-0.3s-5.1,0.1-7.3,0.3l-0.1-3.1c1.9-0.2,4-0.4,4.8-0.4
	c0.2-4,0.2-10.1,0.2-16.4V157h-5v-3.7h5v-6.2c-0.1-2.4,0.2-4.9,1-7.2C213.9,137,217.1,135.5,222.3,135.5L222.3,135.5L222.3,135.5z"
	/>
<path class="st2" d="M253.9,155.8l-6.9-0.2v0.3c1.9,1.2,3,3.4,3,5.7c0,6.5-5.6,9.2-11,9.2c-1,0-1.9-0.1-2.9-0.3l-2.6,4.2l0.2,0.2
	c1.6,0,4.6-0.1,6-0.1c8.1,0,13.1,1.8,13.1,8c0,6.4-5.2,11-14,11c-7.6,0-11.1-3.1-11.1-6.9c0-2.9,2.1-4.6,3.5-5.7l2.2,0.3
	c-0.8,1-1.2,2.2-1.3,3.5c0,3.1,3,4.8,8.3,4.9c2.3,0.1,4.7-0.2,6.9-1c0.6-1.6,1-3.4,1-5.1c0-3.9-3-4.5-9.2-4.5
	c-3.3,0-6.8,0.2-8.4,0.3l-2.2-5c2.8-2.1,4.3-3.4,5-4.9c-3.3-1.3-5.4-4.5-5.3-8.1c0-6.5,5.5-9.3,10.8-9.3c5.5,0,10.4,0.2,14.9-0.4
	L253.9,155.8L253.9,155.8L253.9,155.8z M243.4,167c1-1.2,1.6-2.4,1.6-5.3c0-4.3-2.5-6.1-6-6.1c-1.5,0-3,0.3-4.3,0.8
	c-1,1.2-1.5,2.4-1.5,5.4c0,4.3,2.4,6.1,5.8,6.1C240.5,167.8,242,167.6,243.4,167L243.4,167L243.4,167z"/>
<path class="st2" d="M283.6,176.7c0.8,0,2.9,0.2,4.8,0.4l-0.1,3.1c-2.2-0.2-4.4-0.3-7.3-0.3c-2.6,0-5.1,0.1-7.3,0.3l-0.1-3.1
	c1.9-0.2,4-0.4,4.8-0.4c0.3-2.3,0.5-9.3,0.5-12.7c0-6.4-3.2-7.3-5.9-7.3c-2.4,0-4.8,0.6-6.8,1.8c0,7.6,0.1,15,0.2,18.1
	c0.8,0,2.9,0.2,4.7,0.4l-0.1,3.1c-2.2-0.2-4.7-0.3-7.3-0.3s-5.1,0.1-7.3,0.3l-0.1-3.1c1.9-0.2,4-0.4,4.8-0.4
	c0.2-4,0.2-10.1,0.2-16.4c0-8.5-0.1-17.2-0.2-20.9l-5.1-0.1l0.1-3c3.5-0.1,7.8-0.4,10.2-0.7l0.4,0.4c-0.4,1.5-0.6,11.2-0.6,20.9
	c2.3-2.7,5.6-4.3,9.1-4.4c4.2,0,8.4,2.4,8.4,10.2C283.9,167.4,283.8,173.7,283.6,176.7L283.6,176.7L283.6,176.7z"/>
<path class="st3" d="M59.8,94.7H61v3.1h4v-3.1h1.2v7.3H65v-3.3h-4v3.3h-1.2V94.7z"/>
<path class="st3" d="M69.1,94.7h5.4l-0.1,1h-4v2.1h3.4l-0.1,0.9h-3.4v2.3h4.6l-0.1,1h-5.8V94.7z"/>
<path class="st3" d="M77.1,94.7h1.2v6.3h4.2l-0.1,1h-5.4L77.1,94.7L77.1,94.7z"/>
<path class="st3" d="M84.2,94.7h2.5c0.9-0.1,1.9,0.2,2.7,0.7c1.5,1.7,1.5,4.2,0,5.9c-0.8,0.5-1.7,0.8-2.7,0.7h-2.5V94.7z
	 M86.7,101.1c0.7,0.1,1.3-0.1,1.9-0.6c0.8-1.4,0.8-3.1,0-4.5c-0.5-0.4-1.2-0.6-1.9-0.6h-1.3v5.6C85.4,101.1,86.7,101.1,86.7,101.1z"
	/>
<path class="st3" d="M93.7,101v-5.4h-1.9l0.1-0.9h5l-0.1,0.9h-1.8v5.4h1.9l-0.1,0.9h-5l0.1-0.9H93.7z"/>
<path class="st3" d="M100,101.9h-1.2v-7.3h1.4l4.3,5.6l0,0v-5.6h1.2v7.3h-1.4l-4.3-5.6l0,0V101.9L100,101.9z"/>
<path class="st3" d="M115.8,99.4L115.8,99.4c1.2,0.6,2.1,1.5,2.8,2.6h-1.5c-0.6-0.9-1.4-1.8-2.3-2.4c-0.3-0.1-0.7-0.2-1-0.2v2.6
	h-1.2v-7.3h2.7c1.7,0,2.9,0.5,2.9,2.3c0.1,1.2-0.8,2.3-2,2.4C116,99.4,115.9,99.4,115.8,99.4L115.8,99.4L115.8,99.4z M114.8,98.7
	c1.5,0,2.2-0.6,2.1-1.7s-0.6-1.4-2-1.4h-1.2v3.1H114.8L114.8,98.7z"/>
<path class="st3" d="M120.5,94.7h5.4l-0.1,1h-4v2.1h3.4l-0.1,0.9h-3.4v2.3h4.6l-0.1,1h-5.8L120.5,94.7L120.5,94.7z"/>
<path class="st3" d="M132,94.4c0.7,0,1.5,0.1,2.2,0.2l-0.2,1.2c-0.7-0.3-1.4-0.5-2.1-0.5c-1.5,0-2.7,1.3-2.6,2.8c0,0.1,0,0.2,0,0.2
	c0,2,1.1,3,2.7,3c0.3,0,0.7,0,1-0.1v-2h-1.4v-0.9h2.7v3.4c-0.8,0.3-1.7,0.4-2.6,0.4c-2.2,0-3.9-1.1-3.9-3.8c-0.1-2.1,1.6-3.9,3.7-4
	C131.7,94.4,131.8,94.4,132,94.4z"/>
<path class="st3" d="M140,102.2c-2.1,0-3.3-0.9-3.3-3.6v-3.9h1.3v4c0,1.8,0.7,2.5,2.1,2.5s2-0.7,2-2.5v-4h1.2v3.9
	C143.4,101.3,142.1,102.2,140,102.2z"/>
<path class="st3" d="M145.9,94.7h1.2v6.3h4.2l-0.1,1h-5.4L145.9,94.7L145.9,94.7z"/>
<path class="st3" d="M157.7,100.1h-3.3l-0.7,1.8h-1.3l3.1-7.3h1.2l3,7.3h-1.4L157.7,100.1z M157.4,99.2l-1.3-3.2l0,0l-1.3,3.3
	L157.4,99.2L157.4,99.2z"/>
<path class="st3" d="M165,99.4c1.2,0.6,2.1,1.5,2.8,2.6h-1.5c-0.6-0.9-1.4-1.8-2.4-2.4c-0.3-0.1-0.7-0.2-1-0.2v2.6h-1.3v-7.3h2.7
	c1.7,0,2.9,0.5,2.9,2.3c0.1,1.2-0.8,2.3-2,2.4C165.2,99.4,165.1,99.4,165,99.4L165,99.4L165,99.4z M164,98.7c1.5,0,2.1-0.6,2.1-1.7
	s-0.6-1.4-2-1.4h-1.2v3.1H164L164,98.7z"/>
<path class="st3" d="M329.8,94.7h1.2v3.1h4v-3.1h1.2v7.3H335v-3.3h-4v3.3h-1.2L329.8,94.7L329.8,94.7z"/>
<path class="st3" d="M339.1,94.7h5.4l-0.1,1h-4v2.1h3.4l-0.1,0.9h-3.4v2.3h4.6l-0.1,1h-5.8L339.1,94.7L339.1,94.7z"/>
<path class="st3" d="M347.1,94.7h1.2v6.3h4.2l-0.1,1h-5.4L347.1,94.7L347.1,94.7z"/>
<path class="st3" d="M354.2,94.7h2.5c0.9-0.1,1.9,0.2,2.7,0.7c1.5,1.7,1.5,4.2,0,5.9c-0.8,0.5-1.7,0.8-2.7,0.7h-2.5V94.7z
	 M356.7,101.1c0.7,0.1,1.3-0.1,1.9-0.6c0.8-1.4,0.8-3.1,0-4.5c-0.5-0.4-1.2-0.6-1.9-0.6h-1.3v5.6L356.7,101.1L356.7,101.1z"/>
<path class="st3" d="M363.7,95.6h-1.9l0.1-0.9h5l-0.1,0.9h-1.8v5.4h1.9l-0.1,0.9h-5l0.1-0.9h1.8V95.6z"/>
<path class="st3" d="M370,101.9h-1.2v-7.3h1.4l4.3,5.6l0,0v-5.6h1.2v7.3h-1.4l-4.3-5.6l0,0V101.9L370,101.9z"/>
<path class="st3" d="M383.5,95.6h-1.9l0.1-0.9h5l-0.1,0.9h-1.8v5.4h1.9l-0.1,0.9h-5l0.1-0.9h1.8V95.6z"/>
<path class="st3" d="M387.5,94.7h7l-0.1,1h-2.8v6.3h-1.2v-6.3h-2.9L387.5,94.7z"/>
<path class="st3" d="M399.8,100.1h-3.3l-0.7,1.8h-1.3l3.1-7.3h1.2l3,7.3h-1.4L399.8,100.1z M399.5,99.2l-1.3-3.2l0,0l-1.3,3.3
	L399.5,99.2L399.5,99.2z"/>
<path class="st3" d="M403.8,94.7h1.2v6.3h4.2l-0.1,1h-5.4L403.8,94.7L403.8,94.7z"/>
<path class="st3" d="M412,95.6h-2l0.1-0.9h5l-0.1,0.9h-1.8v5.4h1.9l-0.1,0.9h-5l0.1-0.9h1.9V95.6z"/>
<path class="st3" d="M422.7,94.7l-0.2,1.2c-0.7-0.3-1.4-0.5-2.1-0.5c-1.5,0-2.7,1.3-2.6,2.8c0,0.1,0,0.2,0,0.2c0,2,1.1,3,2.6,3
	c0.8,0,1.5-0.2,2.2-0.6l0.2,0.8c-0.8,0.4-1.7,0.7-2.7,0.7c-1.9,0.2-3.6-1.2-3.8-3.1c0-0.2,0-0.4,0-0.6c-0.1-2.1,1.5-3.9,3.7-4
	c0.2,0,0.3,0,0.5,0C421.3,94.5,422,94.5,422.7,94.7z"/>
<path class="st3" d="M63,207.4L63,207.4c1.2,0.6,2.1,1.5,2.8,2.6h-1.5c-0.6-0.9-1.4-1.7-2.3-2.4c-0.3-0.1-0.7-0.2-1-0.2v2.6h-1.2
	v-7.3h2.7c1.7,0,2.9,0.5,2.9,2.3c0.1,1.2-0.8,2.3-2,2.4C63.2,207.4,63.1,207.4,63,207.4L63,207.4z M62,206.7c1.5,0,2.2-0.6,2.1-1.7
	s-0.6-1.4-2-1.4H61v3.1H62z"/>
<path class="st3" d="M70.8,210.2c-2.1,0-3.3-0.9-3.3-3.6v-3.9h1.3v4c0,1.8,0.7,2.5,2.1,2.5s2-0.7,2-2.5v-4h1.2v3.9
	C74.2,209.3,72.9,210.2,70.8,210.2z"/>
<path class="st3" d="M77.9,209.9h-1.2v-7.3h1.4l4.3,5.6l0,0v-5.6h1.2v7.3h-1.4l-4.3-5.6l0,0L77.9,209.9L77.9,209.9z"/>
<path class="st3" d="M90.8,208.1h-3.3l-0.7,1.8h-1.3l3.1-7.3h1.2l3,7.3h-1.3L90.8,208.1z M90.4,207.2l-1.3-3.2l0,0l-1.3,3.3
	L90.4,207.2L90.4,207.2z"/>
<path class="st3" d="M102.1,207.4L102.1,207.4c1.2,0.6,2.1,1.5,2.8,2.6h-1.5c-0.6-0.9-1.4-1.8-2.3-2.4c-0.3-0.1-0.7-0.2-1-0.2v2.6
	h-1.2v-7.3h2.7c1.7,0,2.9,0.5,2.9,2.3c0.1,1.2-0.8,2.3-2,2.4C102.3,207.4,102.2,207.4,102.1,207.4L102.1,207.4L102.1,207.4z
	 M101.1,206.7c1.5,0,2.2-0.6,2.1-1.7s-0.6-1.4-2-1.4H100v3.1H101.1L101.1,206.7z"/>
<path class="st3" d="M106.8,202.6h5.4l-0.1,1h-4v2.1h3.4l-0.1,0.9H108v2.3h4.6l-0.1,1h-5.8L106.8,202.6L106.8,202.6z"/>
<path class="st3" d="M118.3,202.4c0.7,0,1.5,0.1,2.2,0.2l-0.2,1.2c-0.7-0.3-1.4-0.5-2.1-0.5c-1.5,0-2.7,1.3-2.6,2.8
	c0,0.1,0,0.2,0,0.2c0,2,1.1,3,2.7,3c0.3,0,0.7,0,1-0.1v-1.9h-1.4v-1h2.7v3.4c-0.8,0.3-1.7,0.4-2.6,0.4c-2.2,0-3.9-1.1-3.9-3.8
	c-0.1-2.1,1.6-3.9,3.7-4C118,202.4,118.1,202.4,118.3,202.4z"/>
<path class="st3" d="M126.3,210.2c-2.1,0-3.3-0.9-3.3-3.6v-3.9h1.3v4c0,1.8,0.7,2.5,2.1,2.5s2-0.7,2-2.5v-4h1.2v3.9
	C129.7,209.3,128.4,210.2,126.3,210.2z"/>
<path class="st3" d="M132.2,202.6h1.2v6.4h4.2l-0.1,1h-5.4L132.2,202.6L132.2,202.6z"/>
<path class="st3" d="M144,208.1h-3.3l-0.7,1.8h-1.3l3.1-7.3h1.2l3,7.3h-1.4L144,208.1z M143.6,207.2l-1.3-3.2l0,0l-1.3,3.3
	L143.6,207.2L143.6,207.2z"/>
<path class="st3" d="M151.2,207.4c1.2,0.6,2.1,1.5,2.8,2.6h-1.5c-0.6-0.9-1.4-1.8-2.4-2.4c-0.3-0.1-0.7-0.2-1-0.2v2.6H148v-7.3h2.7
	c1.7,0,2.9,0.5,2.9,2.3c0.1,1.2-0.8,2.3-2,2.4C151.5,207.4,151.4,207.4,151.2,207.4L151.2,207.4L151.2,207.4z M150.2,206.7
	c1.5,0,2.1-0.6,2.1-1.7s-0.6-1.4-2-1.4h-1.2v3.1H150.2L150.2,206.7z"/>
<path class="st3" d="M333,207.4c1.2,0.6,2.1,1.5,2.8,2.6h-1.5c-0.6-0.9-1.4-1.8-2.4-2.4c-0.3-0.1-0.7-0.2-1-0.2v2.6h-1.2v-7.3h2.7
	c1.7,0,2.9,0.5,2.9,2.3c0.1,1.2-0.8,2.3-2,2.4C333.2,207.4,333.1,207.4,333,207.4L333,207.4L333,207.4z M332,206.7
	c1.5,0,2.1-0.6,2.1-1.7s-0.6-1.4-2-1.4H331v3.1H332z"/>
<path class="st3" d="M340.8,210.2c-2.1,0-3.3-0.9-3.3-3.6v-3.9h1.3v4c0,1.8,0.7,2.5,2.1,2.5s2-0.7,2-2.5v-4h1.2v3.9
	C344.2,209.3,342.9,210.2,340.8,210.2z"/>
<path class="st3" d="M347.9,209.9h-1.2v-7.3h1.4l4.3,5.6l0,0v-5.6h1.2v7.3h-1.4l-4.3-5.6l0,0L347.9,209.9L347.9,209.9z"/>
<path class="st3" d="M360.8,208.1h-3.3l-0.7,1.8h-1.3l3.1-7.3h1.2l3,7.3h-1.4L360.8,208.1z M360.4,207.2l-1.3-3.2l0,0l-1.3,3.3
	L360.4,207.2L360.4,207.2z"/>
<path class="st3" d="M369.8,203.6h-1.9l0.1-0.9h5l-0.1,0.9h-1.8v5.4h1.9l-0.1,0.9h-5l0.1-0.9h1.8L369.8,203.6L369.8,203.6z"/>
<path class="st3" d="M373.8,202.6h7l-0.1,1h-2.8v6.3h-1.2v-6.3h-2.9L373.8,202.6z"/>
<path class="st3" d="M386.1,208.1h-3.3l-0.7,1.8h-1.3l3.1-7.3h1.2l3,7.3h-1.4L386.1,208.1z M385.8,207.2l-1.3-3.2l0,0l-1.3,3.3
	L385.8,207.2L385.8,207.2z"/>
<path class="st3" d="M390.1,202.6h1.2v6.4h4.2l-0.1,1h-5.4L390.1,202.6L390.1,202.6z"/>
<path class="st3" d="M398.2,203.6h-1.9l0.1-0.9h5l-0.1,0.9h-1.8v5.4h1.9l-0.1,0.9h-5l0.1-0.9h1.8V203.6L398.2,203.6z"/>
<path class="st3" d="M409,202.7l-0.2,1.2c-0.7-0.3-1.4-0.5-2.1-0.5c-1.5,0-2.7,1.3-2.6,2.8c0,0.1,0,0.2,0,0.2c0,2,1.1,3,2.6,3
	c0.8,0,1.5-0.2,2.2-0.6l0.2,0.8c-0.8,0.4-1.7,0.7-2.7,0.7c-1.9,0.2-3.6-1.2-3.8-3.1c0-0.2,0-0.4,0-0.6c-0.1-2.1,1.5-3.9,3.7-4
	c0.2,0,0.3,0,0.5,0C407.5,202.5,408.3,202.5,409,202.7z"/>
<path class="st4" d="M76.7,69.4L76.7,69.4c-2.2,2.1-5,3.4-7.9,3.4c-4.5,0-7.7-2.8-7.7-7.6c0-5.1,3.8-8.9,15.4-9.4v-1.5
	c0-4.5-1.7-6.3-4.8-6.3c-2.8,0.2-5.6,1-8.2,2.2l-1.2-4c3.3-1.1,6.7-1.6,10.1-1.7c5.7,0,8.8,3.1,8.8,9.1v11c0,2.5,0.2,5,0.8,7.4
	l-4.6,0.7C76.9,71.7,76.7,70.5,76.7,69.4L76.7,69.4L76.7,69.4z M69.9,69.9c2.6-0.2,5-1.6,6.5-3.8v-7.2c-8.6,0.5-10.6,2.8-10.6,6.2
	C65.8,68.2,67.6,69.9,69.9,69.9L69.9,69.9z"/>
<path class="st4" d="M102,44.5c7.3,0,11.3,5,11.3,13.3c0,10.2-6.5,14.8-15,14.8c-2.8-0.1-5.7-0.4-8.4-1V35.4c0-2.6-0.1-5.3-0.4-7.9
	l5.1-0.1v19.1C96.8,45.2,99.3,44.5,102,44.5L102,44.5L102,44.5z M99.1,69.1c6.4,0,9-3.3,9-10.9c0-6.7-2.2-10.2-7.1-10.2
	c-2.3,0-4.6,0.8-6.5,2.2v18.4C96.1,68.9,97.6,69.1,99.1,69.1L99.1,69.1L99.1,69.1z"/>
<path class="st4" d="M139.4,67.8l0.8,3.2c-2.5,1.2-5.3,1.8-8.1,1.8c-7.3,0-12.4-5-12.4-13.7s5.1-14.6,13-14.6c2.5,0,5,0.4,7.4,1.2
	l-0.9,4.5c-1.9-1.4-4.2-2.1-6.5-2.2c-5.5,0-8.1,5.1-8.1,10.6c0,5.7,2.6,10.8,8.5,10.8C135.3,69.3,137.5,68.8,139.4,67.8L139.4,67.8
	L139.4,67.8z"/>
<path class="st4" d="M145.3,59.5c0-8.8,4.9-14.9,12.9-14.9c2.1,0,4.2,0.5,6.1,1.4V35.4c0-2.6-0.1-5.3-0.4-7.9l5.1-0.1v37.2
	c-0.1,2.6,0.2,5.3,0.9,7.8l-4.6,0.1c-0.2-0.7-0.5-1.5-0.6-2h-0.1c-2.3,1.6-5.1,2.4-7.9,2.3C149.4,72.8,145.3,67.8,145.3,59.5
	L145.3,59.5L145.3,59.5z M150.6,59.1c0,6.7,2.1,10.2,7.1,10.2c2.5,0,4.8-0.9,6.7-2.4v-17c-1.9-1.1-4.1-1.7-6.4-1.7
	C153.4,48.2,150.6,51.2,150.6,59.1L150.6,59.1L150.6,59.1z"/>
<path class="st4" d="M190.6,69.3c2.9,0,5.7-0.9,8.2-2.5l0.8,3.2c-3,1.8-6.5,2.7-10,2.7c-7.9,0-12.6-5.3-12.6-13.8
	c0-8.9,5-14.7,12.3-14.7c6.9,0,10.9,4.9,10.9,14.3h-18.1v0.2C182.2,64.8,184.5,69.3,190.6,69.3L190.6,69.3L190.6,69.3z M189.2,48
	c-4,0-6.4,2.8-7,7.5h13.2C195.1,50.7,193.1,48,189.2,48L189.2,48L189.2,48z"/>
<path class="st4" d="M217.2,30.4c-3,0-4.4,1.9-4.4,6.8v8.1h7.5l-0.3,3.3h-7.1v23.3h-4.6V48.6h-4.6v-3.3h4.6v-7.6
	c0-7.3,3.7-10.6,9-10.6c2,0.1,4,0.5,5.9,1.3l-0.5,3.6C221,31,219.1,30.4,217.2,30.4L217.2,30.4L217.2,30.4z"/>
<path class="st4" d="M243.7,48.7c1.3,1.6,2,3.7,2,5.8c0,4.5-3.2,7.9-7.1,9.2c-1.8,0.6-4.3,0.8-6.2,1.6c-1.7,0.6-2.9,1.7-2.9,2.8
	c0,4.5,18.8-2.1,18.8,9.7c0,7.4-6.6,9.7-13.5,9.7c-6,0-12.6-1.9-12.6-8.1l5.6-1.1c-0.9,4.4,3.6,5.8,7.8,5.8c5.8,0,8.5-2.5,8.5-5.5
	c0-8.1-19.8-0.7-19.8-9.3c0-3.6,3.6-5.8,6.5-6.1v-0.1c-4.2-1.1-7.1-4.2-7.1-8.6c0-5.9,5.4-10,11.1-10c2.5,0,5,0.8,7,2.3
	c1.4-3.3,4.9-5.3,8.4-4.8v4.5C247,46.4,244.6,47.1,243.7,48.7z M240.8,54.5c0-4-2.2-6.8-6.1-6.8s-6.1,2.8-6.1,6.8s2.1,6.8,6.1,6.8
	S240.8,58.4,240.8,54.5L240.8,54.5z"/>
<path class="st4" d="M269.5,44.5c5,0,8,3.4,8,8.7v18.8h-4.6V54c0-3.7-1.5-5.7-4.7-5.7c-2.9,0.1-5.7,1.1-8,2.8v20.8h-4.6V35.4
	c0-2.6-0.1-5.3-0.4-7.9l5.1-0.1v20C262.9,45.6,266.2,44.6,269.5,44.5L269.5,44.5L269.5,44.5z"/>
<path class="st5" d="M331.3,61.1c0-11,4.2-16.6,12.2-16.6c2.9,0,5.8,0.3,8.7,0.8l-0.1,1.5l-0.3,17.8c0,2.5,0.1,5,0.4,7.4l-4.6,0.4
	c-0.2-1.4-0.3-3.5,0-8.5l0.1-1.1h-0.1c-1.9,6.2-5.9,10.2-9.6,10.2C334.9,72.9,331.3,70.2,331.3,61.1L331.3,61.1L331.3,61.1z
	 M339.2,69.3c3.5,0,8.2-9.8,8.3-17.2l0.1-4c-2.1-0.2-3.7-0.4-4.7-0.4c-4.1,0-6.8,3.4-6.8,12C336,65.5,337,69.3,339.2,69.3z"/>
<path class="st5" d="M360.3,27.5l4.6-0.7v27.8h0.1c1.9-6.2,5.9-10.2,9.6-10.2c3,0,6.6,2.7,6.6,11.8c0,11-4.2,16.6-12.2,16.6
	c-2.9,0-5.7-0.3-8.5-0.8l0.1-1.5V34.9C360.7,32.4,360.6,30,360.3,27.5z M376.6,57.4c0-5.7-1-9.5-3.2-9.5c-3.5,0-8.2,9.8-8.3,17.2
	L365,69c2.1,0.2,3.7,0.4,4.7,0.4C373.8,69.4,376.6,66,376.6,57.4L376.6,57.4L376.6,57.4z"/>
<path class="st5" d="M403.4,50.5c-2.5-2-4.5-3.1-6.2-3.1c-3.7,0-6.2,4.5-6.2,11.7c0,6.4,1.6,10.4,5.7,10.4c2.2,0,5.2-1.3,7.7-3.7
	L405,69c-2.6,2.3-5.9,3.7-9.3,3.8c-6.3,0-9.4-5-9.4-12.5c0-9.8,5.5-15.9,11.9-15.9c2.2,0.1,4.4,0.6,6.3,1.5L403.4,50.5L403.4,50.5
	L403.4,50.5z"/>
<path class="st5" d="M429.7,64.5c0,2.5,0.1,5,0.4,7.4l-4.6,0.4c-0.2-1.4-0.3-3.5,0-8.5l0.1-1.1h-0.1c-1.9,6.2-5.9,10.2-9.6,10.2
	c-3,0-6.6-2.7-6.6-11.8c0-11,4.2-16.6,12.2-16.6c0.8,0,2.4,0.1,4,0.2v-9.7c0-2.5-0.1-5-0.4-7.4l4.6-0.7L429.7,64.5L429.7,64.5
	L429.7,64.5z M425.4,52.2v-4c-2.1-0.2-3.7-0.4-4.6-0.4c-4.1,0-6.8,3.4-6.8,12c0,5.7,1,9.6,3.2,9.6C420.6,69.3,425.4,59.6,425.4,52.2
	z"/>
<path class="st5" d="M447.1,69.4c2.2,0,5.2-1.3,7.7-3.7l0.6,3.2c-2.6,2.3-5.9,3.7-9.3,3.8c-6.3,0-9.4-5-9.4-12.5
	c0-9.8,5.5-15.9,11.8-15.9c4.7,0,7,3.3,7,6.6c0,5.8-7.2,9.2-14,10.1C441.8,66.3,443.5,69.4,447.1,69.4L447.1,69.4L447.1,69.4z
	 M441.4,58.4c5.7-0.8,9.7-2.8,9.8-6.9c0.1-2.5-1.4-4.1-3.6-4.1C444,47.4,441.6,51.6,441.4,58.4L441.4,58.4z"/>
<path class="st5" d="M467.5,39.7v5.6h7.5l-0.4,3h-7.1V72c0,10.1-4,12.6-8.5,12.6c-1.9,0-3.9-0.4-5.7-1.2l1.4-3.7
	c1.2,0.7,3.3,1.8,5,1.8c2.4,0,3.4-1.9,3.4-8.2l-0.1-25.1h-4.6v-3h4.6v-5.2c0-9.4,3.3-13,8.9-13c2.6,0,5.2,0.7,7.5,2l-1.2,4.1
	c-1.7-1.4-4.3-3.1-6.6-3.1C468.9,30.2,467.5,32.6,467.5,39.7z"/>
<path class="st5" d="M476.6,61.1c0-11,4.2-16.6,12.2-16.6c2.9,0,5.8,0.3,8.7,0.8l-0.1,1.5l-0.3,26.8c-0.1,10-7.6,12.6-20.1,11.5
	l1.2-4.1c1.6,0.7,3.3,1,5,0.9c5.6,0,9.5-1.5,9.6-6.9l0.1-12.2h-0.1c-1.9,6.2-5.9,10.2-9.6,10.2C480.2,72.9,476.6,70.2,476.6,61.1
	L476.6,61.1L476.6,61.1z M484.5,69.3c3.5,0,8.2-9.8,8.3-17.2l0.1-4c-2.1-0.2-3.7-0.4-4.7-0.4c-4.1,0-6.8,3.4-6.8,12
	C481.4,65.5,482.4,69.3,484.5,69.3z"/>
<path class="st5" d="M506.1,27.5l4.6-0.7c0.1,1.7,0.1,3.9,0.1,7.1V57h0.1c3.2-8.6,7-12.5,11-12.5c3,0,4.8,2.2,4.8,6.8v13.7
	c-0.1,2.4,0,4.8,0.1,7.2l-4.6,0.7c0-1.3,0.1-3.4,0.1-6.1V52.3c0-3.2-1.1-3.8-1.9-3.8c-3.7,0-10.2,12-9.8,23.5l-4.4,0.4V34.9
	C506.4,32.4,506.3,30,506.1,27.5L506.1,27.5L506.1,27.5z"/>
</svg>
