<svg id="Layer_1" data-name="Layer 1" xmlns="http://www.w3.org/2000/svg" viewBox="0 0 680 890"><defs><style>.cls-1{fill:#4d4d4d;}</style></defs><title>directive-assets</title><path class="cls-1" d="M219.54,122.11v0.72c-6.19-.29-12.67-0.43-18.14-0.43s-12.82.14-19,.43v-0.72c9.07-3.17,8.21-11.09,4.18-22.75l-4.9-13.82H147l-4.9,13.82c-4,11.52-2.45,19.58,6.91,22.75v0.72c-6.34-.29-12.67-0.43-15.26-0.43s-8.93.14-15,.43v-0.72c11.38-3.17,15.55-11.38,19.73-22.75l29.23-80.64h0.86L197.8,99.36C202,111,207.88,118.94,219.54,122.11Zm-39-40L164.39,36,148.12,82.08h32.4Z"/><path class="cls-1" d="M236.82,122.11c10.37-3.17,13-11.23,13-22.75V44.64c0-11.52-2.59-19.58-13-22.75V21.17c6.19,0.29,12.53.43,18,.43S265.62,21,271,21c15.7,0,31,7.49,31,23,0,7.92-4.18,18.72-21.17,23.62V68c22,2.3,30.67,13.68,30.67,27.36,0,15-9.94,27.65-35.14,27.65-8.21,0-11.81-.58-21.46-0.58-5.47,0-11.81.14-18,.43v-0.72Zm30.1-54.43c11.52,0,25.49-5.62,25.49-22,0-15.55-11.81-22.18-24.77-22.18a65.66,65.66,0,0,0-7.78.58V67.68h7.06ZM276,119.52c12.1,0,24.19-6.19,24.19-23.76,0-21.46-17.71-25.2-29.23-25.2H259.86V100.8C259.86,113.61,264.18,119.52,276,119.52Z"/><path class="cls-1" d="M340.5,72c0-29.23,19.58-53,53.28-53,10.37,0,22,1.58,30.1,2.88-0.43,7.2-.43,15.84-0.58,23h-0.86c-5.76-13-14.25-22.32-28.37-22.32-21.46,0-40.32,22-40.32,49.39s18.86,49.39,40.32,49.39c14.11,0,22.61-9.36,28.37-22.32h0.86c0.14,7.2.14,15.84,0.58,23-8.06,1.3-19.73,2.88-30.1,2.88C360.08,125,340.5,101.23,340.5,72Z"/><path class="cls-1" d="M452.1,122.11c10.37-3.17,13-11.23,13-22.75V44.64c0-11.52-2.59-19.58-13-22.75V21.17c6.19,0.29,12.53.43,18,.43,8.35,0,18.58-.58,24.62-0.58,33.26,0,56.45,17.57,56.45,49.82,0,31.25-22.9,52.13-55.87,52.13-7.63,0-19.73-.58-25.2-0.58s-11.81.14-18,.43v-0.72Zm44.64-2c24.77,0,41.18-19.87,41.18-48,0-32.4-20.16-48.1-47.81-48.1-4.61,0-10.51.29-15,.72V99.36C475.14,112.17,480.9,120.09,496.74,120.09Z"/><path class="cls-1" d="M174.9,249.92c-1.73,8.06-3.17,16.42-4.32,24.48h-54c-5.47,0-11.81.14-18,.43v-0.72c10.37-3.17,13-11.23,13-22.75V196.64c0-11.52-2.59-19.58-13-22.75v-0.72c6.19,0.29,12.53.43,18,.43h22c8.5,0,17.42-.14,25.92-0.43-0.29,7.2-.58,15.7-0.58,22.32h-1.15c-5.76-13.39-13.25-19.3-26.78-19.3h-14.4v43.49h7.06c10.08,0,20-1.44,22.32-11.52h0.86L151,237h-0.86c-1.44-10.08-10.22-14.4-20.3-14.4h-8.21V252.8c0,12.82,4.32,18.72,17.57,18.72,13.54,0,25.34-6.19,34.56-21.6h1.15Z"/><path class="cls-1" d="M263.9,173.17c-0.29,7.2-.58,15.7-0.58,22.32h-1.15c-5.76-13.39-13.25-19.3-26.78-19.3H221v46.37H228c10.08,0,20-1.44,22.32-11.52h0.86l-0.86,28.8H249.5c-1.44-10.08-10.22-14.4-20.3-14.4H221v25.92c0,11.52,2.59,19.58,13,22.75v0.72c-6.19-.29-12.53-0.43-18-0.43s-11.81.14-18,.43v-0.72c10.37-3.17,13-11.23,13-22.75V196.64c0-11.52-2.59-19.58-13-22.75v-0.72c6.19,0.29,12.53.43,18,.43h22C246.47,173.6,255.4,173.46,263.9,173.17Z"/><path class="cls-1" d="M371.75,173.89c-0.43,7.2-.43,15.84-0.58,23h-0.86c-5.76-13-14.25-22.32-28.37-22.32-21.46,0-40.32,22-40.32,49.39s18.86,49.39,41.47,49.39c13,0,19.44-7.2,19.44-20.45,0-8.5-2.59-14.25-13-17.42V234.8c6.19,0.29,12.53.43,17.28,0.43s11.09-.14,17.28-0.43v0.72c-10.37,3.17-13,8.35-13,19.87,0,4.32.29,11.52,0.86,18.72-8.06,1.3-20,2.88-30.38,2.88-33.7,0-53.28-23.76-53.28-53s19.58-53,53.28-53C352,171,363.69,172.59,371.75,173.89Z"/><path class="cls-1" d="M500.77,196.64v54.72c0,11.52,2.59,19.58,13,22.75v0.72c-6.19-.29-12.53-0.43-18-0.43s-11.81.14-18,.43v-0.72c10.37-3.17,13-11.23,13-22.75V224.58H427.34v26.78c0,11.52,2.59,19.58,13,22.75v0.72c-6.19-.29-12.53-0.43-18-0.43s-11.81.14-18,.43v-0.72c10.37-3.17,13-11.23,13-22.75V196.64c0-11.52-2.59-19.58-13-22.75v-0.72c6.19,0.29,12.53.43,18,.43s11.81-.14,18-0.43v0.72c-10.37,3.17-13,11.23-13,22.75v24.48h63.36V196.64c0-11.52-2.59-19.58-13-22.75v-0.72c6.19,0.29,12.53.43,18,.43s11.81-.14,18-0.43v0.72C503.37,177.06,500.77,185.12,500.77,196.64Z"/><path class="cls-1" d="M555.49,196.64c0-11.52-2.59-19.58-13-22.75v-0.72c6.19,0.29,12.53.43,18,.43s11.81-.14,18-0.43v0.72c-10.37,3.17-13,11.23-13,22.75v54.72c0,11.52,2.59,19.58,13,22.75v0.72c-6.19-.29-12.53-0.43-18-0.43s-11.81.14-18,.43v-0.72c10.37-3.17,13-11.23,13-22.75V196.64Z"/><path class="cls-1" d="M93,348.64c0-11.52-2.59-19.58-13-22.75v-0.72c6.19,0.29,12.53.43,18,.43s11.81-.14,18-0.43v0.72c-10.37,3.17-13,11.23-13,22.75v57.6c0,20.45-13,23-23,28.8v-1.15c10.37-7.92,13-16.13,13-30.53V348.64Z"/><path class="cls-1" d="M180.88,426.11v0.72c-6.19-.29-12.53-0.43-18-0.43s-11.81.14-18,.43v-0.72c10.37-3.17,13-11.23,13-22.75V348.64c0-11.52-2.59-19.58-13-22.75v-0.72c6.19,0.29,12.53.43,18,.43s11.81-.14,18-0.43v0.72c-10.37,3.17-13,11.23-13,22.75v54.72C167.92,414.88,170.51,422.94,180.88,426.11ZM237,426.4v0.72c-23.33.58-22.9-1.3-29.09-9.07-15.55-19.44-26.64-31.68-34.85-43.78,11.81-7.34,25.92-17.71,33.26-29.09,4.18-6.48,8.06-16.13-1.3-19.29v-0.72c6.34,0.29,12.67.43,16.7,0.43,5.47,0,8.93-.14,15-0.43v0.72c-10.66,3.17-18.86,13.82-25.92,21.31-8.21,8.93-17.86,17.14-27.22,24.91,7.49,10.37,17.42,21,25.92,31.54C218.32,414.45,225.38,423.23,237,426.4Z"/><path class="cls-1" d="M301,423.52c13.54,0,25.34-6.19,34.56-21.6h1.15c-1.73,8.06-3.17,16.42-4.32,24.48H281c-5.47,0-11.81.14-18,.43v-0.72c10.37-3.17,13-11.23,13-22.75V348.64c0-11.52-2.59-19.58-13-22.75v-0.72c6.19,0.29,12.53.43,18,.43s11.81-.14,18-0.43v0.72c-10.37,3.17-13,11.23-13,22.75V404.8C286,417.61,287.73,423.52,301,423.52Z"/><path class="cls-1" d="M483.28,426.11v0.72c-6.19-.29-14.11-0.43-19.58-0.43s-15.12.14-21.31,0.43v-0.72c9.07-3.17,13.39-10.66,11.52-22.75l-8.64-57-26.78,71.13h-0.86L386.22,347.2l-7.63,56.16c-1.58,11.81,2,19.58,11.38,22.75v0.72c-6.34-.29-14.11-0.43-18.14-0.43s-9.22.14-15.26,0.43v-0.72c11.38-3.17,16.56-11.23,18.29-22.75l12-80.64h0.86l33.7,77.61,29.38-77.61h0.86l12.82,80.64C466.28,415.31,471.61,422.94,483.28,426.11Z"/><path class="cls-1" d="M604.24,325.17v0.72c-10.37,3.17-13,11.23-13,22.75v80.64h-0.72l-71.28-82.22v56.3c0,11.52,2.59,19.58,13,22.75v0.72c-6.19-.29-12.53-0.43-15.12-0.43s-8.93.14-15.12,0.43v-0.72c10.37-3.17,13-11.23,13-22.75v-79.2h0.72L587,406.38V348.64c0-11.52-2.59-19.58-13-22.75v-0.72c6.19,0.29,12.53.43,15.12,0.43S598,325.46,604.24,325.17Z"/><path class="cls-1" d="M120.55,528c0-29.23,21-53,53.57-53s53.57,23.76,53.57,53-21,53-53.57,53S120.55,557.23,120.55,528Zm93.6,0c0-27.36-15-49.39-40-49.39s-40,22-40,49.39,15,49.39,40,49.39S214.14,555.36,214.14,528Z"/><path class="cls-1" d="M273.76,555.36c0,11.52,2.59,19.58,13,22.75v0.72c-6.19-.29-12.53-0.43-18-0.43s-11.81.14-18,.43v-0.72c10.37-3.17,13-11.23,13-22.75V500.64c0-11.52-2.59-19.58-13-22.75v-0.72c6.19,0.29,12.53.43,18,.43,8.35,0,15.7-.58,20.3-0.58,18.86,0,29.66,10.37,29.66,23.9,0,15.41-14.11,26.5-35.57,28.08l-0.43-1.73c18.72-3.89,25.63-12.53,25.63-24.91,0-15.26-10.66-22.32-22.17-22.32-3.46,0-7.92.29-12.38,0.72v74.59Z"/><path class="cls-1" d="M402.21,580.85c0.86,10.37,4,17.14,12.67,23.76v1.15c-9.36-5.33-21.31-8.06-22.9-25.06-29.09-2.59-47.66-25.34-47.66-52.7,0-29.23,21-53,53.57-53s53.57,23.76,53.57,53C451.45,555.93,432.3,578.83,402.21,580.85ZM437.92,528c0-27.36-15-49.39-40-49.39s-40,22-40,49.39c0,25.06,12.53,45.65,34,49V565.44h10.08v11.81C424.53,574.94,437.92,553.78,437.92,528Z"/><path class="cls-1" d="M563.77,579v0.72c-14.69-.14-17.71.43-24.48-8.93-7.63-10.66-15.12-25.2-24.48-42.91a88,88,0,0,1-17.28,2.59v24.91c0,11.52,2.59,19.58,13,22.75v0.72c-6.19-.29-12.53-0.43-18-0.43s-11.81.14-18,.43v-0.72c10.37-3.17,13-11.23,13-22.75V500.64c0-11.52-2.59-19.58-13-22.75v-0.72c6.19,0.29,12.53.43,18,.43,8.35,0,15.7-.58,20.3-0.58,18.86,0,29.66,10.37,29.66,23.9,0,11.38-7.49,18.86-17.86,23.47,9.07,17.86,17.14,30,25.92,42.77C553.69,571.92,557.58,577.25,563.77,579Zm-66.24-52.13a77,77,0,0,0,16.85-2.3c13.1-3.6,17.71-11.23,17.71-21.6,0-15.84-10.66-22.9-22.17-22.9-3.46,0-7.92.29-12.38,0.72v46.08Z"/><path class="cls-1" d="M199.1,651.49h-0.86c-5.76-13-14.25-20.88-24.33-20.88-9.5,0-18,7.63-18,16.27,0,11.09,14.26,20.74,24.34,28.37,10.8,8.06,23,17.42,23,32.11,0,13.39-11.09,25.63-29.52,25.63-8.21,0-20.16-2-28.08-3.31v-23h1.73c4.46,12.24,13.68,22.75,26.35,22.75,11.81,0,18.29-9.36,18.29-19,0-12.1-9.79-20.16-18.86-27.07-11.66-8.93-28.51-19.44-28.51-33.12C144.67,639,156,627,173.9,627c10.37,0,17.71,1.58,25.2,2.88v21.6Z"/><path class="cls-1" d="M277.58,632.48v74.88c0,11.52,2.59,19.58,13,22.75v0.72c-6.19-.29-12.53-0.43-18-0.43s-11.81.14-18,.43v-0.72c10.37-3.17,13-11.23,13-22.75V632.48h-4.32c-15,0-23.9,6.19-33.12,21.6h-1.15c1.73-8.06,3.17-16.42,4.32-24.48h78.62c1.15,8.06,2.59,16.42,4.32,24.48H315c-9.22-15.41-18.14-21.6-33.12-21.6h-4.32Z"/><path class="cls-1" d="M418.41,695.41V652.64c0-11.52-2.59-19.58-13-22.75v-0.72c6.19,0.29,12.53.43,15.12,0.43s8.93-.14,15.12-0.43v0.72c-10.37,3.17-13,11.23-13,22.75V694.4c0,27.65-14.83,38.3-37.29,38.3-23.18,0-37.58-11.23-37.58-39.74V652.64c0-11.52-2.59-19.58-13-22.75v-0.72c6.19,0.29,12.53.43,18,.43s11.81-.14,18-0.43v0.72c-10.37,3.17-13,11.23-13,22.75V694.4c0,20.3,10.8,33.41,31,33.41C407.46,727.81,418.41,716.43,418.41,695.41Z"/><path class="cls-1" d="M548,629.17v0.72c-11.38,3.17-15.55,11.38-19.73,22.75L499,733.28h-0.86l-29.09-80.64C464.92,641,459,633.06,447.21,629.89v-0.72c6.34,0.29,12.82.43,18.29,0.43s12.82-.14,19-0.43v0.72c-9.07,3.17-8.21,11.09-4.18,22.75l22,63.36,22.32-63.36c4-11.52,2.45-19.58-6.91-22.75v-0.72c6.34,0.29,12.67.43,15.26,0.43S542,629.46,548,629.17Z"/><path class="cls-1" d="M264.83,781.17v0.72c-11.38,3.17-15.84,11.38-20.3,22.75l-32,80.64H211.7l-21-48.53-22.75,48.53h-0.86l-32.11-80.64C130.34,793,124,785.06,112.19,781.89v-0.72c6.34,0.29,12.82.43,18.29,0.43s12.53-.14,18.72-0.43v0.72c-9.07,3.17-7.92,11.38-3.31,22.75L172,869.58l17-36.58-12.24-28.37c-4.9-11.23-10.08-19.58-20.45-22.75v-0.72c6.34,0.29,12.82.43,18.29,0.43s12.38-.14,18.58-0.43v0.72c-10.51,3.17-10.51,11.52-5.62,22.75l7.06,16.27,7.63-16.27c5.18-11.23,5.18-19.58-4.18-22.75v-0.72c6.34,0.29,11.23.43,13.82,0.43s8.93-.14,15-0.43v0.72c-11.38,3.17-16.13,12-21.17,22.75l-9.36,20,19.15,44.21,25.78-64.22c4.61-11.37,4.18-19.58-5.18-22.75v-0.72c6.34,0.29,11.23.43,13.82,0.43S258.78,781.46,264.83,781.17Z"/><path class="cls-1" d="M364.19,882.11v0.72c-6.19-.29-12.67-0.43-18.14-0.43s-11.66.14-17.86,0.43v-0.72c9.07-3.17,7.06-12.1,1.3-22.75l-12.53-23-14.54,23c-6.34,9.94-8.06,19.58,1.3,22.75v0.72c-6.34-.29-12.67-0.43-15.26-0.43s-8.93.14-15,.43v-0.72c11.38-3.17,17.71-12.82,24-22.75l17.14-27.22-14.83-27.5c-5.76-10.66-13-19.58-24.62-22.75v-0.72c6.19,0.29,12.67.43,18.14,0.43s11.66-.14,17.86-0.43v0.72c-9.07,3.17-7.06,12.1-1.3,22.75l10.22,18.86,12-18.86c6.34-9.94,8.06-19.58-1.3-22.75v-0.72c6.34,0.29,12.67.43,15.26,0.43s8.93-.14,15-0.43v0.72c-11.38,3.17-17.71,12.82-24,22.75l-14.54,23,17.14,31.68C345.33,870,352.53,878.94,364.19,882.11Z"/><path class="cls-1" d="M472.19,781.17v0.72c-8.5,3.17-14.26,7.63-21.89,18.29l-20.16,28.37v30.82c0,11.52,2.59,19.58,13,22.75v0.72c-6.19-.29-12.53-0.43-18-0.43s-11.81.14-18,.43v-0.72c10.37-3.17,13-11.23,13-22.75V830.85l-21.46-30.53c-7.63-10.8-13.1-15.84-21.46-18.43v-0.72c7.63,0.29,12.67.43,18.14,0.43s11.66-.14,17.86-0.43v0.72c-8.64,2.59-9.65,7.63-4.9,14.54l20.16,29.09,18.86-27.07c6.34-8.93,4-13.39-5.33-16.56v-0.72c6.34,0.29,12.67.43,15.26,0.43S466.14,781.46,472.19,781.17Z"/><path class="cls-1" d="M557.44,857.92c-1.73,8.06-3.17,16.42-4.32,24.48H486.88v-1L543,784.48h-20.3c-13.54,0-24.48,5.76-33.12,20.16h-1.15c1.73-8.06,3.31-16.42,4.32-23H556v1l-56.16,96.91h21.89c13.54,0,25.34-6.19,34.56-21.6h1.15Z"/></svg>