<svg id="Layer_2" data-name="Layer 2" xmlns="http://www.w3.org/2000/svg" viewBox="0 0 600 160"><defs><style>.cls-1{fill:#fff;}.cls-2{fill:#e0e0e0;}.cls-3{fill:#ec8148;}.cls-4{fill:#01849b;}.cls-5{fill:none;stroke:#ec8148;stroke-miterlimit:10;stroke-width:3px;stroke-dasharray:6 34;}</style></defs><title>subj-sans-assets</title><rect class="cls-1" x="48" width="552" height="40"/><rect class="cls-1" x="48" y="120" width="552" height="40"/><rect class="cls-2" y="40" width="600" height="80"/><rect class="cls-3" width="48" height="160"/><rect class="cls-3" x="540.66" y="40" width="59.34" height="80"/><path class="cls-4" d="M572.1,153h-2.71v-17.2h-3.75v-2.46h6.46V153Z"/><path class="cls-1" d="M567.43,88.67v0.08h10.37V91.5H562.56V89.67l2.5-2c5.08-4.12,8.93-6.73,8.93-10,0-3-3.25-3.77-5.27-3.77a12,12,0,0,0-5.62,1.44V72.46a21.44,21.44,0,0,1,6.27-1.15c2.79,0,7.54,1.25,7.54,5.94,0,3.35-2.27,6.27-9.48,11.41h0Z"/><path class="cls-4" d="M572.1,30h-2.71V12.79h-3.75V10.34h6.46V30Z"/><line class="cls-5" x1="540.66" y1="160" x2="540.66"/><line class="cls-5" x1="48" y1="160" x2="48"/><path class="cls-1" d="M32.7,88.77h-4v7.75H26V88.77H15.5V86.94L25.08,72l2.35,0.17h1.31V86.31h4v2.46ZM26,86.31V74.4l-7.5,11.91H26Z"/><path class="cls-4" d="M199.92,10V120H187V68.33H126.78V120h-13V10h13V56.67H187V10h13Z"/><path class="cls-4" d="M261.12,38.15c16.3,0,30.18,13.43,30.18,39.07,0,27.59-17,45-40.09,45-3.79,0-13.89-.46-17.87-2.13V160h-12V38.89h12V52.41h0.37A42.78,42.78,0,0,1,242,44.54a33.56,33.56,0,0,1,19.07-6.39h0Zm-9.91,72.59c16.2,0,27.5-10,27.5-31.11,0-18-7.32-30.37-19.26-30.37-5.74,0-11.39,2.87-16.3,6.94a74.55,74.55,0,0,0-9.81,10.46v41.67c4.54,1.57,13.33,2.41,17.87,2.41h0Z"/><path class="cls-4" d="M374.85,40L341.61,78.43,373.92,120H357.26l-23.7-32.59L310,120H294.3l33.61-39.91L295.22,40H311.7l23.8,30.74L358.93,40h15.93Z"/><path class="cls-4" d="M393,120V0h12V120H393Z"/><path class="cls-4" d="M476.37,53.33h-28.7v48.79c0,7.41,5.65,8.8,9.82,8.8,4.81,0,11.76-2.78,18.7-7.31v10.83c-5,4.54-13.8,7.68-21.94,7.68-13.43,0-18.61-8.79-18.61-20.65V53.33H419.24V42.59h16.39V20h12V42.59h29.72l-1,10.74h0Z"/></svg>