<svg id="Layer_1" data-name="Layer 1" xmlns="http://www.w3.org/2000/svg" viewBox="0 0 680 218"><defs><style>.cls-1{fill:#896f42;}.cls-2{fill:#231f20;}.cls-3{fill:#9f9f9f;}</style></defs><title>runa-assets</title><path class="cls-1" d="M61.14,22.39L61,23.85C60,23.8,58.77,23.7,57.43,23.7s-3.17.11-4.48,0.22l0-1.37c0.81-.11,2-0.3,2.67-0.37l-1.69-4.76H45.95c-0.59,1.74-1.11,3.35-1.5,4.65l3.33,0.11,0,1.52a71.9,71.9,0,0,0-7.76.22l-0.06-1.56a15.18,15.18,0,0,0,2.56-.65C44.22,17,47.84,7.13,49.91,2H51c0.67,2.35,4.83,13.25,7.54,19.86A17.54,17.54,0,0,0,61.14,22.39Zm-7.85-6.67L49.89,6.16c-0.83,2.35-2.17,6.06-3.37,9.56h6.76Z"/><path class="cls-1" d="M77.71,11.76c2.71,0.94,4.8,2.41,4.8,5.67a6.17,6.17,0,0,1-4.59,6c-1,.28-2.2.3-5.54,0.3H69.82c-1.37,0-2.76,0-4.17.15l-0.09-1.67c0.76-.09,1.76-0.17,2.82-0.2,0.11-2.06.11-5.22,0.11-8.95s0-6.93-.13-8.95l-2.8.15,0.09-2c0.91,0.06,2.59.07,4.41,0.07,0.74,0,2.76-.07,3.78-0.07,5.24,0,7.56,1.39,7.56,4.54a4.85,4.85,0,0,1-3.69,4.93v0.07h0ZM73.28,3.9c-0.43,0-1.15,0-2,.06-0.11,1.76-.13,4.39-0.13,7.67,3.26,0,4.69-.06,5.48-0.15a5.9,5.9,0,0,0,1.7-4.15c0-2.32-1.43-3.43-5.06-3.43h0ZM74.06,22c4.08,0,5.21-1.65,5.21-4.45A4,4,0,0,0,77.73,14a5.86,5.86,0,0,0-3.22-.76,24,24,0,0,0-3.35.26c0,3.52,0,6.48.11,8.45l2.8,0h0Z"/><path class="cls-1" d="M104.73,19.85l0.06,2.22a17.34,17.34,0,0,1-8,2.09c-6,0-9-4.15-9-10.58C87.81,5.9,92.15,1.9,97.6,1.9a18.33,18.33,0,0,1,4.67.7c0-.33,0-0.67,0-1l2.28,0.15A57.82,57.82,0,0,0,104.21,9l-1.87,0a36,36,0,0,1-.13-3.69,12.88,12.88,0,0,0-5.65-1.2A6.84,6.84,0,0,0,92.3,5.27c-0.93.94-1.63,3.67-1.63,6.69,0,5.26,1.87,9.61,7.35,9.61a16.2,16.2,0,0,0,6.71-1.72h0Z"/><path class="cls-1" d="M118.19,2.22c6.65,0,10.63,3.65,10.63,10.45,0,7.17-4.5,11.17-10.58,11.17-1.06,0-2.46-.13-4.08-0.13-1.37,0-2.76,0-4.17.15l-0.09-1.67c0.76-.09,1.76-0.17,2.82-0.2,0.11-2.06.11-5.22,0.11-8.95s0-6.93-.13-8.95l-2.8.15,0.09-2c0.91,0.06,2.59.07,4.41,0.07,0.74,0,2.76-.07,3.78-0.07h0ZM118.52,22c5,0,7.08-2.83,7.08-8.78,0-5.5-1.91-9.34-8-9.34-0.43,0-1.15,0-2,.06-0.13,2-.13,5.15-0.13,9.08,0,3.72,0,6.87.11,8.93,1,0,2,.06,2.91.06h0Z"/><path class="cls-1" d="M149,17.33l1.83,0.41c-0.31,2.08-.56,4.43-0.65,6H138c-1.37,0-2.76,0-4.17.15l-0.09-1.67c0.76-.09,1.76-0.17,2.82-0.2,0.11-2.06.11-5.22,0.11-8.95s0-6.87-.13-8.89c-1.13,0-2.28.07-2.8,0.09l0.09-1.87c0.91,0,2.59,0,4.41,0h9.39l0.11-.81L150,1.81A37,37,0,0,0,149.12,8l-1.87-.09a32.84,32.84,0,0,1,.17-3.74h-8c-0.11,1.78-.13,4.39-0.13,7.59h5.41c0.07-.69.17-1.39,0.28-2.22l1.8,0.26a35.64,35.64,0,0,0-.5,6.15l-1.78-.09c0-.94,0-1.74.07-2.5h-5.28c0,3.58,0,6.61.11,8.61h8.8c0.19-1.46.41-2.93,0.78-4.59h0Z"/><path class="cls-1" d="M169.52,7.87a32.82,32.82,0,0,1,.17-3.74h-7.63v8.45h6.06c0.07-.69.17-1.39,0.28-2.22l1.8,0.26a35.55,35.55,0,0,0-.5,6.15l-1.78-.09c0-.94,0-1.74.07-2.5h-5.93c0,4.28,0,6.3.15,7.8,0.44,0,1.78.11,3,.22l-0.09,1.67c-1.59-.11-3-0.15-4.35-0.15s-2.76,0-4.17.15l-0.09-1.67c1-.11,2.33-0.2,2.78-0.22,0.15-2,.15-4.85.15-12.63V4.14c-1.2,0-2.46.06-3,.09l0.09-1.87c0.91,0,2.59,0,4.41,0h9L170,1.55l2.26,0.26A36.87,36.87,0,0,0,171.39,8l-1.87-.09h0Z"/><path class="cls-1" d="M192.93,15.44a59.78,59.78,0,0,0,.22,8.26h-1.63L190.39,22a9,9,0,0,1-6.11,2.2c-5.19,0-8.08-4.15-8.08-10.58,0-7.69,4.33-11.69,9.78-11.69a18.33,18.33,0,0,1,4.67.7c0-.33,0-0.67,0-1L193,1.72A57.82,57.82,0,0,0,192.6,9l-1.87,0a36,36,0,0,1-.13-3.69,12.88,12.88,0,0,0-5.65-1.2,6.84,6.84,0,0,0-4.26,1.17c-0.93.94-1.63,3.67-1.63,6.69,0,5.26,1.78,9.8,6.8,9.8a9.5,9.5,0,0,0,4.09-.94c0.13-1.32.13-3,.13-5.37a19.84,19.84,0,0,1-2.45-.22l0.09-1.63c1.11,0.07,2.41.15,3.78,0.15s2.69-.07,3.78-0.15l0.09,1.63c-0.91.13-1.72,0.19-2.45,0.22h0Z"/><path class="cls-1" d="M218.88,22c0.44,0,1.78.11,2.78,0.22l-0.09,1.67c-1.41-.11-2.8-0.15-4.17-0.15s-2.76,0-4.17.15l-0.09-1.67c1-.11,2.33-0.2,2.78-0.22,0.15-1.93.15-4.67,0.15-8.54H205.5c0,3.87,0,6.61.15,8.54,0.44,0,1.78.11,2.78,0.22l-0.09,1.67c-1.41-.11-2.8-0.15-4.17-0.15s-2.76,0-4.17.15l-0.09-1.67c1-.11,2.33-0.2,2.78-0.22,0.15-2,.15-4.85.15-8.93s0-6.95-.15-8.93c-0.44,0-1.78-.11-2.78-0.22L200,2.22c1.41,0.11,2.8.15,4.17,0.15s2.76,0,4.17-.15l0.09,1.67c-1,.11-2.33.2-2.78,0.22-0.13,1.74-.15,4.17-0.15,7.5h10.56c0-3.33,0-5.76-.15-7.5-0.44,0-1.78-.11-2.78-0.22l0.09-1.67c1.41,0.11,2.8.15,4.17,0.15s2.76,0,4.17-.15l0.09,1.67c-1,.11-2.33.2-2.78,0.22-0.15,2-.15,4.85-0.15,8.93S218.73,20,218.88,22Z"/><path class="cls-1" d="M233.08,22c0.44,0,1.78.11,2.78,0.22l-0.09,1.67c-1.41-.11-2.8-0.15-4.17-0.15s-2.76,0-4.17.15l-0.09-1.67c1-.11,2.33-0.2,2.78-0.22,0.15-2,.15-4.85.15-8.93s0-6.95-.15-8.93c-0.44,0-1.78-.11-2.78-0.22l0.09-1.67c1.41,0.11,2.8.15,4.17,0.15s2.76,0,4.17-.15l0.09,1.67c-1,.11-2.33.2-2.78,0.22-0.15,2-.15,4.85-0.15,8.93S232.93,20,233.08,22Z"/><path class="cls-1" d="M245.17,3.88l0.09-1.67c1.41,0.11,3.35.15,4.72,0.15s2.76,0,4.17-.15l0.09,1.67c-1,.11-2.37.2-3,0.22V14.35c0,5-.06,6.54-0.48,7.52-0.74,1.61-2.72,2.3-5.15,2.3-2.63,0-4.71-.78-4.71-2.45a5.82,5.82,0,0,1,.87-2.65H244a9.34,9.34,0,0,0-.3,2.19c0,1.07,1.06,1.37,2.13,1.37a2.8,2.8,0,0,0,2.56-1.07,66.44,66.44,0,0,0,.11-6.84c0-3.85,0-8.5-.22-10.61C247.87,4.09,246.17,4,245.17,3.88Z"/><path class="cls-1" d="M274.45,24.46c-0.76-2-4.58-7.45-7.84-11a14.82,14.82,0,0,1-2.54,1.17c0,3.26,0,5.65.15,7.37,0.44,0,1.78.11,2.78,0.22l-0.09,1.67c-1.41-.11-2.8-0.15-4.17-0.15s-2.76,0-4.17.15l-0.09-1.67c1-.11,2.33-0.2,2.78-0.22,0.15-2,.15-4.85.15-8.93s0-6.95-.15-8.93c-0.44,0-1.78-.11-2.78-0.22l0.09-1.67c1.41,0.11,2.8.15,4.17,0.15s2.76,0,4.17-.15L267,3.88c-1,.11-2.33.2-2.78,0.22-0.15,1.93-.15,4.69-0.15,8.58,3.59-1.5,7.32-4.87,8.06-8.76l-3.33-.13,0-1.52A71.9,71.9,0,0,0,276.6,2l0.06,1.56a15.18,15.18,0,0,0-2.56.65,14.88,14.88,0,0,1-5.26,7.63,77.17,77.17,0,0,1,8.54,11l-2.93,1.57h0Z"/><path class="cls-1" d="M297,17.33l1.83,0.41c-0.32,2.07-.56,4.43-0.65,6h-11.1c-1.37,0-2.76,0-4.17.15l-0.09-1.67c0.8-.09,1.81-0.17,2.89-0.22,0.13-1.74.13-3.48,0.13-5.22,0-7.78,0-10.65-.15-12.63-0.45,0-1.78-.11-2.78-0.22L283,2.22c1.41,0.11,2.8.15,4.17,0.15s2.76,0,4.35-.15l0.09,1.67c-1.19.11-2.52,0.2-3.15,0.22,0,2,0,4.85,0,12.63v5.19h7.71c0.18-1.46.41-2.93,0.78-4.59h0Z"/><path class="cls-1" d="M324.4,4c0.2,9.39.93,16.21,1.15,18,0.44,0,1.8.11,2.8,0.22l-0.09,1.67c-1.41-.11-2.82-0.15-4.19-0.15s-2.76,0-4.17.15l-0.09-1.67c1-.11,2.33-0.2,2.82-0.22-0.09-1.65-.61-8.56-0.83-15.41h-0.07c-1.82,5.06-4.63,11.71-6.3,16h-1.3c-0.26-1.5-3.76-9.89-6.41-16.08h-0.07c-0.18,4.2-.37,10.73-0.65,15.5h0.87a13.19,13.19,0,0,1,2.28.15L310,23.78c-1.28-.07-2.54-0.07-3.61-0.07s-2.5.06-3.78,0.15l-0.09-1.59c1-.13,2-0.2,2.71-0.26,0.18-2.78.89-13.8,1.09-17.91-1.37,0-3,.06-3.58.09l0.09-1.93c0.94,0,2.07.06,3.17,0.06s1.89,0,2.67-.06c2.19,5.11,5.22,11.8,6.76,16.08h0.07c1.59-4.19,4.3-10.23,6.08-16,1.24,0,4.69-.06,5.87-0.15l0.06,1.67C326.92,3.92,325.4,4,324.4,4h0Z"/><path class="cls-1" d="M351.62,4.12c-0.06.78-.09,2.74-0.09,5.06,0,4.35.09,10.11,0.2,12.08l1.33,2.11v0.37c-0.78,0-2.76,0-3.61,0,0-1-7.5-12-11.93-18h-0.07c0.24,4.76.26,12.34,0.3,16.38h0.87a14.52,14.52,0,0,1,2.28.15l-0.09,1.59c-1.28-.07-2.69-0.07-3.76-0.07s-2.5.06-3.78,0.15l-0.09-1.59c1-.13,2-0.2,2.7-0.26,0.09-.63.11-2.58,0.11-5.06,0-4.5-.11-10.82-0.2-12.86-1.19,0-2.45.06-3.06,0.09l0.09-1.93c0.61,0,2.13.07,3.59,0.07h2.24l11.23,16.32H350c-0.11-5.61-.15-12.1-0.19-14.54C349,4.07,348,4,346.84,3.92l0.06-1.63c0.54,0,1.91,0,2.56,0,1.57,0,3.48,0,5-.09l0.15,1.63a23,23,0,0,1-3,.26h0Z"/><path class="cls-1" d="M378.93,13c0,6.8-4.54,11.13-10.3,11.13s-10.3-4.33-10.3-11.13S362.87,1.9,368.63,1.9,378.93,6.24,378.93,13ZM367.87,4.35a14,14,0,0,0-4.8.82c-0.91,1.2-1.7,3.58-1.7,6.85,0,5.82,2,9.71,8,9.71a14,14,0,0,0,4.8-.81c0.91-1.2,1.71-3.58,1.71-6.85,0-5.82-2-9.71-8-9.71h0Z"/><path class="cls-1" d="M392.26,13.76a17.91,17.91,0,0,1-2.83-.26c0,4.74,0,6.89.15,8.47,0.44,0,2,.11,3,0.22l-0.09,1.67c-1.41-.11-3-0.15-4.35-0.15s-2.76,0-4.17.15l-0.09-1.67c1-.11,2.33-0.2,2.78-0.22,0.15-2,.15-4.85.15-12.63V4.09l-2.93.15,0.09-2c0.91,0.06,2.59.07,4.41,0.07,0.74,0,2.76-.07,3.78-0.07,3.56,0,6.85,1,6.85,5.48C399,11.33,396.85,13.76,392.26,13.76ZM389.43,12h5.39A5.54,5.54,0,0,0,396,8.31c0-3.17-1.5-4.41-4.48-4.41-0.46,0-1.24,0-2.13.06V12Z"/><path class="cls-1" d="M421.43,21.28c2.15,0,3.95.67,6.58,3.52l-2,2.37c-1.91-2.67-3.76-3.45-6.11-3.45-1.78,0-3.61.44-5.58,0.44-5.93,0-10.47-4.33-10.47-11.13S408.41,1.9,414.17,1.9s10.3,4.33,10.3,11.13a11.52,11.52,0,0,1-2.76,7.85l-1,.41c0.24,0,.48,0,0.7,0h0Zm-6.35.44c1.41,0,3-.2,4.45-0.33a13.51,13.51,0,0,0,1.89-7.34c0-5.82-2-9.71-8-9.71a14,14,0,0,0-4.8.82c-0.91,1.2-1.7,3.58-1.7,6.85C406.91,17.83,408.89,21.72,415.08,21.72Z"/><path class="cls-1" d="M441.58,8.31c0-3.17-1.5-4.41-4.48-4.41-0.46,0-1.24,0-2.13.06V9.33c0,7.78,0,10.65.15,12.63,0.44,0,2,.11,3,0.22L438,23.85c-1.41-.11-3-0.15-4.35-0.15s-2.76,0-4.17.15l-0.09-1.67c1-.11,2.33-0.2,2.78-0.22,0.15-2,.15-4.85.15-12.63V4.09l-2.93.15,0.09-2c0.91,0.06,2.59.07,4.41,0.07,0.74,0,2.76-.07,3.78-0.07,3.56,0,6.85,1,6.85,5.48,0,3.19-1.61,5.43-5.11,5.95a58.43,58.43,0,0,1,7,9.28l-3,1.33c-0.94-2.39-4.45-7.61-7-10.56a6.6,6.6,0,0,1-1.28-.22,4.17,4.17,0,0,1,1.91-2.26c0.43,0.41.89,0.89,1.37,1.43C440.73,12,441.58,10.68,441.58,8.31Z"/><path class="cls-1" d="M459.36,11.7c3.35,1.46,6.09,2.65,6.09,6.19,0,4.41-3.72,6.28-6.89,6.28a10.37,10.37,0,0,1-5.08-1.44c0,0.56-.06,1-0.11,1.54l-2.17-.09c0.15-1.87.22-4.61,0.22-7.71l2-.15c0,1.54.07,2.74,0.09,3.74,3.32,2,6.67,2.59,8.17,2a4.48,4.48,0,0,0,1.08-2.78c0-2-1.8-3.69-5.61-5.15-3.3-1.28-5.91-2.69-5.91-6.19,0-4.45,3.87-6,7.09-6a11.73,11.73,0,0,1,3.87.72c0-.33,0-0.69,0-1.06l2.28,0.15A57.82,57.82,0,0,0,464.15,9l-1.87,0c-0.11-1.5-.15-2.72-0.13-4.11a12.7,12.7,0,0,0-4.91-1,11.57,11.57,0,0,0-2.7.31,4.92,4.92,0,0,0-.7,2.43c0,1.78,1.7,3.43,5.52,5.08h0Z"/><path class="cls-1" d="M487.12,1.55l2.26,0.26A36.87,36.87,0,0,0,488.5,8l-1.87-.09a33.06,33.06,0,0,1,.17-3.74h-5.87V9.33c0,7.78,0,10.65.15,12.63,0.44,0,1.78.11,2.78,0.22l-0.09,1.67c-1.41-.11-2.8-0.15-4.17-0.15s-2.76,0-4.17.15l-0.09-1.67c1-.11,2.33-0.2,2.78-0.22,0.15-2,.15-4.85.15-12.63V4.12h-5.72c-0.19,1.26-.39,2.41-0.72,3.91L470,7.63c0.33-2.26.56-4.35,0.63-6.08l2.24,0.24c0,0.2-.06.39-0.07,0.57H487l0.11-.82h0Z"/><path class="cls-1" d="M496.13,4.11c-0.78,0-2.33-.11-3.33-0.22l0.09-1.67c1.41,0.11,2.8.15,4.17,0.15,1.56,0,2.95,0,4.35-.15l0.09,1.67c-1,.11-2.33.2-2.78,0.22-0.07,2-.11,6.71-0.11,10.78,0,5,.82,7,5.22,7,4.61,0,5.26-2.17,5.26-8,0-2.87,0-5.8-.13-9.52-0.54-.13-1.7-0.26-2.89-0.57l0.06-1.46c0.54,0,1.17,0,1.82,0,1.95,0,4.22-.09,5.72-0.24l0.15,1.69a20.65,20.65,0,0,1-3,.26c0,3,.13,5.65.13,8,0,7.85-1,12.06-7.82,12.06-5.78,0-7.3-2.74-7.3-8.72C495.87,10.81,496.05,6.09,496.13,4.11Z"/><path class="cls-1" d="M538,3.7a15.27,15.27,0,0,0-2.56.65c-1.82,4.74-5.37,14.6-7.35,19.67h-1.3c-0.3-1.72-4.54-13.32-7.32-19.86a17.59,17.59,0,0,0-2.58-.48L517,2.22a62.39,62.39,0,0,0,8.17-.11l0,1.41c-0.82.11-2.06,0.3-2.74,0.37,1.69,4.5,4.56,12.23,5.83,16,1.2-4,3.87-11.34,5.19-15.87l-3.33-.11,0-1.52a71.9,71.9,0,0,0,7.76-.22Z"/><path class="cls-1" d="M571.69,2.14l0.06,1.56a15.23,15.23,0,0,0-2.56.65C567.38,9.09,564,18.94,562,24h-1.3A92.7,92.7,0,0,0,557,12.5c-1.63,4.17-3.39,8.63-4.41,11.52h-1.3C551,22.3,546.74,10.7,544,4.16a17.55,17.55,0,0,0-2.57-.48l0.09-1.46a62.39,62.39,0,0,0,8.17-.11l0,1.41c-0.82.11-2.06,0.3-2.74,0.37,1.63,4.33,4.33,11.63,5.67,15.54,1-2.69,2.33-6.09,3.54-9a44.52,44.52,0,0,0-3-6.32,9.1,9.1,0,0,0-2.22-.39L551,2.22c2,0.06,4.06,0,6.08,0A40.68,40.68,0,0,0,562.69,2l0.06,1.74a15.28,15.28,0,0,0-2.56.65c-0.5,1.3-1.15,3-1.89,4.83,1.39,3.32,2.83,7.45,3.85,10.5,1.5-4,3.78-11.23,5.08-15.69l-3.33-.11,0-1.52a71.92,71.92,0,0,0,7.76-.22h0ZM557.46,7.25A33.43,33.43,0,0,1,559,4.11V4h-3.24V4.11A16.81,16.81,0,0,1,557.46,7.25Z"/><path class="cls-1" d="M593,22c0.59,0.07,2.24.24,2.76,0.26l-0.09,1.57a72.46,72.46,0,0,0-8.8.11l0-1.59c0.81-.06,2.06-0.17,2.74-0.2l-2.61-3.89c-0.83-1.24-1.61-2.43-2.35-3.56-1.7,2.43-3.74,5.56-4.78,7.39l3.15,0.06,0,1.54c-2.85,0-6.28,0-7.95.22l-0.06-1.65c0.69-.07,2.09-0.2,2.74-0.35,1.57-2.32,4.3-6,6.06-8.56A97.46,97.46,0,0,1,578.15,4c-0.41-.07-2.06-0.24-2.76-0.26l0.09-1.57a68.87,68.87,0,0,0,8.61-.11l0,1.59c-0.82.06-1.95,0.17-2.63,0.2A44.8,44.8,0,0,0,585.37,11c1.63-2.43,3.74-5.61,4.43-7l-3-.06,0-1.54a77.54,77.54,0,0,0,7.76-.22l0.06,1.65c-0.69.07-2.09,0.2-2.74,0.35-1.26,2-4,5.74-5.71,8.19,2.19,3.35,4.69,6.95,6.72,9.69h0Z"/><path class="cls-1" d="M616.17,4.14c-1.06,2.06-3.93,6.56-6,9.76,0,3.61,0,6.22.15,8.06,0.45,0,1.78.11,2.78,0.22L613,23.85c-1.41-.11-2.8-0.15-4.17-0.15s-2.76,0-4.17.15l-0.09-1.67c1-.11,2.33-0.2,2.78-0.22,0.13-1.72.15-4.13,0.15-7.41A65.94,65.94,0,0,0,601.14,4c-0.41-.07-2.06-0.24-2.57-0.26l0.09-1.57a68.21,68.21,0,0,0,8.54-.11l0,1.59c-0.82.06-2.13,0.17-2.82,0.2,1.59,2.54,3.85,6.24,5,8.48,1.2-2,4-6.26,4.82-8.43l-3.33-.06,0-1.54c2.85,0,6.28,0,7.95-.22l0.06,1.65C618.22,3.86,616.82,4,616.17,4.14Z"/><path class="cls-1" d="M637.06,17.33l1.83,0.41c-0.31,2.07-.56,4.43-0.65,6H626.11a28.8,28.8,0,0,0-3.28.15l-0.09-1.59a4.93,4.93,0,0,0,2-2.11l9.74-15.89V4.12l-8.6-.06c-0.18,1.28-.39,2.43-0.72,4l-1.83-.41c0.33-2.26.56-4.35,0.63-6.08l2.24,0.24c0,0.2-.06.39-0.07,0.59l9.11,0.07a26.62,26.62,0,0,0,3.28-.15l0.09,1.59a4.17,4.17,0,0,0-2,2.11l-9.73,15.89V22h9.37c0.2-1.5.43-3,.8-4.71h0Z"/><path class="cls-1" d="M54.08,69.72V71A5.65,5.65,0,0,1,51.39,72,2.61,2.61,0,0,1,49,69.94a6.21,6.21,0,0,1-4.48,2.22,3.22,3.22,0,0,1-3.37-3.48,6.21,6.21,0,0,1,.7-2.74A47.64,47.64,0,0,1,49,64.65l0-3.37c0-2.07-.78-2.82-2.58-2.82a16.28,16.28,0,0,0-2.17.17A13,13,0,0,0,45,61.55l-2.46.63a3.67,3.67,0,0,1-.69-2C41.87,58,44.45,57,46.8,57a8.22,8.22,0,0,1,3.09.56c1.35,0.59,1.7,1.61,1.67,3.71l-0.09,6a7.68,7.68,0,0,0,.2,2.44A8.83,8.83,0,0,0,54.08,69.72Zm-8.26.44A5.53,5.53,0,0,0,48.93,69l0-2.95A26.43,26.43,0,0,0,44,67a5.19,5.19,0,0,0-.13,1.15,1.77,1.77,0,0,0,2,2h0Z"/><path class="cls-1" d="M77.69,63.63c0,4-2.22,8.54-8.34,8.54A35.88,35.88,0,0,1,64,71.63c0.11-4.17.13-7.5,0.13-10.39,0-4.54-.07-9.19-0.13-11.17L61.33,50l0.06-1.61c1.87-.06,4.15-0.2,5.43-0.39L67,48.22c-0.2.78-.3,5.63-0.31,10.65A7.34,7.34,0,0,1,71.56,57C74.91,57,77.69,59.24,77.69,63.63Zm-3,.89c0-1.95-.41-3.71-1.72-4.58a4.08,4.08,0,0,0-2.33-.57,12.77,12.77,0,0,0-3.95.67V70l6.56,0A10,10,0,0,0,74.72,64.52Z"/><path class="cls-1" d="M90.06,63.57c0,4.21,2.13,6.28,5.35,6.28a8.87,8.87,0,0,0,3.93-1.06l0.18,1.67a8.73,8.73,0,0,1-5.11,1.7c-3.89,0-7.08-2.78-7.08-7.63C87.33,59.11,91,57,94.19,57c2.67,0,5.54,1.44,5.54,3.78a2.43,2.43,0,0,1-.19.94H96.63a5.07,5.07,0,0,0,.17-1,1.58,1.58,0,0,0-.63-1.24,4.78,4.78,0,0,0-2.91-.8,4.46,4.46,0,0,0-2.17.46,8.72,8.72,0,0,0-1,4.43h0Z"/><path class="cls-1" d="M122.73,69.72h2.74l-0.07,1.74c-1.46.11-4.09,0.37-4.71,0.46a18.46,18.46,0,0,0-.5-2.09,8,8,0,0,1-5.32,2.33c-2.95,0-5.76-2.15-5.76-6.69,0-3.87,2.13-8.47,7.61-8.47a10.59,10.59,0,0,1,3.35.57c0-3.54-.07-5.56-0.17-7.52l-2.7-.07,0.06-1.61c1.87-.06,4.15-0.2,5.43-0.39l0.22,0.22c-0.22.83-.31,6.32-0.31,11.67,0,4.22.05,8.23,0.13,9.84h0Zm-6.69.09a10.38,10.38,0,0,0,4-.91V59.2h-6.85a12.18,12.18,0,0,0-1.15,5.28c0,2.08.41,3.87,1.76,4.78A4.18,4.18,0,0,0,116,69.81Z"/><path class="cls-1" d="M146.45,62.7a4.09,4.09,0,0,1,0,.59c-2.63.33-7.35,0.57-9.76,0.63,0.11,4,2.22,5.93,5.35,5.93a8.87,8.87,0,0,0,3.93-1.06l0.18,1.67a8.69,8.69,0,0,1-5.11,1.7c-3.89,0-7.08-2.78-7.08-7.63,0-5.43,3.69-7.52,6.87-7.52a5.44,5.44,0,0,1,5.65,5.69h0ZM138,59a6.48,6.48,0,0,0-1.33,3.54c1.76-.11,4.48-0.3,6.63-0.5V61.9c0-2.63-1.08-3.28-3.15-3.28A5.35,5.35,0,0,0,138,59Z"/><path class="cls-1" d="M168.8,50.9a4.7,4.7,0,0,1-.3,1.33H166a2.59,2.59,0,0,0,.13-0.72c0-1.13-.78-1.45-2.48-1.45a11.54,11.54,0,0,0-3.59.61,7.14,7.14,0,0,1,.85,2.82v4H165l-0.32,2h-3.8v0.44c0,4.22.06,8.37,0.13,10.08,0.45,0,1.52.11,2.52,0.22l0,1.67c-1.17-.11-2.5-0.15-3.89-0.15s-2.72,0-3.89.15l0-1.67c1-.11,2.11-0.2,2.56-0.22,0.09-2.13.13-5.39,0.13-8.73v-1.8h-2.65v-2h2.65v-3.3a10.24,10.24,0,0,1,.54-3.83c0.7-1.61,2.41-2.35,5.17-2.35C167.21,48,168.8,49.36,168.8,50.9Z"/><path class="cls-1" d="M184.74,58.76v0.19a3.51,3.51,0,0,1,1.61,3c0,3.45-3,4.89-5.89,4.89a8.43,8.43,0,0,1-1.54-.15l-1.39,2.22L177.63,69l3.21,0c4.33,0,7,.94,7,4.24s-2.8,5.89-7.46,5.89c-4.08,0-5.93-1.65-5.93-3.69a4,4,0,0,1,1.85-3l1.17,0.15a3.46,3.46,0,0,0-.7,1.87c0,1.63,1.61,2.54,4.43,2.63a10,10,0,0,0,3.67-.54,8.4,8.4,0,0,0,.56-2.74c0-2.07-1.59-2.39-4.91-2.39-1.76,0-3.61.09-4.48,0.15l-1.19-2.65c1.48-1.15,2.3-1.82,2.67-2.61a4.45,4.45,0,0,1-2.82-4.3c0-3.48,2.95-4.95,5.78-4.95a63.55,63.55,0,0,0,7.95-.22v2.06Zm-1.89,6a3.91,3.91,0,0,0,.83-2.83,2.93,2.93,0,0,0-3.22-3.28,6.43,6.43,0,0,0-2.32.43,3.94,3.94,0,0,0-.8,2.85c0,2.28,1.26,3.28,3.11,3.28a6.85,6.85,0,0,0,2.39-.44h0Z"/><path class="cls-1" d="M213.75,70.18l0,1.67c-1.17-.11-2.35-0.15-3.87-0.15s-2.72,0-3.89.15l0-1.67c1-.11,2.11-0.2,2.56-0.22,0.17-1.22.28-5,.28-6.76,0-3.41-1.7-3.87-3.13-3.87a7.38,7.38,0,0,0-3.65,1c0,4.08.06,8,.13,9.67,0.45,0,1.52.11,2.52,0.22l0,1.67c-1.17-.11-2.5-0.15-3.89-0.15s-2.72,0-3.89.15l0-1.67c1-.11,2.11-0.2,2.56-0.22,0.09-2.13.13-5.39,0.13-8.73,0-4.54-.07-9.19-0.13-11.17L196.57,50l0.05-1.61c1.87-.06,4.15-0.2,5.43-0.39l0.22,0.22A109.14,109.14,0,0,0,202,59.35,6.73,6.73,0,0,1,206.84,57c2.22,0,4.5,1.3,4.5,5.46,0,2.52-.05,5.85-0.15,7.48C211.63,70,212.75,70.07,213.75,70.18Z"/><path class="cls-1" d="M228.08,57.25l0.24,0.22a48.6,48.6,0,0,0-.33,7.17c0,1.85,0,3.72.11,5.32,0.45,0,1.56.11,2.56,0.22l0,1.67c-1.17-.11-2.5-0.15-3.89-0.15s-2.72,0-3.89.15l0-1.67c1-.11,2.11-0.2,2.56-0.22,0.07-1.59.11-3.46,0.11-5.32s0-3.72-.11-5.32l-2.74-.07,0.05-1.61c1.87-.06,4.13-0.2,5.41-0.39h0Zm-0.39-7.5v3.08h-3.08V49.75h3.08Z"/><path class="cls-1" d="M241.19,59.33l-2.74-.07,0.05-1.61c1.87-.06,4.13-0.2,5.41-0.39l0.24,0.22a48.41,48.41,0,0,0-.33,7.17v8a9.93,9.93,0,0,1-.52,3.83c-0.74,1.67-2.33,2.35-4.76,2.35-2.72,0-4.95-.78-4.95-2.32a4.22,4.22,0,0,1,.31-1.33h2.78a2.51,2.51,0,0,0-.13.69c0,0.85,1.09,1.11,2.17,1.11a5.59,5.59,0,0,0,2.52-.54c0-.57.05-1.35,0.05-1.94V64.65C241.3,62.77,241.26,60.92,241.19,59.33Zm2.33-9.58v3.08h-3.08V49.75h3.08Z"/><path class="cls-1" d="M264,63.55a41.38,41.38,0,0,1,6.35,7l-2.54,1.89c-0.54-1.5-3.24-4.93-5.87-7.52a9.22,9.22,0,0,1-2.43,1c0,1.74.06,3.19,0.09,4,0.44,0,1.52.11,2.52,0.22l0,1.67c-1.17-.11-2.5-0.15-3.89-0.15s-2.72,0-3.89.15l0-1.67c1-.11,2.11-0.2,2.56-0.22,0.09-2.13.13-5.39,0.13-8.73,0-4.54-.07-9.19-0.13-11.17L254.06,50l0.05-1.61c1.87-.06,4.15-0.2,5.43-0.39l0.22,0.22c-0.22.83-.32,6.32-0.32,11.67,0,1.52,0,3,0,4.39,2.41-.63,5.61-3.28,5.61-5V59.22c-0.63,0-1.43-.11-2.45-0.22l0.11-1.67c1.46,0.07,3.32.13,4.78,0.13,1.22,0,2.46,0,3.32-.06l-0.09,1.67a21.36,21.36,0,0,1-3.48.28C267.1,60.59,265.67,62.22,264,63.55Z"/><path class="cls-1" d="M285.3,48.22c-0.22.83-.32,6.32-0.32,11.67,0,5.61.13,9.93,0.13,10.08,0.44,0,1.52.11,2.52,0.22l0,1.67c-1.17-.11-2.5-0.15-3.89-0.15s-2.72,0-3.89.15l0-1.67c1-.11,2.11-0.2,2.56-0.22,0.09-2.13.13-5.39,0.13-8.73,0-4.54-.07-9.19-0.13-11.17L279.59,50l0.05-1.61c1.87-.06,4.15-0.2,5.43-0.39Z"/><path class="cls-1" d="M322.75,70.18l0,1.67c-1.17-.11-2.35-0.15-3.74-0.15s-2.72,0-3.89.15l0-1.67c1-.11,2.11-0.2,2.56-0.22,0.17-1.22.28-5,.28-6.76,0-3.41-1.7-3.87-3.13-3.87a7.55,7.55,0,0,0-3.59.93,8.65,8.65,0,0,1,.26,2.22c0,1.82-.13,5.85-0.22,7.48,0.44,0,1.56.11,2.56,0.22l0,1.67c-1.17-.11-2.35-0.15-3.74-0.15s-2.72,0-3.89.15l0-1.67c1-.11,2.11-0.2,2.56-0.22,0.17-1.22.28-5,.28-6.76,0-3.41-1.71-3.87-3.13-3.87a7.27,7.27,0,0,0-3.58.93c-0.06,1.2-.07,2.65-0.07,4.08,0,2.3.06,4.52,0.13,5.63,0.44,0,1.54.11,2.54,0.22l0,1.67c-1.17-.11-2.5-0.15-3.89-0.15s-2.72,0-3.89.15l0-1.67c1-.11,2.11-0.2,2.56-0.22,0.07-1.59.11-3.46,0.11-5.32s0-3.72-.11-5.32l-2.74-.07,0.06-1.61c1.69-.13,3.78-0.35,5.06-0.57a14.88,14.88,0,0,0,.26,2.28A6.68,6.68,0,0,1,307,57.16a4,4,0,0,1,3.95,2.41A6.64,6.64,0,0,1,316,57.16c2.22,0,4.45,1.15,4.45,5.32,0,1.82-.13,5.85-0.22,7.48C320.64,70,321.75,70.07,322.75,70.18Z"/><path class="cls-1" d="M346.45,70c0.45,0,1.56.11,2.56,0.22l0,1.67c-1.17-.11-2.35-0.15-3.87-0.15s-2.72,0-3.89.15l0-1.67c1-.11,2.11-0.2,2.56-0.22,0.17-1.22.28-5,.28-6.76,0-3.41-1.71-3.87-3.13-3.87a7.55,7.55,0,0,0-3.59.93c-0.06,1.22-.07,2.65-0.07,4.08,0,2.3.06,4.52,0.13,5.63,0.44,0,1.54.11,2.54,0.22l0,1.67c-1.17-.11-2.5-0.15-3.89-0.15s-2.72,0-3.89.15l0-1.67c1-.11,2.11-0.2,2.56-0.22,0.07-1.59.11-3.46,0.11-5.32s0-3.72-.11-5.32l-2.74-.07,0.06-1.61c1.69-.13,3.78-0.35,5.06-0.57a15.14,15.14,0,0,0,.26,2.3A6.79,6.79,0,0,1,342.1,57c2.22,0,4.5,1.3,4.5,5.46,0,2.52-.06,5.85-0.15,7.48h0Z"/><path class="cls-1" d="M372.17,64.53a7.25,7.25,0,0,1-7.39,7.63c-4.11,0-7.13-2.95-7.13-7.52A7.25,7.25,0,0,1,365,57C369.15,57,372.17,60,372.17,64.53Zm-3,.37c0-2.52-.5-4.46-1.89-5.35a5.94,5.94,0,0,0-3-.69,7.2,7.2,0,0,0-2.45.41,7.38,7.38,0,0,0-1.3,4.72c0,2.61.69,4.67,2,5.52a5.65,5.65,0,0,0,2.72.61,7.42,7.42,0,0,0,2.58-.41,7.49,7.49,0,0,0,1.3-4.82h0Z"/><path class="cls-1" d="M397.54,63.65c0,3.87-2.13,8.46-7.61,8.46a10.61,10.61,0,0,1-3.35-.57c0,3.32.07,5.24,0.09,6.72,0.59,0,1.82.11,3,.22l0,1.67c-1.35-.11-3-0.15-4.37-0.15s-2.83,0-4,.15l0-1.67c1-.11,2.11-0.2,2.67-0.22,0.11-.83.17-3.67,0.17-9,0-4.22-.06-8.37-0.09-9.91l-2.63-.07,0.05-1.61c1.69-.13,3.59-0.35,4.87-0.57a14.67,14.67,0,0,0,.26,2.17A8,8,0,0,1,391.78,57C394.73,57,397.54,59.11,397.54,63.65Zm-3,1c0-2.07-.41-3.87-1.76-4.78a4.18,4.18,0,0,0-2.2-.56,10.39,10.39,0,0,0-4,.91v9.71h6.85A12.19,12.19,0,0,0,394.58,64.65Z"/><path class="cls-1" d="M420.84,78.26c0.44,0,1.52.11,2.52,0.22l0,1.67c-1.17-.11-2.61-0.15-4-0.15s-3,0-4.37.15l0-1.67c1.19-.11,2.48-0.2,3-0.22,0.13-.78.22-3.56,0.24-7.95a7.34,7.34,0,0,1-4.83,1.85c-3.35,0-6.13-2.22-6.13-6.61,0-4,2.22-8.54,8.34-8.54a35.81,35.81,0,0,1,5.32.54c-0.11,4.17-.13,7.5-0.13,10.39,0,4.54.07,8.34,0.13,10.32h0Zm-9-9a4.09,4.09,0,0,0,2.33.57,12.77,12.77,0,0,0,3.95-.67V59.22l-6.56,0a10,10,0,0,0-1.45,5.41c0,1.95.41,3.71,1.72,4.58h0Z"/><path class="cls-1" d="M443.15,60.92l-2.54.35a5.33,5.33,0,0,0-.69-2.48c-0.54-.09-2.06,1-2.85,2.33,0,1,0,2.11,0,3.2,0,2.3.06,4.52,0.13,5.63,0.44,0,1.54.11,2.54,0.22l0,1.67c-1.17-.11-2.5-0.15-3.89-0.15s-2.72,0-3.89.15l0-1.67c1-.11,2.11-0.2,2.56-0.22,0.07-1.59.11-3.46,0.11-5.32s0-3.72-.11-5.32l-2.74-.07,0.06-1.61c1.69-.13,3.78-0.35,5.06-0.57a11.23,11.23,0,0,0,.35,2.63c1.2-1.8,2.37-2.76,3.58-2.76S442.89,57.92,443.15,60.92Z"/><path class="cls-1" d="M458.78,63.22c2.3,0.87,4.8,1.93,4.8,4.56,0,2.46-2.07,4.39-5.09,4.39a10.21,10.21,0,0,1-4.17-1c0,0.33-.06.65-0.11,1l-1.82-.06c0.15-1.41.2-3.3,0.2-5.08l1.69-.13c0,0.8.06,1.46,0.07,2a11.83,11.83,0,0,0,5.09,1.54,4,4,0,0,0,1.2-.17,3.82,3.82,0,0,0,.57-1.89c0-1.33-1.3-1.74-3.89-2.72-2.3-.87-4.39-1.85-4.39-4.46,0-2.45,1.82-4.22,5.54-4.22a6.61,6.61,0,0,1,2.87.56c0.07-.35.13-0.74,0.22-1.19l1.85,0.37a33.81,33.81,0,0,0-.82,4.95L461,61.46a17.2,17.2,0,0,1,.11-2.15,15.23,15.23,0,0,0-3.5-.43,9,9,0,0,0-1.78.17,2.63,2.63,0,0,0-.52,1.52c0,1.17.83,1.63,3.48,2.65h0Z"/><path class="cls-1" d="M483.32,69.05l0.37,1.43a12.53,12.53,0,0,1-5.5,1.69c-1.67,0-2.95-1.17-2.95-3.33,0-3.3.06-6.61,0.09-9.39h-2.74v-2h2.74c0-2.22-.09-3.95-0.09-5.69l2.65-.61c0,1.95-.06,4.08-0.07,6.3h5.91l-0.31,2H477.8c0,2.69,0,5.43,0,8a4.47,4.47,0,0,0,.28,2.13A15.3,15.3,0,0,0,483.32,69.05Z"/><path class="cls-1" d="M507.13,69.87h2.61l-0.07,1.57c-1.46.33-4,.61-4.58,0.7a19.26,19.26,0,0,0-.57-2.37,6.82,6.82,0,0,1-4.93,2.43c-2.22,0-4.5-1.33-4.5-5.5,0-1.82.15-5.85,0.07-7.37l-2.91-.07,0.06-1.61c1.87-.06,4.19-0.2,5.46-0.39L498,57.48c-0.2,2.93-.32,5-0.32,8.5s1.7,3.87,3.13,3.87a7.6,7.6,0,0,0,3.67-1l0-3.8c0-2.41,0-4.09,0-5.76l-2.91-.07,0.06-1.61c1.87-.06,4.19-0.2,5.46-0.39l0.22,0.22a45.27,45.27,0,0,0-.32,6.76c0,2.32.06,4.59,0.13,5.63h0Z"/><path class="cls-1" d="M534.78,57.31l0.09,1.56c-0.76.15-1.69,0.31-2.37,0.52-1.58,3.56-4.08,9-5.83,13.06h-1.24c-0.32-1.72-4.11-10.1-5.74-13-0.74-.11-1.8-0.2-2.59-0.3l0.09-1.74a69,69,0,0,0,8.09-.07l0.09,1.48c-0.5.09-2.11,0.33-2.76,0.43,0.74,1.54,3.26,7.47,4.15,9.74l3.89-9.82L528,59l0.09-1.52c1.91,0,5.56,0,6.67-.15h0Z"/><path class="cls-1" d="M566.58,58.87c-0.76.15-1.69,0.31-2.37,0.52-1.57,3.56-3.52,9-4.91,13.06h-1.24c-0.24-1.37-2.22-7.43-3.43-11-1.5,3.82-3.65,9.26-4.17,11h-1.24a93.21,93.21,0,0,0-4.45-13.13c-0.74-.11-1.8-0.2-2.59-0.3l0.09-1.63a69,69,0,0,0,8.09-.07l0.09,1.48c-0.5.09-2.19,0.33-2.83,0.43,0.5,1.33,2.06,5.93,3,8.56,1.39-3.85,3.11-8.76,3.11-10l2.28-.37c0.65,2.22,2.45,7.5,3.43,10.35l2.95-8.58L559.73,59l0.09-1.52c1.91,0,5.56,0,6.67-.15Z"/><path class="cls-1" d="M588.39,69.87a14,14,0,0,0,2.39.48l-0.07,1.44c-1.13-.07-5.26-0.11-6.56-0.06l-0.07-1.45,1.15-.33c-0.72-1.09-1.78-2.54-2.91-4.06-1.11,1.35-2.2,2.7-3.32,4.13l2.59,0.17-0.07,1.5c-1.58,0-5.56,0-6.67.17l-0.07-1.56a17.8,17.8,0,0,0,2.33-.52c1.5-1.7,2.93-3.37,4.32-5.06-1.5-2-3-4-3.78-5.41a14.59,14.59,0,0,0-2.41-.48l0.09-1.44c1.06,0.07,4.26.11,6,0l0.07,1.5-0.83.33c0.52,0.87,1.41,2.15,2.43,3.56,1-1.19,1.93-2.39,2.91-3.65l-2.41-.06,0.07-1.85a38.5,38.5,0,0,0,6.48.07l0.07,1.56a16.81,16.81,0,0,0-2.32.52c-1.37,1.56-2.67,3.07-3.95,4.59,1.57,2.15,3.3,4.39,4.48,5.89h0Z"/><path class="cls-1" d="M616.89,57.31L617,58.94c-0.76.15-1.69,0.3-2.37,0.44-4.48,10.11-6.89,16.21-9.11,21.41l-2.74-1.74a18.76,18.76,0,0,0,4.54-6.58l0.31-.78h-1.13c0.13-3.39-3.06-9.28-4.87-12.39L599,59l0.09-1.63a69,69,0,0,0,8.09-.07l0.09,1.48c-0.5.09-2.11,0.33-2.76,0.43a51.94,51.94,0,0,1,4.09,10l4.13-10.1L610.13,59l0.09-1.52c1.91,0,5.56,0,6.67-.15h0Z"/><path class="cls-1" d="M637.06,65.89l1.65,0.37c-0.31,1.89-.56,4-0.65,5.45H627.91c-0.61,0-1.22,0-1.83.07l-0.45-1.61A2.93,2.93,0,0,0,627,69.09l7.3-9.71V59.26L628,59.18c-0.17.94-.35,1.85-0.63,3l-1.65-.35a48.85,48.85,0,0,0,.63-5.39l2.06,0.22c0,0.28-.09.56-0.13,0.81l6.28,0.07a8.11,8.11,0,0,0,2.69-.52l1.19,1.13a140.27,140.27,0,0,0-8.72,11.71V70h6.46c0.24-1.31.54-2.63,0.91-4.11h0Z"/><path class="cls-2" d="M54.8,114.72l0.37,1.87c-1.63,1.89-3.26,3.45-4.56,3.45-0.89,0-1.44-.72-1.31-3l0.26-4.63H49.48c-1.85,4.33-3.89,7.71-5.61,7.71s-2.54-3.45-2.54-6.69c0-5.54,2.39-8.32,5.09-8.32a6.43,6.43,0,0,1,3.24,1l0.07-1.72H52L51.52,117c0,0.43.09,0.65,0.3,0.65,0.46,0,1.43-1,3-3h0Zm-5.32-6.8a7.66,7.66,0,0,0-3.19-1.15c-1.89,0-2.74,2.57-2.74,5.33,0,2.31.56,5.76,1.09,5.76S48.63,112.29,49.48,107.92Z"/><path class="cls-2" d="M74.87,105c1.7,0,2.54,3.45,2.54,6.69,0,5.54-2.39,8.32-5.09,8.32a6.49,6.49,0,0,1-3.24-1v1H66.85V97.68c-0.59,0-1.54.07-3.15,0.07l0-1.52a45.45,45.45,0,0,0,5.33-.37v17.06h0.07c1.85-4.52,4-7.89,5.72-7.89h0Zm0.31,8c0-2.32-.56-5.76-1.09-5.76s-4.09,5.56-4.87,9.91a7.52,7.52,0,0,0,3.22,1.19C74.34,118.41,75.19,115.83,75.19,113.07Z"/><path class="cls-2" d="M94.49,106.81c-2,0-2.76,2.07-2.76,5.22,0,3.63,1.2,6.41,3.15,6.41,1.48,0,2.69-1.54,3.76-2.83L99,117.35a6.69,6.69,0,0,1-4.93,2.8c-2.83,0-4.61-3.13-4.61-6.63,0-4,2.32-8.48,6-8.48,1.59,0,3.19.83,3.19,2.43a4.35,4.35,0,0,1-.87,2.33l-1,.07c0-2-.87-3.06-2.32-3.06h0Z"/><path class="cls-2" d="M124.49,116.72c-1.63,1.89-3.26,3.45-4.56,3.45-0.89,0-1.31-.72-1.31-3v-4.95h-0.07c-1.85,4.52-4,7.89-5.72,7.89s-2.54-3.45-2.54-6.69c0-5.54,2.39-8.32,5.09-8.32a6.49,6.49,0,0,1,3.24,1V97.68c-0.59,0-1.54.07-3.15,0.07l0-1.52a45.55,45.55,0,0,0,5.33-.37v21.3c0,0.43.09,0.65,0.3,0.65,0.46,0,1.43-1,3-3Zm-6-8.76a7.51,7.51,0,0,0-3.22-1.19c-1.89,0-2.74,2.57-2.74,5.33,0,2.32.56,5.76,1.09,5.76S117.69,112.31,118.47,108Z"/><path class="cls-2" d="M144.75,117.35a6.69,6.69,0,0,1-4.93,2.8c-2.83,0-4.61-3.13-4.61-6.63,0-4,2.15-8.48,6-8.48,1.65,0,3.35.83,3.35,2.33,0,2.37-4.11,5.69-6.8,7.47,0.44,2.17,1.46,3.61,2.87,3.61s2.69-1.54,3.76-2.83ZM137.47,112c0,0.46,0,.93.06,1.37,2.43-1.69,4.89-3.58,4.91-5,0-1-1.17-1.57-2.2-1.57C138.21,106.81,137.47,108.89,137.47,112Z"/><path class="cls-2" d="M167.47,98.42a4.35,4.35,0,0,1-.87,2.33l-1,.07c0-2-.43-3.13-2.11-3.13-2.8,0-3.22,3-3.22,6.21v1.5h3.39l-0.37,1.41h-3v14.75h-2.22V106.81h-2.95V105.4h2.95c-0.06-6.74,2.74-9.41,6-9.41C165.88,96,167.47,96.83,167.47,98.42Z"/><path class="cls-2" d="M184.79,112.24c0,2.15.18,5.21,0.18,7.35,0,5-2.28,8.45-7.11,8.45-2.61,0-6.3-.91-6.3-2.91,0-1.15,1.22-2.35,3.3-3.8l1.87,0.37c-1.43,1-2.67,1.87-2.67,2.65,0,1.09,2.61,2,4.83,2,3.06,0,3.85-1.32,3.85-5.65,0-2.5-.19-5.93-0.19-8.43h-0.07c-1.85,4.52-4,7.89-5.72,7.89s-2.54-3.45-2.54-6.69c0-5.54,2.39-8.32,5.09-8.32a6.49,6.49,0,0,1,3.24,1v-1.72h2.22v7.8h0ZM182.42,108a7.51,7.51,0,0,0-3.22-1.19c-1.89,0-2.74,2.57-2.74,5.33,0,2.31.56,5.76,1.09,5.76S181.64,112.31,182.42,108Z"/><path class="cls-2" d="M200.21,112h0.07C202,107.63,205,105,206.56,105c1.17,0,1.56,1.28,1.56,4,0,1.91,0,4.41-.11,7.8,0,0.43,0,.76.18,0.76,0.43,0,1.59-1.15,3.15-3.07l0.37,2.06c-1.63,1.89-3.22,3.45-4.52,3.45-0.81,0-1.44-.61-1.44-2.48v-6.82c0-1.85-.2-3.24-0.61-3.24-0.7,0-4.93,4.13-4.93,10.76v1.44H198V98.07c-0.59.06-1.54,0.11-3.15,0.11l0-1.56a23.28,23.28,0,0,0,5.33-.76V112h0Z"/><path class="cls-2" d="M226,116.85c-0.06,1.39,1,.48,3.3-2.32l0.33,2.06c-1.65,1.89-3.21,3.45-4.5,3.45-0.89,0-1.33-.72-1.26-3l0.3-8.67c0.06-1.76-1.11-.67-3.39,1.76l-0.35-1.87c1.65-1.52,3.33-3.26,4.54-3.26,0.83,0,1.41.72,1.33,3Zm0.82-17.38a1.82,1.82,0,0,1-3.63,0A1.82,1.82,0,0,1,226.82,99.48Z"/><path class="cls-2" d="M238.86,126.13c-1.59,0-3.19-.83-3.19-2.43a4.35,4.35,0,0,1,.87-2.33l1-.07c0,1.85.8,3.13,2.11,3.13,2.06,0,2.3-3,2.3-4.91V108.4c0-1.76-1.11-.67-3.39,1.76l-0.35-1.87c1.65-1.52,3.43-3.26,4.63-3.26,0.83,0,1.33.72,1.33,3v9.5C244.14,123.43,241.78,126.13,238.86,126.13Zm5.5-26.66a1.82,1.82,0,0,1-3.63,0A1.82,1.82,0,0,1,244.36,99.48Z"/><path class="cls-2" d="M271.79,117c-1.26,1.89-2.24,3.07-3.41,3.07-1.82,0-3.39-3.19-5.39-6.89-0.52.13-1,.24-1.58,0.35v4.61l3.15,0.2-0.07,1.48c-1.46-.07-2.87-0.09-4.15-0.09s-2.87,0-4.33.09l0-1.48c1-.07,2.8-0.2,3.22-0.3V97.68c-0.59,0-1.54.07-3.15,0.07l0-1.52a45.55,45.55,0,0,0,5.33-.37v16.08c4-.8,6.3-1.72,6.3-3.37,0-1.28-1.39-1.37-3.09-1.43l0.07-1a4.51,4.51,0,0,1,2.58-1.15c1.43,0,2.46,1.35,2.46,3,0,2.33-2,3.63-4.63,4.52,1.67,3.09,3,5,3.76,5,0.46,0,1.37-.78,2.56-2.7Z"/><path class="cls-2" d="M283.25,117.15V97.68c-0.59,0-1.54.07-3.15,0.07l0-1.52a45.55,45.55,0,0,0,5.33-.37v21.25c0,0.43.09,0.65,0.3,0.65,0.46,0,1.43-1,3-3l0.37,1.87c-1.63,1.89-3.26,3.44-4.56,3.44-0.89,0-1.32-.72-1.32-3h0Z"/><path class="cls-2" d="M312,119.7h-2.22v-9c0-1.85-.2-3.24-0.61-3.24-0.7,0-4.93,4.13-4.93,10.76v1.44H302V108.2c0-.59-0.13-0.87-0.39-0.87-0.5,0-1.48,1-3,2.63l-0.37-1.69c1.63-1.52,3.37-3.26,4.58-3.26,0.83,0,1.35.72,1.37,3l0,4h0.07C306,107.63,309,105,310.57,105c1.17,0,1.41,1.28,1.41,4a18.8,18.8,0,0,1-.24,3.09h0.07c1.95-4.52,4.91-7.13,6.52-7.13,1.17,0,1.56,1.28,1.56,4,0,1.91,0,4.59-.11,8,0,0.43,0,.76.18,0.76,0.43,0,1.59-1.15,3.15-3.08l0.37,1.87c-1.63,1.89-3.22,3.45-4.52,3.45-0.82,0-1.45-.61-1.45-2.48v-6.82c0-1.85-.2-3.24-0.61-3.24-0.7,0-4.93,4.13-4.93,10.76v1.44Z"/><path class="cls-2" d="M335.94,108.2c0-.59-0.13-0.87-0.39-0.87-0.5,0-1.48,1-3,2.63l-0.37-1.69c1.63-1.52,3.37-3.26,4.58-3.26,0.83,0,1.35.72,1.37,3l0,4h0.08c1.76-4.33,4.67-6.95,6.28-6.95,1.17,0,1.56,1.28,1.56,4,0,1.91,0,4.59-.11,8,0,0.43,0,.76.19,0.76,0.43,0,1.59-1.15,3.15-3.08l0.37,1.87c-1.63,1.89-3.22,3.45-4.52,3.45-0.81,0-1.44-.61-1.44-2.48v-6.82c0-1.85-.2-3.24-0.61-3.24-0.7,0-4.93,4.13-4.93,10.76v1.44h-2.22V108.2h0Z"/><path class="cls-2" d="M360.38,113.07c0-3.67,2-8,5.72-8,3.43,0,5.61,3.2,5.61,7.08,0,3.67-2,8-5.72,8-3.43,0-5.61-3.2-5.61-7.08h0Zm6,5.71c2.08,0,2.83-2.82,2.83-5.45,0-4.06-1.43-6.93-3.46-6.93s-2.83,2.8-2.83,5.45C362.9,115.91,364.33,118.78,366.36,118.78Z"/><path class="cls-2" d="M392.12,105c1.71,0,2.54,3.45,2.54,6.69,0,5.54-2.39,8.32-5.09,8.32a6.49,6.49,0,0,1-3.24-1v7.39l3.15,0.2-0.07,1.48c-1.46-.07-2.87-0.09-4.15-0.09s-2.87,0-4.33.09l0-1.48c1-.07,2.8-0.2,3.22-0.3V104.44h2.22v8.48h0.07c1.85-4.52,4-7.89,5.72-7.89h0Zm0.32,8c0-2.32-.56-5.76-1.09-5.76s-4.09,5.56-4.87,9.91a7.51,7.51,0,0,0,3.22,1.19C391.59,118.41,392.44,115.83,392.44,113.07Z"/><path class="cls-2" d="M420.61,126.61l-0.07,1.48c-1.46-.07-2.87-0.09-4.15-0.09s-2.87,0-4.33.09l0-1.48c1-.07,2.8-0.2,3.22-0.3V112.26h-0.07c-1.85,4.52-4,7.89-5.72,7.89s-2.54-3.45-2.54-6.69c0-5.54,2.39-8.32,5.09-8.32a6.49,6.49,0,0,1,3.24,1v-1.72h2.22v22ZM415.09,108a7.52,7.52,0,0,0-3.22-1.19c-1.89,0-2.74,2.58-2.74,5.33,0,2.32.56,5.76,1.09,5.76S414.31,112.31,415.09,108Z"/><path class="cls-2" d="M434.73,117.89v1.81h-2.22V108.2c0-.59-0.13-0.87-0.39-0.87-0.5,0-1.48,1-3,2.63l-0.37-1.69c1.63-1.52,3.37-3.26,4.58-3.26,0.83,0,1.35.72,1.37,3l0,2.5h0.07c0.85-2.67,2.52-5.46,4.3-5.46,1.09,0,1.83,1.11,1.83,2.41a4,4,0,0,1-.8,2.35l-0.91.07c-0.07-.91-0.43-2.69-1.07-2.69C437,107.16,434.73,112,434.73,117.89Z"/><path class="cls-2" d="M456.44,118.83a2.12,2.12,0,0,0,2.3-2.07c0-1.61-1.37-2.41-3-3.3-1.83-1-3.76-1.87-3.76-4.37,0-2.7,2.35-4,4.65-4,1.72,0,3.52.69,3.52,2.09a2.66,2.66,0,0,1-.93,1.8l-1,0a2.5,2.5,0,0,0-2.37-2.65,1.79,1.79,0,0,0-1.89,2c0,1.61,1,2.13,2.67,3s4.09,1.91,4.09,4.76-2.24,4-5,4c-2.13,0-3.93-.7-3.93-2.11a2.55,2.55,0,0,1,.93-1.8l1-.06a2.73,2.73,0,0,0,2.74,2.67h0Z"/><path class="cls-2" d="M481.48,114.15l0.24,1.93c-1,1-3.63,4-5.89,4-1.28,0-1.7-.93-1.7-2.69v-10.6h-2.71V105.4h2.71v-6l2.22-.37v6.41c1.74,0,3.46-.06,5.21-0.19l-0.37,1.59h-4.83v7.76c0,2.2.17,3.13,0.8,3.13,1.07,0,3.26-2.43,4.33-3.56h0Z"/><path class="cls-2" d="M495.42,108.53c0-.54-0.09-0.82-0.35-0.82-0.5,0-1.52,1-3,2.63l-0.37-1.87c1.63-1.52,3.37-3.26,4.61-3.26,0.72,0,1.39.61,1.39,2.43v6.78c0,1.85.2,3.24,0.61,3.24,0.7,0,4.93-4.11,4.93-10.74v-1.44h2.22v11.45c0,0.43.09,0.65,0.3,0.65,0.44,0,1.43-1,3-3l0.37,2.06c-1.63,1.89-3.26,3.45-4.56,3.45-0.89,0-1.28-.72-1.3-3l0-3.93h-0.07c-1.76,4.33-4.67,6.93-6.28,6.93-1.17,0-1.56-1.28-1.56-4,0-1.91,0-4.19.11-7.58h0Z"/><path class="cls-2" d="M530.85,105c1.39,0,2.22,1.59,2.22,3.72a14.65,14.65,0,0,1-2.45,7.69c-1.15,1.67-3.06,3.63-5.78,3.63a5.58,5.58,0,0,1-.78,0c-0.06-1.78-.13-3.22-0.3-4.63-0.48-4.17-1.41-7.89-2.8-7.89-0.78,0-1.65,1.24-2.65,2.67L518,108.31c1.45-2.06,2.72-3.28,3.87-3.28,2.3,0,3.61,4.78,4.2,10,0.11,1,.19,1.95.24,3.11a6.8,6.8,0,0,0,3.41-3.17,10.64,10.64,0,0,0,1.46-5.24c0-1.82-.65-2.43-1.83-2.43a6.06,6.06,0,0,0-1.07.13l-0.11-1.15a5.36,5.36,0,0,1,2.72-1.24h0Z"/><path class="cls-2" d="M562.3,105c1.39,0,2.22,1.59,2.22,3.72a14.64,14.64,0,0,1-2.45,7.69c-1.06,1.54-2.83,3.46-5.37,3.46a5.6,5.6,0,0,1-.78,0c-0.06-1.78-.13-3.22-0.3-4.63l-0.09-.81h-0.07c-0.74,2.71-3.22,5.48-6.24,5.48-0.19,0-.39,0-0.57,0,0-5.5-.32-12.52-2-12.52-0.78,0-1.65,1.24-2.65,2.67l-0.37-1.87c1.44-2.06,2.65-3.28,3.8-3.28,2.57,0,3.33,7.13,3.35,13,2.3-1,4-4.59,4-7.52a29.41,29.41,0,0,0-.74-5.08h2.3c0.65,3,1.13,6.95,1.46,9.54a29.94,29.94,0,0,1,.24,3.13,6.25,6.25,0,0,0,3.07-3,10.64,10.64,0,0,0,1.46-5.24c0-1.82-.65-2.43-1.83-2.43a6.07,6.07,0,0,0-1.07.13l-0.11-1.15A5.37,5.37,0,0,1,562.3,105h0Z"/><path class="cls-2" d="M588.89,113.46l1,1.83c-0.78,1.93-2,4.91-3.37,4.91-0.61,0-1.2-.8-2-2.44l-1.76-3.54-1.45,3c-1.09,2.28-1.41,3-2.3,3-1.3,0-2.11-1.56-2.74-3.45l1.44-2.06c0.54,1.93,1.17,3,1.72,3a0.88,0.88,0,0,0,.69-0.65l2-4.06-2.17-4.35a1,1,0,0,0-.59-0.69c-0.5,0-1,1.31-2,3.5l-0.93-1.65c0.95-1.78,2.26-4.72,3.54-4.72,0.61,0,1.19.76,2,2.41l1.43,2.91,1.15-2.33c1.11-2.28,1.72-3,2.56-3,1.2,0,2,1.74,2.85,3.26l-1.35,1.87c-0.65-1.61-1.37-2.65-2-2.65a1.22,1.22,0,0,0-1,.89L584,111.63l2.56,5.17a0.68,0.68,0,0,0,.46.5C587.44,117.3,588,116,588.89,113.46Z"/><path class="cls-2" d="M613.21,105c1.39,0,2.22,1.59,2.22,3.72a14.65,14.65,0,0,1-2.45,7.69,8.19,8.19,0,0,1-4.33,3.45c0,1,0,2,0,2.82s0,2.82-.09,3.63l3.06,0.2-0.07,1.56c-1.46-.07-2.87-0.09-4.15-0.09s-2.87,0-4.33.09l0-1.56c1-.07,2.78-0.2,3.26-0.3,0.11-.89.15-2.59,0.15-3.5a68.44,68.44,0,0,0-.33-7.33c-0.48-4.17-1.41-7.89-2.8-7.89-0.78,0-1.65,1.24-2.65,2.67l-0.37-1.87c1.44-2.06,2.65-3.28,3.8-3.28,2.3,0,3.61,4.78,4.21,10,0.13,1,.2,2.09.26,3.13A6.72,6.72,0,0,0,612,115a10.64,10.64,0,0,0,1.46-5.24c0-1.82-.65-2.43-1.83-2.43a6.06,6.06,0,0,0-1.07.13l-0.11-1.15a5.36,5.36,0,0,1,2.72-1.24h0Z"/><path class="cls-2" d="M637.46,116.24l2.26,0.48-0.15.69c-0.3,1.44-2.32,3.69-6.19,2.19l-4.26-1.65c-0.35.39-.69,0.78-1,1.17l-1.19-1c2.72-2.87,6.17-6.56,9.24-10l-5.93-.81c-0.83-.11-1.07,0-1,0.87l0.13,1.33h-2.32v-0.7c0-1.48,1.52-4.06,5.61-3.43l5.19,0.81,1.06-1.22,1.19,1c-2.78,2.95-6.33,6.74-9.45,10.23l5.5,2c0.8,0.3,1.06.2,1.15-.65Z"/><path class="cls-3" d="M56.23,159.94l2.17,0.2-0.07,1.7c-0.91-.06-1.93-0.11-3.06-0.11s-3.63,0-4.74.09l0-1.7a23.44,23.44,0,0,1,2.83-.13c-0.2-.56-0.58-1.5-1.07-2.67H45c-0.33,1-.63,1.89-0.83,2.7l2.63,0.07,0,1.59h-3a32.12,32.12,0,0,0-3.56.17l-0.07-1.63c0.57-.13,1.61-0.33,2.15-0.46,1.48-3.63,4.71-10.5,6.37-14.19H49.8c0.82,2.43,4.32,10.3,6.43,14.36h0Zm-4.63-4.17c-0.89-2-2-4.45-3-6.63H48.48a67,67,0,0,0-2.93,6.63h6Z"/><path class="cls-3" d="M79.75,157.24a4.27,4.27,0,0,1-3.21,4.17,18.54,18.54,0,0,1-4.82.3H69.34c-1.37,0-2.76,0-4.17.15l-0.09-1.67c0.76-.09,1.72-0.17,2.74-0.2,0.07-1.63.07-4.32,0.07-6.06s0-4.41-.07-6l-2.74.13,0.09-2c0.91,0.06,2.59.07,4.41,0.07,0.74,0,2.76-.07,3.78-0.07,3.07,0,5.48,1,5.48,3.41a3.72,3.72,0,0,1-2.63,3.43v0.06C78.27,153.65,79.75,155,79.75,157.24Zm-6.95-9.56c-0.48,0-1.3,0-2.24.07-0.06,1.26-.07,3.24-0.07,4.89a43.16,43.16,0,0,0,4.69-.19,3.4,3.4,0,0,0,.78-2.24c0-1.26-.56-2.54-3.15-2.54h0Zm3.95,9.63a2.63,2.63,0,0,0-1.3-2.58,6.23,6.23,0,0,0-2.8-.5c-0.7,0-1.54,0-2.17.09,0,1.74,0,4.13.07,5.65,1.17,0,2,.07,2.5.07C75.8,160.05,76.75,159.17,76.75,157.31Z"/><path class="cls-3" d="M95.1,159.83a13.39,13.39,0,0,0,5.32-1.28l0.06,2.07a14.59,14.59,0,0,1-6.33,1.54c-4.74,0-7.34-3.06-7.34-7.78,0-5.67,3.63-8.71,7.95-8.71a13.75,13.75,0,0,1,3.63.56c0-.35,0-0.72,0-1.11l2.28,0.15a46.38,46.38,0,0,0-.37,6.52l-1.87,0a28.46,28.46,0,0,1-.13-3.32,12.52,12.52,0,0,0-4.26-.8,6.64,6.64,0,0,0-3.35.78c-0.69.74-1.24,2.59-1.24,4.82,0,3.87,1.28,6.54,5.63,6.54h0Z"/><path class="cls-3" d="M116.62,146c4.19,0,8.24,1.76,8.24,7.67,0,4.76-2.87,8.15-8,8.15-1,0-2.89-.11-4.24-0.11s-2.76,0-4.17.15l-0.09-1.67c0.76-.09,1.72-0.17,2.74-0.2,0.07-1.63.07-4.32,0.07-6.06s0-4.41-.07-6l-2.74.13,0.09-2c0.91,0.06,2.59.07,4.41,0.07,0.74,0,2.76-.08,3.78-0.08h0Zm5.32,7.93c0-4-1.43-6.24-5.87-6.24-0.48,0-1.3,0-2.24.07-0.07,1.61-.07,4.39-0.07,6.17s0,4.45.07,6.08c1.41,0.08,2.89.15,3.43,0.15C120.59,160.15,121.94,157.91,121.94,153.92Z"/><path class="cls-3" d="M148,156.09c-0.32,1.95-.56,4.17-0.65,5.61H136.07c-1.37,0-2.76,0-4.17.15l-0.09-1.67c0.76-.09,1.72-0.17,2.74-0.2,0.07-1.63.07-4.32,0.07-6.06s0-4.41-.07-6c-1.11,0-2.22.07-2.74,0.09L131.9,146c0.91,0.06,2.59.07,4.41,0.07h8.84l0.11-.85,2.26,0.24a33,33,0,0,0-.87,5.8l-1.87-.09a26.42,26.42,0,0,1,.15-3.33h-7.63c-0.06,1.28-.07,3.21-0.07,4.82H141l0.26-1.95L143,151a29.61,29.61,0,0,0-.5,5.61l-1.78-.09c0-.83,0-1.54.05-2.22h-3.59c0,1.72,0,4.13.07,5.65h8.1c0.2-1.33.43-2.69,0.78-4.22Z"/><path class="cls-3" d="M168.35,147.87h-7.22v5.74h5.5c0.07-.56.17-1.11,0.26-1.76l1.8,0.24a26.32,26.32,0,0,0-.5,5.43l-1.78-.09c0-.83,0-1.56.05-2.22h-5.33c0,2.13.06,3.83,0.15,4.76,0.44,0,1.78.11,2.78,0.22L164,161.85c-1.41-.11-2.8-0.15-4.13-0.15s-2.72,0-4.13.15l-0.09-1.67c1-.11,2.33-0.2,2.78-0.22,0.15-1.43.15-4.74,0.15-8.63v-3.45c-1.19,0-2.39.07-2.93,0.09L155.7,146c0.91,0.06,2.59.07,4.41,0.07h8.46l0.11-.85,2.26,0.24a34.5,34.5,0,0,0-.87,5.43l-1.87-.09A22,22,0,0,1,168.35,147.87Z"/><path class="cls-3" d="M191.35,161.7h-1.63l-0.91-1.33a5.9,5.9,0,0,1-4.59,1.8c-4.37,0-7-3.06-7-7.78,0-5.67,3.63-8.71,7.95-8.71a14.33,14.33,0,0,1,3.83.61c0-.37,0-0.76,0-1.17l2.28,0.15a46.5,46.5,0,0,0-.37,6.52l-1.87,0a27.23,27.23,0,0,1-.13-3.24,12.94,12.94,0,0,0-4.46-.87,6.65,6.65,0,0,0-3.35.78c-0.69.74-1.24,2.59-1.24,4.82,0,3.87,1.28,6.72,5.26,6.72a6.62,6.62,0,0,0,3.13-.74,23.69,23.69,0,0,0,.15-3.24,19.75,19.75,0,0,1-2.45-.22l0.09-1.63c1.11,0.07,2.22.15,3.59,0.15s2.69-.07,3.78-0.15l0.09,1.63c-0.91.13-1.72,0.19-2.45,0.22A37.12,37.12,0,0,0,191.35,161.7Z"/><path class="cls-3" d="M216.56,160c0.45,0,1.78.11,2.78,0.22l-0.09,1.67c-1.41-.11-2.8-0.15-4.13-0.15s-2.72,0-4.13.15l-0.09-1.67c1-.11,2.33-0.2,2.78-0.22,0.13-1.28.15-3.45,0.15-5.35H205.3c0,1.91,0,4.08.15,5.35,0.44,0,1.78.11,2.78,0.22l-0.09,1.67c-1.41-.11-2.8-0.15-4.13-0.15s-2.72,0-4.13.15l-0.09-1.67c1-.11,2.33-0.2,2.78-0.22,0.15-1.43.15-4,.15-6s0-4.61-.15-6c-0.44,0-1.78-.11-2.78-0.22l0.09-1.67c1.41,0.11,2.8.15,4.13,0.15s2.72,0,4.13-.15l0.09,1.67c-1,.11-2.33.2-2.78,0.22-0.13,1.17-.15,3.11-0.15,4.91h8.52c0-1.8,0-3.74-.15-4.91-0.44,0-1.78-.11-2.78-0.22L211,146c1.41,0.11,2.8.15,4.13,0.15s2.72,0,4.13-.15l0.09,1.67c-1,.11-2.33.2-2.78,0.22-0.15,1.43-.15,4-0.15,6S216.41,158.54,216.56,160Z"/><path class="cls-3" d="M232.58,160c0.44,0,1.78.11,2.78,0.22l-0.09,1.67c-1.41-.11-2.8-0.15-4.13-0.15s-2.72,0-4.13.15l-0.09-1.67c1-.11,2.33-0.2,2.78-0.22,0.15-1.43.15-4,.15-6s0-4.61-.15-6c-0.44,0-1.78-.11-2.78-0.22L227,146c1.41,0.11,2.8.15,4.13,0.15s2.72,0,4.13-.15l0.09,1.67c-1,.11-2.33.2-2.78,0.22-0.15,1.43-.15,4-0.15,6S232.43,158.54,232.58,160Z"/><path class="cls-3" d="M249.73,147.88c-0.44,0-1.78-.11-2.78-0.22L247,146c1.41,0.11,2.8.15,4.13,0.15s2.61,0,4-.15l0.09,1.67c-1,.11-2.22.2-2.85,0.22,0,1.43,0,4,0,6,0,3.32,0,4.95-.43,5.95-0.74,1.61-3.07,2.3-5.56,2.3-2.69,0-4.67-.78-4.67-2.7a4.64,4.64,0,0,1,.85-2.45H245a13.62,13.62,0,0,0-.31,2.19c0,1.09,1,1.41,2.11,1.41s2.54-.32,2.91-0.91a24,24,0,0,0,.17-3.39v-2.39C249.88,151.89,249.88,149.31,249.73,147.88Z"/><path class="cls-3" d="M272,153.35a43.52,43.52,0,0,1,6.59,7.21l-2.61,1.89c-0.58-1.54-3.39-5.11-6.11-7.72a8.22,8.22,0,0,1-2.26.89c0,1.63,0,3.3.15,4.35,0.44,0,1.78.11,2.78,0.22l-0.09,1.67c-1.41-.11-2.8-0.15-4.13-0.15s-2.72,0-4.13.15L262,160.18c1-.11,2.33-0.2,2.78-0.22,0.15-1.43.15-4,.15-6s0-4.61-.15-6c-0.44,0-1.78-.11-2.78-0.22l0.09-1.67c1.41,0.11,2.8.15,4.13,0.15s2.72,0,4.13-.15l0.09,1.67c-1,.11-2.33.2-2.78,0.22-0.15,1.43-.15,4-0.15,6v0c3.11-.74,6.09-3.74,6.09-6.06a9.18,9.18,0,0,1-1.89-.22l0.11-1.67c1.54,0.09,3,.13,4.37.13q1.64,0,3.17-.06l-0.09,1.74a35.73,35.73,0,0,1-3.67.2C275.58,149.85,273.9,151.85,272,153.35Z"/><path class="cls-3" d="M301.51,156.09c-0.31,1.95-.56,4.17-0.65,5.61H290.51c-1.37,0-2.76,0-4.17.15l-0.09-1.67c0.78-.09,1.78-0.17,2.85-0.2,0.07-1.63.07-4.32,0.07-6.06,0-2,0-4.61-.15-6-0.44,0-1.78-.11-2.78-0.22l0.09-1.67c1.41,0.11,2.8.15,4.13,0.15s2.72,0,4.13-.15l0.09,1.67c-1,.11-2.33.2-2.78,0.22-0.15,1.43-.15,4-0.15,6,0,1.72,0,4.37.07,6h7.06c0.2-1.33.43-2.69,0.78-4.22Z"/><path class="cls-3" d="M310.73,147.87c-1.22,0-2.56.06-3.2,0.09l0.09-1.93c0.61,0,2.13.07,3.59,0.07h2.13c1.56,3.19,4.15,8,5.21,10.67h0.07a105.49,105.49,0,0,0,4.52-10.67c1.24,0,4.69-.06,5.87-0.15l0.06,1.67c-0.63.07-2,.13-2.78,0.15,0.2,4.37.85,9.95,1.17,12.19,0.44,0,1.78.11,2.78,0.22l-0.09,1.67c-1.41-.11-2.8-0.15-4.13-0.15s-2.72.06-4.13,0.09l-0.09-1.67c0.8-.07,2.07-0.17,2.93-0.17-0.11-1.65-.59-6.87-0.87-11h-0.07c-0.89,2.21-3.71,8.1-5.26,11.21h-1.13c-0.59-1.78-3.39-7.56-5.19-11h-0.07c-0.06,4.17-.19,8-0.46,10.76h0.87a13.19,13.19,0,0,1,2.28.15l-0.09,1.67c-1.28-.07-2.54-0.07-3.61-0.07s-2.5.06-3.78,0.15l-0.09-1.59c1-.13,2-0.2,2.7-0.26A110.11,110.11,0,0,0,310.73,147.87Z"/><path class="cls-3" d="M350.85,161.7c-0.15-.93-5.5-7.87-9.54-12.87h-0.07c0.15,2.72.15,6,.15,11.21h0.87a14.46,14.46,0,0,1,2.28.15l-0.09,1.59c-1.28-.07-2.69-0.07-3.76-0.07s-2.5.06-3.78,0.15l-0.09-1.59c1-.13,2-0.2,2.71-0.26,0.31-1.35.2-9.87,0.06-12.13-1.19,0-2.45.06-3.06,0.09L336.6,146c0.61,0,2.13.07,3.59,0.07h2.24l8.63,11.24h0.07c-0.18-4.09-.18-7.15-0.22-9.47-0.74,0-1.78-.09-2.93-0.19l0.06-1.63c0.54,0,1.91,0,2.56,0,1.58,0,3.48,0,5-.09l0.15,1.63a23.09,23.09,0,0,1-3,.26c-0.07,1-.11,2.52-0.11,4.37,0,2.22.06,4.89,0.15,7.58l1,1.52v0.37C353,161.72,351.7,161.7,350.85,161.7Z"/><path class="cls-3" d="M369.68,145.59c4.37,0,8.11,2.67,8.11,8s-3.74,8.67-8.11,8.67-8.11-2.67-8.11-8S365.31,145.59,369.68,145.59Zm3.15,3a6.93,6.93,0,0,0-3.52-.91,12.25,12.25,0,0,0-3.56.57c-0.89,1.07-1.24,2.83-1.24,5,0,2.78.48,5.09,2,6.09a6.92,6.92,0,0,0,3.52.91,12.22,12.22,0,0,0,3.56-.57c0.89-1.07,1.24-2.83,1.24-5C374.85,151.9,374.37,149.59,372.83,148.59Z"/><path class="cls-3" d="M390.26,154.92c0,2.26.06,4.08,0.15,5,0.44,0,1.78.11,2.78,0.22l-0.09,1.67c-1.41-.11-2.8-0.15-4.13-0.15s-2.72,0-4.13.15l-0.09-1.67c1-.11,2.33-0.2,2.78-0.22,0.15-1.43.15-4.74,0.15-8.63V148c-1.06,0-1.91,0-2.91.05l0.09-1.94c1.09,0.06,2.78.07,4.59,0.07h3.91c2.63,0,5.09,1,5.09,4.09C398.45,153.5,395.69,156.11,390.26,154.92Zm0-3.59v2.24h4.54a3.56,3.56,0,0,0,1-2.61c0-2.17-1.09-3.19-3.65-3.19-0.45,0-1.13,0-1.85.09v3.46h0Z"/><path class="cls-3" d="M419.56,159.65c2,0,4.17,1.13,5.69,3.8l-2.54,1.44a4.55,4.55,0,0,0-4.41-3.13c-1.39,0-3.09.5-5,.5-4.26,0-8-2.67-8-8s3.74-8.67,8.11-8.67,8.11,2.67,8.11,8a9.6,9.6,0,0,1-1.63,5.56l-1.28.56a8.72,8.72,0,0,1,.93-0.05h0Zm-5.74.63a29.68,29.68,0,0,0,3.8-.44,11.26,11.26,0,0,0,1-5.15c0-2.78-.48-5.09-2-6.09a6.87,6.87,0,0,0-3.52-.91,12.2,12.2,0,0,0-3.54.57c-0.89,1.07-1.24,2.83-1.24,5,0,2.78.48,5.09,2,6.09A6.87,6.87,0,0,0,413.82,160.28Z"/><path class="cls-3" d="M446.16,160.92l-2.43,1.7a27.66,27.66,0,0,0-6-7.35,11.51,11.51,0,0,1-1.3-.19,3.47,3.47,0,0,1,1.65-2.09c0.48,0.33,1,.7,1.44,1.09a2.94,2.94,0,0,0,2-3.13c0-2.17-1.09-3.19-3.65-3.19-0.48,0-1.39,0-2.26.09v3.46c0,3.89,0,7.21.15,8.63,0.44,0,1.78.11,2.78,0.22l-0.09,1.67c-1.41-.11-2.8-0.15-4.13-0.15s-2.72,0-4.13.15l-0.09-1.67c1-.11,2.33-0.2,2.78-0.22,0.15-1.43.15-4.74,0.15-8.63V148c-1.06,0-1.91,0-2.91.06l0.09-1.94c1.09,0.06,2.78.07,4.59,0.07,1.44,0,2.69-.07,3.76-0.07,3,0,5.65,1.07,5.65,4.17a4.86,4.86,0,0,1-3.59,4.8A37.67,37.67,0,0,1,446.16,160.92Z"/><path class="cls-3" d="M466.14,157.13c0,3.71-3.65,5-6.15,5a7.22,7.22,0,0,1-4.26-1.43l-0.05,1.37L453.4,162a41.82,41.82,0,0,0,.37-6l1.87,0a20.72,20.72,0,0,1,.13,2.41,9,9,0,0,0,7.26,1.8,6.69,6.69,0,0,0,.37-2.06c0-1.78-1.22-2.61-4.56-3.21-4.08-.72-5.32-2-5.32-4.52,0-3.58,2.76-4.72,5.83-4.72a15.49,15.49,0,0,1,3.71.5c0-.33,0-0.68,0-1.06l2.28,0.15a36.92,36.92,0,0,0-.37,5.59l-1.87,0A22.39,22.39,0,0,1,463,148a12.19,12.19,0,0,0-3.87-.59,23.59,23.59,0,0,0-2.67.15,4.3,4.3,0,0,0-.41,1.82c0,1.7,1.17,2.52,4.46,3.21C464.7,153.41,466.14,154.78,466.14,157.13Z"/><path class="cls-3" d="M490,145.51a37,37,0,0,0-.87,6.15l-1.87-.09a33.15,33.15,0,0,1,.17-3.76h-4.69v3.52c0,3.89,0,7.21.15,8.63,0.44,0,1.78.11,2.78,0.22l-0.09,1.67c-1.41-.11-2.8-0.15-4.13-0.15s-2.72,0-4.13.15l-0.09-1.67c1-.11,2.33-0.2,2.78-0.22,0.15-1.43.15-4.74,0.15-8.63v-3.52h-4.78c-0.19,1.28-.39,2.41-0.72,3.93l-1.83-.41c0.33-2.26.56-4.35,0.63-6.08l2.24,0.24c0,0.2-.05.41-0.07,0.61h12l0.11-.85Z"/><path class="cls-3" d="M499,147.88c-0.78,0-2.33-.11-3.33-0.22l0.09-1.67c1.41,0.11,2.8.15,4.17,0.15,1.56,0,2.95,0,4.35-.15l0.09,1.67c-1,.11-2.33.2-2.78,0.22-0.07,1.41-.11,4-0.11,6.13,0,4.3,1.18,6.3,4.67,6.3,3.69,0,4.71-2.07,4.71-6.24,0-2,0-3.32-.13-6-0.91-.07-1.89-0.17-2.89-0.33l0.06-1.63c0.54,0,2.09,0,3.3,0,1.39,0,3.19-.05,4.32-0.15l0.07,1.67a24.66,24.66,0,0,1-3,.26c0,2.13.13,3.48,0.13,5.15,0,5.61-1.33,9.13-7.26,9.13-4.85,0-6.74-2.48-6.74-7.48C498.73,152.11,498.92,149.29,499,147.88Z"/><path class="cls-3" d="M539.76,147.7c-0.57.07-2.13,0.26-2.71,0.37-1.48,3.63-4.7,10.5-6.37,14.19h-1.13c-0.82-2.43-4.32-10.3-6.43-14.36l-2.17-.2L521,146c0.91,0,1.93.06,3.06,0.06s3.63,0,4.74,0l0,1.65a22,22,0,0,1-2.65.13c0.41,1.48,2.5,6.32,4.59,10.86h0.07a62.39,62.39,0,0,0,4.33-10.89h-2.82l0-1.74c1,0,2.17,0,3.15,0,1.2,0,3.11,0,4.11,0l0.07,1.63h0Z"/><path class="cls-3" d="M571.3,146.07l0.07,1.63c-0.57.07-2.13,0.26-2.71,0.37-1.48,3.45-4.3,10.67-5.85,14.36h-1.13a67.77,67.77,0,0,0-3.3-8.74c-1.59,3-3.13,6.41-4.09,8.74h-1.13c-0.46-2.61-3.52-9.84-5.65-14.49-0.8-.09-2-0.2-2.44-0.24l0.07-1.65c0.91,0,1.93.06,3.06,0.06s3.26,0,4.37,0l0,1.65a16.56,16.56,0,0,1-2.28.13,113,113,0,0,1,4.35,10.61c0.76-1.69,1.93-4.09,3.06-6.21a41.31,41.31,0,0,0-2.43-4.46,10.84,10.84,0,0,0-1.54-.33l0.07-1.46c1.13,0.07,2.54.11,4,.11,1.82,0,3.71-.07,5.21-0.19l0.06,1.56c-0.93.28-2.11,1.76-3.35,3.78a47.87,47.87,0,0,1,3.28,7.54c1.06-3,3-8,4-11h-2.63l0-1.74c1,0,2.17,0,3.15,0,1.21,0,2.74,0,3.74,0h0ZM559,149.92a7.77,7.77,0,0,1,1.82-2.37v-0.07h-3.33v0.07A21.7,21.7,0,0,1,559,149.92Z"/><path class="cls-3" d="M592.52,159.94c0.46,0.06,1.89.15,2.35,0.2l-0.07,1.7c-0.94-.06-3.09-0.11-4.22-0.11-1.5,0-3.32.06-4.43,0.09v-1.7c0.7-.07,1.85-0.15,2.54-0.19v-0.07c-1.17-1.17-2.61-2.78-4-4.52-1.74,1.95-3.24,3.67-4.15,4.72l2.61,0.07,0,1.67c-1.19,0-2.28-.07-3.24-0.07-1.37,0-2.67.06-3.48,0.13l-0.06-1.63c0.57-.09,1.67-0.33,2.33-0.52,1.74-1.8,3.54-3.67,5.17-5.41a45.45,45.45,0,0,1-4.39-6.37c-0.52-.07-2-0.18-2.67-0.22l0.07-1.72c0.91,0.06,2.37.11,3.5,0.11s3.19,0,4.3-.07v1.63l-2.22.18a28.52,28.52,0,0,0,3.09,4.65,54.66,54.66,0,0,0,4-4.72v0l-2.61,0,0-1.67c1,0,2.09.07,3.06,0.07,1.37,0,3.08-.06,3.89-0.11l0.06,1.63c-0.44,0-1.76.13-2.3,0.2-1.67,1.72-3.54,3.76-5.32,5.69a43.35,43.35,0,0,0,6.21,6.43h0Z"/><path class="cls-3" d="M615.32,148.07c-1.15,1.58-3.5,4.87-5.22,7,0,1.8,0,3.74.15,4.93,0.44,0,1.78.11,2.78,0.22l-0.09,1.67c-1.41-.11-2.8-0.15-4.13-0.15s-2.72,0-4.13.15l-0.09-1.67c1-.11,2.33-0.2,2.78-0.22,0.13-1.2.15-3.22,0.15-5.06-1.19-1.83-3.89-5.11-5.48-7l-2.17-.2,0.07-1.65c0.91,0,1.93.06,3.06,0.06s3.63,0,4.74,0l0,1.65a22,22,0,0,1-2.65.13v0.07c1.41,1.91,3.06,4,4.22,5.74a38,38,0,0,0,4.33-5.85h-3l0-1.74c1,0,2.17,0,3.15,0,1.21,0,3.11,0,4.11,0L618,147.7C617.45,147.77,615.89,148,615.32,148.07Z"/><path class="cls-3" d="M638.67,156.09c-0.32,1.95-.56,4.17-0.65,5.61H626.08c-0.61,0-1.22,0-1.83.07l-0.07-1.61a2.59,2.59,0,0,0,1.58-1.07l8.15-11.15v-0.13l-7.34-.07c-0.18,1.26-.39,2.39-0.72,3.91l-1.83-.41c0.33-2.26.56-4.35,0.63-6.08l2.24,0.24c0,0.22-.06.43-0.09,0.63l9.52,0.07c0.61,0,1.22,0,1.83-.07l0.07,1.61a2.59,2.59,0,0,0-1.58,1.07l-8.08,11.13V160h7.5c0.2-1.35.41-2.72,0.78-4.28Z"/><path class="cls-1" d="M46.85,208c0.45,0,1.78.11,2.78,0.22l-0.09,1.67c-1.41-.11-2.8-0.15-4.13-0.15s-2.72,0-4.13.15l-0.09-1.67c1-.11,2.33-0.2,2.78-0.22,0.15-1.43.15-4,.15-6s0-4.61-.15-6c-0.44,0-1.78-.11-2.78-0.22L41.28,194c1.41,0.11,2.8.15,4.13,0.15s2.72,0,4.13-.15l0.09,1.67c-1,.11-2.33.2-2.78,0.22-0.15,1.43-.15,4-0.15,6S46.71,206.54,46.85,208Z"/><path class="cls-1" d="M67.71,193.68A6.93,6.93,0,0,1,70,194a3.77,3.77,0,0,1,2.65,3.8c0,3.78-4.11,6.65-6.91,8.65l-0.63.37,0,0,0.56-.11c2.65-.07,5.3-0.17,8.06-0.17l-0.61,3.11H63.12a13.1,13.1,0,0,0-1.83.13l-0.52-1.37,6.13-5.22c1.76-1.5,2.72-3.06,2.72-4.89a2.92,2.92,0,0,0-1.24-2.65,3.07,3.07,0,0,0-1.65-.41,21.22,21.22,0,0,0-2.54.22,13.11,13.11,0,0,0,.74,2.87L62.1,199a4.22,4.22,0,0,1-.69-2c0-2.22,3.43-3.35,6.3-3.35h0Z"/><path class="cls-1" d="M89.77,195.29a21.1,21.1,0,0,0-2.71.22,13.14,13.14,0,0,0,.74,2.87L85,199a4.22,4.22,0,0,1-.69-2c0-2.22,3.43-3.35,6.45-3.35a8.1,8.1,0,0,1,2.46.33,3.78,3.78,0,0,1,2.65,3.8c0,2.48-1.82,5.41-5.21,6.95v0.06c3.65,0.45,5.39,1.33,5.39,4.48a7.78,7.78,0,0,1-7.74,7.87,9.91,9.91,0,0,1-4.06-1l0.31-2a38.68,38.68,0,0,0,4.39.28,26.84,26.84,0,0,0,3.07-.19,11.59,11.59,0,0,0,.65-3.71c0-3-1.24-4.52-6.52-4.52v-2c5.41,0,6.65-3.45,6.65-5.76a2.61,2.61,0,0,0-1.17-2.54,3.38,3.38,0,0,0-1.85-.45h0Z"/><path class="cls-1" d="M122.13,209.7h-3.89c0,2.45,0,4.41.15,5.43,0.44,0,1.78.11,2.78,0.22L121.08,217c-1.41-.11-2.8-0.15-4.13-0.15s-2.72,0-4.13.15l-0.09-1.67c1-.11,2.33-0.2,2.78-0.22,0.11-1,.13-3,0.15-5.43h-7.06a10.09,10.09,0,0,0-1.67.13l-0.52-1.37a31.83,31.83,0,0,0,7.41-15.06l2.26,0.74c-0.44,5.45-3.37,9.86-5.85,13.75V208h5.43v-6.26h2.59V208h4Z"/><path class="cls-1" d="M139.43,202.53c3,0,5.08,2.74,5.08,6.26,0,4.11-2.39,8.37-7.59,8.37a11.63,11.63,0,0,1-4.39-1l0.31-2a38.7,38.7,0,0,0,4.39.28c1,0,2.26-.07,3.39-0.19a8.74,8.74,0,0,0,.91-4.48c0-1.93-.41-3.57-1.72-4.45a4.31,4.31,0,0,0-2.35-.59,19,19,0,0,0-4.76.83V194.14h1.15c2.33,0,4.58-.13,9.39-0.17l-0.54,2.93c-3.82.15-5.69,0.2-8.15,0.26v6.54a18.29,18.29,0,0,1,4.89-1.17h0Z"/><path class="cls-1" d="M163.83,195.85c2.87,0,6,1.22,6,6s-2.83,8.32-7.26,8.32c-3.22,0-6.82-2-6.82-8.89,0-5.83,4-13.21,10-13.21a7.43,7.43,0,0,1,2.32.37L168,191.07a14.91,14.91,0,0,0-3.26-.48c-3.58,0-5.21,3.22-5.69,6.85a7.49,7.49,0,0,1,4.82-1.59h0Zm3,7.28c0-1.65-.39-3.89-1.76-4.78a4,4,0,0,0-2.15-.58,18.24,18.24,0,0,0-4,.45c-0.06.57-.07,1.17-0.07,1.76,0,6.43,2.35,7.89,4.93,7.89a7.57,7.57,0,0,0,1.58-.17A7.27,7.27,0,0,0,166.81,203.13Z"/><path class="cls-1" d="M189.72,197l-0.57.11c-2.76.07-6.06,0.17-8.83,0.17l0.63-3.11h10.24a9.82,9.82,0,0,1,1.65-.13l0.56,0.93-4.89,9.54a52.48,52.48,0,0,0-4.43,11.13l-2.82-1.11,8.52-17.43Z"/><path class="cls-1" d="M216.25,205.05c0,4.21-4.17,5.11-6.72,5.11-3.08,0-5.63-1.5-5.63-4s2.5-4.21,4.37-6.08c-2.48-1.74-4.28-3.41-4.28-6.21,0-4.06,3.76-4.85,6.19-4.85,3.61,0,5.52,1.7,5.52,4.13,0,2.71-2.5,3.72-4.19,5.46C214.06,200.44,216.25,202,216.25,205.05Zm-2.89.48c0-1.8-1.46-3-3.91-4.65-1.87,1.45-2.85,2.61-2.85,4.37,0,2.24,1.72,3.13,3.56,3.13a8.17,8.17,0,0,0,2.43-.41A4.61,4.61,0,0,0,213.36,205.54Zm-6.58-12.08c0,1.61,1.19,2.52,3.67,4.35,1.63-1.46,2.59-2.5,2.59-4.08s-0.93-3-3.37-3a5.74,5.74,0,0,0-2.13.41,4.24,4.24,0,0,0-.76,2.28h0Z"/><path class="cls-1" d="M234.84,193.68c3.22,0,6.82,2,6.82,7.22,0,6-4.93,11.47-8.22,15.8l-3.3-.78c2-2.09,5.33-5,7.19-8.82a7.78,7.78,0,0,1-3.76.89c-2.87,0-6-1.22-6-6s2.83-8.3,7.26-8.3h0ZM238,205.54a11.77,11.77,0,0,0,.69-3.89c0-5.21-3.41-6.32-6.5-5.71a7.42,7.42,0,0,0-1.46,4.58c0,1.65.28,3.89,1.65,4.8a4.16,4.16,0,0,0,2.15.56A19.9,19.9,0,0,0,238,205.54Z"/><path class="cls-1" d="M260.55,193.68c4,0,7.56,2.94,7.56,8.24s-3.58,8.24-7.56,8.24-7.56-3-7.56-8.32,3.58-8.17,7.56-8.17h0Zm5,8.21c0-3.76-2.21-5.58-5-5.58s-5,1.82-5,5.58,2.2,5.63,5,5.63S265.54,205.65,265.54,201.89Z"/><path class="cls-1" d="M285.26,207.89c0.72,0,1.28.06,3.33,0.26l-0.09,1.65c-2-.09-3.39-0.13-4.76-0.15s-2.76.06-4.76,0.15l-0.09-1.65c2.06-.2,2.61-0.24,3.33-0.26V191.81c-1,.22-2,0.43-3.24.67l0-1.52a42.58,42.58,0,0,0,6.32-2v18.89Z"/><path class="cls-1" d="M309.29,189.2a3.67,3.67,0,0,1,2.74,3.7c0,3.71-4.76,8.91-8.24,13l-0.83,1,0,0,0.56-.11c2.71-.07,6.41-0.17,9.11-0.17L312,209.7H301.78a12.86,12.86,0,0,0-1.89.13l-0.52-1.37,4-4.78c3.8-4.48,5.33-8.11,5.33-10.08a2.77,2.77,0,0,0-1.35-2.72,4,4,0,0,0-2-.41,21,21,0,0,0-2.82.22,15.91,15.91,0,0,0,.8,3.09l-3,.63a5.42,5.42,0,0,1-.74-2.2c0-2.22,3.74-3.35,7.22-3.35A8,8,0,0,1,309.29,189.2Z"/><path class="cls-1" d="M329.49,188.9a7.71,7.71,0,0,1,2.43.33,3.69,3.69,0,0,1,2.59,3.7c0,2.43-2.08,5-5.39,6.47v0.07c3.56,0.43,5.56,1.45,5.56,4.06,0,3.65-3.63,6.63-7.85,6.63a9.37,9.37,0,0,1-3.95-.94l0.3-2a41.11,41.11,0,0,0,4.28.26,23.22,23.22,0,0,0,3.08-.19,10,10,0,0,0,.63-3.09c0-2.33-1.58-3.56-6.43-3.56v-2c5.28,0,6.5-3.08,6.5-5.32a3,3,0,0,0-1.22-2.74,3,3,0,0,0-1.67-.39,20.9,20.9,0,0,0-2.69.22,17.62,17.62,0,0,0,.8,3.3l-3,.63a5.42,5.42,0,0,1-.74-2.2c0-2.22,3.74-3.32,6.8-3.32h0Z"/><path class="cls-1" d="M356.59,203.63V208a20.73,20.73,0,0,1,2.43.2l-0.09,1.65c-1.09-.09-2.48-0.13-3.85-0.15s-2.76.06-4,.15L351,208.2a24.66,24.66,0,0,1,2.56-.2v-4.37h-6.82a9.29,9.29,0,0,1-1.61.11l-0.5-.43c2.82-4.71,6.22-9.08,7.22-15l2.67,0.74c-0.43,5-3.24,8.52-5.5,12.32l-0.59.37,0,0,0.56-.13h4.56v-4.09h3v4.09h3.82l-0.3,2h-3.52Z"/><path class="cls-1" d="M383,202.29a7.65,7.65,0,0,1-7.71,7.87,11,11,0,0,1-4.28-.94l0.3-2a41.1,41.1,0,0,0,4.28.26,29.53,29.53,0,0,0,3.32-.19,9.86,9.86,0,0,0,.89-3.95,4.51,4.51,0,0,0-1.69-3.85,4.27,4.27,0,0,0-2.3-.57,18.83,18.83,0,0,0-4.65.82V189.36h1.11c2.28,0,4.48-.13,9.48-0.17l-0.52,3c-4,.13-5.87.2-8.26,0.26v5.5a21,21,0,0,1,5.08-1.15C381,196.79,383,199.16,383,202.29Z"/><path class="cls-1" d="M409,202a8.13,8.13,0,0,1-8,8.19c-3.15,0-6.95-1.95-6.95-8.89,0-5.83,4-12.47,10-12.47a7.43,7.43,0,0,1,2.31.37l-0.07,2.63a15,15,0,0,0-3.26-.48c-3.65,0-5.26,2.83-5.71,6.35a8.46,8.46,0,0,1,5.24-1.67C405.38,196,409,197.29,409,202Zm-4.63,5.78a6.43,6.43,0,0,0,1.43-4.33,6,6,0,0,0-2.35-5.11,4.19,4.19,0,0,0-2.09-.52,22,22,0,0,0-4.09.43c-0.06.57-.07,1.17-0.07,1.76,0,6,2.91,7.95,5.54,7.95a7.88,7.88,0,0,0,1.65-.17h0Z"/><path class="cls-1" d="M432.66,189.18l0.54,0.91L427.13,202a40.73,40.73,0,0,0-3.37,8.45l-2.7-.91,8.82-17c-3.56-.06-5.58-0.07-10.39-0.17L419,189c6.22,0,8.41.11,13.11,0.15h0.59Z"/><path class="cls-1" d="M456.43,205c0,4.22-4.69,5.13-7.35,5.13-3.83,0-6.21-2.09-6.21-4.65s2.43-4.46,4.37-5.83c-2.3-1.59-4.09-3-4.09-5.89,0-4.08,4.26-4.89,6.8-4.89,3.78,0,6.08,1.72,6.08,4.17,0,2.71-3.06,4.26-4.85,5.56C453.72,200.57,456.43,201.94,456.43,205Zm-3,.48c0-2.08-2.15-3.11-4.91-5-1.7,1.09-2.78,2.28-2.78,4.15,0,2.19,1.48,3.71,4,3.71a11.5,11.5,0,0,0,2.85-.39A4.72,4.72,0,0,0,453.39,205.52Zm-3.28-7.72c2-1.24,3.15-2.56,3.15-4.06s-1.3-3-3.82-3a8.25,8.25,0,0,0-2.59.39,4.46,4.46,0,0,0-.76,2.28C446.09,195,447.76,195.9,450.11,197.79Z"/><path class="cls-1" d="M482.69,196c0,5.85-4.8,11.21-8,14.82l-3.52-.76a28.23,28.23,0,0,0,6.28-6.82,8.8,8.8,0,0,1-3.24.59c-2.8,0-6.43-1.33-6.43-6.32a8.27,8.27,0,0,1,8-8.58A6.65,6.65,0,0,1,482.69,196Zm-4.46,5.72a12.06,12.06,0,0,0,1.13-5c0-5.08-3.95-6-7-5.37a7.11,7.11,0,0,0-1.43,4.61,6.54,6.54,0,0,0,2.35,5.45,4,4,0,0,0,2.09.54A20.28,20.28,0,0,0,478.23,201.68Z"/><path class="cls-1" d="M508.09,199.53c0,6.5-3.28,10.63-7.45,10.63s-7.45-4.13-7.45-10.63,3.28-10.63,7.45-10.63S508.09,193,508.09,199.53Zm-7,8.91a8.6,8.6,0,0,0,2.09-.37,15.85,15.85,0,0,0,1.46-7.54c0-6.22-1.63-9.91-4.52-9.91a8.59,8.59,0,0,0-2.09.37,15.75,15.75,0,0,0-1.46,7.54c0,6.22,1.63,9.91,4.52,9.91h0Z"/><path class="cls-1" d="M534.65,207.52L534,210.18c-2.46-.28-5.39-2.37-7.85-5.17a19.13,19.13,0,0,1-6.19,5.17l-1-1.85a17.85,17.85,0,0,0,6.17-4.58,20.26,20.26,0,0,1-4.09-8.58l2.26-.61a17.31,17.31,0,0,0,3.46,7.24c1.94-2.63,3.28-5.46,3.28-7.56,0-.26,0-0.65-0.06-1l-10.28.5,0.15-2.45,12.45-.56a7.7,7.7,0,0,1,.45,2.46c0,3.26-2.08,7.15-4.87,10C530,205.61,532.56,207.42,534.65,207.52Z"/><path class="cls-1" d="M563.17,208.18l0,1.67c-1.17-.11-2.5-0.15-3.89-0.15s-2.72,0-3.89.15l0-1.67c1-.11,2.11-0.2,2.56-0.22,0.07-1.59.11-3.46,0.11-5.32s0-3.63-.11-5.21h-7.24v0.44c0,4.22.06,8.37,0.13,10.08,0.45,0,1.52.11,2.52,0.22l0,1.67c-1.17-.11-2.5-0.15-3.89-0.15s-2.72,0-3.89.15l0-1.67c1-.11,2.11-0.2,2.56-0.22,0.09-2.13.13-5.39,0.13-8.72v-1.8h-2.65v-2h2.65v-3.3a8,8,0,0,1,.54-3.65,3.29,3.29,0,0,1,.63-0.82l0-.2,0.06,0.13c1.26-1.15,3.48-1.65,5.58-1.65,3.28,0,5.8,1.19,5.8,3a4.73,4.73,0,0,1-.48,1.8H557.4a2.45,2.45,0,0,0,.32-1.15c0-1.19-1.33-1.58-3.22-1.58a20,20,0,0,0-4.71.63,7,7,0,0,1,.85,2.8v4h10.21a48.42,48.42,0,0,0-.33,7.17c0,1.85,0,3.72.11,5.32C561.06,208,562.17,208.07,563.17,208.18Z"/><path class="cls-1" d="M590.75,208.18l0,1.67c-1.17-.11-2.5-0.15-3.89-0.15s-2.72,0-3.89.15l0-1.67c1-.11,2.11-0.2,2.56-0.22,0.09-2.13.13-5.39,0.13-8.72V188.88a14.28,14.28,0,0,0-2.93-.28,11.32,11.32,0,0,0-4.69.87,7.51,7.51,0,0,1,.91,2.95v3.06h5.41l-0.32,2h-5.09v0.44c0,4.22.06,8.37,0.13,10.08,0.44,0,1.52.11,2.52,0.22l0,1.67c-1.17-.11-2.5-0.15-3.89-0.15s-2.72,0-3.89.15l0-1.67c1-.11,2.11-0.2,2.56-0.22,0.09-2.13.13-5.39,0.13-8.73v-1.8h-2.65v-2h2.65v-2.37a10.24,10.24,0,0,1,.54-3.83c0.82-1.87,3.22-2.83,5.63-2.83a8,8,0,0,1,3.06.57v-0.8h2.83c-0.22.83-.32,6.32-0.32,11.67,0,4.22.06,8.37,0.13,10.08C588.68,208,589.75,208.07,590.75,208.18Z"/><path class="cls-2" d="M616.5,206.59c-1.65,1.89-3.3,3.45-4.59,3.45-0.89,0-1.26-.72-1.26-3V197c-0.59,0-1.91.07-3.7,0.07h-1.59v14.45h-2.22V197.11h-2.95v-1.63h2.95c-0.07-6.8,2.74-9.48,6-9.48,1.78,0,3.37.83,3.37,2.43a4.35,4.35,0,0,1-.87,2.33l-1,.07c0-2-.43-3.13-2.11-3.13-2.8,0-3.22,3-3.22,6.21v1.57H607a53.11,53.11,0,0,0,5.89-.37v11.74c0,1.39,1,.48,3.3-2.32Z"/><path class="cls-2" d="M639.52,204.79l0.37,1.87c-1.63,1.89-3.26,3.45-4.56,3.45-0.89,0-1.32-.72-1.32-3V189.09a3.25,3.25,0,0,0-.8-0.09c-2.43,0-4.15,1.87-4.15,5.65v0.83h3.58l-0.37,1.41h-3.2v16.52h-2.22V196.88h-2.95v-1.41h2.95c0.11-6.45,4.06-8,7.17-8V186h2.22v21.12c0,0.43.09,0.65,0.3,0.65,0.46,0,1.43-1,3-3h0Z"/></svg>