<svg id="Layer_1" data-name="Layer 1" xmlns="http://www.w3.org/2000/svg" viewBox="0 0 600 163"><defs><style>.cls-1{fill:#fff;}.cls-2{fill:#9f9f9f;}.cls-3{fill:#e0e0e0;}.cls-4{fill:none;stroke:#9f9f9f;stroke-miterlimit:10;stroke-width:3px;stroke-dasharray:2 4;}.cls-5{fill:#896f42;}</style></defs><title>runa-assets</title><rect class="cls-1" width="600" height="162"/><rect class="cls-2" width="48" height="162"/><rect class="cls-1" x="48" width="552" height="48"/><rect class="cls-1" x="48" y="120" width="552" height="42"/><rect class="cls-3" x="48" y="48" width="552" height="72"/><rect class="cls-2" x="540.66" y="48" width="59.34" height="72"/><path class="cls-2" d="M578.49,133.94l-6.83,13.39a45.84,45.84,0,0,0-3.79,9.5l-3-1,9.91-19.08c-4-.06-6.27-0.08-11.68-0.19l-0.58-3.79c7,0,9.46.13,14.75,0.17h0.67Z"/><path class="cls-1" d="M563.95,73.21V94.46c0.81,0,1.44.06,3.75,0.29l-0.1,1.85c-2.25-.1-3.81-0.15-5.35-0.17s-3.1.06-5.35,0.17l-0.1-1.85c2.31-.23,2.94-0.27,3.75-0.29V76.38c-1.08.25-2.29,0.48-3.65,0.75l0-1.71a47.9,47.9,0,0,0,7.1-2.21h0Z"/><path class="cls-1" d="M577.9,73.07a8.94,8.94,0,0,1,2.81.38,4.12,4.12,0,0,1,3.08,4.17c0,4.17-5.35,10-9.27,14.62l-0.94,1.1,0,0,0.63-.12c3-.08,7.21-0.19,10.25-0.19l-0.69,3.46H572.28a14.36,14.36,0,0,0-2.12.15l-0.58-1.54,4.5-5.37c4.27-5,6-9.12,6-11.33a3.11,3.11,0,0,0-1.52-3.06,4.54,4.54,0,0,0-2.27-.46,23.75,23.75,0,0,0-3.17.25,17.87,17.87,0,0,0,.9,3.48l-3.4.71a6.1,6.1,0,0,1-.83-2.48c0-2.5,4.21-3.77,8.12-3.77h0Z"/><path class="cls-2" d="M572,23.54c2.88,2.19,5.92,3.73,5.92,7.21,0,4.75-5.27,5.77-8.27,5.77-4.31,0-7-2.35-7-5.23,0-3,2.73-5,4.92-6.56-2.58-1.79-4.6-3.4-4.6-6.62,0-4.58,4.79-5.5,7.64-5.5,4.25,0,6.83,1.94,6.83,4.69,0,3-3.44,4.79-5.46,6.25h0Zm2.5,7.75c0-2.33-2.42-3.5-5.52-5.62-1.92,1.23-3.12,2.56-3.12,4.67,0,2.46,1.67,4.17,4.5,4.17a12.91,12.91,0,0,0,3.21-.44A5.31,5.31,0,0,0,574.54,31.29Zm-3.69-8.69c2.25-1.4,3.54-2.87,3.54-4.56,0-1.85-1.46-3.42-4.29-3.42a9.27,9.27,0,0,0-2.92.44,5,5,0,0,0-.85,2.56C566.33,19.5,568.2,20.48,570.85,22.61Z"/><line class="cls-4" x1="540.66" y1="162" x2="540.66"/><line class="cls-4" x1="48" y1="162" x2="48"/><path class="cls-1" d="M17.41,68.4a8.94,8.94,0,0,1,2.81.38,4.12,4.12,0,0,1,3.08,4.17c0,4.17-5.35,10-9.27,14.62l-0.94,1.1,0,0,0.63-.12c3-.08,7.21-0.19,10.25-0.19l-0.69,3.46H11.78A14.36,14.36,0,0,0,9.66,92L9.08,90.44l4.5-5.37c4.27-5,6-9.12,6-11.33a3.11,3.11,0,0,0-1.52-3.06,4.54,4.54,0,0,0-2.27-.46,23.75,23.75,0,0,0-3.17.25,17.87,17.87,0,0,0,.9,3.48l-3.4.71a6.1,6.1,0,0,1-.83-2.48c0-2.5,4.21-3.77,8.12-3.77h0Z"/><path class="cls-1" d="M40.8,69.78L34,83.17a45.84,45.84,0,0,0-3.79,9.5l-3-1L37,72.57c-4-.06-6.27-0.08-11.68-0.19l-0.58-3.79c7,0,9.46.13,14.75,0.17h0.67Z"/><path class="cls-5" d="M201,66c0,20.63,0,35.16.75,45.19,2.25,0.09,9,.56,14.06,1.13l-0.46,8.44c-7.13-.56-14.16-0.75-21.1-0.75s-14,.19-21.09.75l-0.47-8.44c5.06-.56,11.81-1,14.06-1.12,0.75-9.75.75-23.62,0.75-43.22H134.06c0,19.59,0,33.47.75,43.22,2.25,0.09,9,.56,14.06,1.13l-0.47,8.44c-7.12-.56-14.16-0.75-21.09-0.75s-14,.19-21.09.75l-0.47-8.44c5.06-.56,11.81-1,14.06-1.12,0.75-10,.75-24.56.75-45.19s0-35.16-.75-45.19c-2.25-.09-9-0.56-14.06-1.13l0.47-8.44c7.13,0.56,14.16.75,21.09,0.75s14-.19,21.09-0.75l0.47,8.44c-5.06.56-11.81,1-14.06,1.13-0.66,8.81-.75,21.09-0.75,38H187.5c0-16.87-.09-29.16-0.75-38-2.25-.09-9-0.56-14.06-1.13l0.47-8.44c7.13,0.56,14.16.75,21.09,0.75s14-.19,21.09-0.75l0.47,8.44c-5.06.56-11.81,1-14.06,1.13C201,30.85,201,45.38,201,66h0Z"/><path class="cls-5" d="M272.52,45.38c14.91,0,29.16,10.88,29.16,33.84,0,19.59-10.78,42.84-38.53,42.84a53.67,53.67,0,0,1-17-2.9c0,16.78.37,26.53,0.47,34,3,0.09,9.19.56,15.19,1.13l-0.19,8.44c-6.84-.56-15.1-0.75-22.13-0.75s-14.34.19-20.25,0.75l-0.19-8.44c5.06-.56,10.69-1,13.5-1.13,0.56-4.22.84-18.56,0.84-45.65,0-21.38-.28-42.38-0.47-50.16L219.65,57l0.28-8.16c8.53-.66,18.19-1.78,24.66-2.91a74.41,74.41,0,0,0,1.31,11c8.06-7.41,17.62-11.53,26.62-11.53h0ZM280.87,111c3.28-7.69,5.81-15,5.81-26.72,0-10.5-2.06-19.59-8.91-24.19-3.66-2.34-8.16-2.81-11.16-2.81a52.56,52.56,0,0,0-20.44,4.6V111h34.69Z"/><path class="cls-5" d="M369.68,110.72c3,1.13,8.72,2,12.09,2.44l-0.37,7.31c-5.72-.37-26.62-0.56-33.19-0.28l-0.38-7.31,5.81-1.69c-3.66-5.53-9-12.84-14.72-20.53-5.62,6.84-11.16,13.69-16.78,20.91l13.13,0.84L334.89,120c-8-.09-28.12,0-33.75.84L300.77,113a90.39,90.39,0,0,0,11.81-2.62c7.59-8.62,14.81-17.06,21.84-25.59-7.59-10.22-15.09-20.44-19.12-27.37-3.09-1.12-8.81-2-12.19-2.44l0.47-7.31c5.34,0.37,21.56.56,30.56,0l0.38,7.59-4.22,1.69c2.63,4.41,7.13,10.88,12.28,18,4.88-6,9.75-12.09,14.72-18.47l-12.19-.28,0.37-9.37c8,1,28.22,1.22,32.81.37L378.67,55A85.25,85.25,0,0,0,367,57.66c-6.94,7.88-13.5,15.56-20,23.25,8,10.88,16.69,22.22,22.69,29.81h0Z"/><path class="cls-5" d="M418.14,1.13c-1.12,4.22-1.59,32-1.59,59.06,0,28.41.66,50.25,0.66,51,2.25,0.09,7.69.56,12.75,1.13l-0.19,8.44c-5.91-.56-12.66-0.75-19.69-0.75s-13.78.19-19.69,0.75l-0.19-8.44c5.06-.56,10.69-1,12.94-1.12,0.47-10.78.66-27.28,0.66-44.16,0-23-.37-46.5-0.66-56.53l-13.87-.38L389.55,2c9.47-.28,21-1,27.47-2Z"/><path class="cls-5" d="M459.24,109.41c5.34,0.94,14.06,0,26.62-2.81l1.88,7.22c-6,4.41-20.81,8.53-27.84,8.53-8.44,0-14.91-5.91-14.91-16.87,0-16.69.28-33.47,0.47-47.53H431.59V48h13.88C445.27,36.75,445,28,445,19.22l13.41-3.09C458.21,26,458.12,36.75,458,48h29.91l-1.59,9.94H457.93c-0.09,13.6-.09,27.47-0.09,40.69,0,5.62.19,8.72,1.41,10.78h0Z"/></svg>