<svg id="Layer_1" data-name="Layer 1" xmlns="http://www.w3.org/2000/svg" viewBox="0 0 600 182"><defs><style>.cls-1{fill:#fff;}.cls-2{fill:#fe8065;}.cls-3{fill:#e0e0e0;}.cls-4{fill:none;stroke:#fe8065;stroke-miterlimit:10;stroke-width:3px;stroke-dasharray:2 3;}.cls-5{fill:#6943df;}</style></defs><title>will-assets</title><rect class="cls-1" y="2" width="600" height="162"/><rect class="cls-2" y="2" width="48" height="180"/><rect class="cls-1" x="48" y="2" width="552" height="55"/><rect class="cls-1" x="48" y="132" width="552" height="50"/><rect class="cls-3" x="48" y="57" width="552" height="75"/><rect class="cls-2" x="540.66" y="57" width="59.34" height="75"/><path class="cls-2" d="M558.22,164.3h3.86v-15l-3.86,1.77v-1.7l4.94-2.31h0.77v17.2h3.55V166h-9.26v-1.7Z"/><path class="cls-2" d="M569.48,156.55c0-5.25,2.31-9.57,6.48-9.57s6.48,4.32,6.48,9.57-2.31,9.57-6.48,9.57S569.48,161.79,569.48,156.55Zm11,0c0-4.2-1.35-7.83-4.47-7.83s-4.47,3.63-4.47,7.83,1.35,7.83,4.47,7.83S580.44,160.75,580.44,156.55Z"/><path class="cls-1" d="M558.14,102.8H562v-15l-3.86,1.77v-1.7l4.94-2.31h0.77v17.2h3.55v1.7h-9.26v-1.7Z"/><path class="cls-1" d="M576,91.66a6.48,6.48,0,1,1,0,13c-3.2,0-6.56-2.08-6.56-5.86h1.93A4.37,4.37,0,0,0,576,103a4.55,4.55,0,0,0,4.59-4.86A4.49,4.49,0,0,0,576,93.28a5,5,0,0,0-4.55,2.62l-1.54-.12L570.6,85.6h10.26v1.85h-8.79l-0.5,6.29a5.61,5.61,0,0,1,4.4-2.08h0Z"/><path class="cls-2" d="M560.23,37.3h3.86v-15l-3.86,1.77v-1.7l4.94-2.31h0.77V37.3h3.55V39h-9.26V37.3Z"/><path class="cls-2" d="M571.49,37.3h3.86v-15l-3.86,1.77v-1.7l4.94-2.31h0.77V37.3h3.55V39h-9.26V37.3Z"/><line class="cls-4" x1="540.66" y1="182" x2="540.66" y2="2"/><line class="cls-4" x1="48" y1="182" x2="48" y2="2"/><path class="cls-1" d="M22.27,96.52a6,6,0,0,1-6.17,6.09,5.94,5.94,0,0,1-6.17-5.86h1.93A4.18,4.18,0,0,0,16.09,101a4.23,4.23,0,0,0,4.2-4.47,5,5,0,0,0-5-5L13.89,93l-1.16-1,6.13-6.56,0-.08-1.54.12H9.81V83.6H22.15v0.77l-5.48,5.75A6.45,6.45,0,0,1,22.27,96.52Z"/><path class="cls-1" d="M28.47,88.38l4-4.78h2.31l-4,4.78c-0.62.69-1.27,1.43-2.31,2.55h0.15a5.32,5.32,0,0,1,3.39-1.27A6.14,6.14,0,0,1,38.12,96,6.56,6.56,0,1,1,25,96C25,93,26.58,90.62,28.47,88.38ZM31.56,101a4.72,4.72,0,0,0,4.63-5,4.45,4.45,0,0,0-4.63-4.71A4.45,4.45,0,0,0,26.93,96,4.72,4.72,0,0,0,31.56,101Z"/><path class="cls-5" d="M212.53,31.37v86.25c0,7.5.42,9.38,15.63,9.38v5H180.24v-5c15.21,0,15.63-1.87,15.63-9.38V76.16H130.23v41.46c0,7.5.42,9.38,15.63,9.38v5H97.94v-5c15.21,0,15.63-1.87,15.63-9.38V31.37c0-7.5-.42-9.38-15.63-9.38V17h47.92v5c-15.21,0-15.63,1.88-15.63,9.38v39h65.63v-39c0-7.5-.42-9.38-15.62-9.38V17h47.92v5C212.94,22,212.53,23.87,212.53,31.37Z"/><path class="cls-5" d="M273.66,133H260.95v35.63c0,7.5,1.15,8.33,14,8.33v5H232v-5c12.81,0,14-.83,14-8.33V71c0-7.92-1.15-8.54-15-9V57c13.75-.62,23.54-1.25,29.58-1.67V71h0.42A28.55,28.55,0,0,1,287,54.5c15.42,0,32.81,10.94,32.81,34.48,0,24.58-18.23,44.06-46.15,44.06h0ZM261,90v37c3.54,0.31,7.92.62,11.14,0.62,23.44,0,30.21-15.94,30.21-36.56,0-20.94-7.09-30.73-18.44-30.73-10.94,0-17.92,9.38-20.73,16.56A34.72,34.72,0,0,0,260.95,90h0Z"/><path class="cls-5" d="M390.57,117.42c6.15,7.92,8.44,9.58,18,9.58v5H363.48v-5c13.75,0,14.48-1.77,9.17-8.65l-12.92-16.77-15,16.88c-5.73,6.56-5.52,8.54,7,8.54v5h-34v-5c10.42,0,13-1.36,19-8.13l19.38-22L336.71,71.69C330.77,64,328,62,318.37,62V57h44.06v5c-12.81,0-12.92,2-7.81,8.65l11.46,14.9,14-15.73c5.21-5.94,3.23-7.81-8.54-7.81V57h32.6v5c-9.79,0-10.42,1.15-16.67,8.23l-17.71,20,20.83,27.19h0Z"/><path class="cls-5" d="M427.54,15.74c0-7.92-1.15-8.54-15-8.75V2c11.67-.42,23.54-0.73,30-1V118.67c0,7.5,1.14,8.33,14,8.33v5H413.58v-5c12.81,0,14-.83,14-8.33V15.75h0Z"/><path class="cls-5" d="M458.73,62.41V57c1.56,0,3.54,0,5.21-.1,9-.52,9-4.06,9-15V33.14h13.33V57h19v5.42h-19v51c0,10.73,2.71,13.65,5.73,13.65,3.54,0,7.19-3.75,9.27-7.19l4,2.92c-4,6-10.62,11.25-19.17,11.25-9.69,0-14.79-6.67-14.79-17.19V62.41h-12.5Z"/></svg>