<svg id="Layer_1" data-name="Layer 1" xmlns="http://www.w3.org/2000/svg" viewBox="0 0 680 308"><defs><style>.cls-1{fill:#09c;}</style></defs><title>hans_full</title><path class="cls-1" d="M48,17.22V21H45.26c-1.59,0-2.61-.45-2.88-2l-.51-3H39l-.51,3c-.27,1.56-1.29,2-2.88,2H32.93V17.22h.6c.42,0,.84-.09,1-.66L37.22,3H43.7l2.73,13.56c.12.57.54.66,1,.66Zm-6.75-5-.78-4.71-.78,4.71Z"/><path class="cls-1" d="M59.66,14.55V17a3.86,3.86,0,0,1-4,4H46.49V17.22h1.8V7.83a6,6,0,0,1,.09-1H46.49V3h1.35A2.39,2.39,0,0,1,50,3.93a5.62,5.62,0,0,1,3.57-1.08c3.24,0,5,1.8,5,5a5.58,5.58,0,0,1-.69,2.91A5.88,5.88,0,0,1,59.66,14.55ZM52.49,7.83V9h1.08a1.11,1.11,0,0,0,1.14-1.2,1.11,1.11,0,0,0-1.14-1.2A1.07,1.07,0,0,0,52.49,7.83Zm3,7a2.44,2.44,0,0,0-1-2.13,9.15,9.15,0,0,1-.93.06H52.49v4.41h1.77c.87,0,1.2-.33,1.2-1.2Z"/><path class="cls-1" d="M70.73,8.4h-3.9c0-1.47-.63-1.8-1.14-1.8s-1.08.33-1.08,1.8V16c0,.87.33,1.2,1.2,1.2h6.12V21H64.46a3.71,3.71,0,0,1-4-4V8.4c0-4.08,1.5-5.58,5.28-5.58S70.73,4.32,70.73,8.4Z"/><path class="cls-1" d="M83.63,7.05V17a3.86,3.86,0,0,1-4,4H70.43V17.22h1.8V6.78h-1.8V3h9.15A3.71,3.71,0,0,1,83.63,7.05ZM79.42,8c0-.87-.33-1.2-1.2-1.2h-1.8V17.22h1.8c.87,0,1.2-.33,1.2-1.2Z"/><path class="cls-1" d="M97.3,17.22V21H83.93V17.22h1.86V8.4a13,13,0,0,1,.09-1.62h-2V3h1.35a2.56,2.56,0,0,1,2.07.78,5.92,5.92,0,0,1,3.72-1c3.84,0,5,1.5,5,5.58h-3.9c0-1.47-.63-1.8-1.14-1.8S90,6.93,90,8.4v2h3.78v3.78H90v3Z"/><path class="cls-1" d="M102.17,10.41h3.78v3.78h-3.78v3H104V21H96.11V17.22H98V8.4a13,13,0,0,1,.09-1.62h-2V3h1.35a2.56,2.56,0,0,1,2.07.78,5.92,5.92,0,0,1,3.72-1c3.84,0,5,1.5,5,5.58h-3.9c0-1.47-.63-1.8-1.14-1.8s-1.08.33-1.08,1.8Z"/><path class="cls-1" d="M117.71,14.31V16a1.09,1.09,0,0,0,1.14,1.2h.06V21H117a3.59,3.59,0,0,1-2.25-.69V21h-3.27a3.71,3.71,0,0,1-4-4V8.58c0-4.08,1.5-5.58,5.28-5.58s5,1.5,5,5.58h-3.9c0-1.47-.63-1.8-1.14-1.8s-1.08.33-1.08,1.8V16c0,.87.33,1.2,1.2,1.2h.72V14.31h-1.2V10.53h7.2v3.78Z"/><path class="cls-1" d="M131.21,6.75V16a1.1,1.1,0,0,0,1.2,1.2h.6V21h-2.55A3.23,3.23,0,0,1,127,17.55V13.38h-2.1v3.81h1.8V21h-7.8V17.19h1.8V8a1.1,1.1,0,0,0-1.2-1.2h-.6V3h2.55a3.23,3.23,0,0,1,3.45,3.45V9.6H127V6.75h-1.2V3H133V6.75Z"/><path class="cls-1" d="M138.41,6.78V17.19h1.8V21h-7.8V17.19h1.8V6.78h-1.8V3h7.8V6.78Z"/><path class="cls-1" d="M147.4,6.78h-1.8V21.6c0,3.48-1.5,5-5.88,5V22.8c1.11,0,1.68-.33,1.68-1.2V6.78h-1.8V3h7.8Z"/><path class="cls-1" d="M161.14,17.22V21H159c-1.89,0-3-.21-3.69-2L152.8,12.3h-.6v4.89H154V21h-7.8V17.19H148V6.78h-1.8V3H154V6.78h-1.8V8.52h2.16c.9,0,1.35-.36,1.35-1.53s-.09-2-.21-4h4.41V8.64a3.33,3.33,0,0,1-2.82,3.57l1.83,4.08C159.22,17,160,17.22,161.14,17.22Z"/><path class="cls-1" d="M171,17.19V21h-11.4V17.19h1.8V6.78h-1.8V3h7.8V6.78h-1.8V17.19Z"/><path class="cls-1" d="M192.52,17.22V21h-7.8V17.22h1.68L186,6.9h-.36L183.19,21h-4.62l-2.7-14.1h-.36l-.45,10.32h1.68V21h-7.8V17.22h1.89l.36-10.44h-1.68V3h10l1.2,11.4h.06L182,3h10V6.78h-1.68l.36,10.44Z"/><path class="cls-1" d="M206.62,6.75h-1.8V21H201.4l-3.72-8.31h-.36v4.53h.9V21h-6.9V17.22h1.8V6.78h-1.8V3h5.22l3.72,8.31h.36V6.75h-.9V3h6.9Z"/><path class="cls-1" d="M217.72,7.05V17a3.86,3.86,0,0,1-4.05,4h-3.3a3.71,3.71,0,0,1-4-4V7.05a3.71,3.71,0,0,1,4-4h3.3A3.71,3.71,0,0,1,217.72,7.05Zm-6-.27c-.87,0-1.2.33-1.2,1.2v8c0,.87.33,1.2,1.2,1.2h.6c.87,0,1.2-.33,1.2-1.2V8c0-.87-.33-1.2-1.2-1.2Z"/><path class="cls-1" d="M230.32,7.05v2.7a3.86,3.86,0,0,1-4.05,4H224v3.39h1.8V21H218V17.19h1.8V6.78H218V3h8.25A3.71,3.71,0,0,1,230.32,7.05Zm-4.2.93c0-.87-.33-1.2-1.2-1.2H224V10h.9c.87,0,1.2-.33,1.2-1.2Z"/><path class="cls-1" d="M241.72,7.05V17a3.83,3.83,0,0,1-3.45,4v.33c0,1.23.36,1.47,2.16,1.47v3.78c-4.35,0-6.36-1.71-6.36-4.65V21a3.67,3.67,0,0,1-3.75-4V7.05a3.71,3.71,0,0,1,4-4h3.3A3.71,3.71,0,0,1,241.72,7.05Zm-7.2,9c0,.87.33,1.2,1.2,1.2h.6c.87,0,1.2-.33,1.2-1.2V8c0-.87-.33-1.2-1.2-1.2h-.6c-.87,0-1.2.33-1.2,1.2Z"/><path class="cls-1" d="M256.06,17.22V21H254.2c-1.89,0-3.15-.12-3.69-2L249,13.8h-1v3.39h1.8V21H242V17.19h1.8V6.78H242V3h8.25a3.71,3.71,0,0,1,4,4v2.7a4,4,0,0,1-1.26,3.06l1.2,3.72c.21.66,1,.69,1.65.69ZM248,10h.9c.87,0,1.2-.33,1.2-1.2V8c0-.87-.33-1.2-1.2-1.2H248Z"/><path class="cls-1" d="M260.5,3h4.92V6.78h-5.13c-.84,0-1.41.39-1.41,1.14s.6,1.29,2.73,2.28c2.94,1.35,4.41,2.58,4.41,5.28,0,3.93-3,5.52-5.64,5.52h-5.22V17.22h5.49A1.29,1.29,0,0,0,262.06,16c0-.75-.63-1.32-2.76-2.25-3-1.29-4.44-2.94-4.44-5.64C254.86,4.17,257.89,3,260.5,3Z"/><path class="cls-1" d="M272.32,6.78V17.22h1.8V21h-7.8V17.22h1.8V6.78h-4.2V3h12.6V6.78Z"/><path class="cls-1" d="M288.52,6.78h-1.8V17a3.86,3.86,0,0,1-4,4h-3a3.71,3.71,0,0,1-4-4V8a1.1,1.1,0,0,0-1.2-1.2h-.6V3h2.55a3.23,3.23,0,0,1,3.45,3.45V16c0,.87.33,1.2,1.2,1.2h.3c.87,0,1.2-.33,1.2-1.2V6.78h-1.8V3h7.8Z"/><path class="cls-1" d="M301.18,3V6.78h-.6c-.42,0-.84.09-1,.66L296.89,21h-6.48L287.68,7.44c-.12-.57-.54-.66-1-.66h-.6V3h2.73c1.59,0,2.61.45,2.88,2l1.92,11.46L295.57,5c.27-1.56,1.29-2,2.88-2Z"/><path class="cls-1" d="M321.85,3V6.78h-.6c-.42,0-.9.09-1,.66L318.76,21h-6.48l-1.35-6.78L309.55,21h-6.48L301.54,7.44c-.06-.57-.54-.66-1-.66H300V3h2.73c1.59,0,2.76.45,2.88,2l.87,10.65L308,6.45V3h5.85V6.45l1.53,9.21L316.24,5c.12-1.56,1.29-2,2.88-2Z"/><path class="cls-1" d="M334.78,17.22V21h-3c-1.59,0-2.16-.54-2.88-2l-.81-1.68L327.22,19c-.72,1.47-1.29,2-2.88,2h-3V17.22h1.2c.42,0,.69-.09,1-.66l2.1-4.26-2.4-4.86c-.27-.57-.54-.66-1-.66h-.6V3H324c1.59,0,2.16.54,2.88,2l1.14,2.28L329.17,5c.72-1.47,1.29-2,2.88-2h2.43V6.78h-.6c-.42,0-.69.09-1,.66l-2.4,4.86,2.1,4.26c.27.57.54.66,1,.66Z"/><path class="cls-1" d="M345.58,3V6.78H345a.94.94,0,0,0-1,.66l-2.79,5.67v4.11H343V21h-7.8V17.22H337V13.11l-2.79-5.67c-.27-.57-.54-.66-1-.66h-.6V3h2.16c1.59,0,2.16.57,2.88,2l1.41,2.88L340.54,5c.72-1.47,1.29-2,2.88-2Z"/><path class="cls-1" d="M355.63,16v2.4A2.26,2.26,0,0,1,353,21h-9.72V17.82l6.36-11.13-1.08.09h-4.53V3h10.83V6.18l-6.39,11.19,1.71-.15h.9c1,0,1.2-.15,1.2-1.2Z"/><path class="cls-1" d="M366.73,17.22V21h-8c-2.61,0-4.26-1.89-4.26-4.53s1.62-4.56,4.26-4.56h2v-.63a1.45,1.45,0,0,0-1.5-1.5h-4V6h6.3a3.39,3.39,0,0,1,3.45,3.45v7.77Zm-6,0v-1.5h-1.44a.76.76,0,0,0,0,1.5Z"/><path class="cls-1" d="M377.53,10.05V17a3.71,3.71,0,0,1-4,4h-8.55V17.22h1.8V3.78h-1.8V0h6V6h2.55A3.71,3.71,0,0,1,377.53,10.05Zm-4.2.93c0-.87-.33-1.2-1.2-1.2h-1.2v7.44h1.2c.87,0,1.2-.33,1.2-1.2Z"/><path class="cls-1" d="M389,11.4h-3.9c0-1.47-.63-1.8-1.14-1.8s-1.08.33-1.08,1.8V16c0,.87.33,1.2,1.2,1.2h6.12V21h-7.47a3.71,3.71,0,0,1-4-4V11.4c0-4.08,1.5-5.58,5.28-5.58S389,7.32,389,11.4Z"/><path class="cls-1" d="M402.25,17.22V21H393.7a3.71,3.71,0,0,1-4-4v-6.9a3.71,3.71,0,0,1,4-4h2.55V3.78h-1.8V0h6V17.22Zm-7.2,0h1.2V9.78H395c-.87,0-1.2.33-1.2,1.2v5C393.85,16.89,394.18,17.22,395,17.22Z"/><path class="cls-1" d="M413.47,17.22V21H406a3.71,3.71,0,0,1-4-4V10.8c0-2.88,2.1-5,5.28-5a4.68,4.68,0,0,1,5,5,4.68,4.68,0,0,1-5,5h-1.08V16c0,.87.33,1.2,1.2,1.2Zm-7.32-6.42V12h1.08a1.11,1.11,0,0,0,1.14-1.2,1.11,1.11,0,0,0-1.14-1.2A1.07,1.07,0,0,0,406.15,10.8Z"/><path class="cls-1" d="M418.27,5.28V6h3.3V9.78h-3.3v7.44h1.8V21h-7.8V17.22h1.8V9.78h-3V6h3V4.05a3.71,3.71,0,0,1,4-4h3.45V3.78h-1.8A1.45,1.45,0,0,0,418.27,5.28Z"/><path class="cls-1" d="M433.63,6V9.78h-1.08a2,2,0,0,0-1.38.33V17a4.52,4.52,0,0,1-.6,2.4,7.46,7.46,0,0,1,1.35,4.14c0,1.8-.81,3.51-3.45,3.51h-6.39V22.92h4.38c.9,0,1.56,0,1.56-1a1.51,1.51,0,0,0-.33-1,3.48,3.48,0,0,1-.57,0h-2.7a3.71,3.71,0,0,1-4-4v-6.9a3.71,3.71,0,0,1,4-4h2.7a4.11,4.11,0,0,1,2.79.9,3.61,3.61,0,0,1,2.52-.9ZM427,10.68c0-.87-.33-.9-1.17-.9h-.06c-.84,0-1.17,0-1.17.9v5.64c0,.87.33.9,1.17.9h.06c.84,0,1.17,0,1.17-.9Z"/><path class="cls-1" d="M445.33,17.22V21h-2.55a3.23,3.23,0,0,1-3.45-3.45V11.28a1.45,1.45,0,0,0-1.5-1.5h-.6v7.44H439V21h-7.8V17.22H433V3.78h-1.8V0h6V6h2.25a3.71,3.71,0,0,1,4,4v6a1.1,1.1,0,0,0,1.2,1.2Z"/><path class="cls-1" d="M451.63,17.22V21h-7.8V17.22h1.8V9.78h-1.8V6h6V17.22Zm-2.4-13.44H445V0h4.2Z"/><path class="cls-1" d="M455.83,6V21.6c0,3.48-1.5,5-5.88,5V22.8c1.11,0,1.68-.33,1.68-1.2V9.78h-1.8V6Zm-.6-2.22H451V0h4.2Z"/><path class="cls-1" d="M470.47,17.22V21h-1.86c-1.89,0-2.91-.21-3.69-2L462.43,13h-.6v4.2h1.8V21h-7.8V17.22h1.8V3.78h-1.8V0h6V9.42H464c.9,0,1.35-.36,1.35-1.53A12.58,12.58,0,0,0,465.13,6h4.41V9.36a3.37,3.37,0,0,1-2.7,3.57l1.83,3.6C469,17.19,469.63,17.22,470.47,17.22Z"/><path class="cls-1" d="M476.47,17.22V21h-7.8V17.22h1.8V3.78h-1.8V0h6V17.22Z"/><path class="cls-1" d="M495.37,17.22V21h-2.55a3.23,3.23,0,0,1-3.45-3.45V11.28a1.45,1.45,0,0,0-1.5-1.5h-.6V16a1.1,1.1,0,0,0,1.2,1.2h.6V21h-2.55a3.23,3.23,0,0,1-3.45-3.45V11.28a1.45,1.45,0,0,0-1.5-1.5H481v7.44h1.8V21H475V17.22h1.8V9.78H475V6h8.25a4,4,0,0,1,3.15,1.26V6h3.15a3.71,3.71,0,0,1,4,4v6a1.1,1.1,0,0,0,1.2,1.2Z"/><path class="cls-1" d="M508,17.22V21h-2.55A3.23,3.23,0,0,1,502,17.55V11.28a1.45,1.45,0,0,0-1.5-1.5h-.6v7.44h1.8V21h-7.8V17.22h1.8V9.78h-1.8V6h8.25a3.71,3.71,0,0,1,4,4v6a1.1,1.1,0,0,0,1.2,1.2Z"/><path class="cls-1" d="M507.67,10.05a3.71,3.71,0,0,1,4-4h2.7a3.71,3.71,0,0,1,4,4V17a3.71,3.71,0,0,1-4,4h-2.7a3.71,3.71,0,0,1-4-4ZM513,17.22h.06c.84,0,1.17-.33,1.17-1.2V11c0-.87-.33-1.2-1.17-1.2H513c-.84,0-1.17.33-1.17,1.2v5C511.87,16.89,512.2,17.22,513,17.22Z"/><path class="cls-1" d="M530.76,10.05V17a3.71,3.71,0,0,1-4,4h-2.55v2.22H526V27h-7.8V23.22H520V9.78h-1.8V6h8.55A3.71,3.71,0,0,1,530.76,10.05Zm-4.2.93c0-.87-.33-1.2-1.2-1.2h-1.2v7.44h1.2c.87,0,1.2-.33,1.2-1.2Z"/><path class="cls-1" d="M544.56,23.22V27h-7.8V23.22h1.8V21H536a3.71,3.71,0,0,1-4-4v-6.9a3.71,3.71,0,0,1,4-4h8.55V9.78h-1.8V23.22Zm-6-6V9.78h-1.2c-.87,0-1.2.33-1.2,1.2v5c0,.87.33,1.2,1.2,1.2Z"/><path class="cls-1" d="M552.51,6V9.78h-.3c-1.77,0-2.4.63-2.4,2.4v5h1.8V21h-7.8V17.22h1.8v-6a7,7,0,0,1,.15-1.41,11.86,11.86,0,0,0-1.62-.06h-1.23V6h1.35a2.2,2.2,0,0,1,2.49,1.77A5.22,5.22,0,0,1,550.87,6Z"/><path class="cls-1" d="M556.36,6h5V9.81h-4.71c-.54,0-1,.15-1,.75s.36.66,1.14.75c4.08.51,5.34,1.77,5.34,4.68,0,3.72-2.13,5-5.34,5h-5V17.22h4.71c.54,0,1-.24,1-.81s-.36-.75-1.14-.84c-4.08-.51-5.34-2-5.34-4.95C551,6.9,553.15,6,556.36,6Z"/><path class="cls-1" d="M566.83,9.78v5.94a1.45,1.45,0,0,0,1.5,1.5h1.8V21h-3.45a3.71,3.71,0,0,1-4-4V9.78h-3V6h3V3h4.2V6h3.3V9.78Z"/><path class="cls-1" d="M581.67,17.22V21h-8.25a3.71,3.71,0,0,1-4-4V11a1.1,1.1,0,0,0-1.2-1.2h-.6V6h2.55a3.23,3.23,0,0,1,3.45,3.45v6.27a1.45,1.45,0,0,0,1.5,1.5h.6V11a1.1,1.1,0,0,0-1.2-1.2h-.6V6h2.55a3.23,3.23,0,0,1,3.45,3.45v7.77Z"/><path class="cls-1" d="M594.24,6V9.78h-.42a.84.84,0,0,0-1,.66L590.22,21h-6.48L581.1,10.44a.84.84,0,0,0-1-.66h-.42V6h1.71c2.79,0,3.39.15,4,3.18L587,17.73l1.59-8.55c.57-3,1.17-3.18,4-3.18Z"/><path class="cls-1" d="M613.38,6V9.78H613c-.42,0-.84.09-1,.66L610,21h-6.48l-.84-5-1.17,5H596l-2-10.56c-.12-.57-.54-.66-1-.66h-.42V6h1.71c2.79,0,3.54.15,4,3.18l.84,6.15L600.13,11h1.68l-.18-1.2h-2.07V6h5.58l1.65,10,.93-6.81c.42-3,1.17-3.18,4-3.18Z"/><path class="cls-1" d="M611.58,17.22h1c.42,0,.6-.12,1-.66l2.19-3.33-1.89-2.79c-.36-.54-.54-.66-1-.66h-1V6h1.5c2.52,0,2.88.33,4.11,2.67l.33.66h.06l.33-.66c1.2-2.34,1.56-2.67,4.08-2.67h1.5V9.78h-1c-.42,0-.6.12-1,.66l-1.89,2.79,2.19,3.33c.36.54.54.66,1,.66h1V21h-1.5c-2.79,0-3.6-.18-4.53-3.18l-.18-.57h-.06l-.21.57c-1.08,2.91-1.74,3.18-4.53,3.18h-1.5Z"/><path class="cls-1" d="M636.87,6V9.78h-.42c-.42,0-.84.09-1,.66l-2.88,13.38c-.66,3.06-1.17,3.18-4,3.18h-5.16V23.22h4.14c.42,0,.84-.09,1-.66l.33-1.56h-2.61l-2.64-10.56a.84.84,0,0,0-1-.66h-.42V6h1.5c2.79,0,3.27.18,4,3.18l2,8.25,1.77-8.25c.66-3.06,1.17-3.18,4-3.18Z"/><path class="cls-1" d="M646.77,16v2.4A2.26,2.26,0,0,1,644.19,21h-9.12V18.12l4.68-8.31h-5.28V6h11.58V8.88l-4.71,8.34h.93c1,0,1.2-.15,1.2-1.2Z"/><path class="cls-1" d="M59,57.76V61H56.39C55,61,54,60.61,53.78,59.17L53.24,56H50.06l-.57,3.15c-.24,1.44-1.2,1.83-2.61,1.83H44.33V57.76h.75c.42,0,.84-.09,1-.66L48.89,43h5.52L57.25,57.1c.12.57.54.66,1,.66Zm-6.3-5-1-5.91-1,5.91Z"/><path class="cls-1" d="M70,54.25v2.94A3.6,3.6,0,0,1,66.2,61H57.58V57.76h1.83V47.56a6.36,6.36,0,0,1,.15-1.32h-2V43h1.35a2.14,2.14,0,0,1,2,.93,5.14,5.14,0,0,1,3.42-1.08c3,0,4.74,1.68,4.74,4.8a5.19,5.19,0,0,1-.78,3A5.36,5.36,0,0,1,70,54.25Zm-7-6.6v1.53h1.35a1.55,1.55,0,0,0,0-3.09C63.64,46.09,63,46.54,63,47.65Zm3.39,6.87a2.42,2.42,0,0,0-1-2.16c-.36,0-.69.06-1,.06H63v5.34h2c1,0,1.35-.39,1.35-1.38Z"/><path class="cls-1" d="M80.66,48.13H77.29c0-1.62-.69-2.07-1.38-2.07s-1.35.45-1.35,2.07v8.25c0,1,.39,1.38,1.35,1.38h5.91V61h-7A3.47,3.47,0,0,1,71,57.19V48.13c0-3.87,1.44-5.31,4.95-5.31S80.66,44.26,80.66,48.13Z"/><path class="cls-1" d="M92.92,46.81V57.19A3.6,3.6,0,0,1,89.15,61H80.54V57.76h1.83V46.24H80.54V43h8.61A3.46,3.46,0,0,1,92.92,46.81Zm-3.6.81c0-1-.36-1.38-1.35-1.38H86V57.76h2c1,0,1.35-.39,1.35-1.38Z"/><path class="cls-1" d="M106.09,57.76V61H93.38V57.76h1.89V48.13a8.64,8.64,0,0,1,.15-1.86,6.58,6.58,0,0,0-.81,0H93.38V43h1.35a2.16,2.16,0,0,1,1.92.81,5.25,5.25,0,0,1,3.54-1c3.57,0,4.74,1.44,4.74,5.31h-3.33c0-1.62-.69-2.07-1.41-2.07s-1.32.45-1.32,2.07v2.46h3.78v3.24H98.87v3.93Z"/><path class="cls-1" d="M110.57,50.59h3.78v3.24h-3.78v3.93h1.89V61h-7.38V57.76H107V48.13a8.64,8.64,0,0,1,.15-1.86,6.58,6.58,0,0,0-.81,0h-1.23V43h1.35a2.16,2.16,0,0,1,1.92.81,5.25,5.25,0,0,1,3.54-1c3.57,0,4.74,1.44,4.74,5.31h-3.33c0-1.62-.69-2.07-1.41-2.07s-1.32.45-1.32,2.07Z"/><path class="cls-1" d="M125.69,54v2.67a1,1,0,0,0,1.08,1.11H127V61h-1.89a3.1,3.1,0,0,1-2-.63V61H119.9a3.47,3.47,0,0,1-3.81-3.81V48.28c0-3.87,1.44-5.31,4.95-5.31s4.74,1.44,4.74,5.31h-3.36c0-1.62-.69-2.07-1.38-2.07s-1.35.45-1.35,2.07v8.1c0,1,.39,1.38,1.35,1.38h1V54h-1.32V50.74h6.78V54Z"/><path class="cls-1" d="M138.52,46.21V56.65a1,1,0,0,0,1.11,1.11h.75V61H138a2.82,2.82,0,0,1-3-3V53.11h-2.61v4.62h1.86V61h-7.29V57.73h1.83V47.35a1,1,0,0,0-1.11-1.11h-.72V43h2.4a2.82,2.82,0,0,1,3,3v3.84h2.61V46.21h-1.35V43h6.81v3.24Z"/><path class="cls-1" d="M145.3,46.24V57.73h1.86V61h-7.29V57.73h1.83V46.24h-1.83V43h7.29v3.24Z"/><path class="cls-1" d="M153.95,46.24h-1.86V61.6c0,3.36-1.44,4.8-5.43,4.8V63.16c1.2,0,1.83-.45,1.83-1.56V46.24h-1.83V43h7.29Z"/><path class="cls-1" d="M167.05,57.76V61h-1.92c-1.71,0-2.85-.21-3.51-2L159,52h-.69v5.73h1.86V61H152.9V57.73h1.83V46.24H152.9V43h7.29v3.24h-1.86v2.52h2.16c1.14,0,1.62-.69,1.62-2.19,0-1.08-.06-1.77-.18-3.57h3.78v4.86c0,2.16-.9,3.81-3.06,4.08l2.07,4.77C165.08,57.52,165.92,57.76,167.05,57.76Z"/><path class="cls-1" d="M176.83,57.73V61h-11V57.73h1.83V46.24h-1.83V43h7.29v3.24h-1.86V57.73Z"/><path class="cls-1" d="M197.08,57.76V61h-7.29V57.76h1.74L191,46.36h-.3L188.12,61h-4l-2.85-14.64h-.33l-.51,11.4h1.74V61h-7.29V57.76h1.92l.42-11.52h-1.71V43h8.85L186,55.36H186L187.6,43h8.88v3.24h-1.74l.42,11.52Z"/><path class="cls-1" d="M210.62,46.21h-1.83V61h-3l-4-9.69h-.33v6.45h1.08V61H196V57.76h1.83V46.24H196V43h4.8l4,9.69h.33V46.21h-1.08V43h6.51Z"/><path class="cls-1" d="M221.21,46.81V57.19A3.58,3.58,0,0,1,217.42,61h-3.06a3.49,3.49,0,0,1-3.81-3.81V46.81A3.49,3.49,0,0,1,214.37,43h3.06A3.47,3.47,0,0,1,221.21,46.81Zm-5.7-.57c-1,0-1.35.39-1.35,1.38v8.76c0,1,.39,1.38,1.35,1.38h.78c1,0,1.32-.39,1.32-1.38V47.62c0-1-.36-1.38-1.32-1.38Z"/><path class="cls-1" d="M233.23,46.81V50a3.6,3.6,0,0,1-3.81,3.81h-2.31v3.93H229V61h-7.29V57.73h1.83V46.24h-1.83V43h7.74A3.49,3.49,0,0,1,233.23,46.81Zm-3.6.81c0-1-.39-1.38-1.35-1.38h-1.17v4.32h1.17c1,0,1.35-.39,1.35-1.38Z"/><path class="cls-1" d="M244.21,46.81V57.19A3.54,3.54,0,0,1,240.82,61v.42c0,1.41.45,1.77,2.25,1.77V66.4c-4,0-5.85-1.62-5.85-4.5V61a3.47,3.47,0,0,1-3.66-3.81V46.81A3.49,3.49,0,0,1,237.38,43h3.06A3.47,3.47,0,0,1,244.21,46.81Zm-7,9.57c0,1,.39,1.38,1.35,1.38h.78c1,0,1.32-.39,1.32-1.38V47.62c0-1-.36-1.38-1.32-1.38h-.78c-1,0-1.35.39-1.35,1.38Z"/><path class="cls-1" d="M258.13,57.79V61H256.3c-1.65,0-2.79-.15-3.3-1.86l-1.68-5.37h-1.2v3.93H252V61h-7.29V57.73h1.83V46.24h-1.83V43h7.74a3.49,3.49,0,0,1,3.81,3.81V50a3.66,3.66,0,0,1-1.41,3.06l1.38,4c.24.66.9.69,1.56.69Zm-8-7.23h1.17c1,0,1.35-.39,1.35-1.38V47.62c0-1-.39-1.38-1.35-1.38h-1.17Z"/><path class="cls-1" d="M262.3,43h5v3.24h-5.13a1.33,1.33,0,0,0-1.5,1.5c0,1.2.51,1.68,2.79,2.7,3,1.32,4.26,2.37,4.26,5.28A4.91,4.91,0,0,1,262.51,61h-5.22V57.76h5.43a1.43,1.43,0,0,0,1.53-1.62c0-1.23-.51-1.74-2.82-2.7-3-1.26-4.26-2.7-4.26-5.55C257.17,44.11,259.84,43,262.3,43Z"/><path class="cls-1" d="M273.76,46.24V57.76h1.86V61h-7.29V57.76h1.83V46.24h-4.32V43h12.27v3.24Z"/><path class="cls-1" d="M289.72,46.24h-1.83V57.19A3.61,3.61,0,0,1,284.08,61h-2.85a3.49,3.49,0,0,1-3.81-3.81V47.35a1,1,0,0,0-1.11-1.11h-.72V43H278a2.82,2.82,0,0,1,3,3V56.38c0,1,.39,1.38,1.35,1.38h.57c1,0,1.35-.39,1.35-1.38V46.24h-1.86V43h7.29Z"/><path class="cls-1" d="M302.17,43v3.24h-.75c-.42,0-.84.09-1,.66L297.61,61h-5.52L289.24,46.9c-.12-.57-.54-.66-1-.66h-.75V43h2.55c1.41,0,2.37.39,2.61,1.83l2.16,12.3L297,44.83c.27-1.44,1.23-1.83,2.61-1.83Z"/><path class="cls-1" d="M321.94,43v3.24h-.75c-.42,0-.9.09-1,.66L318.49,61H313l-1.56-7.8L309.88,61h-5.52L302.62,46.9c-.09-.57-.54-.66-1-.66h-.78V43h2.58c1.41,0,2.49.39,2.61,1.83l1.14,11.7L309,46.24h-.54V43h6v3.24h-.54l1.77,10.29,1.14-11.7c.12-1.44,1.2-1.83,2.61-1.83Z"/><path class="cls-1" d="M334.54,57.76V61h-2.85c-1.38,0-2-.48-2.58-1.83l-1.23-2.52-1.2,2.52c-.66,1.35-1.2,1.83-2.61,1.83h-2.85V57.76h1.26a.89.89,0,0,0,1-.66l2.34-4.86-2.55-5.34c-.27-.57-.54-.66-1-.66h-.75V43h2.31c1.41,0,2,.48,2.61,1.83l1.44,3,1.44-3c.66-1.35,1.2-1.83,2.61-1.83h2.31v3.24h-.75c-.42,0-.69.09-1,.66L330,52.24l2.34,4.86c.27.57.54.66,1,.66Z"/><path class="cls-1" d="M345.22,43v3.24h-.75a.94.94,0,0,0-1,.66l-2.85,6v4.86h1.83V61H335.2V57.76h1.86V52.9l-2.88-6c-.27-.57-.54-.66-1-.66h-.75V43h2.1c1.41,0,1.95.51,2.61,1.83l1.68,3.48,1.68-3.48c.63-1.35,1.2-1.83,2.61-1.83Z"/><path class="cls-1" d="M354.94,56.65v2A2,2,0,0,1,352.63,61h-9.3V58.27l6.6-12.12-1,.09H343.9V43h10.41v2.73l-6.6,12.15,1.56-.12H351c1,0,1.11-.15,1.11-1.11Z"/><path class="cls-1" d="M365.77,57.76V61h-7.44c-2.61,0-4.17-1.77-4.17-4.41s1.53-4.44,4.17-4.44h2V50.86a1.53,1.53,0,0,0-1.62-1.62h-3.81V46h5.73a3.22,3.22,0,0,1,3.3,3.3v8.46Zm-5.43,0V55.42h-1.5a1.17,1.17,0,0,0,0,2.34Z"/><path class="cls-1" d="M376.06,49.81v7.38A3.47,3.47,0,0,1,372.28,61h-8V57.76h1.83V43.24h-1.83V40h5.43v6h2.58A3.47,3.47,0,0,1,376.06,49.81Zm-3.6.81c0-1-.36-1.38-1.32-1.38H369.7v8.52h1.44c1,0,1.32-.39,1.32-1.38Z"/><path class="cls-1" d="M387.16,51.13H383.8c0-1.62-.69-2.07-1.38-2.07s-1.35.45-1.35,2.07v5.25c0,1,.39,1.38,1.35,1.38h5.91V61h-7a3.47,3.47,0,0,1-3.81-3.81V51.13c0-3.87,1.44-5.31,4.95-5.31S387.16,47.26,387.16,51.13Z"/><path class="cls-1" d="M399.85,57.76V61h-8A3.49,3.49,0,0,1,388,57.19V49.81A3.49,3.49,0,0,1,391.81,46h2.55V43.24h-1.83V40H398V57.76Zm-6.9,0h1.41V49.24H393c-1,0-1.35.39-1.35,1.38v5.76C391.6,57.37,392,57.76,393,57.76Z"/><path class="cls-1" d="M410.65,57.76V61h-7a3.47,3.47,0,0,1-3.81-3.81V50.62a4.61,4.61,0,0,1,4.95-4.8,4.43,4.43,0,0,1,4.74,4.8,4.42,4.42,0,0,1-4.74,4.77h-1.35v1c0,1,.39,1.38,1.35,1.38Zm-7.26-7.14v1.53h1.35a1.35,1.35,0,0,0,1.38-1.53,1.38,1.38,0,0,0-1.38-1.56C404,49.06,403.39,49.51,403.39,50.62Z"/><path class="cls-1" d="M415.15,44.86V46h3.48v3.24h-3.48v8.52h2V61h-7.56V57.76h1.92V49.24h-3V46h3V43.81A3.49,3.49,0,0,1,415.36,40h3.27v3.24h-1.86A1.53,1.53,0,0,0,415.15,44.86Z"/><path class="cls-1" d="M430,46v3.24h-1.17a1.8,1.8,0,0,0-1.29.33v7.62a4.1,4.1,0,0,1-.63,2.37,5.8,5.8,0,0,1,1.5,3.93c0,1.83-.87,3.45-3.51,3.45h-5.82V63.46h4.14c1.11,0,1.83-.15,1.83-1.26a1.59,1.59,0,0,0-.54-1.26,5.81,5.81,0,0,1-.75.06h-2.37a3.49,3.49,0,0,1-3.81-3.81V49.81A3.49,3.49,0,0,1,421.42,46h2.37a3.84,3.84,0,0,1,2.64.87,3.12,3.12,0,0,1,2.31-.87ZM424,50.35c0-1-.36-1.11-1.32-1.11h-.12c-.93,0-1.32.15-1.32,1.11v6.3c0,1,.39,1.11,1.32,1.11h.12c1,0,1.32-.15,1.32-1.11Z"/><path class="cls-1" d="M441.22,57.76V61h-2.4a2.82,2.82,0,0,1-3-3V50.86a1.52,1.52,0,0,0-1.59-1.62h-.84v8.52h1.86V61h-7.29V57.76h1.83V43.24h-1.83V40h3.66v0h1.77v6h2.22a3.49,3.49,0,0,1,3.81,3.81v6.84a1,1,0,0,0,1.11,1.11Z"/><path class="cls-1" d="M447.25,57.76V61H440V57.76h1.86V49.24H440V46h5.46V57.76Zm-2.37-14.1h-3.6V40.27h3.6Z"/><path class="cls-1" d="M451.15,46V61.6c0,3.36-1.44,4.8-5.43,4.8V63.16c1.2,0,1.83-.45,1.83-1.56V49.24h-1.83V46Zm-.51-2.34H447V40.27h3.6Z"/><path class="cls-1" d="M465.34,57.76V61h-1.68c-1.71,0-2.76-.21-3.51-2l-2.64-6.39h-.66v5.16h1.86V61h-7.29V57.76h1.83V43.24h-1.83V40h3.66v0h1.77v9.48H459c1,0,1.5-.42,1.56-1.56a8.25,8.25,0,0,0-.12-2h3.78v2.85c0,1.89-.9,3.42-3,3.69l2.1,4.38C463.72,57.73,464.44,57.76,465.34,57.76Z"/><path class="cls-1" d="M471.07,57.76V61h-7.29V57.76h1.83V43.24h-1.83V40h3.66v0h1.77V57.76Z"/><path class="cls-1" d="M489.13,57.76V61h-2.4a2.83,2.83,0,0,1-3.06-3V50.86a1.52,1.52,0,0,0-1.59-1.62h-.87a3.72,3.72,0,0,1,0,.57v6.84a1,1,0,0,0,1.11,1.11h.75V61h-2.4a2.84,2.84,0,0,1-3.06-3V50.86A1.52,1.52,0,0,0,476,49.24h-.81v8.52h1.83V61h-7.29V57.76h1.86V49.24h-1.86V46h7.68a3.57,3.57,0,0,1,3,1.23V46h3a3.47,3.47,0,0,1,3.81,3.81v6.84a1,1,0,0,0,1.11,1.11Z"/><path class="cls-1" d="M501.16,57.76V61h-2.4a2.84,2.84,0,0,1-3.06-3V50.86a1.52,1.52,0,0,0-1.59-1.62h-.81v8.52h1.83V61h-7.29V57.76h1.86V49.24h-1.86V46h7.68a3.47,3.47,0,0,1,3.78,3.81v6.84a1,1,0,0,0,1.11,1.11Z"/><path class="cls-1" d="M501.1,49.81A3.49,3.49,0,0,1,504.91,46h2.37a3.47,3.47,0,0,1,3.78,3.81v7.38A3.47,3.47,0,0,1,507.28,61h-2.37a3.49,3.49,0,0,1-3.81-3.81ZM506,57.76h.12c1,0,1.32-.39,1.32-1.38V50.62c0-1-.36-1.38-1.32-1.38H506c-.93,0-1.32.39-1.32,1.38v5.76C504.7,57.37,505.09,57.76,506,57.76Z"/><path class="cls-1" d="M522.79,49.81v7.38A3.47,3.47,0,0,1,519,61h-2.58v2.76h1.86V67H511V63.76h1.83V49.24H511V46h8A3.47,3.47,0,0,1,522.79,49.81Zm-3.6.81c0-1-.36-1.38-1.32-1.38h-1.44v8.52h1.44c1,0,1.32-.39,1.32-1.38Z"/><path class="cls-1" d="M536,63.76V67h-7.29V63.76h1.83V61H528a3.49,3.49,0,0,1-3.81-3.81V49.81A3.49,3.49,0,0,1,528,46h8v3.24h-1.86V63.76Zm-5.46-6V49.24h-1.41c-1,0-1.35.39-1.35,1.38v5.76c0,1,.39,1.38,1.35,1.38Z"/><path class="cls-1" d="M543.73,46v3.24h-.48c-1.83,0-2.4.69-2.4,2.55v6h1.83V61h-7.29V57.76h1.86V51a6.61,6.61,0,0,1,.18-1.59,5.32,5.32,0,0,0-1.56-.15h-1.23V46H536a2,2,0,0,1,2.28,1.65A4.72,4.72,0,0,1,542.11,46Z"/><path class="cls-1" d="M547.36,46h4.95v3.24h-4.68c-.75,0-1.17.27-1.17,1.08s.39,1,1.44,1.26c3.87.57,5,1.68,5,4.62C552.91,59.77,551,61,548,61h-5V57.76h4.77c.75,0,1.17-.33,1.17-1.2s-.39-1.08-1.44-1.32c-3.87-.57-5-1.92-5-4.86C542.47,46.9,544.33,46,547.36,46Z"/><path class="cls-1" d="M557.44,49.24v6.9a1.54,1.54,0,0,0,1.62,1.62H561V61h-3.33a3.49,3.49,0,0,1-3.81-3.81V49.24h-3.18V46h3.18V43h3.6v3H561v3.24Z"/><path class="cls-1" d="M572,57.76V61h-7.65a3.47,3.47,0,0,1-3.81-3.81V50.35a1,1,0,0,0-1.11-1.11h-.75V46h2.4a2.83,2.83,0,0,1,3.06,3v7.11a1.52,1.52,0,0,0,1.59,1.62h.84V50.35a1,1,0,0,0-1.11-1.11h-.75V46h2.4a2.84,2.84,0,0,1,3.06,3v8.73Z"/><path class="cls-1" d="M584.29,46v3.24h-.6a.84.84,0,0,0-1,.66L580,61h-5.52L571.75,49.9a.84.84,0,0,0-1-.66h-.6V46h1.71c2.4,0,3,.15,3.51,2.82l1.83,9.39,1.8-9.39c.51-2.67,1.11-2.82,3.54-2.82Z"/><path class="cls-1" d="M602.89,46v3.24h-.6c-.42,0-.84.09-1,.66L599.14,61h-5.52l-1.11-6.45L591,61h-4.71L584.14,49.9c-.12-.57-.54-.66-1-.66h-.6V46h1.71c2.43,0,3.15.15,3.54,2.82l1.08,7.32,1.38-5.76h1.5l-.21-1.14h-2.13V46h5.13l1.89,10.89,1.17-8.07c.39-2.67,1.11-2.82,3.54-2.82Z"/><path class="cls-1" d="M601.09,57.76h1.11c.42,0,.63-.12,1-.66l2.25-3.87-2-3.33c-.33-.54-.54-.66-1-.66h-1.11V46h1.53c2.22,0,2.58.3,3.66,2.37l.66,1.5h.06l.63-1.5c1.05-2.07,1.44-2.37,3.63-2.37h1.53v3.24h-1.11c-.42,0-.63.12-1,.66l-2,3.33,2.25,3.87c.36.54.54.66,1,.66h1.11V61H611.8c-2.4,0-3.18-.18-4-2.82l-.54-1.47h-.06l-.6,1.47c-.93,2.58-1.56,2.82-4,2.82h-1.53Z"/><path class="cls-1" d="M625.72,46v3.24h-.6c-.42,0-.84.09-1,.66L621,64.18c-.57,2.7-1.08,2.82-3.51,2.82h-4.65V63.76h3.75c.42,0,.84-.09,1-.66l.48-2.1h-2.25l-2.73-11.1a.84.84,0,0,0-1-.66h-.6V46h1.53c2.4,0,2.91.18,3.51,2.82L618.73,58l2-9.15c.6-2.7,1.11-2.82,3.54-2.82Z"/><path class="cls-1" d="M635.17,56.65v2A2,2,0,0,1,632.86,61h-8.7V58.51l5-9.24h-5.61V46h10.95v2.49l-5.07,9.27h1.74c1,0,1.11-.15,1.11-1.11Z"/><path class="cls-1" d="M75.42,98.57V101H73c-1.11,0-2-.33-2.19-1.53L70.23,96H66.54l-.66,3.45c-.21,1.2-1.05,1.53-2.19,1.53H61.35V98.57h1c.42,0,.84-.09,1-.66l3-15h4.08l3.06,15c.12.57.54.66,1,.66Zm-5.64-5-1.41-7.65L67,93.59Z"/><path class="cls-1" d="M85.5,93.8v3.72A3.24,3.24,0,0,1,82,101H74.16V98.57h1.92V87.17a5.07,5.07,0,0,1,.27-1.68,7.17,7.17,0,0,0-.93-.06H74.16V83h1.35a1.78,1.78,0,0,1,1.8.93,4.49,4.49,0,0,1,3.18-1.08c2.76,0,4.29,1.53,4.29,4.5a4.77,4.77,0,0,1-.87,3.06A4.7,4.7,0,0,1,85.5,93.8Zm-6.72-6.45v2.07h1.71c1,0,1.77-.63,1.77-2.07s-.75-2.07-1.77-2.07S78.78,85.88,78.78,87.35Zm4,6.66a2.5,2.5,0,0,0-1.08-2.28,5.36,5.36,0,0,1-1.23.12H78.78v6.72h2.43c1.11,0,1.59-.51,1.59-1.62Z"/><path class="cls-1" d="M95.46,87.71H92.94c0-1.83-.75-2.46-1.77-2.46s-1.71.63-1.71,2.46V97c0,1.11.45,1.62,1.56,1.62H96.6V101H90.18c-2.22,0-3.42-1.26-3.42-3.48V87.71c0-3.54,1.35-4.89,4.41-4.89S95.46,84.17,95.46,87.71Z"/><path class="cls-1" d="M106.83,86.48v11a3.21,3.21,0,0,1-3.42,3.48h-7.8V98.57h1.92V85.43H95.61V83h7.8A3.13,3.13,0,0,1,106.83,86.48Zm-2.7.57c0-1.11-.45-1.62-1.56-1.62h-2.34V98.57h2.34c1.11,0,1.56-.51,1.56-1.62Z"/><path class="cls-1" d="M119.28,98.57V101H107.49V98.57h1.95V87.71a9.06,9.06,0,0,1,.24-2.19,3.88,3.88,0,0,0-.93-.09h-1.26V83h1.35a1.75,1.75,0,0,1,1.74.84,4.42,4.42,0,0,1,3.27-1c3.12,0,4.29,1.35,4.29,4.89h-2.52c0-1.83-.75-2.46-1.77-2.46s-1.71.63-1.71,2.46v3.15h3.81v2.43h-3.81v5.28Z"/><path class="cls-1" d="M123.15,90.86H127v2.43h-3.81v5.28h2V101h-6.6V98.57h1.95V87.71a9.06,9.06,0,0,1,.24-2.19,3.88,3.88,0,0,0-.93-.09H118.5V83h1.35a1.75,1.75,0,0,1,1.74.84,4.42,4.42,0,0,1,3.27-1c3.12,0,4.29,1.35,4.29,4.89h-2.52c0-1.83-.75-2.46-1.77-2.46s-1.71.63-1.71,2.46Z"/><path class="cls-1" d="M137.7,93.47v4.14a.87.87,0,0,0,1,1h.6V101h-1.8a2.73,2.73,0,0,1-1.62-.48V101H132.6c-2.22,0-3.42-1.26-3.42-3.48V87.8c0-3.51,1.35-4.86,4.41-4.86s4.29,1.35,4.29,4.86h-2.52c0-1.83-.75-2.43-1.77-2.43s-1.71.6-1.71,2.43V97c0,1.11.45,1.62,1.56,1.62H135v-5.1h-1.53V91h6.15v2.43Z"/><path class="cls-1" d="M149.52,85.4V97.61a.86.86,0,0,0,1,1h1V101h-2.19a2.24,2.24,0,0,1-2.43-2.43V92.72h-3.36v5.82h1.92V101h-6.54V98.54h1.92V86.39a.87.87,0,0,0-1-1h-.93V83H141a2.24,2.24,0,0,1,2.43,2.43v4.86h3.36V85.4h-1.56V83h6.18V85.4Z"/><path class="cls-1" d="M155.7,85.43V98.54h1.92V101h-6.54V98.54H153V85.43h-1.92V83h6.54v2.43Z"/><path class="cls-1" d="M163.77,85.43h-1.92V101.6c0,3.15-1.35,4.5-4.8,4.5v-2.43c1.38,0,2.1-.6,2.1-2.07V85.43h-1.92V83h6.54Z"/><path class="cls-1" d="M176,98.57V101h-1.59c-1.44,0-2.61-.18-3.27-1.95l-2.79-7.53h-.78v7h1.92V101H163V98.54h1.92V85.43H163V83h6.54v2.43h-1.92v3.66h2.16c1.5,0,2-1.17,2-3.15,0-.9-.06-1.53-.15-2.94h2.85v3.72c0,2.85-1,4.71-3.42,4.8l2.43,5.82C173.91,98.39,174.87,98.57,176,98.57Z"/><path class="cls-1" d="M185.64,98.54V101H175.08V98.54H177V85.43h-1.92V83h6.54v2.43H179.7V98.54Z"/><path class="cls-1" d="M204,98.57V101h-6.54V98.57h1.86l-.63-13h-.24L195.57,101h-3l-3.09-15.48h-.27l-.6,13h1.83V101H183.9V98.57h2l.51-13.14h-1.8V83h7.17l2.16,13.83H194L196.17,83h7.17v2.43h-1.8L202,98.57Z"/><path class="cls-1" d="M216.75,85.4h-1.92V101h-2.25L208,89.24h-.24v9.33h1.35V101h-6V98.57h1.92V85.43h-1.92V83h4.17l4.53,11.76h.24V85.4h-1.35V83h6Z"/><path class="cls-1" d="M226.59,86.48v11a3.21,3.21,0,0,1-3.42,3.48h-2.7A3.13,3.13,0,0,1,217,97.52v-11A3.13,3.13,0,0,1,220.47,83h2.7A3.13,3.13,0,0,1,226.59,86.48Zm-5.28-1c-1.11,0-1.56.51-1.56,1.62V97c0,1.11.45,1.62,1.56,1.62h1c1.11,0,1.56-.51,1.56-1.62v-9.9c0-1.11-.45-1.62-1.56-1.62Z"/><path class="cls-1" d="M237.69,86.48v3.84a3.21,3.21,0,0,1-3.42,3.48h-2.4v4.74h1.92V101h-6.54V98.54h1.92V85.43h-1.92V83h7A3.13,3.13,0,0,1,237.69,86.48Zm-2.7.57c0-1.11-.45-1.62-1.56-1.62h-1.56v5.94h1.56c1.11,0,1.56-.51,1.56-1.62Z"/><path class="cls-1" d="M248.07,86.48v11a3.22,3.22,0,0,1-3.33,3.48v.54c0,1.68.6,2.22,2.4,2.22v2.43c-3.45,0-5.1-1.47-5.1-4.29V101h-.09a3.13,3.13,0,0,1-3.42-3.48v-11A3.13,3.13,0,0,1,241.95,83h2.7A3.13,3.13,0,0,1,248.07,86.48Zm-2.7.57c0-1.11-.45-1.62-1.56-1.62h-1c-1.11,0-1.56.51-1.56,1.62V97c0,1.11.45,1.62,1.56,1.62h1c1.11,0,1.56-.51,1.56-1.62Z"/><path class="cls-1" d="M261.33,98.63v2.43h-1.8c-1.32,0-2.25-.15-2.7-1.56l-2-5.7h-1.44v4.74h1.92V101h-6.54V98.54h1.92V85.43h-1.92V83h7a3.13,3.13,0,0,1,3.42,3.48v3.84a3.25,3.25,0,0,1-1.65,3.06l1.71,4.56c.24.66.81.69,1.38.69Zm-8-7.26h1.56c1.11,0,1.56-.51,1.56-1.62v-2.7c0-1.11-.45-1.62-1.56-1.62h-1.56Z"/><path class="cls-1" d="M265.11,83h5v2.43H265c-1.08,0-1.68.54-1.68,2.07,0,1.83.36,2.22,2.88,3.27,3.09,1.29,4,2.1,4,5.31,0,3.6-2.16,4.92-4.41,4.92h-5.25V98.57h5.4c1.11,0,1.71-.63,1.71-2.19,0-1.92-.39-2.34-2.94-3.33-3.06-1.26-4-2.34-4-5.46C260.7,84.05,262.86,83,265.11,83Z"/><path class="cls-1" d="M276,85.43V98.57h1.92V101h-6.51V98.57h1.89V85.43H268.8V83h11.79v2.43Z"/><path class="cls-1" d="M291.66,85.43h-1.89V97.52a3.24,3.24,0,0,1-3.45,3.48h-2.61a3.15,3.15,0,0,1-3.45-3.48V86.39a.86.86,0,0,0-1-1h-.93V83h2.16A2.23,2.23,0,0,1,283,85.43V97c0,1.11.48,1.62,1.59,1.62h.93c1.11,0,1.59-.51,1.59-1.62V85.43h-1.92V83h6.51Z"/><path class="cls-1" d="M303.8,83v2.43h-1c-.42,0-.84.09-1,.66l-3.06,15h-4.08l-3-15c-.12-.57-.54-.66-1-.66h-1V83h2.34c1.14,0,2,.33,2.19,1.53l2.49,13.53,2.49-13.53c.21-1.2,1.08-1.53,2.19-1.53Z"/><path class="cls-1" d="M322.22,83v2.43h-1c-.42,0-.9.09-1,.66l-2.07,15h-4.08l-1.83-9.33-1.8,9.33h-4.08l-2.07-15c-.09-.57-.54-.66-1-.66h-1V83h2.37c1.11,0,2.07.33,2.19,1.53l1.56,13.14,2.16-12.21a1.86,1.86,0,0,0-.42,0h-1V83h2.37a5,5,0,0,1,.69.06A5.88,5.88,0,0,1,313,83h2.34v2.43h-1a1.59,1.59,0,0,0-.39,0l2.13,12.21,1.59-13.14c.12-1.2,1-1.53,2.19-1.53Z"/><path class="cls-1" d="M334.25,98.57V101H331.7c-1.11,0-1.62-.39-2.16-1.53l-1.8-3.93-1.8,3.93c-.57,1.14-1.08,1.53-2.19,1.53h-2.55V98.57h1.35a.89.89,0,0,0,1-.66l2.67-5.79-2.76-6c-.27-.57-.54-.66-1-.66h-1V83h2.16a2.12,2.12,0,0,1,2.19,1.53l1.92,4.17,1.89-4.17A2.12,2.12,0,0,1,331.82,83H334v2.43h-1c-.42,0-.69.09-1,.66l-2.73,6,2.64,5.79c.27.57.54.66,1,.66Z"/><path class="cls-1" d="M344.81,83v2.43h-1a.94.94,0,0,0-1,.66l-3,6.51v6h1.92V101h-6.54V98.57h1.92v-6l-3-6.51c-.27-.57-.54-.66-1-.66h-1V83h2c1.14,0,1.65.42,2.22,1.53l2.07,4.53,2.07-4.53A2.13,2.13,0,0,1,342.83,83Z"/><path class="cls-1" d="M354,97.61v1.5A1.65,1.65,0,0,1,352.1,101h-8.67V98.93l6.87-13.56-.75.06h-5.82V83h9.78v2.07l-6.87,13.62,1.29-.12h3c.81,0,1-.15,1-1Z"/><path class="cls-1" d="M364.43,98.57V101h-6.54c-2.61,0-4-1.59-4-4.23s1.41-4.26,4-4.26h1.92V90.23a1.63,1.63,0,0,0-1.77-1.8h-3.48V86h4.89a2.92,2.92,0,0,1,3.06,3.09v9.48Zm-4.62,0V95h-1.56c-1.17,0-1.71.63-1.71,1.8s.54,1.8,1.71,1.8Z"/><path class="cls-1" d="M373.94,89.48v8a3.13,3.13,0,0,1-3.42,3.48h-7.2V98.57h1.89V82.43h-1.89V80h4.59v6h2.61A3.13,3.13,0,0,1,373.94,89.48Zm-2.7.57c0-1.11-.45-1.62-1.56-1.62h-1.77V98.57h1.77c1.11,0,1.56-.51,1.56-1.62Z"/><path class="cls-1" d="M384.32,90.71H381.8c0-1.83-.75-2.46-1.77-2.46s-1.71.63-1.71,2.46V97c0,1.11.45,1.62,1.56,1.62h5.58V101H379c-2.22,0-3.42-1.26-3.42-3.48V90.71c0-3.54,1.35-4.89,4.41-4.89S384.32,87.17,384.32,90.71Z"/><path class="cls-1" d="M396.29,98.57V101H389a3.13,3.13,0,0,1-3.42-3.48v-8A3.13,3.13,0,0,1,389,86h2.58V82.43h-1.89V80h4.59V98.57Zm-6.48,0h1.74V88.43h-1.74c-1.11,0-1.56.51-1.56,1.62V97C388.25,98.06,388.7,98.57,389.81,98.57Z"/><path class="cls-1" d="M406.43,98.57V101H400c-2.22,0-3.42-1.26-3.42-3.48v-7.2a4.14,4.14,0,0,1,4.41-4.5c2.76,0,4.29,1.71,4.29,4.5s-1.53,4.5-4.29,4.5h-1.71V97c0,1.11.45,1.62,1.56,1.62Zm-7.14-8.25v2.07H401c1,0,1.77-.6,1.77-2.07S402,88.25,401,88.25,399.29,88.88,399.29,90.32Z"/><path class="cls-1" d="M410.48,84.23V86h3.78v2.43h-3.78V98.57h2.4V101h-7.23V98.57h2.13V88.43h-3.09V86h3.09V83.48A3.15,3.15,0,0,1,411.23,80h3v2.43h-2A1.65,1.65,0,0,0,410.48,84.23Z"/><path class="cls-1" d="M424.67,86v2.43h-1.32c-.63,0-1,.12-1.17.36a6.46,6.46,0,0,1,0,.78v7.95a3.68,3.68,0,0,1-.69,2.34,4.4,4.4,0,0,1,1.71,3.66c0,1.86-.93,3.33-3.57,3.33h-5v-2.61h3.75c1.47,0,2.28-.36,2.28-1.65a1.73,1.73,0,0,0-1-1.68,5,5,0,0,1-1,.09h-1.86a3.13,3.13,0,0,1-3.42-3.48v-8A3.13,3.13,0,0,1,416.93,86h1.86a3.28,3.28,0,0,1,2.43.84,2.56,2.56,0,0,1,2-.84Zm-5.16,11.13V89.87c0-1.11-.45-1.44-1.53-1.44h-.24c-1.08,0-1.53.33-1.53,1.44v7.26c0,1.11.45,1.44,1.53,1.44H418C419.06,98.57,419.51,98.24,419.51,97.13Z"/><path class="cls-1" d="M435.08,98.57V101h-2.19a2.24,2.24,0,0,1-2.43-2.43V90.23a1.63,1.63,0,0,0-1.74-1.8h-1.17V98.57h1.92V101H423V98.57h1.89V82.43H423V80h3.3v.06h1.29V86h2.19a3.13,3.13,0,0,1,3.42,3.48v8.13a.87.87,0,0,0,1,1Z"/><path class="cls-1" d="M440.69,98.57V101h-6.51V98.57h1.92V88.43h-1.92V86h4.62V98.57Zm-2.31-15.09h-2.7V80.69h2.7Z"/><path class="cls-1" d="M444.14,86v15.6c0,3.15-1.35,4.5-4.77,4.5v-2.43a1.81,1.81,0,0,0,2.07-2.07V88.43h-1.89V86Zm-.39-2.52h-2.7V80.69h2.7Z"/><path class="cls-1" d="M457.64,98.57V101h-1.38c-1.44,0-2.55-.18-3.27-1.95L450.17,92h-.78v6.6h1.92V101H444.8V98.57h1.89V82.43H444.8V80h3.3v.06h1.29v9.6h2.13a1.67,1.67,0,0,0,1.92-1.59,6.88,6.88,0,0,0,0-2.07h2.82v2.07c0,2.22-1,3.78-3.36,3.9l2.46,5.52C455.84,98.54,456.68,98.57,457.64,98.57Z"/><path class="cls-1" d="M463,98.57V101h-6.51V98.57h1.89V82.43h-1.89V80h3.3v.06H461V98.57Z"/><path class="cls-1" d="M479.78,98.57V101h-2.16a2.25,2.25,0,0,1-2.46-2.43V90.23a1.62,1.62,0,0,0-1.74-1.8h-1.26a5.74,5.74,0,0,1,.09,1v8.13a.88.88,0,0,0,1,1h.93V101H472a2.25,2.25,0,0,1-2.46-2.43V90.23a1.63,1.63,0,0,0-1.74-1.8h-1.14V98.57h1.89V101h-6.51V98.57H464V88.43h-1.92V86h6.78a3.28,3.28,0,0,1,2.76,1.17V86h2.85a3.13,3.13,0,0,1,3.42,3.48v8.13a.88.88,0,0,0,1,1Z"/><path class="cls-1" d="M491,98.57V101h-2.16a2.25,2.25,0,0,1-2.46-2.43V90.23a1.63,1.63,0,0,0-1.74-1.8H483.5V98.57h1.89V101h-6.51V98.57h1.92V88.43h-1.92V86h6.78a3.13,3.13,0,0,1,3.42,3.48v8.13a.88.88,0,0,0,1,1Z"/><path class="cls-1" d="M491.3,89.48A3.13,3.13,0,0,1,494.72,86h1.86A3.13,3.13,0,0,1,500,89.48v8a3.13,3.13,0,0,1-3.42,3.48h-1.86a3.13,3.13,0,0,1-3.42-3.48Zm4.23,9.09h.24c1.08,0,1.53-.51,1.53-1.62v-6.9c0-1.11-.45-1.62-1.53-1.62h-.24c-1.08,0-1.53.51-1.53,1.62V97C494,98.06,494.45,98.57,495.53,98.57Z"/><path class="cls-1" d="M510.92,89.48v8A3.13,3.13,0,0,1,507.5,101h-2.61v3.57h1.92V107H500.3v-2.43h1.89V88.43H500.3V86h7.2A3.13,3.13,0,0,1,510.92,89.48Zm-2.7.57c0-1.11-.45-1.62-1.56-1.62h-1.77V98.57h1.77c1.11,0,1.56-.51,1.56-1.62Z"/><path class="cls-1" d="M523.22,104.57V107h-6.51v-2.43h1.89V101H516a3.13,3.13,0,0,1-3.42-3.48v-8A3.13,3.13,0,0,1,516,86h7.2v2.43H521.3v16.14Zm-4.62-6V88.43h-1.74c-1.11,0-1.56.51-1.56,1.62V97c0,1.11.45,1.62,1.56,1.62Z"/><path class="cls-1" d="M530.57,86v2.43h-.75c-1.92,0-2.43.81-2.43,2.76v7.38h1.92V101h-6.54V98.57h1.92v-8a7.14,7.14,0,0,1,.24-1.86,2.35,2.35,0,0,0-1.44-.3h-1.26V86h1.35a1.77,1.77,0,0,1,2,1.5A4,4,0,0,1,529,86Z"/><path class="cls-1" d="M533.87,86h4.83v2.43h-4.62c-1,0-1.44.42-1.44,1.59,0,1.35.42,1.56,1.89,2,3.54.69,4.53,1.56,4.53,4.56,0,3.27-1.47,4.41-4.23,4.41h-5V98.57h4.83c1.08,0,1.44-.48,1.44-1.77s-.42-1.62-1.89-2c-3.54-.69-4.53-1.74-4.53-4.71C529.64,86.9,531.14,86,533.87,86Z"/><path class="cls-1" d="M543.41,88.43v8.34a1.65,1.65,0,0,0,1.77,1.8h2.1V101h-3.12a3.14,3.14,0,0,1-3.45-3.48V88.43h-3.45V86h3.45V83h2.7v3h3.87v2.43Z"/><path class="cls-1" d="M557.51,98.57V101h-6.78a3.13,3.13,0,0,1-3.42-3.48v-8.1a.89.89,0,0,0-1-1h-.93V86h2.16A2.25,2.25,0,0,1,550,88.43v8.34a1.63,1.63,0,0,0,1.74,1.8h1.17V89.42a.89.89,0,0,0-1-1H551V86h2.16a2.25,2.25,0,0,1,2.46,2.43V98.57Z"/><path class="cls-1" d="M569.42,86v2.43h-.87c-.42,0-.84.09-1,.66l-2.88,12h-4.08l-2.88-12c-.12-.57-.54-.66-1-.66h-.87V86h1.71c1.86,0,2.46.15,2.88,2.25l2.16,10.65,2.16-10.65c.42-2.1,1-2.25,2.88-2.25Z"/><path class="cls-1" d="M587.18,86v2.43h-.87c-.42,0-.84.09-1,.66l-2.4,12h-4.08l-1.56-8.55-1.92,8.55h-3.48l-2.4-12c-.12-.57-.54-.66-1-.66h-.87V86h1.71c1.89,0,2.58.15,2.88,2.25l1.5,9.09,1.8-7.86h1.17l-.18-1h-2.22V86h4.44L581,98l1.62-9.75c.3-2.1,1-2.25,2.88-2.25Z"/><path class="cls-1" d="M585.35,98.57h1.23c.42,0,.66-.12,1-.66l2.4-4.68-2.13-4.14c-.3-.54-.54-.66-1-.66h-1.26V86h1.59c1.71,0,2.1.27,3,2l1.11,2.73h.06L592.43,88c.84-1.68,1.23-2,2.94-2H597v2.43H595.7c-.42,0-.66.12-1,.66l-2.13,4.14,2.4,4.68c.3.54.54.66,1,.66h1.23V101h-1.59c-1.83,0-2.52-.18-3.18-2.25l-1.11-2.88h-.06l-1.14,2.88c-.75,2-1.32,2.25-3.18,2.25h-1.59Z"/><path class="cls-1" d="M609,86v2.43h-.87c-.42,0-.84.09-1,.66l-3.48,15.66c-.45,2.13-1,2.25-2.85,2.25H597v-2.43h3.18c.42,0,.84-.09,1-.66l.66-2.91h-1.71L597.2,89.09c-.12-.57-.54-.66-1-.66h-.87V86H597c1.86,0,2.37.18,2.85,2.25l2.46,10.53,2.34-10.53c.45-2.13,1-2.25,2.85-2.25Z"/><path class="cls-1" d="M617.78,97.61v1.5a1.67,1.67,0,0,1-1.92,1.89h-8.07V99.11l5.58-10.65h-6.09V86h10v1.89l-5.58,10.68h3c.81,0,1-.15,1-1Z"/><path class="cls-1" d="M93.09,139.44V141H91c-.84,0-1.59-.27-1.77-1.23L88.5,136H84.24l-.72,3.75c-.18,1-.93,1.23-1.77,1.23h-2.1v-1.56h1.26c.42,0,.84-.09,1-.66l3.24-15.87h2.55l3.24,15.87c.12.57.54.66,1,.66Zm-4.89-5L86.37,125l-1.83,9.45Z"/><path class="cls-1" d="M102.12,133.32v4.59A2.82,2.82,0,0,1,99.06,141H92v-1.56h2V126.78a5.07,5.07,0,0,1,.39-1.92,1.5,1.5,0,0,0-1.08-.3H92V123H93.3a1.49,1.49,0,0,1,1.59,1,3.69,3.69,0,0,1,2.94-1.17c2.43,0,3.78,1.38,3.78,4.23a4.31,4.31,0,0,1-1,3.15A3.88,3.88,0,0,1,102.12,133.32Zm-6.42-6.27v2.61h2.13c1.32,0,2.16-.78,2.16-2.61s-.84-2.64-2.16-2.64S95.7,125.19,95.7,127.05Zm4.68,6.39a2.49,2.49,0,0,0-1.2-2.37,4.73,4.73,0,0,1-1.35.18H95.7v8.19h2.88c1.26,0,1.8-.63,1.8-1.89Z"/><path class="cls-1" d="M111.39,127.26h-1.62c0-2.07-.84-2.88-2.16-2.88s-2.13.81-2.13,2.88v10.29c0,1.26.54,1.89,1.8,1.89h5.25V141h-5.76a2.74,2.74,0,0,1-3-3.09V127.26c0-3.18,1.23-4.44,3.87-4.44S111.39,124.08,111.39,127.26Z"/><path class="cls-1" d="M121.83,126.09v11.82a2.81,2.81,0,0,1-3,3.09h-7v-1.56h2V124.56h-2V123h7A2.75,2.75,0,0,1,121.83,126.09Zm-1.74.36c0-1.26-.54-1.89-1.8-1.89h-2.7v14.88h2.7c1.26,0,1.8-.63,1.8-1.89Z"/><path class="cls-1" d="M133.47,139.44V141H122.7v-1.56h2V127.26a7,7,0,0,1,.36-2.43,1.52,1.52,0,0,0-1-.27H122.7V123H124a1.47,1.47,0,0,1,1.56.93,3.59,3.59,0,0,1,3-1.11c2.64,0,3.78,1.26,3.78,4.44h-1.62c0-2.07-.84-2.88-2.16-2.88s-2.16.81-2.16,2.88v3.87h3.84v1.56h-3.84v6.75Z"/><path class="cls-1" d="M136.71,127.26v3.87h3.84v1.56h-3.84v6.75h2V141H133v-1.56h2V127.26a7,7,0,0,1,.36-2.43,1.52,1.52,0,0,0-1-.27H133V123h1.35a1.47,1.47,0,0,1,1.56.93,3.59,3.59,0,0,1,3-1.11c2.64,0,3.78,1.26,3.78,4.44H141c0-2.07-.84-2.88-2.16-2.88S136.71,125.19,136.71,127.26Z"/><path class="cls-1" d="M150.66,133v5.64c0,.57.27.84.81.84h1V141h-1.71a1.9,1.9,0,0,1-1.2-.36V141h-3.21a2.74,2.74,0,0,1-3-3.09V127.32c0-3.18,1.23-4.44,3.87-4.44s3.78,1.26,3.78,4.44h-1.62c0-2.07-.84-2.88-2.16-2.88s-2.13.81-2.13,2.88v10.23c0,1.26.54,1.89,1.8,1.89H149l0-.21V133h-1.74v-1.59h5.49V133Z"/><path class="cls-1" d="M161.4,124.56v14c0,.57.27.84.81.84h1.17V141h-2a1.61,1.61,0,0,1-1.77-1.77v-7h-4.17v7.14h2V141h-5.73v-1.59h2v-14a.73.73,0,0,0-.84-.84h-1.17V123h2a1.62,1.62,0,0,1,1.8,1.77v5.94h4.17v-6.15h-1.77V123h5.49v1.56Z"/><path class="cls-1" d="M166.92,124.56v14.85h2V141h-5.73v-1.59h2V124.56h-2V123h5.73v1.56Z"/><path class="cls-1" d="M174.39,124.56h-2v17c0,2.94-1.26,4.2-4.11,4.2v-1.56c1.53,0,2.37-.81,2.37-2.64v-17h-2V123h5.73Z"/><path class="cls-1" d="M185.7,139.44V141h-1.23a2.73,2.73,0,0,1-3-1.86l-3-8.1h-.9v8.37h2V141h-5.73v-1.59h2V124.56h-2V123h5.73v1.56h-2v4.92h2.16c1.92,0,2.43-1.74,2.46-4.2,0-.72,0-1.26-.06-2.28H184v2.49c0,3.6-.93,5.55-3.51,5.55h-.21l2.73,7C183.48,139.32,184.56,139.44,185.7,139.44Z"/><path class="cls-1" d="M195.18,139.41V141h-10v-1.59h2V124.56h-2V123h5.73v1.56h-2v14.85Z"/><path class="cls-1" d="M211.59,139.44V141h-5.73v-1.56h2l-.72-14.82h-.18L203.7,141h-2.07l-3.33-16.38h-.18l-.72,14.82h1.95V141h-5.7v-1.56h2l.66-14.88H194.4V123h5.4l2.79,15.36h.06L205.44,123h5.37v1.56h-1.92l.66,14.88Z"/><path class="cls-1" d="M223.41,124.53h-2V141h-1.53l-5-13.95-.15,0v12.42h1.65V141h-5.4v-1.56h2V124.56h-2V123h3.54l5,13.95.15,0V124.53H218V123h5.4Z"/><path class="cls-1" d="M232.44,126.09v11.82a2.82,2.82,0,0,1-3.06,3.09H227.1a2.75,2.75,0,0,1-3-3.09V126.09a2.75,2.75,0,0,1,3-3.09h2.28A2.78,2.78,0,0,1,232.44,126.09Zm-4.83-1.53c-1.26,0-1.8.63-1.8,1.89v11.1c0,1.26.54,1.89,1.8,1.89h1.29c1.26,0,1.8-.63,1.8-1.89v-11.1c0-1.26-.54-1.89-1.8-1.89Z"/><path class="cls-1" d="M242.55,126.09v4.62a2.81,2.81,0,0,1-3,3.09H237v5.61h2V141h-5.73v-1.59h2V124.56h-2V123h6.24A2.75,2.75,0,0,1,242.55,126.09Zm-1.74.36c0-1.26-.54-1.89-1.8-1.89h-2v7.68h2c1.26,0,1.8-.63,1.8-1.89Z"/><path class="cls-1" d="M249,141v.69c0,2,.75,2.73,2.55,2.73V146c-2.85,0-4.29-1.32-4.29-4.08V141h-.33a2.75,2.75,0,0,1-3-3.09V126.09a2.75,2.75,0,0,1,3-3.09h2.28a2.78,2.78,0,0,1,3.06,3.09v11.82a2.82,2.82,0,0,1-3.06,3.09Zm-1.56-1.56h1.29c1.26,0,1.8-.63,1.8-1.89v-11.1c0-1.26-.54-1.89-1.8-1.89h-1.29c-1.26,0-1.8.63-1.8,1.89v11.1C245.64,138.81,246.18,139.44,247.44,139.44Z"/><path class="cls-1" d="M264.81,139.5v1.59H263c-1,0-1.68-.15-2.07-1.26l-2.43-6h-1.68v5.61h2V141h-5.73v-1.59h2V124.56h-2V123h6.24a2.75,2.75,0,0,1,3,3.09v4.62a2.76,2.76,0,0,1-2,2.94l2.13,5.19c.27.63.69.66,1.2.66Zm-7.95-7.26h2a2.38,2.38,0,0,0,.87-.15h0c.63-.24.9-.81.9-1.74v-3.9c0-1.26-.54-1.89-1.8-1.89h-2Z"/><path class="cls-1" d="M268.2,123h4.95v1.56h-5c-1.26,0-1.89.63-1.89,2.67,0,2.52.24,2.82,3,3.93,3.15,1.23,3.75,1.74,3.75,5.31,0,3.39-1.62,4.53-3.63,4.53h-5.28v-1.56h5.37c1.26,0,1.89-.69,1.89-2.79,0-2.64-.21-3-3-4-3.15-1.2-3.75-1.92-3.75-5.31S266.16,123,268.2,123Z"/><path class="cls-1" d="M278.51,124.56v14.88h2V141h-5.73v-1.56h2V124.56H272V123h11.28v1.56Z"/><path class="cls-1" d="M293.75,124.56h-2v13.35a2.82,2.82,0,0,1-3.06,3.09h-2.34a2.78,2.78,0,0,1-3.06-3.09V125.4c0-.57-.24-.84-.81-.84h-1.17V123h2a1.6,1.6,0,0,1,1.77,1.77v12.78c0,1.26.54,1.89,1.8,1.89h1.38c1.26,0,1.8-.63,1.8-1.89v-13h-2V123h5.7Z"/><path class="cls-1" d="M305.54,123v1.56h-1.23c-.42,0-.84.09-1,.66l-3.24,15.87h-2.55l-3.24-15.87c-.12-.57-.54-.66-1-.66h-1.26V123h2.1c.84,0,1.59.27,1.77,1.23L298.83,139l2.85-14.76c.18-1,.93-1.23,1.77-1.23Z"/><path class="cls-1" d="M322.52,123v1.56h-1.26c-.42,0-.87.09-1,.66l-2.4,15.87h-2.55l-2.13-11-2.1,11h-2.55l-2.4-15.87c-.09-.57-.54-.66-1-.66H304V123h2.1c.84,0,1.65.27,1.77,1.23l2,14.55,2.46-13.47,0-.09c-.12-.57-.54-.66-1-.66H310.1V123h2.1a2.29,2.29,0,0,1,1,.21,2.35,2.35,0,0,1,1.05-.21h2.1v1.56h-1.23c-.42,0-.84.09-1,.66l0,.09,2.43,13.47,2.07-14.55c.12-1,.93-1.23,1.77-1.23Z"/><path class="cls-1" d="M334,139.44V141h-2.22a1.74,1.74,0,0,1-1.74-1.23l-2.4-5.52-2.43,5.52a1.74,1.74,0,0,1-1.74,1.23H321.2v-1.56h1.44a.89.89,0,0,0,1-.66l3-6.81-2.94-6.75c-.27-.57-.54-.66-1-.66h-1.26V123h2a1.71,1.71,0,0,1,1.74,1.23l2.43,5.49,2.4-5.49a1.71,1.71,0,0,1,1.74-1.23h2v1.56h-1.26c-.42,0-.69.09-1,.66L328.58,132l3,6.81c.27.57.54.66,1,.66Z"/><path class="cls-1" d="M344.39,123v1.56h-1.26a.94.94,0,0,0-1,.66l-3.09,7v7.17h2V141h-5.7v-1.56h2v-7.17l-3.09-7a.89.89,0,0,0-1-.66h-1.23V123H334a1.75,1.75,0,0,1,1.77,1.23l2.49,5.67,2.52-5.67A1.73,1.73,0,0,1,342.5,123Z"/><path class="cls-1" d="M353,138.6v1c0,1-.45,1.44-1.47,1.44h-8v-1.35l7.08-15.12-.45,0h-6.63V123h9.12v1.35l-7.11,15.15.93-.06h4.29c.66,0,.81-.15.81-.84Z"/><path class="cls-1" d="M363,139.44V141h-5.58c-2.61,0-3.87-1.41-3.87-4s1.23-4,3.87-4h1.86v-3.33a1.75,1.75,0,0,0-1.92-2h-3.15V126h4a2.63,2.63,0,0,1,2.82,2.88v10.56Zm-3.72,0v-5h-1.62c-1.68,0-2.37.81-2.37,2.46s.69,2.49,2.37,2.49Z"/><path class="cls-1" d="M371.69,129.09v8.82a2.78,2.78,0,0,1-3.06,3.09H362.3v-1.56h2V121.56h-2V120H366v6h2.61A2.78,2.78,0,0,1,371.69,129.09Zm-1.74.36c0-1.26-.54-1.89-1.8-1.89H366v11.88h2.13c1.26,0,1.8-.63,1.8-1.89Z"/><path class="cls-1" d="M381.29,130.26h-1.62c0-2.07-.84-2.88-2.16-2.88s-2.13.81-2.13,2.88v7.29c0,1.26.54,1.89,1.8,1.89h5.25V141h-5.76a2.74,2.74,0,0,1-3-3.09v-7.65c0-3.18,1.23-4.44,3.87-4.44S381.29,127.08,381.29,130.26Z"/><path class="cls-1" d="M392.51,139.44V141H386a2.75,2.75,0,0,1-3-3.09v-8.82a2.75,2.75,0,0,1,3-3.09h2.61v-4.44h-2V120h3.72v19.44Zm-6,0h2.1V127.56h-2.1c-1.26,0-1.8.63-1.8,1.89v8.1C384.68,138.81,385.22,139.44,386.48,139.44Z"/><path class="cls-1" d="M402,139.44V141H396.2a2.74,2.74,0,0,1-3-3.09V130c0-2.73,1.47-4.2,3.87-4.2s3.78,1.47,3.78,4.2-1.35,4.2-3.78,4.2h-2.13v3.33c0,1.26.54,1.89,1.8,1.89Zm-7-9.42v2.64H397c1.32,0,2.16-.81,2.16-2.64s-.84-2.64-2.16-2.64S394.91,128.19,394.91,130Z"/><path class="cls-1" d="M405.5,123.57V126h4v1.56h-4v11.85h2.76V141h-6.87v-1.56h2.37V127.59h-3.18V126h3.18v-2.94a2.78,2.78,0,0,1,3.06-3.09h2.73v1.56h-2.13A1.77,1.77,0,0,0,405.5,123.57Z"/><path class="cls-1" d="M416.39,128a4.68,4.68,0,0,1,.12,1.17v8.73a3.23,3.23,0,0,1-.78,2.28,3.43,3.43,0,0,1,2,3.36c0,1.89-1,3.21-3.63,3.21h-4.11v-1.68h3.36c1.83,0,2.76-.6,2.76-2.1a2,2,0,0,0-1.53-2.1,3.89,3.89,0,0,1-1,.12h-1.32a2.75,2.75,0,0,1-3-3.09v-8.82a2.75,2.75,0,0,1,3-3.09h1.32a3,3,0,0,1,2.22.78,1.92,1.92,0,0,1,1.65-.78h1.59v1.56h-1.47C416.87,127.56,416.54,127.74,416.39,128Zm-1.62,9.66v-8.34c0-1.26-.54-1.77-1.8-1.77h-.33c-1.23,0-1.77.51-1.77,1.77v8.34c0,1.26.54,1.77,1.77,1.77H413C414.23,139.44,414.77,138.93,414.77,137.67Z"/><path class="cls-1" d="M428.54,139.44V141h-2a1.62,1.62,0,0,1-1.8-1.77v-9.66c0-1.29-.63-2-1.89-2h-1.53v11.88h2V141h-5.73v-1.56h2V121.56h-2V120h2.94v.09h.78V126h2.13a2.75,2.75,0,0,1,3,3.09v9.51a.73.73,0,0,0,.84.84Z"/><path class="cls-1" d="M433.7,139.44V141H428v-1.56h2V127.56h-2V126h3.72v13.44Zm-2.25-16.14h-1.74v-2.16h1.74Z"/><path class="cls-1" d="M436.67,126v15.6c0,2.94-1.26,4.2-4.08,4.2v-1.56c1.53,0,2.34-.81,2.34-2.64v-14h-2V126Zm-.24-2.7h-1.74v-2.16h1.74Z"/><path class="cls-1" d="M449.45,139.44V141h-1.11a2.78,2.78,0,0,1-3-1.86l-3-7.83h-.9v8.13h2V141h-5.73v-1.56h2V121.56h-2V120h2.94v.09h.78v9.72h2.1a2.08,2.08,0,0,0,2.31-1.62A6.17,6.17,0,0,0,446,126h1.83v1.26c0,2.49-1.14,4-3.54,4h-.21l2.82,6.78C447.41,139.41,448.4,139.44,449.45,139.44Z"/><path class="cls-1" d="M454.31,139.44V141h-5.73v-1.56h2V121.56h-2V120h2.94v.09h.78v19.35Z"/><path class="cls-1" d="M469.79,139.44V141h-2a1.62,1.62,0,0,1-1.8-1.77v-9.66a1.75,1.75,0,0,0-1.92-2h-1.77a4.08,4.08,0,0,1,.27,1.53v9.51c0,.57.27.84.81.84h1.17V141h-1.92a1.62,1.62,0,0,1-1.8-1.77v-9.66a1.77,1.77,0,0,0-1.92-2h-1.5v11.88h2V141h-5.7v-1.56h2V127.56h-2V126h5.85a2.84,2.84,0,0,1,2.52,1.14V126h2.64a2.75,2.75,0,0,1,3,3.09v9.51a.74.74,0,0,0,.84.84Z"/><path class="cls-1" d="M480.08,139.44V141h-1.92a1.62,1.62,0,0,1-1.8-1.77v-9.66a1.77,1.77,0,0,0-1.92-2h-1.5v11.88h2V141h-5.7v-1.56h2V127.56h-2V126h5.85a2.75,2.75,0,0,1,3,3.09v9.51c0,.57.27.84.81.84Z"/><path class="cls-1" d="M480.74,129.09a2.75,2.75,0,0,1,3-3.09h1.32a2.75,2.75,0,0,1,3,3.09v8.82a2.76,2.76,0,0,1-3,3.09h-1.32a2.75,2.75,0,0,1-3-3.09Zm3.51,10.35h.33c1.26,0,1.8-.63,1.8-1.89v-8.1c0-1.26-.54-1.89-1.8-1.89h-.33c-1.23,0-1.77.63-1.77,1.89v8.1C482.48,138.81,483,139.44,484.25,139.44Z"/><path class="cls-1" d="M498.17,129.09v8.82a2.78,2.78,0,0,1-3.06,3.09H492.5v4.44h2V147h-5.73v-1.56h2V127.56h-2V126h6.33A2.78,2.78,0,0,1,498.17,129.09Zm-1.74.36c0-1.26-.54-1.89-1.8-1.89H492.5v11.88h2.13c1.26,0,1.8-.63,1.8-1.89Z"/><path class="cls-1" d="M509.48,145.44V147h-5.7v-1.56h2V141h-2.61a2.75,2.75,0,0,1-3-3.09v-8.82a2.75,2.75,0,0,1,3-3.09h6.33v1.56h-2v17.88Zm-3.72-6V127.56h-2.1c-1.26,0-1.8.63-1.8,1.89v8.1c0,1.26.54,1.89,1.8,1.89Z"/><path class="cls-1" d="M516.44,126v1.56h-1.08c-2,0-2.43.93-2.43,3v8.91h2V141h-5.7v-1.56h2V130.2a6.15,6.15,0,0,1,.3-2.07c-.3-.45-.63-.57-1.32-.57h-1.29V126h1.35a1.47,1.47,0,0,1,1.65,1.35,3.26,3.26,0,0,1,3-1.35Z"/><path class="cls-1" d="M519.41,126h4.65v1.59h-4.53c-1.38,0-1.74.6-1.74,2.16,0,1.86.45,2.13,2.37,2.76,3.21.78,4,1.41,4,4.47s-1,4-3.54,4h-5v-1.56h4.92c1.41,0,1.74-.63,1.74-2.4s-.45-2.16-2.37-2.79c-3.21-.81-4-1.53-4-4.59C515.9,126.9,517,126,519.41,126Z"/><path class="cls-1" d="M528.35,127.56v9.87a1.75,1.75,0,0,0,1.92,2h2.31V141h-2.94a2.75,2.75,0,0,1-3-3.09V127.56h-3.78V126h3.78v-3h1.74v3h4.23v1.56Z"/><path class="cls-1" d="M541.94,139.44V141h-5.85a2.75,2.75,0,0,1-3-3.09V128.4a.73.73,0,0,0-.84-.84H531V126H533a1.62,1.62,0,0,1,1.8,1.77v9.66a1.75,1.75,0,0,0,1.92,2h1.5v-11c0-.57-.27-.84-.81-.84h-1.17V126h1.92a1.62,1.62,0,0,1,1.8,1.77v11.67Z"/><path class="cls-1" d="M553.43,126v1.56h-1.17c-.42,0-.84.09-1,.66l-3,12.87h-2.55l-3-12.87a.84.84,0,0,0-1-.66h-1.2V126h1.74c1.26,0,1.86.15,2.16,1.68L547,139.53l2.52-11.85c.3-1.53.9-1.68,2.16-1.68Z"/><path class="cls-1" d="M570.29,126v1.56h-1.17c-.42,0-.84.09-1,.66l-2.61,12.87H563l-2.1-10.74-2.31,10.74H556.4l-2.61-12.87c-.12-.57-.54-.66-1-.66h-1.17V126h1.71c1.29,0,2,.15,2.19,1.68l2,10.89,2.19-10h.81l-.18-1h-2.25V126h3.66l2.55,13,2.07-11.34c.24-1.53.9-1.68,2.16-1.68Z"/><path class="cls-1" d="M568.4,139.44h1.38a.94.94,0,0,0,1-.66l2.52-5.55-2.28-5a.94.94,0,0,0-1-.66h-1.38V126h1.65c1.17,0,1.59.21,2.22,1.47l1.62,4h.06l1.59-4c.6-1.26,1-1.47,2.22-1.47h1.65v1.56h-1.41a.94.94,0,0,0-1,.66l-2.28,5,2.52,5.55a.94.94,0,0,0,1,.66h1.38V141h-1.65c-1.23,0-1.86-.15-2.34-1.68L574.19,135h-.06l-1.71,4.35c-.57,1.5-1.11,1.68-2.37,1.68H568.4Z"/><path class="cls-1" d="M591.08,126v1.56h-1.17c-.42,0-.84.09-1,.66l-3.87,17.1c-.33,1.53-.87,1.68-2.16,1.68h-3v-1.56h2.55c.42,0,.84-.09,1-.66l.87-3.78h-1.14l-3-12.78a.84.84,0,0,0-1-.66H578V126h1.65c1.29,0,1.83.15,2.16,1.68l2.79,11.94,2.67-11.94c.36-1.53.9-1.68,2.19-1.68Z"/><path class="cls-1" d="M599.09,138.6v1c0,1-.45,1.44-1.47,1.44h-7.38v-1.23l6.06-12.18h-6.57V126h9v1.23l-6.09,12.21h4.2c.66,0,.81-.15.81-.84Z"/><path class="cls-1" d="M104.52,180v1h-2a1.31,1.31,0,0,1-1.47-1l-.78-3.93H95.7L94.92,180a1.31,1.31,0,0,1-1.47,1h-2v-1h1.41c.42,0,.84-.09,1-.66l3.36-16.44h1.53l3.39,16.44c.12.57.54.66,1,.66Zm-4.41-5L98,164.41,95.91,175Z"/><path class="cls-1" d="M112.89,173v5.16A2.56,2.56,0,0,1,110.1,181h-6.6v-1h2v-13.5a5.56,5.56,0,0,1,.39-1.92,1.06,1.06,0,0,0-1.11-.6H103.5v-1h1.35a1.28,1.28,0,0,1,1.41,1,3.27,3.27,0,0,1,2.79-1.2c2.22,0,3.48,1.26,3.48,4a4.17,4.17,0,0,1-1.11,3.24A3.31,3.31,0,0,1,112.89,173Zm-6.24-6.15v3H109c1.53,0,2.43-.93,2.43-3s-.9-3-2.43-3S106.65,164.74,106.65,166.84Zm5.13,6.24a2.51,2.51,0,0,0-1.29-2.46,4.27,4.27,0,0,1-1.44.21h-2.4V180h3.18c1.35,0,2-.69,2-2.07Z"/><path class="cls-1" d="M121.71,167h-1c0-2.22-.9-3.15-2.43-3.15s-2.4.93-2.4,3.15v11c0,1.38.6,2.07,2,2.07h5v1h-5.31a2.51,2.51,0,0,1-2.79-2.85V167c0-2.94,1.2-4.14,3.51-4.14S121.71,164,121.71,167Z"/><path class="cls-1" d="M131.52,165.85v12.3a2.56,2.56,0,0,1-2.79,2.85h-6.36v-1h2V164h-2v-1h6.36A2.53,2.53,0,0,1,131.52,165.85Zm-1.11.21c0-1.38-.57-2.07-2-2.07h-2.94v16h2.94c1.38,0,2-.69,2-2.07Z"/><path class="cls-1" d="M142.65,180v1H132.54v-1h2V167a6.38,6.38,0,0,1,.39-2.37,1.06,1.06,0,0,0-1.11-.6h-1.32v-1h1.35a1.31,1.31,0,0,1,1.41,1,3.2,3.2,0,0,1,2.82-1.17c2.34,0,3.45,1.2,3.45,4.14h-1c0-2.22-.87-3.15-2.4-3.15s-2.43.93-2.43,3.15v4.35h3.84v1h-3.84V180Z"/><path class="cls-1" d="M151.32,167h-1c0-2.22-.87-3.15-2.4-3.15s-2.43.93-2.43,3.15v4.35h3.84v1h-3.84V180h2.07v1h-5.22v-1h2V167a6.38,6.38,0,0,1,.39-2.37,1.06,1.06,0,0,0-1.11-.6h-1.32v-1h1.35a1.31,1.31,0,0,1,1.41,1,3.2,3.2,0,0,1,2.82-1.17C150.21,162.82,151.32,164,151.32,167Z"/><path class="cls-1" d="M159,172.6v6.69c0,.51.21.72.72.72h1.2v1h-1.68a1.7,1.7,0,0,1-.93-.24V181h-3.18a2.51,2.51,0,0,1-2.79-2.85V167c0-2.94,1.2-4.14,3.51-4.14s3.48,1.2,3.48,4.14h-1c0-2.22-.9-3.12-2.43-3.12s-2.4.9-2.4,3.12v11c0,1.38.6,2.07,2,2.07h2.52a1.22,1.22,0,0,1,0-.33V172.6H156v-1H161v1Z"/><path class="cls-1" d="M169,164v15.3c0,.51.21.72.72.72h1.32v1h-1.8a1.2,1.2,0,0,1-1.35-1.32V172H163.2v8h2v1H160v-1h2V164.71c0-.51-.21-.72-.72-.72H160v-1h1.8a1.2,1.2,0,0,1,1.35,1.32V171h4.71v-7H166v-1h5.07v1Z"/><path class="cls-1" d="M174.09,164v16h2v1h-5.19v-1h2V164h-2v-1h5.19v1Z"/><path class="cls-1" d="M181.2,164h-2V181.6c0,2.82-1.2,4-3.66,4v-1c1.68,0,2.55-.93,2.55-3V164h-2v-1h5.19Z"/><path class="cls-1" d="M191.88,180v1h-1a2.63,2.63,0,0,1-2.82-1.83L185,170.71h-1V180h2v1h-5.19v-1h2V164h-2v-1H186v1h-2v5.73h2.19c2.16,0,2.7-2.07,2.73-4.89,0-.6,0-1.08,0-1.83H190v1.68c0,4-.9,6-3.45,6h-.48l2.94,7.74C189.6,180,190.74,180,191.88,180Z"/><path class="cls-1" d="M201.27,180v1h-9.69v-1h2V164h-2v-1h5.19v1h-2v16Z"/><path class="cls-1" d="M216.39,180v1H211.2v-1h2l-.78-16h-.12L208.86,181h-1.38L204,164.05h-.12L203,180h2v1h-5.19v-1h2l.75-16h-2v-1h4.2l3.21,16.38h.06L211.35,163h4.23v1h-2l.75,16Z"/><path class="cls-1" d="M227.64,164h-2v17h-1l-5.37-15.39-.12-.06V180h1.86v1h-5v-1h2V164h-2v-1H219l5.37,15.39.12.06V164h-1.86v-1h5Z"/><path class="cls-1" d="M236.13,165.85v12.3a2.56,2.56,0,0,1-2.79,2.85h-2a2.53,2.53,0,0,1-2.79-2.85v-12.3a2.53,2.53,0,0,1,2.79-2.85h2A2.53,2.53,0,0,1,236.13,165.85ZM231.6,164c-1.35,0-2,.69-2,2.07v11.88c0,1.38.6,2.07,2,2.07h1.47c1.35,0,2-.69,2-2.07V166.06c0-1.38-.6-2.07-2-2.07Z"/><path class="cls-1" d="M245.64,165.85V171a2.56,2.56,0,0,1-2.79,2.85H240.3V180h2v1h-5.19v-1h2V164h-2v-1h5.7A2.53,2.53,0,0,1,245.64,165.85Zm-1.11.21c0-1.38-.6-2.07-1.95-2.07H240.3v8.82h2.28c1.35,0,1.95-.69,1.95-2.07Z"/><path class="cls-1" d="M251.7,181v.78c0,2.19.84,3.06,2.64,3.06v1c-2.46,0-3.75-1.23-3.75-3.93V181h-.48a2.53,2.53,0,0,1-2.79-2.85v-12.3a2.53,2.53,0,0,1,2.79-2.85h2a2.53,2.53,0,0,1,2.79,2.85v12.3a2.56,2.56,0,0,1-2.79,2.85Zm-1.32-1h1.47c1.35,0,2-.69,2-2.07V166.06c0-1.38-.6-2.07-2-2.07h-1.47c-1.35,0-2,.69-2,2.07v11.88C248.43,179.32,249,180,250.38,180Z"/><path class="cls-1" d="M267,180.1v1h-1.77a1.46,1.46,0,0,1-1.62-1l-2.73-6.24h-1.83V180h2v1h-5.19v-1h2V164h-2v-1h5.7a2.53,2.53,0,0,1,2.79,2.85V171a2.51,2.51,0,0,1-2.28,2.82l2.46,5.67a1,1,0,0,0,1.11.66Zm-8-7.29h2.28a.82.82,0,0,0,.27,0l.06,0v0c1.14-.12,1.62-.78,1.62-2v-4.68c0-1.38-.6-2.07-1.95-2.07h-2.28Z"/><path class="cls-1" d="M270.15,163h5v1h-5c-1.35,0-2,.72-2,3.06,0,3,.15,3.24,3.09,4.35,3.24,1.23,3.6,1.56,3.6,5.31,0,3.27-1.26,4.29-3.12,4.29h-5.28v-1h5.31c1.38,0,2-.75,2-3.18,0-3.15-.09-3.39-3.09-4.5-3.18-1.2-3.57-1.65-3.57-5.25C267,163.93,268.26,163,270.15,163Z"/><path class="cls-1" d="M280.11,164v16h2v1H277v-1h2V164h-4.92v-1H285v1Z"/><path class="cls-1" d="M295.11,164h-2v14.16a2.56,2.56,0,0,1-2.79,2.85h-2.19a2.52,2.52,0,0,1-2.79-2.85V164.71c0-.51-.21-.72-.72-.72h-1.32v-1H285a1.21,1.21,0,0,1,1.38,1.32v13.62c0,1.38.57,2.07,2,2.07H290c1.38,0,2-.69,2-2.07V164h-2v-1h5.19Z"/><path class="cls-1" d="M306.66,163v1h-1.41c-.42,0-.84.09-1,.66l-3.39,16.44h-1.53L296,164.65c-.12-.57-.54-.66-1-.66h-1.41v-1h2a1.31,1.31,0,0,1,1.47,1l3.09,15.54,3.09-15.54a1.31,1.31,0,0,1,1.47-1Z"/><path class="cls-1" d="M322.71,163v1H321.3c-.42,0-.9.09-1,.66l-2.67,16.44h-1.53L313.83,169l-2.28,12.09H310l-2.64-16.44c-.09-.57-.54-.66-1-.66H305v-1h1.95c.63,0,1.35.21,1.47,1l2.4,15.39L313.26,166l-.24-1.32c-.12-.57-.54-.66-1-.66h-1.41v-1h1.95a1.46,1.46,0,0,1,1.23.51,1.55,1.55,0,0,1,1.26-.51h2v1h-1.41c-.42,0-.84.09-1,.66l-.24,1.32,2.46,13.47,2.37-15.39c.12-.84.84-1,1.5-1Z"/><path class="cls-1" d="M333.75,180v1h-2a1.48,1.48,0,0,1-1.47-1l-2.82-6.6L324.6,180a1.44,1.44,0,0,1-1.44,1h-2v-1h1.5a.89.89,0,0,0,1-.66l3.21-7.47-3.09-7.23a.89.89,0,0,0-1-.66h-1.41v-1h1.89a1.47,1.47,0,0,1,1.47,1l2.73,6.36,2.73-6.36a1.47,1.47,0,0,1,1.47-1h1.89v1h-1.41a.89.89,0,0,0-1,.66l-3.09,7.23,3.18,7.47c.27.57.54.66,1,.66Z"/><path class="cls-1" d="M344.07,163v1h-1.41a.92.92,0,0,0-1,.66L338.52,172v8h2v1H335.4v-1h2v-8l-3.15-7.38a.89.89,0,0,0-1-.66h-1.41v-1h1.83a1.47,1.47,0,0,1,1.47,1l2.79,6.48,2.79-6.48a1.47,1.47,0,0,1,1.47-1Z"/><path class="cls-1" d="M352.35,179.29v.57c0,.81-.36,1.14-1.2,1.14h-7.53v-.87l7.2-16.14h-7.38v-1h8.67v.87L344.88,180l.66,0h5.16c.57,0,.72-.15.72-.72Z"/><path class="cls-1" d="M362,180v1h-4.95c-2.61,0-3.78-1.26-3.78-3.9s1.14-3.93,3.78-3.93h1.8v-4c0-1.38-.66-2.13-2-2.13h-2.94v-1h3.39a2.44,2.44,0,0,1,2.67,2.73V180Zm-3.15,0v-5.85h-1.68c-2,0-2.79,1-2.79,2.94s.81,2.91,2.79,2.91Z"/><path class="cls-1" d="M370.2,168.85v9.3a2.53,2.53,0,0,1-2.79,2.85h-5.76v-1h2V161h-2v-1h3.15v6h2.61A2.53,2.53,0,0,1,370.2,168.85Zm-1.11.21c0-1.38-.6-2.07-2-2.07H364.8v13h2.34c1.35,0,2-.69,2-2.07Z"/><path class="cls-1" d="M379.34,170h-1c0-2.22-.9-3.15-2.43-3.15s-2.4.93-2.4,3.15v8c0,1.38.6,2.07,2,2.07h5v1h-5.31a2.51,2.51,0,0,1-2.79-2.85V170c0-2.94,1.2-4.14,3.51-4.14S379.34,167,379.34,170Z"/><path class="cls-1" d="M390.05,180v1h-6a2.53,2.53,0,0,1-2.79-2.85v-9.3a2.53,2.53,0,0,1,2.79-2.85h2.61v-5h-2v-1h3.15v20Zm-5.73,0h2.34V167h-2.34c-1.35,0-2,.69-2,2.07v8.88C382.38,179.32,383,180,384.33,180Z"/><path class="cls-1" d="M399.05,180v1h-5.31a2.51,2.51,0,0,1-2.79-2.85v-8.31c0-2.7,1.32-4,3.51-4s3.48,1.32,3.48,4-1.23,4-3.48,4h-2.4v4.11c0,1.38.6,2.07,2,2.07Zm-7-10.17v3h2.4c1.53,0,2.43-.93,2.43-3s-.9-3-2.43-3S392.06,167.74,392.06,169.84Z"/><path class="cls-1" d="M402.29,163.12V166h4.23v1h-4.23v13h3v1h-6.6v-1h2.52V167h-3.24v-1h3.24v-3.18A2.52,2.52,0,0,1,404,160h2.55v1H404.3C402.92,161,402.29,161.74,402.29,163.12Z"/><path class="cls-1" d="M412.58,167.56a3.76,3.76,0,0,1,.21,1.35v9.24a2.75,2.75,0,0,1-.84,2.22,3.05,3.05,0,0,1,2.13,3.18c0,1.92-1,3.15-3.69,3.15h-3.51v-1.08H410c2.07,0,3.09-.75,3.09-2.37a2.26,2.26,0,0,0-2-2.4A4.05,4.05,0,0,1,410,181h-.93a2.53,2.53,0,0,1-2.79-2.85v-9.3a2.53,2.53,0,0,1,2.79-2.85H410a2.81,2.81,0,0,1,2.13.78,1.5,1.5,0,0,1,1.41-.78h1.68v1h-1.56C413.06,167,412.73,167.2,412.58,167.56Zm-.9,10.44v-9c0-1.38-.57-2-1.95-2h-.39c-1.35,0-2,.63-2,2v9c0,1.38.6,2,2,2h.39C411.11,180,411.68,179.38,411.68,178Z"/><path class="cls-1" d="M424.28,180v1h-1.8a1.2,1.2,0,0,1-1.35-1.32V169.12c0-1.38-.66-2.13-2-2.13h-1.74v13h2v1h-5.19v-1h2V161h-2v-1h2.7v.12h.45V166h2.07a2.53,2.53,0,0,1,2.79,2.85v10.44c0,.51.21.72.72.72Z"/><path class="cls-1" d="M429.17,180v1H424v-1h2V167h-2v-1h3.15v14ZM427,163.15h-1.11v-1.71H427Z"/><path class="cls-1" d="M431.84,166v15.6c0,2.82-1.2,4-3.66,4v-1c1.65,0,2.55-.93,2.55-3V167h-2v-1Zm-.18-2.85h-1.11v-1.71h1.11Z"/><path class="cls-1" d="M444.14,180v1h-.93a2.62,2.62,0,0,1-2.79-1.83l-3.15-8.31h-1V180h2v1h-5.19v-1h2V161h-2v-1h2.7v.12h.45v9.78h2.07a2.38,2.38,0,0,0,2.55-1.62,7,7,0,0,0,.27-2.28h1.14v.72c0,2.61-1.14,4.14-3.48,4.14h-.45l3,7.65C442,180,443.06,180,444.14,180Z"/><path class="cls-1" d="M448.73,180v1h-5.19v-1h2V161h-2v-1h2.7v.12h.45V180Z"/><path class="cls-1" d="M457.13,180h1.32v1h-1.77a1.21,1.21,0,0,1-1.38-1.32V169.12c0-1.38-.66-2.13-2-2.13h-1.74v13h2v1H448.4v-1h2V167h-2v-1h5.22a2.53,2.53,0,0,1,2.79,2.85v10.44C456.41,179.8,456.62,180,457.13,180Zm6.21,0v1h-1.8a1.18,1.18,0,0,1-1.35-1.32V169.12c0-1.38-.66-2.13-2-2.13H456v-1h2.52a2.53,2.53,0,0,1,2.79,2.85v10.44c0,.51.21.72.72.72Z"/><path class="cls-1" d="M473.06,180v1h-1.77a1.21,1.21,0,0,1-1.38-1.32V169.12c0-1.38-.66-2.13-2-2.13h-1.74v13h2v1H463v-1h2V167h-2v-1h5.22a2.53,2.53,0,0,1,2.79,2.85v10.44c0,.51.21.72.72.72Z"/><path class="cls-1" d="M474,168.85a2.53,2.53,0,0,1,2.79-2.85h.93a2.53,2.53,0,0,1,2.79,2.85v9.3a2.53,2.53,0,0,1-2.79,2.85h-.93a2.53,2.53,0,0,1-2.79-2.85ZM477,180h.39c1.38,0,1.95-.69,1.95-2.07v-8.88c0-1.38-.57-2.07-1.95-2.07H477c-1.35,0-2,.69-2,2.07v8.88C475.07,179.32,475.67,180,477,180Z"/><path class="cls-1" d="M489.92,168.85v9.3a2.53,2.53,0,0,1-2.79,2.85h-2.61v5h2v1h-5.19v-1h2V167h-2v-1h5.76A2.53,2.53,0,0,1,489.92,168.85Zm-1.11.21c0-1.38-.6-2.07-2-2.07h-2.34v13h2.34c1.35,0,2-.69,2-2.07Z"/><path class="cls-1" d="M500.63,186v1h-5.19v-1h2v-5h-2.61a2.53,2.53,0,0,1-2.79-2.85v-9.3a2.53,2.53,0,0,1,2.79-2.85h5.76v1h-2v19Zm-3.15-6V167h-2.34c-1.35,0-2,.69-2,2.07v8.88c0,1.38.6,2.07,2,2.07Z"/><path class="cls-1" d="M507.32,166v1h-1.23c-2,0-2.46,1-2.46,3.12V180h2v1h-5.19v-1h2V169.93a7,7,0,0,1,.27-2.1,1,1,0,0,0-1.17-.84H500.3v-1h1.35a1.31,1.31,0,0,1,1.44,1.23,2.85,2.85,0,0,1,2.7-1.23Z"/><path class="cls-1" d="M510.08,166h4.56v1h-4.5c-1.59,0-1.92.72-1.92,2.52,0,2.19.45,2.52,2.67,3.27,3,.87,3.66,1.35,3.66,4.41,0,2.82-.78,3.78-3.06,3.78h-5v-1h5c1.62,0,1.92-.75,1.92-2.82s-.45-2.52-2.67-3.27c-3-.87-3.66-1.41-3.66-4.5C507,166.9,507.83,166,510.08,166Z"/><path class="cls-1" d="M518.63,167v10.89c0,1.38.63,2.13,2,2.13h2.46v1h-2.79a2.52,2.52,0,0,1-2.79-2.85V167h-4v-1h4v-3h1.11v3h4.47v1Z"/><path class="cls-1" d="M531.92,180v1H526.7a2.53,2.53,0,0,1-2.79-2.85V167.74c0-.54-.21-.75-.72-.75h-1.32v-1h1.8a1.2,1.2,0,0,1,1.35,1.32v10.56c0,1.38.66,2.13,2,2.13h1.74V167.74c0-.54-.21-.75-.72-.75h-1.32v-1h1.8a1.18,1.18,0,0,1,1.35,1.32V180Z"/><path class="cls-1" d="M543.11,166v1h-1.35c-.42,0-.84.09-1,.66l-3.12,13.44h-1.56L533,167.65a.84.84,0,0,0-1-.66h-1.38v-1h1.74c.87,0,1.47.15,1.68,1.29l2.79,12.63,2.79-12.63c.24-1.14.81-1.29,1.68-1.29Z"/><path class="cls-1" d="M559.4,166v1H558c-.42,0-.84.09-1,.66l-2.73,13.44h-1.56L550.31,169l-2.55,12.12h-1.35l-2.76-13.44c-.12-.57-.54-.66-1-.66h-1.35v-1h1.71c.9,0,1.53.15,1.71,1.29l2.34,12.06,2.43-11.46h.57l-.18-.9h-2.28v-1h3.18l2.76,13.59,2.37-12.3c.21-1.14.84-1.29,1.71-1.29Z"/><path class="cls-1" d="M557.51,180H559a.92.92,0,0,0,1-.66l2.61-6.12-2.37-5.58a.92.92,0,0,0-1-.66h-1.5v-1h1.68a1.6,1.6,0,0,1,1.74,1.17l1.95,4.92h.06l2-4.92a1.55,1.55,0,0,1,1.71-1.17h1.71v1H567a.92.92,0,0,0-1,.66l-2.4,5.58,2.61,6.12a.92.92,0,0,0,1,.66h1.47v1H567a1.57,1.57,0,0,1-1.8-1.29l-2.07-5.31h-.06l-2.1,5.31a1.61,1.61,0,0,1-1.8,1.29h-1.68Z"/><path class="cls-1" d="M579.5,166v1h-1.38c-.42,0-.84.09-1,.66l-4.11,18.06c-.24,1.14-.81,1.29-1.68,1.29h-2.46v-1H571c.42,0,.84-.09,1-.66l1-4.35h-.75l-3.09-13.35a.84.84,0,0,0-1-.66h-1.38v-1h1.68c.9,0,1.44.15,1.71,1.29l3,12.9,2.94-12.9c.24-1.14.81-1.29,1.71-1.29Z"/><path class="cls-1" d="M587,179.29v.57c0,.81-.36,1.14-1.17,1.14h-7v-.81L585.26,167h-6.84v-1h8.37v.81L580.4,180h5c.57,0,.72-.15.72-.72Z"/><path class="cls-1" d="M111.72,220.34V221h-1.83a1.19,1.19,0,0,1-1.32-.9l-.81-4.08h-4.83l-.81,4.08a1.19,1.19,0,0,1-1.32.9H99v-.66h1.5c.42,0,.84-.09,1-.66l3.45-16.8h.93l3.45,16.8c.12.57.54.66,1,.66Zm-4.08-5-2.28-11.31-2.28,11.31Z"/><path class="cls-1" d="M119.67,212.81v5.49A2.41,2.41,0,0,1,117,221h-6.27v-.66h2.07v-14a5,5,0,0,1,.36-1.8c-.21-.69-.51-.87-1.11-.87h-1.32V203h1.35a1.21,1.21,0,0,1,1.32,1.08,3,3,0,0,1,2.7-1.26c2.07,0,3.27,1.2,3.27,3.9a3.9,3.9,0,0,1-1.2,3.27A3.08,3.08,0,0,1,119.67,212.81Zm-6.12-6.09v3.21h2.58c1.65,0,2.58-1,2.58-3.21s-.93-3.24-2.58-3.24S113.55,204.47,113.55,206.72Zm5.4,6.12a2.45,2.45,0,0,0-1.38-2.49,4.27,4.27,0,0,1-1.44.24h-2.58v9.75h3.33c1.44,0,2.07-.72,2.07-2.16Z"/><path class="cls-1" d="M128.19,206.78h-.69c0-2.31-.93-3.3-2.58-3.3s-2.58,1-2.58,3.3v11.4c0,1.44.63,2.16,2,2.16h4.89V221h-5c-1.8,0-2.64-.93-2.64-2.7V206.78c0-2.82,1.14-4,3.3-4S128.19,204,128.19,206.78Z"/><path class="cls-1" d="M137.61,205.7v12.6A2.38,2.38,0,0,1,135,221h-6v-.66H131V203.66H129V203h6A2.37,2.37,0,0,1,137.61,205.7Zm-.72.12c0-1.44-.63-2.16-2-2.16h-3.09v16.68h3.09c1.41,0,2-.72,2-2.16Z"/><path class="cls-1" d="M148.41,220.34V221h-9.69v-.66h2.07V206.78a5.88,5.88,0,0,1,.36-2.25c-.21-.69-.51-.87-1.11-.87h-1.32V203h1.35a1.2,1.2,0,0,1,1.32,1,3,3,0,0,1,2.7-1.23c2.16,0,3.27,1.14,3.27,4h-.69c0-2.31-.93-3.3-2.58-3.3s-2.58,1-2.58,3.3v4.65h3.84v.66h-3.84v8.25Z"/><path class="cls-1" d="M156.81,206.78h-.69c0-2.31-.93-3.3-2.58-3.3s-2.58,1-2.58,3.3v4.65h3.84v.66H151v8.25H153V221h-4.86v-.66h2.07V206.78a5.88,5.88,0,0,1,.36-2.25c-.21-.69-.51-.87-1.11-.87h-1.32V203h1.35a1.2,1.2,0,0,1,1.32,1,3,3,0,0,1,2.7-1.23C155.7,202.82,156.81,204,156.81,206.78Z"/><path class="cls-1" d="M164.25,212.39v7.29c0,.48.21.66.66.66h1.35V221h-1.62a1.12,1.12,0,0,1-.75-.21V221h-3.18c-1.8,0-2.64-.93-2.64-2.7V206.78c0-2.79,1.14-3.93,3.3-3.93s3.27,1.14,3.27,3.93h-.69c0-2.28-.93-3.3-2.58-3.3s-2.58,1-2.58,3.3v11.4c0,1.44.63,2.16,2,2.16h2.76a1.55,1.55,0,0,1-.06-.42v-7.53h-2v-.66h4.77v.66Z"/><path class="cls-1" d="M173.85,203.63v16c0,.48.18.66.66.66h1.41V221h-1.71a.94.94,0,0,1-1.08-1.08v-8.1h-5v8.52h2.07V221H165.3v-.66h2.07v-16c0-.48-.18-.66-.66-.66H165.3V203H167c.75,0,1.11.33,1.11,1.08v7.11h5v-7.56h-2V203h4.8v.63Z"/><path class="cls-1" d="M178.65,203.66v16.68h2.07V221h-4.86v-.66h2.07V203.66h-2.07V203h4.86v.66Z"/><path class="cls-1" d="M185.52,203.66h-2.07V221.6c0,2.73-1.17,3.87-3.36,3.87v-.63c1.71,0,2.64-1,2.64-3.24V203.66h-2.07V203h4.86Z"/><path class="cls-1" d="M195.81,220.34V221H195a2.6,2.6,0,0,1-2.7-1.8l-3.21-8.7h-1v9.84h2.07V221h-4.86v-.66h2.07V203.66h-2.07V203h4.86v.66H188v6.21h2.19c2.31,0,2.88-2.31,2.91-5.31V203h.72v1.17c0,4.29-.87,6.33-3.42,6.33h-.63l3.06,8.22C193.47,220.31,194.67,220.34,195.81,220.34Z"/><path class="cls-1" d="M205.11,220.34V221h-9.48v-.66h2.07V203.66h-2.07V203h4.86v.66h-2.07v16.68Z"/><path class="cls-1" d="M219.42,220.34V221h-4.86v-.66h2.07l-.84-16.65h-.09L212.13,221h-1l-3.6-17.31h-.09l-.84,16.65h2.07V221h-4.86v-.66h2.07l.81-16.68h-2V203h3.48l3.45,17h.06l3.45-17h3.48v.66h-2l.81,16.68Z"/><path class="cls-1" d="M230.31,203.63h-2.07V221h-.75l-5.58-16.29-.09-.06v15.69h2V221H219v-.66h2.07V203.66H219V203h2.82l5.58,16.29.09.06V203.63h-2V203h4.77Z"/><path class="cls-1" d="M238.47,205.7v12.6a2.39,2.39,0,0,1-2.64,2.7H234a2.38,2.38,0,0,1-2.64-2.7V205.7A2.38,2.38,0,0,1,234,203h1.83A2.38,2.38,0,0,1,238.47,205.7Zm-4.35-2c-1.41,0-2,.72-2,2.16v12.36c0,1.44.63,2.16,2,2.16h1.59c1.41,0,2-.72,2-2.16V205.82c0-1.44-.63-2.16-2-2.16Z"/><path class="cls-1" d="M247.59,205.7v5.4a2.39,2.39,0,0,1-2.64,2.7h-2.58v6.54h2.07V221h-4.86v-.66h2.07V203.66h-2.07V203h5.37A2.38,2.38,0,0,1,247.59,205.7Zm-.72.12c0-1.44-.63-2.16-2-2.16h-2.46v9.48h2.46c1.41,0,2-.72,2-2.16Z"/><path class="cls-1" d="M253.41,221v.84c0,2.31.9,3.27,2.7,3.27v.63c-2.22,0-3.42-1.17-3.42-3.84V221h-.57a2.38,2.38,0,0,1-2.64-2.7V205.7a2.38,2.38,0,0,1,2.64-2.7h1.83a2.38,2.38,0,0,1,2.64,2.7v12.6a2.39,2.39,0,0,1-2.64,2.7Zm-1.17-.66h1.59c1.41,0,2-.72,2-2.16V205.82c0-1.44-.63-2.16-2-2.16h-1.59c-1.41,0-2,.72-2,2.16v12.36C250.2,219.62,250.83,220.34,252.24,220.34Z"/><path class="cls-1" d="M268.41,220.46v.66h-1.74a1.32,1.32,0,0,1-1.38-.93l-2.88-6.39h-1.92v6.54h2.07V221H257.7v-.66h2.07V203.66H257.7V203h5.37a2.38,2.38,0,0,1,2.64,2.7v5.4a2.39,2.39,0,0,1-2.49,2.7l2.7,6a.94.94,0,0,0,1,.66Zm-7.92-7.32h2.46c1.41,0,2-.72,2-2.16v-5.16c0-1.44-.63-2.16-2-2.16h-2.46Z"/><path class="cls-1" d="M271.35,203h5v.66h-5c-1.41,0-2.07.72-2.07,3.27,0,3.24.09,3.48,3.12,4.62,3.27,1.2,3.48,1.41,3.48,5.31,0,3.18-1,4.14-2.79,4.14h-5.28v-.66h5.31c1.41,0,2.07-.75,2.07-3.42,0-3.42,0-3.66-3.15-4.77s-3.45-1.5-3.45-5.19C268.56,203.9,269.58,203,271.35,203Z"/><path class="cls-1" d="M281.1,203.66v16.68h2.07V221h-4.86v-.66h2.07V203.66h-5V203h10.71v.66Z"/><path class="cls-1" d="M295.95,203.66h-2.07V218.3a2.41,2.41,0,0,1-2.64,2.7h-2.1a2.37,2.37,0,0,1-2.61-2.7v-14c0-.48-.18-.66-.66-.66h-1.41V203h1.68c.75,0,1.11.33,1.11,1.08v14.1c0,1.44.63,2.16,2,2.16h1.8c1.44,0,2.07-.72,2.07-2.16V203.66h-2.07V203h4.86Z"/><path class="cls-1" d="M307.35,203v.66h-1.5c-.42,0-.84.09-1,.66l-3.45,16.8h-.93l-3.45-16.8c-.12-.57-.54-.66-1-.66h-1.5V203h1.83a1.19,1.19,0,0,1,1.32.9L301,220l3.21-16a1.19,1.19,0,0,1,1.32-.9Z"/><path class="cls-1" d="M322.79,203v.66h-1.5c-.42,0-.87.09-1,.66l-2.79,16.8h-.93l-2.4-12.78-2.43,12.78h-.9l-2.79-16.8c-.09-.57-.54-.66-1-.66h-1.53V203h1.86a1.16,1.16,0,0,1,1.29.9l2.58,15.93,2.49-13.47-.39-2c-.12-.57-.54-.66-1-.66H311V203h1.83a1.2,1.2,0,0,1,1.32.9l.09.48.09-.48a1.16,1.16,0,0,1,1.29-.9h1.83v.66h-1.5c-.42,0-.84.09-1,.66l-.39,2,2.49,13.47,2.58-15.93A1.18,1.18,0,0,1,321,203Z"/><path class="cls-1" d="M333.63,220.34V221h-1.89a1.29,1.29,0,0,1-1.26-.9l-3.09-7.32-3.09,7.32a1.27,1.27,0,0,1-1.26.9h-1.89v-.66h1.56a.89.89,0,0,0,1-.66l3.33-7.86-3.18-7.5a.89.89,0,0,0-1-.66h-1.5V203h1.8a1.28,1.28,0,0,1,1.29.9l2.94,7,2.94-7a1.28,1.28,0,0,1,1.29-.9h1.83v.66h-1.53a.89.89,0,0,0-1,.66l-3.15,7.5,3.3,7.86c.27.57.54.66,1,.66Z"/><path class="cls-1" d="M343.88,203v.66h-1.5a.89.89,0,0,0-1,.66l-3.24,7.59v8.43h2.07V221h-4.83v-.66h2v-8.43l-3.21-7.59a.89.89,0,0,0-1-.66h-1.5V203h1.77a1.36,1.36,0,0,1,1.32.9l3,7,2.94-7a1.31,1.31,0,0,1,1.32-.9Z"/><path class="cls-1" d="M351.92,219.68V220c0,.69-.3,1-1,1h-7.29v-.57l7.29-16.8-.09,0h-7.5V203h8.4v.57l-7.29,16.8.51,0h5.67c.51,0,.66-.15.66-.66Z"/><path class="cls-1" d="M361.4,220.34V221h-4.56c-2.61,0-3.72-1.2-3.72-3.84s1.08-3.84,3.72-3.84h1.77v-4.47c0-1.44-.63-2.19-2.07-2.19h-2.79V206h3a2.31,2.31,0,0,1,2.55,2.64v11.7Zm-2.79,0V214h-1.68c-2.19,0-3.09,1-3.09,3.18s.9,3.18,3.09,3.18Z"/><path class="cls-1" d="M369.26,208.7v9.6a2.38,2.38,0,0,1-2.64,2.7h-5.4v-.66h2.07V200.66h-2.07V200H364v6h2.61A2.38,2.38,0,0,1,369.26,208.7Zm-.72.12c0-1.44-.63-2.16-2-2.16H364v13.68h2.49c1.41,0,2-.72,2-2.16Z"/><path class="cls-1" d="M378.11,209.78h-.69c0-2.31-.93-3.3-2.58-3.3s-2.58,1-2.58,3.3v8.4c0,1.44.63,2.16,2,2.16h4.89V221h-5c-1.8,0-2.64-.93-2.64-2.7v-8.52c0-2.82,1.14-4,3.3-4S378.11,207,378.11,209.78Z"/><path class="cls-1" d="M388.49,220.34V221h-5.67a2.38,2.38,0,0,1-2.64-2.7v-9.6a2.38,2.38,0,0,1,2.64-2.7h2.61v-5.34h-2.07V200h2.79v20.34Zm-5.55,0h2.49V206.66h-2.49c-1.41,0-2,.72-2,2.16v9.36C380.9,219.62,381.53,220.34,382.94,220.34Z"/><path class="cls-1" d="M397.19,220.34V221h-5c-1.8,0-2.64-.93-2.64-2.7v-8.61c0-2.64,1.2-3.87,3.3-3.87s3.27,1.23,3.27,3.87-1.17,3.9-3.27,3.9h-2.58v4.59c0,1.44.63,2.16,2,2.16Zm-6.93-10.65v3.24h2.58c1.65,0,2.58-1,2.58-3.24s-.93-3.21-2.58-3.21S390.26,207.47,390.26,209.69Z"/><path class="cls-1" d="M400.25,202.85V206h4.35v.63h-4.35v13.68h3.12V221h-6.45v-.66h2.61V206.66h-3.27V206h3.27V202.7a2.37,2.37,0,0,1,2.61-2.7h2.46v.66h-2.28C400.91,200.66,400.25,201.41,400.25,202.85Z"/><path class="cls-1" d="M410.21,207.32a4,4,0,0,1,.24,1.41v9.57a2.61,2.61,0,0,1-.9,2.22,2.81,2.81,0,0,1,2.25,3.06c0,1.92-1.08,3.09-3.72,3.09h-3.15V226h2.94c2.22,0,3.27-.87,3.27-2.58a2.4,2.4,0,0,0-2.28-2.55,3.61,3.61,0,0,1-1,.15h-.72a2.38,2.38,0,0,1-2.64-2.7v-9.6a2.38,2.38,0,0,1,2.64-2.7h.72a2.6,2.6,0,0,1,2,.78,1.25,1.25,0,0,1,1.26-.78h1.71v.66h-1.59C410.63,206.66,410.33,206.9,410.21,207.32Zm-.48,1.47c0-1.44-.63-2.13-2-2.13h-.45c-1.41,0-2,.69-2,2.13v9.42c0,1.44.63,2.13,2,2.13h.45c1.41,0,2-.69,2-2.13Z"/><path class="cls-1" d="M421.58,220.34V221H419.9c-.75,0-1.11-.33-1.11-1.08V208.85c0-1.44-.66-2.19-2.07-2.19h-1.89v13.68h2.07V221H412v-.66h2.07V200.66H412V200h2.55v.12h.24V206h2a2.38,2.38,0,0,1,2.64,2.7v11c0,.48.18.66.66.66Z"/><path class="cls-1" d="M426.29,220.34V221h-4.86v-.66h2.07V206.66h-2.07V206h2.79v14.34Zm-2.19-17.25h-.72v-1.47h.72Z"/><path class="cls-1" d="M428.75,206v15.6c0,2.73-1.17,3.87-3.36,3.87v-.63c1.71,0,2.64-1,2.64-3.24V206.66H426V206Zm-.12-2.91h-.72v-1.47h.72Z"/><path class="cls-1" d="M440.72,220.34V221h-.78a2.6,2.6,0,0,1-2.7-1.8L434,210.59h-1v9.75h2.07V221h-4.86v-.66h2.07V200.66h-2.07V200h2.55v.12H433V210h2a2.61,2.61,0,0,0,2.73-1.65,5.91,5.91,0,0,0,.3-2.31h.75v.39c0,2.7-1.14,4.2-3.45,4.2h-.6l3.09,8.16C438.47,220.34,439.61,220.34,440.72,220.34Z"/><path class="cls-1" d="M445.13,220.34V221h-4.86v-.66h2.07V200.66h-2.07V200h2.55v.12h.24v20.22Z"/><path class="cls-1" d="M453.08,220.34h1.41V221h-1.68c-.75,0-1.11-.33-1.11-1.08V208.85c0-1.44-.66-2.19-2.07-2.19h-1.89v13.68h2.07V221H445v-.66H447V206.66H445V206h4.86a2.37,2.37,0,0,1,2.61,2.7v11C452.42,220.16,452.6,220.34,453.08,220.34Zm6.12,0V221h-1.71a.94.94,0,0,1-1.08-1.08V208.85c0-1.44-.66-2.19-2.1-2.19h-2.25V206h2.43a2.39,2.39,0,0,1,2.64,2.7v11c0,.48.18.66.66.66Z"/><path class="cls-1" d="M468.56,220.34V221h-1.68c-.75,0-1.11-.33-1.11-1.08V208.85c0-1.44-.66-2.19-2.07-2.19h-1.89v13.68h2.07V221H459v-.66h2.07V206.66H459V206h4.86a2.37,2.37,0,0,1,2.61,2.7v11c0,.48.18.66.66.66Z"/><path class="cls-1" d="M469.61,208.7a2.38,2.38,0,0,1,2.64-2.7H473a2.37,2.37,0,0,1,2.61,2.7v9.6A2.37,2.37,0,0,1,473,221h-.72a2.38,2.38,0,0,1-2.64-2.7Zm2.76,11.64h.45c1.41,0,2-.72,2-2.16v-9.36c0-1.44-.63-2.16-2-2.16h-.45c-1.41,0-2,.72-2,2.16v9.36C470.33,219.62,471,220.34,472.37,220.34Z"/><path class="cls-1" d="M484.67,208.7v9.6A2.38,2.38,0,0,1,482,221h-2.61v5.34h2.07V227h-4.86v-.66h2.07V206.66h-2.07V206H482A2.38,2.38,0,0,1,484.67,208.7Zm-.72.12c0-1.44-.63-2.16-2-2.16h-2.49v13.68h2.49c1.41,0,2-.72,2-2.16Z"/><path class="cls-1" d="M495,226.34V227h-4.86v-.66h2.07V221h-2.61a2.38,2.38,0,0,1-2.64-2.7v-9.6a2.38,2.38,0,0,1,2.64-2.7H495v.66h-2.07v19.68Zm-2.79-6V206.66h-2.49c-1.41,0-2,.72-2,2.16v9.36c0,1.44.63,2.16,2,2.16Z"/><path class="cls-1" d="M501.53,206v.66h-1.38c-2.07,0-2.46,1-2.46,3.18v10.5h2.07V221h-4.83v-.66h2V209.75a6.59,6.59,0,0,1,.27-2c-.15-.84-.45-1.05-1.08-1.05h-1.35V206h1.35a1.2,1.2,0,0,1,1.32,1.14A2.61,2.61,0,0,1,500,206Z"/><path class="cls-1" d="M504.14,206h4.5v.66h-4.47c-1.71,0-2,.78-2,2.76,0,2.4.48,2.73,2.85,3.57,2.85.93,3.48,1.29,3.48,4.38,0,2.7-.6,3.63-2.76,3.63h-5v-.66h5c1.8,0,2-.78,2-3.06s-.45-2.73-2.85-3.57c-2.85-.93-3.45-1.32-3.45-4.44C501.38,206.9,502,206,504.14,206Z"/><path class="cls-1" d="M512.45,206.66v11.49c0,1.44.66,2.19,2.1,2.19h2.55V221h-2.73a2.39,2.39,0,0,1-2.64-2.7V206.66h-4.08V206h4.08v-3h.72v3h4.65v.66Z"/><path class="cls-1" d="M525.56,220.34V221H520.7a2.39,2.39,0,0,1-2.64-2.7V207.35c0-.51-.18-.69-.66-.69H516V206h1.71a.94.94,0,0,1,1.08,1.08v11.07c0,1.44.66,2.19,2.1,2.19h1.89v-13c0-.51-.18-.69-.66-.69H520.7V206h1.68c.75,0,1.11.33,1.11,1.08v13.26Z"/><path class="cls-1" d="M536.57,206v.66H535.1c-.42,0-.84.09-1,.66L531,221.12H530l-3.15-13.8c-.12-.57-.54-.66-1-.66h-1.5V206h1.74a1.22,1.22,0,0,1,1.41,1l2.94,13.08,2.91-13.08a1.25,1.25,0,0,1,1.44-1Z"/><path class="cls-1" d="M552.5,206v.66H551c-.42,0-.84.09-1,.66l-2.82,13.8h-.93l-2.7-13-2.7,13h-.81l-2.85-13.8c-.12-.57-.54-.66-1-.66h-1.5V206h1.74c.66,0,1.26.15,1.44,1l2.55,12.78,2.58-12.33h.39l-.18-.84H541V206h2.88l2.88,13.92,2.58-12.87c.15-.9.75-1,1.41-1Z"/><path class="cls-1" d="M550.61,220.34h1.5a.87.87,0,0,0,1-.66l2.67-6.45-2.43-5.91a.89.89,0,0,0-1-.66h-1.56V206h1.71a1.39,1.39,0,0,1,1.44,1l2.16,5.46h.06l2.13-5.46a1.38,1.38,0,0,1,1.44-1h1.71v.66h-1.56a.89.89,0,0,0-1,.66l-2.43,5.91,2.64,6.45a.89.89,0,0,0,1,.66h1.53V221h-1.71a1.33,1.33,0,0,1-1.44-1L556.16,214h-.06L553.76,220a1.34,1.34,0,0,1-1.44,1h-1.71Z"/><path class="cls-1" d="M572.18,206v.66h-1.5c-.42,0-.84.09-1,.66L565.46,226c-.18.9-.75,1-1.41,1H562v-.66h1.89c.42,0,.84-.09,1-.66l1-4.68h-.51l-3.15-13.68c-.12-.57-.54-.66-1-.66h-1.5V206h1.71a1.22,1.22,0,0,1,1.41,1l3.12,13.5,3.06-13.5a1.25,1.25,0,0,1,1.44-1Z"/><path class="cls-1" d="M579.41,219.68V220c0,.69-.3,1-1,1h-6.66v-.54l6.54-13.8h-7V206h8v.54l-6.57,13.8h5.46c.51,0,.66-.15.66-.66Z"/><path class="cls-1" d="M116.12,260.58V261h-1.8a1.09,1.09,0,0,1-1.2-.84l-.84-4.14h-4.95l-.84,4.14a1.09,1.09,0,0,1-1.2.84h-1.77v-.42h1.56c.42,0,.84-.09,1-.66l3.51-17h.51l3.51,17c.12.57.54.66,1,.66Zm-3.93-5-2.37-11.76-2.4,11.76Z"/><path class="cls-1" d="M123.79,252.69v5.7a2.31,2.31,0,0,1-2.55,2.61h-6.06v-.42h2.07V246.24a5,5,0,0,1,.33-1.68c-.15-.9-.48-1.14-1.08-1.14h-1.32V243h1.35c.66,0,1.08.3,1.26,1.11a2.86,2.86,0,0,1,2.61-1.29c2,0,3.18,1.14,3.18,3.81,0,1.65-.45,2.73-1.26,3.3A2.88,2.88,0,0,1,123.79,252.69Zm-6.06-6.06V250h2.67c1.77,0,2.7-1,2.7-3.36s-.93-3.39-2.7-3.39S117.74,244.29,117.74,246.63Zm5.58,6.09a2.47,2.47,0,0,0-1.44-2.55,3.68,3.68,0,0,1-1.47.27h-2.67v10.14h3.45c1.47,0,2.13-.78,2.13-2.25Z"/><path class="cls-1" d="M132.17,246.66h-.48c0-2.37-.93-3.42-2.7-3.42s-2.67,1.05-2.67,3.42v11.67c0,1.47.66,2.25,2.13,2.25h4.8V261h-4.86c-1.74,0-2.55-.9-2.55-2.61V246.66c0-2.7,1.14-3.84,3.15-3.84S132.17,244,132.17,246.66Z"/><path class="cls-1" d="M141.31,245.61v12.78a2.29,2.29,0,0,1-2.52,2.61H133v-.42h2.07V243.42H133V243h5.79A2.29,2.29,0,0,1,141.31,245.61Zm-.48.06c0-1.47-.63-2.25-2.1-2.25h-3.18v17.16h3.18c1.47,0,2.1-.78,2.1-2.25Z"/><path class="cls-1" d="M151.9,260.58V261h-9.42v-.42h2.07V246.66a5.79,5.79,0,0,1,.33-2.1c-.15-.9-.48-1.14-1.08-1.14h-1.32V243h1.35c.66,0,1.08.3,1.26,1.11a2.79,2.79,0,0,1,2.64-1.29c2,0,3.15,1.14,3.15,3.84h-.48c0-2.37-.93-3.42-2.67-3.42s-2.7,1.05-2.7,3.42v4.83h3.84v.45H145v8.64Z"/><path class="cls-1" d="M160.15,246.66h-.48c0-2.37-.93-3.42-2.67-3.42s-2.7,1.05-2.7,3.42v4.83h3.84v.45H154.3v8.64h2.1V261h-4.65v-.42h2.07V246.66a5.79,5.79,0,0,1,.33-2.1c-.15-.9-.48-1.14-1.08-1.14h-1.32V243h1.35c.66,0,1.08.3,1.26,1.11a2.79,2.79,0,0,1,2.64-1.29C159,242.82,160.15,244,160.15,246.66Z"/><path class="cls-1" d="M167.44,252.24V260c0,.45.18.63.63.63h1.44V261h-1.62a1.21,1.21,0,0,1-.63-.15V261h-3.18c-1.74,0-2.55-.9-2.55-2.61V246.66c0-2.7,1.14-3.84,3.15-3.84s3.18,1.14,3.18,3.84h-.48c0-2.34-.93-3.39-2.7-3.39s-2.67,1-2.67,3.39v11.67c0,1.47.66,2.25,2.13,2.25h2.91a1.25,1.25,0,0,1-.09-.48v-7.86h-2v-.42h4.62v.42Z"/><path class="cls-1" d="M176.77,243.42V260c0,.45.15.63.63.63h1.47V261h-1.65c-.63,0-.93-.27-.93-.9v-8.37H171v8.85h2.1V261h-4.65v-.42h2.07V244.05c0-.45-.15-.63-.63-.63h-1.44V243h1.62c.63,0,.93.27.93.9v7.38h5.25v-7.86h-2.07V243h4.65v.42Z"/><path class="cls-1" d="M181.39,243.42v17.16h2.1V261h-4.65v-.42h2.07V243.42h-2.07V243h4.65v.42Z"/><path class="cls-1" d="M188.11,243.42H186V261.6c0,2.67-1.14,3.81-3.18,3.81V265c1.77,0,2.7-1,2.7-3.36V243.42h-2.07V243h4.65Z"/><path class="cls-1" d="M198.13,260.58V261h-.72a2.56,2.56,0,0,1-2.64-1.77l-3.24-8.85h-1.08v10.2h2.1V261H187.9v-.42H190V243.42H187.9V243h4.65v.42h-2.1V250h2.19c2.43,0,3-2.43,3-5.58V243h.48v.87c0,4.44-.87,6.51-3.39,6.51H192l3.12,8.52C195.79,260.55,197,260.58,198.13,260.58Z"/><path class="cls-1" d="M207.4,260.58V261h-9.33v-.42h2.07V243.42h-2.07V243h4.65v.42h-2.1v17.16Z"/><path class="cls-1" d="M221.2,260.58V261h-4.65v-.42h2.1l-.87-17.1h-.09L214,261h-.72l-3.66-17.52h-.09l-.87,17.1h2.1V261h-4.65v-.42h2.07l.84-17.16h-2V243h3l3.6,17.4h.06l3.6-17.4h3v.42h-2.07l.87,17.16Z"/><path class="cls-1" d="M231.85,243.39h-2.07V261h-.57l-5.7-16.83-.09-.06v16.47h2V261h-4.59v-.42h2.07V243.42h-2.07V243h2.64l5.7,16.83.09.06v-16.5h-2V243h4.59Z"/><path class="cls-1" d="M239.8,245.61v12.78a2.29,2.29,0,0,1-2.52,2.61h-1.74a2.3,2.3,0,0,1-2.55-2.61V245.61a2.3,2.3,0,0,1,2.55-2.61h1.74A2.29,2.29,0,0,1,239.8,245.61Zm-4.2-2.19c-1.47,0-2.13.78-2.13,2.25v12.66c0,1.47.66,2.25,2.13,2.25h1.62c1.47,0,2.1-.78,2.1-2.25V245.67c0-1.47-.63-2.25-2.1-2.25Z"/><path class="cls-1" d="M248.71,245.61v5.58a2.31,2.31,0,0,1-2.55,2.61h-2.61v6.78h2.1V261H241v-.42h2.07V243.42H241V243h5.16A2.3,2.3,0,0,1,248.71,245.61Zm-.48.06c0-1.47-.66-2.25-2.13-2.25h-2.55v10h2.55c1.47,0,2.13-.78,2.13-2.25Z"/><path class="cls-1" d="M254.38,261v.87c0,2.37.93,3.39,2.73,3.39v.42c-2.07,0-3.21-1.14-3.21-3.78V261h-.63a2.3,2.3,0,0,1-2.55-2.61V245.61a2.3,2.3,0,0,1,2.55-2.61H255a2.29,2.29,0,0,1,2.52,2.61v12.78A2.29,2.29,0,0,1,255,261Zm-1-.42H255c1.47,0,2.1-.78,2.1-2.25V245.67c0-1.47-.63-2.25-2.1-2.25h-1.62c-1.47,0-2.13.78-2.13,2.25v12.66C251.2,259.8,251.86,260.58,253.33,260.58Z"/><path class="cls-1" d="M269.2,260.67v.45h-1.74a1.2,1.2,0,0,1-1.2-.84l-3-6.48h-2v6.78h2.1V261h-4.65v-.42h2.07V243.42h-2.07V243h5.16a2.3,2.3,0,0,1,2.55,2.61v5.58a2.31,2.31,0,0,1-2.55,2.61h-.09l2.85,6.21c.3.63.57.66,1,.66Zm-7.92-7.29h2.55c1.47,0,2.13-.78,2.13-2.25v-5.46c0-1.47-.66-2.25-2.13-2.25h-2.55Z"/><path class="cls-1" d="M272.05,243H277v.42h-5c-1.47,0-2.13.78-2.13,3.45,0,3.39.06,3.63,3.18,4.77s3.39,1.35,3.39,5.34c0,3.12-.87,4-2.61,4H268.6v-.42h5.28c1.47,0,2.13-.78,2.13-3.6,0-3.6,0-3.81-3.18-4.92s-3.39-1.41-3.39-5.19C269.44,243.87,270.31,243,272.05,243Z"/><path class="cls-1" d="M281.62,243.42v17.16h2.1V261h-4.65v-.42h2.07V243.42h-5V243h10.59v.42Z"/><path class="cls-1" d="M296.38,243.42h-2.07v15a2.31,2.31,0,0,1-2.55,2.61h-2a2.3,2.3,0,0,1-2.55-2.61V244.05c0-.45-.15-.63-.63-.63h-1.44V243h1.62c.63,0,.93.27.93.9v14.43c0,1.47.66,2.25,2.13,2.25h1.89c1.47,0,2.13-.78,2.13-2.25V243.42h-2.1V243h4.65Z"/><path class="cls-1" d="M307.75,243v.42h-1.59c-.42,0-.84.09-1,.66l-3.51,17h-.51l-3.51-17c-.12-.57-.54-.66-1-.66h-1.56V243h1.77a1.09,1.09,0,0,1,1.2.84l3.33,16.32,3.3-16.32A1.09,1.09,0,0,1,306,243Z"/><path class="cls-1" d="M322.81,243v.42h-1.56c-.42,0-.87.09-1,.66l-2.88,17h-.51l-2.52-13.2-2.49,13.2h-.51l-2.88-17c-.09-.57-.54-.66-1-.66H306V243h1.8a1.09,1.09,0,0,1,1.2.84l2.7,16.23,2.49-13.44-.48-2.55c-.12-.57-.54-.66-1-.66h-1.56V243h1.77a1.09,1.09,0,0,1,1.2.84l.27,1.47.3-1.47a1.07,1.07,0,0,1,1.17-.84h1.8v.42h-1.59c-.42,0-.84.09-1,.66l-.45,2.55,2.49,13.44,2.7-16.23A1.09,1.09,0,0,1,321,243Z"/><path class="cls-1" d="M333.49,260.58V261h-1.8a1.23,1.23,0,0,1-1.17-.84l-3.24-7.74L324,260.16a1.21,1.21,0,0,1-1.17.84h-1.8v-.42h1.59a.89.89,0,0,0,1-.66l3.39-8.13-3.21-7.71a.89.89,0,0,0-1-.66h-1.56V243H323a1.19,1.19,0,0,1,1.17.84l3.06,7.29,3.06-7.29a1.24,1.24,0,0,1,1.2-.84h1.77v.42h-1.56a.89.89,0,0,0-1,.66l-3.24,7.71,3.42,8.13a.89.89,0,0,0,1,.66Z"/><path class="cls-1" d="M343.72,243v.42h-1.56a.89.89,0,0,0-1,.66L338,251.82v8.76H340V261h-4.65v-.42h2.1v-8.76l-3.24-7.74c-.27-.57-.54-.66-1-.66h-1.59V243h1.77a1.18,1.18,0,0,1,1.17.84l3.09,7.35,3.06-7.35A1.24,1.24,0,0,1,342,243Z"/><path class="cls-1" d="M351.64,260v.18c0,.63-.27.87-.87.87h-7.14v-.39l7.32-17.19h-7.68V243h8.22v.39l-7.32,17.19h6.42c.48,0,.63-.15.63-.63Z"/><path class="cls-1" d="M361,260.58V261h-4.32c-2.61,0-3.69-1.14-3.69-3.78s1-3.78,3.69-3.78h1.77v-4.77c0-1.47-.66-2.25-2.13-2.25h-2.7V246h2.79a2.26,2.26,0,0,1,2.52,2.58v12Zm-2.55,0v-6.72h-1.74c-2.31,0-3.24,1-3.24,3.36s.93,3.36,3.24,3.36Z"/><path class="cls-1" d="M368.68,248.61v9.78a2.29,2.29,0,0,1-2.52,2.61H361v-.42H363V240.42H361V240h2.55v6h2.64A2.29,2.29,0,0,1,368.68,248.61Zm-.48.06c0-1.47-.63-2.25-2.1-2.25h-2.58v14.16h2.58c1.47,0,2.1-.78,2.1-2.25Z"/><path class="cls-1" d="M377.38,249.66h-.48c0-2.37-.93-3.42-2.7-3.42s-2.67,1.05-2.67,3.42v8.67c0,1.47.66,2.25,2.13,2.25h4.8V261H373.6c-1.74,0-2.55-.9-2.55-2.61v-8.73c0-2.7,1.14-3.84,3.15-3.84S377.38,247,377.38,249.66Z"/><path class="cls-1" d="M387.55,260.58V261h-5.46a2.3,2.3,0,0,1-2.55-2.61v-9.78a2.3,2.3,0,0,1,2.55-2.61h2.61v-5.58h-2.07V240h2.55v20.58Zm-5.4,0h2.55V246.42h-2.55c-1.47,0-2.13.78-2.13,2.25v9.66C380,259.8,380.68,260.58,382.15,260.58Z"/><path class="cls-1" d="M396.1,260.58V261h-4.86c-1.74,0-2.55-.9-2.55-2.61v-8.76c0-2.64,1.17-3.81,3.15-3.81S395,247,395,249.63s-1.14,3.81-3.18,3.81h-2.67v4.89c0,1.47.66,2.25,2.13,2.25Zm-6.93-10.95V253h2.67c1.77,0,2.7-1,2.7-3.36s-.93-3.39-2.7-3.39S389.17,247.29,389.17,249.63Z"/><path class="cls-1" d="M399,242.67V246h4.44v.42H399v14.13h3.24V261h-6.36v-.42h2.64V246.45h-3.27V246h3.27v-3.42a2.3,2.3,0,0,1,2.55-2.61h2.37v.42h-2.31C399.67,240.42,399,241.2,399,242.67Z"/><path class="cls-1" d="M408.76,247.2a3.44,3.44,0,0,1,.27,1.44v9.75a2.45,2.45,0,0,1-.93,2.19,2.75,2.75,0,0,1,2.31,3c0,2-1.08,3.09-3.72,3.09h-2.94v-.48h2.85c2.31,0,3.39-.93,3.39-2.67a2.51,2.51,0,0,0-2.46-2.67,3.45,3.45,0,0,1-1,.15h-.57a2.3,2.3,0,0,1-2.55-2.61v-9.78a2.3,2.3,0,0,1,2.55-2.61h.57a2.49,2.49,0,0,1,2,.78,1.12,1.12,0,0,1,1.14-.78h1.77v.42h-1.65A.94.94,0,0,0,408.76,247.2Zm-.21,1.44c0-1.47-.63-2.22-2.1-2.22H406c-1.47,0-2.13.75-2.13,2.22v9.72c0,1.47.66,2.22,2.13,2.22h.45c1.47,0,2.1-.75,2.1-2.22Z"/><path class="cls-1" d="M419.95,260.58V261h-1.62c-.63,0-.93-.27-.93-.9V248.67c0-1.47-.66-2.25-2.13-2.25h-2v14.16h2.1V261h-4.65v-.42h2.07V240.42h-2.07V240h2.46v.15h.09V246h2a2.3,2.3,0,0,1,2.55,2.61V260c0,.45.15.63.63.63Z"/><path class="cls-1" d="M424.54,260.58V261h-4.65v-.42H422V246.42h-2.1V246h2.58v14.58ZM422.38,243h-.48v-1.32h.48Z"/><path class="cls-1" d="M426.88,246v15.6c0,2.67-1.11,3.81-3.18,3.81V265c1.77,0,2.7-1,2.7-3.36V246.42h-2.07V246Zm-.09-3h-.48v-1.32h.48Z"/><path class="cls-1" d="M438.7,260.58V261H438a2.56,2.56,0,0,1-2.64-1.77l-3.24-8.82H431v10.17h2.1V261h-4.65v-.42h2.07V240.42h-2.07V240h2.46v.15H431V250h2a2.68,2.68,0,0,0,2.82-1.65,6.11,6.11,0,0,0,.36-2.34h.48v.18c0,2.76-1.14,4.23-3.42,4.23h-.69l3.15,8.49C436.36,260.58,437.56,260.58,438.7,260.58Z"/><path class="cls-1" d="M443,260.58V261h-4.65v-.42h2.07V240.42h-2.07V240h2.46v.15h.09v20.43Z"/><path class="cls-1" d="M450.67,260.58h1.47V261h-1.65c-.63,0-.93-.27-.93-.9V248.67c0-1.47-.66-2.25-2.13-2.25h-2v14.16h2.07V261H442.9v-.42H445V246.42h-2.1V246h4.62a2.29,2.29,0,0,1,2.52,2.61V260C450,260.4,450.22,260.58,450.67,260.58Zm6.06,0V261h-1.65c-.63,0-.93-.27-.93-.9V248.67c0-1.47-.66-2.25-2.13-2.25h-2.31V246h2.4a2.29,2.29,0,0,1,2.52,2.61V260c0,.45.18.63.63.63Z"/><path class="cls-1" d="M465.88,260.58V261h-1.65c-.63,0-.93-.27-.93-.9V248.67c0-1.47-.66-2.25-2.13-2.25h-2v14.16h2.07V261h-4.65v-.42h2.1V246.42h-2.1V246h4.62a2.29,2.29,0,0,1,2.52,2.61V260c0,.45.18.63.63.63Z"/><path class="cls-1" d="M467,248.61a2.3,2.3,0,0,1,2.55-2.61h.57a2.29,2.29,0,0,1,2.52,2.61v9.78a2.29,2.29,0,0,1-2.52,2.61h-.57a2.3,2.3,0,0,1-2.55-2.61Zm2.61,12h.45c1.47,0,2.1-.78,2.1-2.25v-9.66c0-1.47-.63-2.25-2.1-2.25h-.45c-1.47,0-2.13.78-2.13,2.25v9.66C467.5,259.8,468.16,260.58,469.63,260.58Z"/><path class="cls-1" d="M481.5,248.61v9.78A2.29,2.29,0,0,1,479,261h-2.64v5.58h2.1V267h-4.65v-.42h2.07V246.42h-2.07V246H479A2.29,2.29,0,0,1,481.5,248.61Zm-.48.06c0-1.47-.63-2.25-2.1-2.25h-2.58v14.16h2.58c1.47,0,2.1-.78,2.1-2.25Z"/><path class="cls-1" d="M491.61,266.58V267H487v-.42H489V261h-2.61a2.3,2.3,0,0,1-2.55-2.61v-9.78a2.3,2.3,0,0,1,2.55-2.61h5.19v.42h-2.1v20.16Zm-2.58-6V246.42h-2.55c-1.47,0-2.13.78-2.13,2.25v9.66c0,1.47.66,2.25,2.13,2.25Z"/><path class="cls-1" d="M498.06,246v.42h-1.44c-2.1,0-2.46,1.08-2.46,3.27v10.89h2.07V261h-4.65v-.42h2.1V249.66a7.28,7.28,0,0,1,.21-2c-.06-1-.36-1.26-1-1.26h-1.35V246h1.35c.69,0,1.08.3,1.2,1.11a2.49,2.49,0,0,1,2.46-1.11Z"/><path class="cls-1" d="M500.58,246h4.47v.42h-4.44c-1.8,0-2.13.84-2.13,2.91,0,2.55.48,2.88,3,3.78,2.79.93,3.36,1.26,3.36,4.38,0,2.61-.51,3.51-2.61,3.51h-5v-.42h5c1.86,0,2.1-.84,2.1-3.24s-.48-2.88-3-3.78c-2.76-.93-3.33-1.26-3.33-4.38C498,246.9,498.54,246,500.58,246Z"/><path class="cls-1" d="M508.71,246.42v11.91c0,1.47.66,2.25,2.13,2.25h2.61V261h-2.67a2.31,2.31,0,0,1-2.55-2.61v-12h-4.14V246h4.14v-3h.48v3h4.74v.42Z"/><path class="cls-1" d="M521.7,260.58V261h-4.62a2.29,2.29,0,0,1-2.52-2.61V247.08c0-.48-.18-.66-.63-.66h-1.47V246h1.65c.63,0,.93.27.93.9v11.43c0,1.47.66,2.25,2.13,2.25h2v-13.5c0-.48-.18-.66-.63-.66h-1.47V246h1.65c.63,0,.93.27.93.9v13.68Z"/><path class="cls-1" d="M532.62,246v.42H531c-.42,0-.84.09-1,.66l-3.21,14h-.51l-3.21-14c-.12-.57-.54-.66-1-.66h-1.56V246h1.71a1.14,1.14,0,0,1,1.26.9l3,13.38,3-13.38a1.14,1.14,0,0,1,1.26-.9Z"/><path class="cls-1" d="M548.31,246v.42h-1.56c-.42,0-.84.09-1,.66l-2.91,14h-.51l-2.85-13.47-2.82,13.47h-.48l-2.88-14c-.12-.57-.54-.66-1-.66h-1.56V246h1.74a1.11,1.11,0,0,1,1.23.9l2.67,13.2,2.67-12.84h.3l-.18-.84H537V246h2.7l3,14.13,2.7-13.23a1.08,1.08,0,0,1,1.23-.9Z"/><path class="cls-1" d="M546.42,260.58H548a.87.87,0,0,0,1-.66l2.67-6.69-2.46-6.15a.87.87,0,0,0-1-.66H546.6V246h1.71a1.2,1.2,0,0,1,1.26.87l2.28,5.79h.06l2.28-5.79a1.19,1.19,0,0,1,1.23-.87h1.74v.42h-1.59a.87.87,0,0,0-1,.66l-2.49,6.15,2.7,6.69a.87.87,0,0,0,1,.66h1.56V261h-1.71a1.21,1.21,0,0,1-1.26-.9l-2.46-6.27h-.06l-2.46,6.27a1.23,1.23,0,0,1-1.26.9h-1.71Z"/><path class="cls-1" d="M567.72,246v.42h-1.56c-.42,0-.84.09-1,.66l-4.35,19a1.1,1.1,0,0,1-1.23.9h-1.89v-.42h1.74c.42,0,.84-.09,1-.66l1.11-4.92h-.36L558,247.08c-.12-.57-.54-.66-1-.66h-1.56V246h1.71a1.14,1.14,0,0,1,1.26.9l3.18,13.86,3.15-13.86A1.14,1.14,0,0,1,566,246Z"/><path class="cls-1" d="M574.77,260v.18c0,.63-.27.87-.9.87h-6.51v-.39L574,246.42h-7.11V246h7.71v.39L568,260.58h5.73c.48,0,.63-.15.63-.63Z"/><path class="cls-1" d="M119.42,300.73V301h-1.74a1,1,0,0,1-1.11-.78l-.87-4.2h-5l-.87,4.2a1,1,0,0,1-1.11.78h-1.74v-.27h1.62c.42,0,.84-.09,1-.66l3.54-17.19h.24l3.54,17.19c.12.57.54.66,1,.66Zm-3.78-5-2.46-12.06-2.46,12.06Z"/><path class="cls-1" d="M126.92,292.6v5.85a2.23,2.23,0,0,1-2.46,2.55h-5.94v-.27h2.1V286.15a4.8,4.8,0,0,1,.3-1.56c-.12-1-.45-1.32-1.05-1.32h-1.35V283h1.35c.63,0,1.05.27,1.23,1.14a2.71,2.71,0,0,1,2.58-1.32c1.95,0,3.06,1.11,3.06,3.75,0,1.71-.45,2.79-1.32,3.33A2.71,2.71,0,0,1,126.92,292.6Zm-6-6v3.48h2.76a2.83,2.83,0,0,0,1.38-.3c.9-.48,1.38-1.5,1.38-3.18,0-2.4-1-3.48-2.76-3.48S120.92,284.17,120.92,286.57Zm5.7,6a2.41,2.41,0,0,0-1.47-2.55,3.68,3.68,0,0,1-1.47.27h-2.76v10.41h3.54c1.5,0,2.16-.78,2.16-2.28Z"/><path class="cls-1" d="M135.13,286.57h-.3c0-2.4-1-3.48-2.76-3.48s-2.76,1.08-2.76,3.48v11.88c0,1.5.66,2.28,2.16,2.28h4.74V301h-4.74c-1.68,0-2.46-.87-2.46-2.55V286.57c0-2.64,1.11-3.75,3.06-3.75S135.13,283.93,135.13,286.57Z"/><path class="cls-1" d="M144.13,285.55v12.9a2.23,2.23,0,0,1-2.46,2.55H136v-.27h2.1V283.27H136V283h5.64A2.23,2.23,0,0,1,144.13,285.55Zm-.3,0c0-1.5-.66-2.28-2.16-2.28h-3.24v17.46h3.24c1.5,0,2.16-.78,2.16-2.28Z"/><path class="cls-1" d="M154.57,300.73V301h-9.24v-.27h2.1V286.57a5.5,5.5,0,0,1,.3-2c-.12-1-.45-1.32-1-1.32h-1.35V283h1.35c.63,0,1,.27,1.23,1.14a2.71,2.71,0,0,1,2.58-1.32c1.95,0,3.06,1.11,3.06,3.75h-.3c0-2.4-1-3.48-2.76-3.48s-2.76,1.08-2.76,3.48v5h3.84v.27h-3.84v8.91Z"/><path class="cls-1" d="M162.67,286.57h-.3c0-2.4-1-3.48-2.76-3.48s-2.76,1.08-2.76,3.48v5h3.84v.27h-3.84v8.91H159V301h-4.5v-.27h2.1V286.57a5.5,5.5,0,0,1,.3-2c-.12-1-.45-1.32-1-1.32h-1.35V283h1.35c.63,0,1,.27,1.23,1.14a2.71,2.71,0,0,1,2.58-1.32C161.56,282.82,162.67,283.93,162.67,286.57Z"/><path class="cls-1" d="M169.87,292.15v8c0,.45.15.6.6.6H172V301h-1.59a.81.81,0,0,1-.57-.15V301h-3.18c-1.68,0-2.46-.87-2.46-2.55V286.57c0-2.64,1.11-3.75,3.06-3.75s3.06,1.11,3.06,3.75H170c0-2.4-1-3.48-2.76-3.48s-2.76,1.08-2.76,3.48v11.88c0,1.5.66,2.28,2.16,2.28h3.06a.86.86,0,0,1-.12-.51v-8.07h-2.1v-.27H172v.27Z"/><path class="cls-1" d="M179,283.27v16.86c0,.45.15.6.6.6h1.5V301H179.5c-.57,0-.81-.21-.81-.78v-8.58h-5.4v9.09h2.1V301h-4.5v-.27H173V283.87c0-.45-.15-.6-.6-.6h-1.5V283h1.59c.57,0,.81.21.81.78v7.59h5.4v-8.1h-2.1V283h4.5v.27Z"/><path class="cls-1" d="M183.49,283.27v17.46h2.1V301h-4.5v-.27h2.1V283.27h-2.1V283h4.5v.27Z"/><path class="cls-1" d="M190.09,283.27H188V301.6c0,2.64-1.11,3.75-3.06,3.75v-.27c1.8,0,2.76-1.08,2.76-3.48V283.27h-2.1V283h4.5Z"/><path class="cls-1" d="M200,300.73V301h-.66a2.54,2.54,0,0,1-2.58-1.77l-3.3-8.94h-1.08v10.44h2.1V301h-4.5v-.27H192V283.27h-2.1V283h4.5v.27h-2.1V290h2.19c2.49,0,3.06-2.52,3.12-5.76V283h.3v.63c0,4.56-.87,6.66-3.39,6.66h-.78L197,299C197.59,300.73,198.82,300.73,200,300.73Z"/><path class="cls-1" d="M209.2,300.73V301H200v-.27h2.1V283.27H200V283h4.5v.27h-2.1v17.46Z"/><path class="cls-1" d="M222.64,300.73V301h-4.5v-.27h2.13l-.9-17.43h-.06L215.59,301h-.54l-3.72-17.7h-.06l-.9,17.43h2.13V301H208v-.27h2.07l.9-17.46h-2.1V283h2.7l3.72,17.7h.06l3.72-17.7h2.7v.27h-2.1l.9,17.46Z"/><path class="cls-1" d="M233.14,283.24H231V301h-.42l-5.82-17.25-.06-.06v17h2.1V301h-4.5v-.27h2.1V283.27h-2.1V283h2.52l5.82,17.25.06.06V283.24h-2.1V283h4.5Z"/><path class="cls-1" d="M240.94,285.55v12.9a2.23,2.23,0,0,1-2.46,2.55H236.8a2.23,2.23,0,0,1-2.46-2.55v-12.9A2.23,2.23,0,0,1,236.8,283h1.68A2.23,2.23,0,0,1,240.94,285.55Zm-4.14-2.28c-1.5,0-2.16.78-2.16,2.28v12.9c0,1.5.66,2.28,2.16,2.28h1.68c1.5,0,2.16-.78,2.16-2.28v-12.9c0-1.5-.66-2.28-2.16-2.28Z"/><path class="cls-1" d="M249.64,285.55v5.7a2.23,2.23,0,0,1-2.46,2.55h-2.64v6.93h2.1V301h-4.5v-.27h2.1V283.27h-2.1V283h5A2.23,2.23,0,0,1,249.64,285.55Zm-.3,0c0-1.5-.66-2.28-2.16-2.28h-2.64v10.26h2.64c1.5,0,2.16-.78,2.16-2.28Z"/><path class="cls-1" d="M255.19,301v.9c0,2.43,1,3.48,2.76,3.48v.27c-2,0-3.06-1.11-3.06-3.75V301h-.69a2.23,2.23,0,0,1-2.46-2.55v-12.9A2.23,2.23,0,0,1,254.2,283h1.68a2.23,2.23,0,0,1,2.46,2.55v12.9a2.23,2.23,0,0,1-2.46,2.55Zm.69-.27c1.5,0,2.16-.78,2.16-2.28v-12.9c0-1.5-.66-2.28-2.16-2.28H254.2c-1.5,0-2.16.78-2.16,2.28v12.9c0,1.5.66,2.28,2.16,2.28Z"/><path class="cls-1" d="M269.86,300.85v.27h-1.74a1.13,1.13,0,0,1-1.08-.78L264,293.8h-2v6.93H264V301h-4.5v-.27h2.1V283.27h-2.1V283h5a2.23,2.23,0,0,1,2.46,2.55v5.7a2.23,2.23,0,0,1-2.46,2.55h-.3l3,6.39c.3.63.54.66,1,.66Zm-5.28-7.32c1.5,0,2.16-.78,2.16-2.28v-5.7c0-1.5-.66-2.28-2.16-2.28h-2.64v10.26Z"/><path class="cls-1" d="M272.62,283h5v.27h-5c-1.5,0-2.16.78-2.16,3.54,0,3.54,0,3.75,3.18,4.89S277,293,277,297c0,3.09-.78,4-2.46,4h-5.28v-.27h5.28c1.5,0,2.16-.78,2.16-3.69,0-3.75,0-3.93-3.18-5.07s-3.36-1.32-3.36-5.16C270.16,283.87,270.94,283,272.62,283Z"/><path class="cls-1" d="M282.1,283.27v17.46h2.1V301h-4.5v-.27h2.1V283.27h-5.1V283h10.5v.27Z"/><path class="cls-1" d="M296.8,283.27h-2.1v15.18a2.23,2.23,0,0,1-2.46,2.55h-2a2.23,2.23,0,0,1-2.46-2.55V283.87c0-.45-.15-.6-.6-.6h-1.5V283h1.59c.57,0,.81.21.81.78v14.67c0,1.5.66,2.28,2.16,2.28h2c1.5,0,2.16-.78,2.16-2.28V283.27h-2.1V283h4.5Z"/><path class="cls-1" d="M308.08,283v.27h-1.62c-.42,0-.84.09-1,.66L302,301.12h-.24l-3.54-17.19c-.12-.57-.54-.66-1-.66H295.6V283h1.74a1,1,0,0,1,1.11.78l3.39,16.53,3.39-16.53a1,1,0,0,1,1.11-.78Z"/><path class="cls-1" d="M322.9,283v.27h-1.62c-.42,0-.87.09-1,.66l-2.94,17.19h-.24l-2.55-13.53L312,301.12h-.24l-2.94-17.19c-.09-.57-.54-.66-1-.66h-1.62V283H308a1,1,0,0,1,1.11.78l2.79,16.47,2.52-13.44-.54-2.88c-.12-.57-.54-.66-1-.66h-1.62V283h1.74a1,1,0,0,1,1.11.78l.42,2.25.42-2.25a1,1,0,0,1,1.11-.78h1.74v.27h-1.62c-.42,0-.84.09-1,.66l-.54,2.88,2.52,13.44,2.79-16.47a1,1,0,0,1,1.11-.78Z"/><path class="cls-1" d="M333.46,300.73V301h-1.74a1.13,1.13,0,0,1-1.08-.78l-3.36-8.07-3.36,8.07a1.13,1.13,0,0,1-1.08.78H321.1v-.27h1.59a.89.89,0,0,0,1-.66l3.45-8.31-3.24-7.83a.89.89,0,0,0-1-.66h-1.62V283H323a1.14,1.14,0,0,1,1.11.78l3.15,7.56,3.15-7.56a1.14,1.14,0,0,1,1.11-.78h1.74v.27h-1.62a.89.89,0,0,0-1,.66l-3.24,7.83,3.45,8.31a.89.89,0,0,0,1,.66Z"/><path class="cls-1" d="M343.66,283v.27H342a.89.89,0,0,0-1,.66l-3.27,7.83v9h2.1V301h-4.5v-.27h2.1v-9l-3.27-7.83a.89.89,0,0,0-1-.66h-1.62V283h1.74a1.14,1.14,0,0,1,1.11.78l3.15,7.59,3.15-7.59a1.14,1.14,0,0,1,1.11-.78Z"/><path class="cls-1" d="M351.46,300.13v.09c0,.57-.24.78-.81.78h-7v-.27L351,283.27h-7.77V283h8.1v.27L344,300.73h6.57c.45,0,.6-.15.6-.6Z"/><path class="cls-1" d="M360.76,300.73V301h-4.14c-2.61,0-3.66-1.11-3.66-3.75s1-3.75,3.66-3.75h1.74v-4.95c0-1.5-.66-2.28-2.16-2.28h-2.64V286h2.64c1.68,0,2.46.87,2.46,2.55v12.18Zm-2.4,0v-7h-1.74c-2.4,0-3.36,1.08-3.36,3.48s1,3.48,3.36,3.48Z"/><path class="cls-1" d="M368.26,288.55v9.9A2.23,2.23,0,0,1,365.8,301h-5v-.27h2.1V280.27h-2.1V280h2.4v6h2.64A2.23,2.23,0,0,1,368.26,288.55Zm-.3,0c0-1.5-.66-2.28-2.16-2.28h-2.64v14.46h2.64c1.5,0,2.16-.78,2.16-2.28Z"/><path class="cls-1" d="M376.78,289.57h-.3c0-2.4-1-3.48-2.76-3.48s-2.76,1.08-2.76,3.48v8.88c0,1.5.66,2.28,2.16,2.28h4.74V301h-4.74c-1.68,0-2.46-.87-2.46-2.55v-8.88c0-2.64,1.11-3.75,3.06-3.75S376.78,286.93,376.78,289.57Z"/><path class="cls-1" d="M386.83,300.73V301h-5.34a2.23,2.23,0,0,1-2.46-2.55v-9.9a2.23,2.23,0,0,1,2.46-2.55h2.64v-5.73H382V280h2.4v20.73Zm-5.34,0h2.64V286.27h-2.64c-1.5,0-2.16.78-2.16,2.28v9.9C379.33,300,380,300.73,381.49,300.73Z"/><path class="cls-1" d="M395.23,300.73V301h-4.74c-1.68,0-2.46-.87-2.46-2.55v-8.88c0-2.64,1.11-3.75,3.06-3.75s3.06,1.11,3.06,3.75-1.08,3.75-3.06,3.75h-2.76v5.13c0,1.5.66,2.28,2.16,2.28Zm-6.9-7.68h2.76c1.8,0,2.76-1.08,2.76-3.48s-1-3.48-2.76-3.48-2.76,1.08-2.76,3.48Z"/><path class="cls-1" d="M398.05,282.55V286h4.5v.27h-4.5v14.43h3.3V301h-6.3v-.27h2.7V286.3h-3.3V286h3.3v-3.48a2.23,2.23,0,0,1,2.46-2.55h2.34v.27h-2.34C398.71,280.27,398.05,281.05,398.05,282.55Z"/><path class="cls-1" d="M407.65,287.08a3.06,3.06,0,0,1,.3,1.47v9.9a2.43,2.43,0,0,1-1,2.19,2.68,2.68,0,0,1,2.37,2.94c0,2-1.11,3.06-3.75,3.06h-2.76v-.3h2.76c2.4,0,3.48-1,3.48-2.76,0-1.56-.81-2.49-2.61-2.73a3.4,3.4,0,0,1-1,.15H405a2.23,2.23,0,0,1-2.46-2.55v-9.9A2.23,2.23,0,0,1,405,286h.48a2.35,2.35,0,0,1,2,.81,1,1,0,0,1,1.08-.81h1.8v.27h-1.68A.94.94,0,0,0,407.65,287.08Zm0,1.47c0-1.5-.66-2.28-2.16-2.28H405c-1.5,0-2.16.78-2.16,2.28v9.9c0,1.5.66,2.28,2.16,2.28h.48c1.5,0,2.16-.78,2.16-2.28Z"/><path class="cls-1" d="M418.72,300.73V301h-1.59c-.57,0-.81-.21-.81-.78V288.55c0-1.5-.66-2.28-2.16-2.28h-2v14.46h2.1V301h-4.5v-.27h2.1V280.27h-2.1V280h2.4v6h2a2.23,2.23,0,0,1,2.46,2.55v11.58c0,.45.15.6.6.6Z"/><path class="cls-1" d="M423.22,300.73V301h-4.5v-.27h2.1V286.27h-2.1V286h2.4v14.73ZM421.06,283h-.3v-1.2h.3Z"/><path class="cls-1" d="M425.47,286v15.6c0,2.64-1.11,3.75-3.06,3.75v-.27c1.8,0,2.76-1.08,2.76-3.48V286.27h-2.1V286Zm-.06-3h-.3v-1.2h.3Z"/><path class="cls-1" d="M437.14,300.73V301h-.66a2.54,2.54,0,0,1-2.58-1.77l-3.3-8.94h-1.08v10.44h2.1V301h-4.5v-.27h2.1V280.27h-2.1V280h2.4v10h2a2.8,2.8,0,0,0,2.88-1.65,5.84,5.84,0,0,0,.39-2.37h.3v0c0,2.79-1.14,4.26-3.42,4.26H431l3.18,8.73C434.77,300.73,436,300.73,437.14,300.73Z"/><path class="cls-1" d="M441.34,300.73V301h-4.5v-.27h2.1V280.27h-2.1V280h2.4v20.73Z"/><path class="cls-1" d="M448.84,300.73h1.5V301h-1.59c-.57,0-.81-.21-.81-.78V288.55c0-1.5-.66-2.28-2.16-2.28h-2v14.46h2.1V301h-4.5v-.27h2.1V286.27h-2.1V286h4.44a2.23,2.23,0,0,1,2.46,2.55v11.58C448.24,300.58,448.39,300.73,448.84,300.73Zm6,0V301h-1.59c-.57,0-.81-.21-.81-.78V288.55c0-1.5-.66-2.28-2.16-2.28h-2.34V286h2.34a2.23,2.23,0,0,1,2.46,2.55v11.58c0,.45.15.6.6.6Z"/><path class="cls-1" d="M463.84,300.73V301h-1.59c-.57,0-.81-.21-.81-.78V288.55c0-1.5-.66-2.28-2.16-2.28h-2v14.46h2.1V301h-4.5v-.27h2.1V286.27h-2.1V286h4.44a2.23,2.23,0,0,1,2.46,2.55v11.58c0,.45.15.6.6.6Z"/><path class="cls-1" d="M465,288.55A2.23,2.23,0,0,1,467.5,286H468a2.23,2.23,0,0,1,2.46,2.55v9.9A2.23,2.23,0,0,1,468,301h-.48a2.23,2.23,0,0,1-2.46-2.55Zm2.46,12.18H468c1.5,0,2.16-.78,2.16-2.28v-9.9c0-1.5-.66-2.28-2.16-2.28h-.48c-1.5,0-2.16.78-2.16,2.28v9.9C465.34,300,466,300.73,467.5,300.73Z"/><path class="cls-1" d="M479.14,288.55v9.9a2.23,2.23,0,0,1-2.46,2.55H474v5.73h2.1V307h-4.5v-.27h2.1V286.27h-2.1V286h5A2.23,2.23,0,0,1,479.14,288.55Zm-.3,0c0-1.5-.66-2.28-2.16-2.28H474v14.46h2.64c1.5,0,2.16-.78,2.16-2.28Z"/><path class="cls-1" d="M489,306.73V307h-4.5v-.27h2.1V301H484a2.23,2.23,0,0,1-2.46-2.55v-9.9A2.23,2.23,0,0,1,484,286h5v.27h-2.1v20.46Zm-2.4-6V286.27H484c-1.5,0-2.16.78-2.16,2.28v9.9c0,1.5.66,2.28,2.16,2.28Z"/><path class="cls-1" d="M495.4,286v.27h-1.5c-2.1,0-2.46,1.08-2.46,3.3v11.16h2.1V301H489v-.27h2.1V289.57a8.39,8.39,0,0,1,.18-1.89c0-1.11-.3-1.41-.93-1.41H489V286h1.35c.63,0,1,.24,1.17,1.08.39-.75,1.08-1.08,2.34-1.08Z"/><path class="cls-1" d="M497.86,286h4.44v.27h-4.44c-1.86,0-2.16.87-2.16,3,0,2.64.48,3,3.06,3.93s3.24,1.23,3.24,4.35c0,2.58-.42,3.45-2.46,3.45h-5v-.27h5c1.92,0,2.16-.87,2.16-3.33,0-2.64-.48-3-3.06-3.93s-3.24-1.23-3.24-4.35C495.4,286.9,495.88,286,497.86,286Z"/><path class="cls-1" d="M505.9,286.27v12.18c0,1.5.66,2.28,2.16,2.28h2.64V301h-2.64a2.23,2.23,0,0,1-2.46-2.55V286.27h-4.2V286h4.2v-3h.3v3h4.8v.27Z"/><path class="cls-1" d="M518.8,300.73V301h-4.44a2.23,2.23,0,0,1-2.46-2.55V286.9c0-.48-.15-.63-.6-.63h-1.5V286h1.59c.57,0,.81.21.81.78v11.67c0,1.5.66,2.28,2.16,2.28h2V286.9c0-.48-.15-.63-.6-.63h-1.5V286h1.59c.57,0,.81.21.81.78v14Z"/><path class="cls-1" d="M529.63,286v.27H528c-.42,0-.84.09-1,.66l-3.24,14.19h-.24l-3.24-14.19c-.12-.57-.54-.66-1-.66h-1.62V286h1.74a1.06,1.06,0,0,1,1.11.78l3.09,13.59,3.09-13.59a1.05,1.05,0,0,1,1.11-.78Z"/><path class="cls-1" d="M545.17,286v.27h-1.62c-.42,0-.84.09-1,.66l-2.94,14.19h-.24l-2.94-13.86-2.88,13.86h-.24l-2.94-14.19c-.12-.57-.54-.66-1-.66h-1.62V286h1.74a1,1,0,0,1,1.11.78l2.79,13.56,2.73-13.26h.21l-.15-.81h-2.31V286h2.55l3,14.28,2.79-13.5a1,1,0,0,1,1.11-.78Z"/><path class="cls-1" d="M543.25,300.73h1.59a.87.87,0,0,0,1-.66l2.73-6.84-2.52-6.3a.87.87,0,0,0-1-.66h-1.62V286h1.74a1.12,1.12,0,0,1,1.11.78l2.37,6h.06l2.37-6a1.12,1.12,0,0,1,1.11-.78h1.74v.27h-1.62a.87.87,0,0,0-1,.66l-2.52,6.3,2.73,6.84a.87.87,0,0,0,1,.66h1.59V301h-1.74a1.11,1.11,0,0,1-1.08-.78l-2.58-6.57h-.06l-2.58,6.57A1.11,1.11,0,0,1,545,301h-1.74Z"/><path class="cls-1" d="M564.37,286v.27h-1.62c-.42,0-.84.09-1,.66l-4.41,19.29a1.06,1.06,0,0,1-1.11.78h-1.74v-.27h1.62c.42,0,.84-.09,1-.66l1.17-5.07H558l-3.24-14.07c-.12-.57-.54-.66-1-.66h-1.62V286h1.74a1.06,1.06,0,0,1,1.11.78l3.24,14.13,3.24-14.13a1.06,1.06,0,0,1,1.11-.78Z"/><path class="cls-1" d="M571.27,300.13v.09c0,.57-.24.78-.81.78h-6.39v-.27l6.75-14.46h-7.17V286h7.5v.27l-6.75,14.46h6c.45,0,.6-.15.6-.6Z"/></svg>