<svg id="Layer_2" data-name="Layer 2" xmlns="http://www.w3.org/2000/svg" viewBox="0 0 720 180"><defs><style>.cls-1{fill:silver;}.cls-2{fill:#b0b0b0;}.cls-3{fill:#d8d8d8;}</style></defs><title>thumb_delve-1</title><rect class="cls-1" width="720" height="180"/><path class="cls-2" d="M577.67,144H644.5V122.4H601.3V100.8h38.14V79.2H601.3V57.6h38.14V36H577.67ZM464.61,71.1,505.45,144h49.61V36H509.84V57.6h21.6v64.8H520.3l-32.06-57v-29H464.61Zm-23-34.76H418V144h56V122.4h-32.4ZM331.64,144h66.82V122.4h-43.2V100.8H393.4V79.2H355.26V57.6H393.4V36H331.64Zm-101.25,0h56L310,120.37V36H230.39V57.6h56v64.8H254V79.2H230.39Z"/><polygon class="cls-3" points="68.3 36 130.65 144 193.01 36 68.3 36"/><polygon class="cls-2" points="130.65 36 68.3 144 193.01 144 130.65 36"/><polygon class="cls-1" points="130.65 36 99.47 90 130.65 144 161.83 90 130.65 36"/></svg>