<svg xmlns="http://www.w3.org/2000/svg" viewBox="0 0 680 140"><defs><style>.cls-1{fill:#e58;}</style></defs><title>antoinette_full</title><g id="Layer_1" data-name="Layer 1"><path class="cls-1" d="M44.66,28.67H42.81l-.71-1.08-2.37-7.89H28.23l-1.6,5.54-1.15,3.44H23.83l1.42-4.15L30.71,6.11H26.27V4.67H36.93L37,5.8l6.58,21ZM39.31,18.27,35.66,6.11H32.18L28.64,18.27Z"/><path class="cls-1" d="M68,23c0,4.77-3,5.62-6.35,5.62H53.4l.23-1.12V6.13H48.17V4.67H60.92c3.38,0,6.42.75,6.42,5.48a7.18,7.18,0,0,1-3.46,6.37v.1C65.94,17.21,68,19.17,68,23ZM55.21,6.13v10h7.12a6.47,6.47,0,0,0,3.42-5.77c0-3.73-2.25-4.21-5.21-4.21ZM66.46,22.9c0-3.92-2.69-5.46-5.73-5.46H55.21v9.77h6.21C64.25,27.21,66.46,26.44,66.46,22.9Z"/><path class="cls-1" d="M75.35,16.73c0,7.35,3.35,10.79,8.89,10.79,3.54,0,6.58-1.15,8.56-4.21l1,1.1c-2.25,3.29-5.25,4.67-9.43,4.67-6.58,0-10.75-3.65-10.75-12.37S77.26,4.26,84.26,4.26c5,0,9.29,1.5,8.91,7.31h-1.6C91.76,6.4,87.63,5.82,84,5.82c-5.79,0-8.67,3.37-8.67,10.46Z"/><path class="cls-1" d="M121.81,16.69c0,9.94-4.73,12.18-11.71,12.18h-7.31l.19-2.44V6.13H97.52V4.67h12.06C117,4.67,121.81,7.69,121.81,16.69Zm-1.69.33c0-7.89-3.62-10.89-10.91-10.89h-4.64v21.2c.87,0,4,.08,5.69.08C116.18,27.42,120.12,25.19,120.12,17Z"/><path class="cls-1" d="M144,27.1l-.21,1.56H131V6.11h-5.35V4.67h16.2l-.42,1.44h-8.85v9.19h11.33l-.21,1.42H132.59V27.23H142Z"/><path class="cls-1" d="M154.41,18v8.62l.31,2.08H153l-.23-1.25V6.11h-5.35V4.67H164.2L164,6.11h-9.58V16.54h10.66L164.87,18Z"/><path class="cls-1" d="M190.27,28.67h-1.71l-.21-1.25V25.56c-1,1.69-3.42,3.48-7.85,3.48-5.85,0-10.89-3.17-10.89-12.64,0-8.89,3.5-12.1,10.71-12.1,5.27,0,9.23,1.73,9.1,7.29h-1.64c0-4.33-3-5.85-7.5-5.85-5.56,0-9,2.6-9,10.41,0,8.71,4.48,11.41,9.54,11.41,4.19,0,6.46-1.85,7.54-3.4V17.5h-6.48V16h8.06V26.58Z"/><path class="cls-1" d="M216,28.67H214.3l-.21-1.25V18.29H199.93v8.29l.31,2.08h-1.71l-.21-1.25V6.76L198,4.67h1.71l.23,1.25v11h14.16V6.76l-.33-2.08h1.71l.21,1.25V26.58Z"/><path class="cls-1" d="M227.37,28.67h-1.71l-.21-1.25V6.76l-.33-2.08h1.71l.23,1.25V26.58Z"/><path class="cls-1" d="M243.5,4.67l.23,1.25V24.67c0,3.9-1.9,4.46-5.25,4.46h-.29a6.66,6.66,0,0,1-3.79-1l.73-1.31c.5.6,1.83.81,3.37.81,2.58,0,3.64-.37,3.64-3.29V6.76l-.33-2.08Z"/><path class="cls-1" d="M269.26,29.21,261.51,17.4c-.21,0-.42.06-.62.08l-5.5.6v8.5l.33,2.08H254l-.21-1.25V6.76l-.33-2.08h1.71l.21,1.25V16.57l5.08-.54c7.21-.73,8-4.56,8-9.91h-6.35V4.67h8.14l-.08,1.77c-.21,5.25-1.21,9.25-7,10.64l6.12,9L271,28.33Z"/><path class="cls-1" d="M278.66,5.94l-.42-1.27h7.17V6.11h-5.21V27.23h11.06l.25-6.89h1.54l-.21,8.33H278.66Z"/><path class="cls-1" d="M325.54,28.65h-1.73l-.21-1.25V6.11h-1.73l-8.14,16.08h-.31L305,6.11h-1.65V26.38l-.23,2.29h-1.67l.38-2.79V6.11h-5.35V4.67h9.68L313.58,19h.13L320.9,4.67h4.29V26.33Z"/><path class="cls-1" d="M353.17,28.67h-1.71l-.21-1.25V19l-11-12.93h-2.71V26.38l-.23,2.29h-1.67l.38-2.79V6.11h-5.35V4.67h10.41l10,11.75h.15V6.76l-.33-2.08h1.69l.23,1.25V26.58Z"/><path class="cls-1" d="M372.68,4.26c6.46,0,12,3.73,12,12.41s-5.52,12.41-12,12.41-12-3.73-12-12.41S366.23,4.26,372.68,4.26Zm0,23.29c5.79,0,10.23-3.85,10.23-10.87S378.47,5.8,372.68,5.8s-10.23,3.85-10.23,10.87S366.91,27.54,372.68,27.54Z"/><path class="cls-1" d="M407.71,12.13c0,6.48-1.69,8-7.27,8l-5,0v6.52l.33,2.08H394l-.21-1.25V6.13h-5.35V4.67h13C405.15,4.67,407.71,5.61,407.71,12.13Zm-1.58.06c0-5.14-1.65-6.06-5-6.06h-5.75V18.65h5.21C404.63,18.65,406.13,17.5,406.13,12.19Z"/><path class="cls-1" d="M434.32,15.63c0,9.58-6,13.46-12.33,13.46-5.89,0-7.33-3.1-7.33-6,0-3.81,2.58-6.1,6.67-6.1s7.17,2.31,9.6,6.1a13.69,13.69,0,0,0,1.75-7.21c0-6.69-3.15-10.23-8.83-10.23s-10.08,3.52-9.44,10.1h-1.6c-.92-7.69,4.48-11.54,11-11.54S434.32,7.71,434.32,15.63ZM430,24.38c-2.29-3.62-5.12-5.77-8.73-5.77-3.1,0-5,1.58-5,4.46,0,2.19,1.13,4.52,5.89,4.52A10.06,10.06,0,0,0,430,24.38Z"/><path class="cls-1" d="M445.08,19.73v6.85l.33,2.08h-1.71l-.21-1.25V6.11h-5.35V4.67h13c3.62,0,6.19.94,6.19,7.29,0,5.71-1.4,7.5-5.83,7.75l4.21,6.17,1.83,2.44-1.48.85-6.39-9.41Zm0-13.62V18.29h5.1c4.1,0,5.6-1.15,5.6-6.27s-1.65-5.92-5-5.92Z"/><path class="cls-1" d="M464.84,23.08l1.6-.4c.88,4.37,3.69,4.92,7.21,4.92,4.4,0,7.27-1.23,7.27-5.69,0-4.73-3.29-4.73-7.46-4.94-5-.25-8.41-.48-8.41-5.73s3.31-7,9.39-7c3.48,0,7.31.46,6.77,5.79l-1.58.08c.42-4-2.62-4.48-5.27-4.48-4.73,0-7.67,1.44-7.67,5.42,0,4.27,3.46,4.08,7.71,4.29,4.69.23,8.23.6,8.23,6.19,0,6.08-3.83,7.46-9.08,7.46C469,29,465.72,28.15,464.84,23.08Z"/><path class="cls-1" d="M501.62,27.23l-.21,1.44h-6.33l.21-2.54v-20H486.6l.21-1.58,4.17.15H505.6V6.11h-8.73V27.23Z"/><path class="cls-1" d="M510.09,4.67H512l.42,1V20.36c0,5.37,2.06,7.27,7.46,7.35,5.58.1,6.94-1.87,6.94-6.83V6.11h-6.23V4.67h7.85V21.21c0,5.83-1.81,8-8.56,8s-9.12-2.12-9.12-8.25V6.23Z"/><path class="cls-1" d="M555.57,7.48,550,27.25v1.42h-7.46v-.83L536.32,6.21l-.9-1.54h1.92l.48.71,6.1,21.85h4.39l5.77-20.47.21-.65h-5.64V4.67h7.83Z"/><path class="cls-1" d="M588.76,6.69l-3.19,21v1h-5.44l-3.46-14.56h-2l-3.46,14.56h-5.46l0-1L562.56,6.78l-.71-2.1h1.81l.44,1.4,3.37,21.16h2.46l3.67-14.56H578l3.46,14.56h2.56L587.3,6.11h-5.1V4.67h7.19Z"/><path class="cls-1" d="M611.71,27.58l.88,1.08h-2.12l-.71-1.12L604,18.75l-6.21,9.91H596l7.14-11.27L595.67,5.88l-.85-1.21h2.08l.6,1.1,6.6,10.12,6.08-9.79h-5V4.67h7.64L605,17.25Z"/><path class="cls-1" d="M622.43,26.6v.63h11.21l.21-6.89h1.54l-.21,8.33H620.89V26l5.81-9.08-5.48-7.81-2.94-3.9,1.42-.9,2.6,3.56,5.33,7.58,2.46-3.83,3.65-5.92.52-1.44,1.58.58L635.45,6,631.68,12Z"/><path class="cls-1" d="M641.56,4.67h15.5V8.38L643.16,25.71v1.52H655l.25-6.89h1.54l-.21,8.33h-15V25L655.52,7.63V6.11h-14Z"/><path class="cls-1" d="M36.29,76.67H34.58l-.42-.9V74.63h0c-1,1.71-3.44,2.23-6.08,2.23H26.85c-2,0-3.29-.62-3.29-3.29V70.63l-.21-1,10.81-1.25V65c0-2.73-2.1-3.17-3.75-3.17a7,7,0,0,0-5.92,2.81l-1-1a8.25,8.25,0,0,1,6.92-3.17c3,0,5.27,1.06,5.27,4.23V75.29Zm-2.12-6.94-9.08,1.06v2.37c0,1.62.65,2.27,2.27,2.27h1c2.64,0,4.81-.67,5.83-2.33Z"/><path class="cls-1" d="M49.25,50H57v1.44H50.75V62.11h.08A12,12,0,0,1,57,60.42c4,0,6.64,2.15,6.64,8s-2.75,8.64-8.35,8.64a21.25,21.25,0,0,1-6-.92Zm6.27,25.64c4.29,0,6.46-2.17,6.46-7.08s-2-6.71-5.46-6.71a9.67,9.67,0,0,0-5.77,1.9V75A18.4,18.4,0,0,0,55.52,75.65Z"/><path class="cls-1" d="M76.9,68.92c0,4.6,2.67,6.75,6.12,6.75a6.87,6.87,0,0,0,5.87-2.79l1,1a7.84,7.84,0,0,1-6.81,3.15c-4.5,0-7.81-2.56-7.81-8.31s3.19-8.5,7.87-8.5c3.85,0,7.21,1,6.37,5.81H88c.65-4-2.17-4.4-4.81-4.4-3.73,0-6.27,2.15-6.27,6.73Z"/><path class="cls-1" d="M115.93,50V75.23H119v1.44h-4.6V75h-.06a7.55,7.55,0,0,1-5.6,2.19c-4.25,0-7.35-3-7.35-8.71,0-6.5,4.08-8.19,7.75-8.19,2.6,0,4.5,1,5.23,2.42h0V51.44h-5.67V50Zm-7,25.72a7.6,7.6,0,0,0,5.46-2.21V66.21c0-2.85-2.23-4.5-5.29-4.5-3.29,0-6.08,1.73-6.08,6.62C103.06,73.4,105.6,75.73,109,75.73Z"/><path class="cls-1" d="M142.35,72.88l1,1a7.84,7.84,0,0,1-6.81,3.15c-4.5,0-7.81-2.56-7.81-8.31s3.19-8.5,7.87-8.5c3.73,0,7.21,1.33,6.79,7.21l.25,1.12-13.29,1.35c.38,3.9,2.92,5.73,6.1,5.73A6.87,6.87,0,0,0,142.35,72.88Zm-12-4.48v.19l11.58-1.21v-.06c.25-4.73-2.42-5.64-5.29-5.64C132.9,61.67,130.34,63.82,130.34,68.4Z"/><path class="cls-1" d="M167.56,55.42c0-3.27-1.37-4.23-4.31-4.23h-.44c-2.4,0-4.27.73-4.27,5.6v3.87h6.64l-.44,1.44h-6.21V75.29l.62,1.37h-1.71l-.42-.9V62.11H153.9V60.67H157V57.13c0-6.39,2.6-7.37,5.89-7.37h.33c3.5,0,5.71,1,5.71,5.67Z"/><path class="cls-1" d="M189.25,62l-4-.08a5.62,5.62,0,0,1,1.52,4.37c0,3.77-2.21,5.77-6.23,5.77a12.26,12.26,0,0,1-1.56-.1,15.81,15.81,0,0,1-2.44,3.4v.08l6.58-.21c4.17-.12,4.87,1.69,4.87,4.14,0,4.46-3.21,5.79-7.75,5.79-3.69,0-6.89-.81-6.89-4.12a5.46,5.46,0,0,1,2.25-4.23v-.1l-.94-1.46a20,20,0,0,0,2.92-3.67c-2.12-.79-3.27-2.58-3.27-5.29,0-4.19,2.21-5.77,6.23-5.77h8.75ZM174.92,80.67c0,2.46,2.52,3,5.52,3,3.54,0,6.06-1,6.06-4.19,0-1.75-.6-2.81-3.15-2.77l-6.1.13A5.26,5.26,0,0,0,174.92,80.67Zm10.33-14.37c0-3.31-1.54-4.33-4.75-4.33s-4.77,1.1-4.77,4.33c0,2.75,1.5,4.35,4.77,4.35S185.25,69,185.25,66.29Z"/><path class="cls-1" d="M208.21,50v1.44H202V63.59h.06a7,7,0,0,1,6.08-3.08c2.52,0,4.42,1.08,4.42,4.48V75.23h3.1v1.44h-4.6V65.11c0-2.31-1.35-3.17-3.29-3.17A6.52,6.52,0,0,0,202,65.4v9.89l.63,1.37h-1.71l-.42-.9V50Z"/><path class="cls-1" d="M228.42,60.67V75.29l.63,1.37h-1.71l-.42-.9V62.11h-3.1V60.67Zm.06-8.39V56h-3.75V52.28Zm-2.65,2.65h1.54V53.38h-1.54Z"/><path class="cls-1" d="M245.8,78.25c0,2.29-.35,4.52-4.35,4.52h-2.17l-.56-1.4,2.77,0c2.25,0,2.81-1.44,2.81-2.94V62.07h-4.62v-1.4h6.12Zm-.19-26V56h-3.75V52.28ZM243,54.92h1.54V53.38H243Z"/><path class="cls-1" d="M267.25,50v1.44H261V69.17l5.37-.94c3-.52,4.42-2.33,4.31-6.12H265.8V60.67h6.62v1.4c0,2.67-.71,5.73-4,6.94L272,75l1.25,1.67h-2.12l-4.25-7.1L261,70.63v4.67l.63,1.37H260l-.42-.9V50Z"/><path class="cls-1" d="M287.36,50V75.29l.63,1.37h-1.71l-.42-.9V51.42h-6.21V50Z"/><path class="cls-1" d="M326.75,75.23v1.44h-4.62V65.11c0-2.31-1.1-3.17-3-3.17a6.3,6.3,0,0,0-5.62,3.46v9.89l.63,1.37h-1.73l-.42-.9V65.11c0-2.31-1.1-3.17-3.06-3.17a6.27,6.27,0,0,0-5.6,3.46v9.89l.63,1.37H302.2l-.42-.9V62.11h-3.1V60.67h4.6v2.92h.06a6.73,6.73,0,0,1,5.92-3.08c2.19,0,3.71.79,4.1,3.17h0a7.05,7.05,0,0,1,6.06-3.17c2.54,0,4.21,1.08,4.21,4.48V75.23Z"/><path class="cls-1" d="M334.91,60.67h4.6v2.92h.06a7,7,0,0,1,6.08-3.08c2.52,0,4.42,1.08,4.42,4.48V75.23h3.1v1.44h-4.6V65.11c0-2.31-1.35-3.17-3.29-3.17a6.52,6.52,0,0,0-5.77,3.46v9.89l.63,1.37h-1.71l-.42-.9V62.11h-3.1Z"/><path class="cls-1" d="M370.82,60.25c4.17,0,7.75,2.46,7.75,8.41s-3.56,8.41-7.75,8.41-7.77-2.46-7.77-8.41S366.63,60.25,370.82,60.25Zm0,15.39c3.6,0,6.1-2.58,6.1-7s-2.5-7-6.1-7-6.12,2.56-6.12,7S367.2,75.65,370.82,75.65Z"/><path class="cls-1" d="M388.53,60.67h4.6v1.69h.06a7.61,7.61,0,0,1,5.64-2.19c4.23,0,7.35,3,7.35,8.71,0,6.5-4.08,8.16-7.77,8.16-2.56,0-4.46-.94-5.23-2.42h0v7.85h5.67v1.44h-7.17V62.11h-3.12Zm9.93,15c3.29,0,6.08-1.71,6.08-6.6,0-5.08-2.54-7.41-5.94-7.41a7.46,7.46,0,0,0-5.46,2.25v7.52C393.16,74,395.41,75.63,398.47,75.63Z"/><path class="cls-1" d="M432.18,82.48h6.1v1.44h-7.56V75.17h-.06a10.16,10.16,0,0,1-6,1.75c-4.12,0-6.75-2.15-6.75-8s2.5-8.58,8.21-8.58a18.88,18.88,0,0,1,6.08,1.08Zm-6.31-20.72c-4.31,0-6.33,2.15-6.33,7,0,5.14,2,6.73,5.44,6.73a8.66,8.66,0,0,0,5.75-2V62.59A15.65,15.65,0,0,0,425.86,61.75Z"/><path class="cls-1" d="M454.95,60.67v6h-1.52V62.11h-6.25l.08.38V75.23h4v1.44h-5.08l-.42-.9V62.88l-.62-2.21Z"/><path class="cls-1" d="M466.24,72.46l1.42-.4c.5,3.19,3.35,3.48,5.77,3.48s5.23-.19,5.23-3.31c0-2.69-2.06-2.77-5.52-3.08-4.67-.48-6.1-1.5-6.1-4.69s2.25-4.21,6.52-4.21c3.1,0,6.42.58,6,4.62l-1.46.08c.29-2.92-2.08-3.25-4.48-3.25-2.83,0-5.12.69-5.12,2.79,0,2.37,1.83,2.87,5.46,3.21,3.25.33,6.17.5,6.17,4.44S477.47,77,473.37,77C470,77,466.76,76.46,466.24,72.46Z"/><path class="cls-1" d="M495.1,62.11V75.23h4.06l-.46,1.44h-5.1V62.11h-3.35V60.67h3.35V55.92l-.29-1h1.79v5.75h5.27l-.46,1.44Z"/><path class="cls-1" d="M513.64,60.67V72.23c0,2.31,1.46,3.17,3.39,3.17a6.64,6.64,0,0,0,5.85-3.46V62l-.62-1.37H524l.42.9v15.1h-1.54V73.75h-.06a7.2,7.2,0,0,1-6.17,3.08c-2.54,0-4.52-1.08-4.52-4.48V62.11H509V60.67Z"/><path class="cls-1" d="M550.7,60.67v1l-5.21,15h-3.35V75.23h0L537.6,62.11h-2.15V60.67h3.4L544.2,76,549,61.9l0-1.23Z"/><path class="cls-1" d="M581.8,60.67v1l-3.37,15h-2.92l-3.83-14.5h-.37l-3.67,14.5h-3.06V75.23h.15l-2.94-13.12h-2V60.67h3.5v.75L566.45,76l3.77-15.33h3.15v1.5h0L577.06,76l3-14.08,0-1.23Z"/><path class="cls-1" d="M603.89,62.11l-4,6.27,4.83,6.35,1.65,1.94h-2.15l-.79-1.12L599,69.73l-3.12,4.85-1.27,2.08H591V75.23h2.71l4.46-6.54-4.56-6-1.5-2h2l1.06,1.62,3.81,5,3.15-5.12.83-1.52h3.4v1.44Z"/><path class="cls-1" d="M631.58,82.52V84H621.25l2.6-7.29H622V75.23h0l-4.58-13.12h-2.15V60.67h3.4L624.1,76l5-14.08,0-1.23H631v1l-7.56,20.87Z"/><path class="cls-1" d="M656.39,71.29v5.37H643.48V74.08l11.31-12H644.73v3.73H643.1V60.67h12.6v2.77L644.41,75.23h10.33V71.29Z"/><path class="cls-1" d="M24.17,104l8-1.42h.79v20.6h6.44l-.25,1.44h-15l.25-1.44h6.94V104.32l-7.14,1.25Z"/><path class="cls-1" d="M63.85,102.67c4.19,0,7,1.5,7,5.48s-2.33,5.94-7.27,8.5l-6.27,3.12v3.5H69.64v-4.85h1.42v6.25H55.89v-5.83l6.77-3.35c4.15-2.1,6.56-4.15,6.56-7.23s-2.25-4.12-5.54-4.12c-3.77,0-6.31,1.44-6.35,5.54h-1.6C55.81,104.63,59.18,102.67,63.85,102.67Z"/><path class="cls-1" d="M88,119.58h1.5c0,3.44,2.88,4,5.54,4,3.81,0,5.64-1.35,5.64-4.29,0-3.31-2.75-5-6.27-5H91.68v-1.42h2.75c2.73,0,5.94-2,5.94-4.83v-3.73H88.28v-1.44h13.64v5c0,2.75-1.31,4.58-4.48,5.48v.06c3.21.58,5,2.4,5,5.85,0,3.94-2.21,5.75-7.42,5.75C91.34,125,88.12,124.29,88,119.58Z"/><path class="cls-1" d="M131.8,123.23h4.31v1.44H124.86v-1.44h5.35v-6.6H118.88V116l2.44-13.08h1.56l-2.27,12.29h9.6V102.92h1.58v12.29h4.46l-.21,1.42H131.8Z"/><path class="cls-1" d="M166.6,117.59c0,5.14-3,7.58-7.52,7.58-3.33,0-6.83-1.27-6.87-5.85h1.54c0,3.31,2.69,4.42,5.42,4.42,3.42,0,5.85-1.79,5.85-6,0-3.71-1.79-5.48-5.12-5.48-2.35,0-4.58,1-5.35,3h-1.62V102.92h12.75v5.75h-1.48v-4.29l-9.77,0v8.81h.06c1.12-1.56,3.35-2.35,5.73-2.35C164.21,110.8,166.6,113,166.6,117.59Z"/><path class="cls-1" d="M190.75,104.61l1.67-1.69h2.19L192,105.69a26.72,26.72,0,0,0-5.83,7.33l.65-.56a6.83,6.83,0,0,1,5-1.67c4.42,0,6.92,2.29,6.92,6.79,0,5-3.12,7.58-7.6,7.58s-7.64-2.4-7.69-7.1C183.37,112.77,187.46,108,190.75,104.61Zm.35,19.12c3.17,0,6.06-1.9,6.06-6,0-3.71-2.21-5.52-5.79-5.52s-6.46,1.81-6.42,5.62S187.5,123.73,191.1,123.73Z"/><path class="cls-1" d="M231.47,107.92l-8.89,13.66-1.6,3.08h-2.33l2.87-4.44,8.58-13v-2.75H216.85v6.71h-1.5v-8.25h16.12Z"/><path class="cls-1" d="M247.24,119.73c0-3.29,3-6,6-6.31v-.17c-3.35-.9-5.39-2.46-5.39-5.54,0-3.87,3.25-5.25,7.19-5.25,3.14,0,6.87.81,7,4.9a5.8,5.8,0,0,1-5.25,6v.15c3,.67,5.87,2.19,5.87,5.85,0,4-2.67,5.83-7.37,5.83C251.16,125.17,247.24,123.73,247.24,119.73Zm8,4.06c3.65,0,5.89-1.42,5.89-4.39,0-3.15-3.14-4.44-6.25-5.27-3.56.38-6,2.6-6,5.31C248.87,122.67,252.05,123.79,255.22,123.79Zm.17-11c3.21-.83,5.17-2.33,5.17-5.17s-2.6-3.77-5.5-3.77c-3.19,0-5.69,1-5.69,3.85C249.37,110.34,251.7,111.69,255.38,112.77Z"/><path class="cls-1" d="M287.17,123.27,285.51,125h-2.19l2.58-2.77a26.76,26.76,0,0,0,5.83-7.33l-.65.56a6.83,6.83,0,0,1-5,1.67c-4.42,0-6.92-2.29-6.92-6.79,0-5,3.13-7.58,7.6-7.58s7.64,2.4,7.69,7.1C294.55,115.09,290.46,119.92,287.17,123.27Zm-.35-19.14c-3.17,0-6.06,1.92-6.06,6,0,3.71,2.21,5.52,5.79,5.52S293,113.84,293,110,290.42,104.13,286.82,104.13Z"/><path class="cls-1" d="M326.94,113.79c0,9.75-2.87,11.37-8.12,11.37s-8.12-1.62-8.12-11.37,2.87-11.37,8.12-11.37S326.94,104,326.94,113.79Zm-13.12,7.91,8.87-17a6.73,6.73,0,0,0-3.87-.9c-4.06,0-6.6,1.42-6.6,9.94C312.21,117.81,312.77,120.27,313.81,121.71Zm11.6-7.91c0-4.27-.62-6.75-1.77-8.16l-8.91,17.06a6.57,6.57,0,0,0,4.08,1C322.9,123.73,325.42,122.31,325.42,113.79Z"/><path class="cls-1" d="M362.14,124.46l-1.44.79-3.06-4.17L353,114.4l-6.6,8.52.21,1.88H345l-.21-2.06,7.37-9.6-5.67-8.21,1.19-.94,5.44,7.89,6.1-7.94v-1.83h-14.5v-1.44h15.93v3.9L354,113.15l5.35,7.77Z"/><path class="cls-1" d="M386.31,133.37h-1.81a28.13,28.13,0,0,1,0-34.78h1.81a26.85,26.85,0,0,0,0,34.78Z"/><path class="cls-1" d="M405.93,124.67h-1.71l-.42-.9V110.11H393.45v13.18l.62,1.38h-1.71l-.42-.9V110.11h-3.15v-1.44H392V105c0-6.27,2.92-7.25,6.21-7.25h1.27c3.5,0,5.71,1,5.71,5.67h-1.65c.06-3.21-1.27-4.23-4.58-4.23h-.73c-2.75,0-4.73.88-4.73,5.6v3.87H405.3v14.62Z"/><path class="cls-1" d="M410.14,98.59H412a28.13,28.13,0,0,1,0,34.78h-1.81a26.85,26.85,0,0,0,0-34.78Z"/><path class="cls-1" d="M431,98.59h6.54v1.23h-5.17v32.33h5.17v1.23H431Z"/><path class="cls-1" d="M456.09,108.67v17.58c0,2.29-.33,4.52-4.35,4.52h-2.17l-.56-1.4,2.77,0c2.25,0,2.81-1.44,2.81-2.94V110.07H444.24v13.23l.62,1.38h-1.71l-.42-.9V110.07H439.6v-1.4h3.15V105c0-6.27,2.92-7.25,6.21-7.25h1.27c3.5,0,5.71,1,5.71,5.67h-1.65c.06-3.21-1.27-4.23-4.58-4.23H449c-2.75,0-4.73.88-4.73,5.6v3.87Z"/><path class="cls-1" d="M460.6,133.37v-1.23h5.17V99.82H460.6V98.59h6.54v34.78Z"/><path class="cls-1" d="M482.49,121.73c0-2.33-.33-4-3.12-4.91v-1.67c2.79-.94,3.12-2.58,3.12-4.92v-4.85c0-5,2.46-7.41,7.67-7.41v1.29c-5-.08-6.29,2.4-6.29,6.23v4.75c0,2.37,0,4.06-2.83,5.46v.58c2.83,1.4,2.83,3.08,2.83,5.46v4.75c0,3.83,1.33,6.31,6.29,6.23V134c-5.35,0-7.67-2.4-7.67-7.42Z"/><path class="cls-1" d="M495.78,110.11v13.18l.62,1.38h-1.71l-.42-.9V110.11h-3.5v-1.44h3.5v-4.48c0-5.27,1.65-6.19,4.83-6.19h1.31l0,1.42h-1.27c-2.52,0-3.33.73-3.33,4.56v4.69h10.46l-.35,1.44Z"/><path class="cls-1" d="M507,98v25.29l.63,1.38h-1.71l-.42-.9V99.42H499.3V98Z"/><path class="cls-1" d="M510.63,134v-1.29c5,.08,6.29-2.4,6.29-6.23v-4.75c0-2.37,0-4.06,2.83-5.46v-.58c-2.83-1.4-2.83-3.08-2.83-5.46v-4.75c0-3.83-1.33-6.31-6.29-6.23V98c5.21,0,7.67,2.4,7.67,7.41v4.85c0,2.33.33,4,3.12,4.92v1.67c-2.79.94-3.12,2.58-3.12,4.91v4.85C518.3,131.6,516,134,510.63,134Z"/><path class="cls-1" d="M548.79,100.74l0,2.44h-1.08c0-2.6-1.21-4-4.44-4h-1.06c-2.87,0-4,.81-4,5.6v3.87h7.19l-.46,1.44h-6.73v13.18l.62,1.38h-1.71l-.42-.9V110.11H533.5v-1.44h3.15V105c0-6.25,2-7.25,5.54-7.25h1.17c2.39,0,4.31.69,4.89,3Z"/><path class="cls-1" d="M558,103.42c0-3.27-1.37-4.23-4.31-4.23h-.44c-2.4,0-4.27.73-4.27,5.6v3.87h6.64l-.44,1.44H549v13.18l.62,1.38h-1.71l-.42-.9V110.11h-3.15v-1.44h3.15v-3.54c0-6.39,2.6-7.37,5.89-7.37h.33c3.5,0,5.71,1,5.71,5.67Z"/><path class="cls-1" d="M556.52,118.27h5.81v6.48c0,3.21-.92,3.81-5.37,3.56v-1.44c3.38.17,3.73.08,3.73-2v-5.27h-4.17Z"/><path class="cls-1" d="M585.25,108.67l-.08,1.44h-8.62l.08.38v12.75h4v1.44h-5.08l-.42-.9V110.88l-.62-2.21Z"/><path class="cls-1" d="M588.75,110.11v13.12h4.06l-.46,1.44h-5.1V110.11h-3.35v-1.44h3.35v-4.75l-.29-1h1.79v5.75H594l-.46,1.44Z"/><path class="cls-1" d="M597.87,100.71a18.17,18.17,0,0,1,2.85-.21c3.54,0,6,.77,6,6.58,0,5-1.5,5.83-4.56,5.83h-1l0,5.37h-1.35l0-6.92c.35,0,.87,0,1.23,0,3.23,0,4.27,0,4.27-4.17,0-4.56-1.56-5.17-4.85-5.17a13.2,13.2,0,0,0-2.48.25Zm4.5,20v4h-4v-4Zm-2.83,2.83h1.67v-1.67h-1.67Z"/><path class="cls-1" d="M615.83,122.67,613,125.5l-2.83-2.83,2.83-2.83Zm-4,0,1.19,1.19,1.17-1.19L613,121.5Zm2-22-.17,17.62h-1.33l-.17-17.62Z"/><path class="cls-1" d="M620.64,104.9c0-3.21.9-3.81,5.37-3.56v1.54c-3.37-.19-3.73-.1-3.73,2v5.08h4.17v1.44h-5.81Z"/><path class="cls-1" d="M641.79,108.67l-.08,1.44h-8.62l.08.38v12.75h4v1.44h-5.08l-.42-.9V110.88l-.62-2.21Z"/><path class="cls-1" d="M654.47,103.42c0-3.27-1.37-4.23-4.31-4.23h-.44c-2.4,0-4.27.73-4.27,5.6v3.87h6.64l-.44,1.44h-6.21v13.18l.62,1.38h-1.71l-.42-.9V110.11h-3.15v-1.44H644v-3.54c0-6.39,2.6-7.37,5.89-7.37h.33c3.5,0,5.71,1,5.71,5.67Z"/><path class="cls-1" d="M657.06,101.51h5.79V108c0,3.21-.9,3.81-5.35,3.56V110c3.37.19,3.73.1,3.73-2v-5.08h-4.17Z"/></g></svg>