<svg xmlns="http://www.w3.org/2000/svg" viewBox="0 0 720 163"><defs><style>.cls-1{fill:#e0e0e0;}.cls-2{fill:#fff;}.cls-3{fill:#f0f0f0;}.cls-4{fill:#1df;}.cls-5{fill:none;stroke:#1df;stroke-miterlimit:10;stroke-width:3px;stroke-dasharray:2 4;}.cls-6{fill:#e58;}</style></defs><title>antoinette_proportion</title><g id="far-back"><rect class="cls-1" x="-100" y="-1608.87" width="960" height="4000"/></g><g id="Layer_1" data-name="Layer 1"><rect class="cls-2" y="1" width="720" height="48"/><rect class="cls-2" y="121" width="720" height="42"/><rect class="cls-3" y="49" width="720" height="72"/><rect class="cls-2" x="660" y="1" width="60" height="162"/><rect class="cls-4" y="1" width="48" height="162"/><rect class="cls-4" x="660" y="49" width="60" height="72"/><path class="cls-4" d="M681.87,135.25h17.7L687.18,157h-3.37l11.06-19,0-.06h-13Z"/><path class="cls-2" d="M672.66,78.34,681.87,75V94.79h5.87V97.5h-15V94.79H679v-16l-6.29,2.27Z"/><path class="cls-2" d="M700.35,75.51c4.54,0,7.85,2.1,7.85,6.58,0,3.27-1.79,5.79-6.54,10.23l-2.56,2.39v.08h9.31V97.5h-16l6.94-6.62c3.52-3.35,5.85-5.75,5.85-8.6,0-2.67-2-4.19-5.12-4.19a12.57,12.57,0,0,0-7,2.25v-3A15.52,15.52,0,0,1,700.35,75.51Z"/><path class="cls-4" d="M694,25.21c2.21,1,4.42,2.33,4.42,5.83,0,4.46-3.4,6.25-8,6.25s-8.1-1.67-8.1-6c0-3.5,2.29-5.08,4.5-6v-.08c-2-.87-3.83-2.33-3.83-4.94,0-3.71,3.64-5.39,7.52-5.39,3.69,0,7.25,1.23,7.25,5.19,0,2.92-1.73,4.27-3.77,5.14Zm-4.14,1.29A4.48,4.48,0,0,0,685.25,31c0,2.62,2.56,3.67,5.23,3.67s4.94-1,4.94-3.67a4.41,4.41,0,0,0-4.48-4.54Zm1.08-2.5a3.83,3.83,0,0,0,3.92-3.69c0-2-1.9-2.94-4.33-2.94s-4.6.92-4.6,2.94A3.81,3.81,0,0,0,689.77,24Z"/><line class="cls-5" x1="660.66" y1="163" x2="660.66" y2="1"/><line class="cls-5" x1="48" y1="163" x2="48" y2="1"/><path class="cls-2" d="M12.65,70.84c4.54,0,7.85,2.1,7.85,6.58,0,3.27-1.79,5.79-6.54,10.23L11.4,90v.08h9.31v2.71h-16l6.94-6.62c3.52-3.35,5.85-5.75,5.85-8.6,0-2.67-2-4.19-5.12-4.19a12.57,12.57,0,0,0-7,2.25v-3A15.52,15.52,0,0,1,12.65,70.84Z"/><path class="cls-2" d="M26.5,71.09H44.2L31.81,92.83H28.43l11.06-19,0-.06h-13Z"/><path class="cls-6" d="M228.38,121h-2.81l-.28-5.62V74H156.38v37.59l.47,9.38h-2.72l-.28-5.62v-93L153.29,13H156l.38,5.63V71.78h68.91V22.38L224.72,13h2.72l.38,5.63v93Z"/><path class="cls-6" d="M250.32,49h18.47v8.25H269c5.34-5.81,15.75-10.5,27.66-10.5,19.13,0,32.63,13.31,32.63,39.94,0,27.37-16.69,36-33.75,36-13.87,0-23.16-6-26.53-14.81h-.19v43.5h25.88v2.25H266.25V51.25H250.32Zm45.56,71.44c16.41,0,30.84-8.81,30.84-33.56C326.72,61,313.88,49,296.44,49c-11.62,0-21.75,5.16-27.66,11.63V97.94C268.78,110.59,279.57,120.44,295.88,120.44Z"/><path class="cls-6" d="M400.88,49l-.66,2.25H355.78l.38.94v66.56h22.22V121H355.5l-1.87-2.81V52.94L350.81,49Z"/><path class="cls-6" d="M412.59,51.25v67.5h19.31l-.84,2.25h-21V51.25H393V49h17.06V26.88l-.94-3.75h3.47V49h26l-.75,2.25Z"/><path class="cls-6" d="M466.41,1V117.06l2.81,3.94h-3.47l-1.87-2.81V3.25H433.78V1Z"/><path class="cls-6" d="M566.53,89.13c0,22.41-13.5,34.12-33.94,34.12-14.91,0-29.81-6.09-30-26.34h2.63c0,17.91,13.69,24.09,27.38,24.09,18.84,0,31.22-10.78,31.22-31.87,0-18.56-8.81-28.31-26.06-28.31-12.66,0-25.87,6.09-30.94,17.53h-1.87V23.13h57.38V49h-2.44V25.56l-52.41-.19V72.16h.19c5.91-8.72,17.53-13.59,30.09-13.59C555.75,58.56,566.53,68.88,566.53,89.13Z"/></g></svg>