<svg id="beam-open" xmlns="http://www.w3.org/2000/svg" viewBox="0 0 50 50"><defs><style>.cls-1{fill:#4d4d4d;}.cls-2{fill:#e5e5e5;}.cls-3{fill:#fff;}</style></defs><title>beam-open</title><circle id="_Path_" data-name="&lt;Path&gt;" class="cls-1" cx="25" cy="25" r="22.5"/><circle id="_Path_2" data-name="&lt;Path&gt;" class="cls-2" cx="25" cy="25" r="21"/><path id="_Path_3" data-name="&lt;Path&gt;" class="cls-1" d="M16.93,15a5.8,5.8,0,0,1,5.28,4.08h.72c0-3.87-2.69-7-6-7s-6,3.13-6,7h.72A5.8,5.8,0,0,1,16.93,15Z"/><ellipse id="_Path_4" data-name="&lt;Path&gt;" class="cls-1" cx="16.93" cy="18.58" rx="3" ry="4"/><path id="_Path_5" data-name="&lt;Path&gt;" class="cls-1" d="M33,15a5.8,5.8,0,0,1,5.28,4.08H39c0-3.87-2.69-7-6-7s-6,3.13-6,7h.72A5.8,5.8,0,0,1,33,15Z"/><ellipse id="_Path_6" data-name="&lt;Path&gt;" class="cls-1" cx="33" cy="18.58" rx="3" ry="4"/><rect class="cls-3" x="31.66" y="14.14" width="2.83" height="2.83" transform="translate(-1.31 27.94) rotate(-45)"/><rect class="cls-3" x="15.51" y="14.14" width="2.83" height="2.83" transform="translate(-6.04 16.52) rotate(-45)"/><rect class="cls-3" x="12" y="30" width="26" height="3"/><path class="cls-1" d="M11,28v2h0a10.48,10.48,0,0,0,1,4.23v.05l0,0c2.08,4.39,7.1,7.49,13,7.49s10.88-3.09,13-7.48l0,0v-.05A10.48,10.48,0,0,0,39,30h0V28Zm25.79,4.84H13.21A10.48,10.48,0,0,1,11.95,30h26.1A10.48,10.48,0,0,1,36.79,32.84Z"/></svg>