<svg id="beam-open" xmlns="http://www.w3.org/2000/svg" viewBox="0 0 720 144"><defs><style>.cls-1{fill:#fff;}.cls-2{fill:#4d4d4d;}.cls-3{fill:#e0e0e0;}</style></defs><title>personal header</title><rect class="cls-1" y="12" width="720" height="120"/><circle id="_Path_" data-name="&lt;Path&gt;" class="cls-2" cx="631" cy="72" r="67.5"/><circle id="_Path_2" data-name="&lt;Path&gt;" class="cls-3" cx="631" cy="72" r="63"/><path id="_Path_3" data-name="&lt;Path&gt;" class="cls-2" d="M606.78,42c7.13,0,13.22,5.06,15.84,12.25h2.16c0-11.6-8.06-21-18-21s-18,9.4-18,21h2.16C593.56,47.06,599.65,42,606.78,42Z"/><ellipse id="_Path_4" data-name="&lt;Path&gt;" class="cls-2" cx="606.78" cy="52.75" rx="9" ry="12"/><path id="_Path_5" data-name="&lt;Path&gt;" class="cls-2" d="M655,42c7.13,0,13.22,5.06,15.84,12.25H673c0-11.6-8.06-21-18-21s-18,9.4-18,21h2.16C641.78,47.06,647.87,42,655,42Z"/><ellipse id="_Path_6" data-name="&lt;Path&gt;" class="cls-2" cx="655" cy="52.75" rx="9" ry="12"/><rect class="cls-1" x="650.99" y="39.41" width="8.49" height="8.49" transform="translate(161.05 476.11) rotate(-45)"/><rect class="cls-1" x="602.53" y="39.41" width="8.49" height="8.49" transform="translate(146.85 441.84) rotate(-45)"/><rect class="cls-1" x="592" y="87" width="78" height="9"/><path class="cls-2" d="M589,81v6h0a31.45,31.45,0,0,0,3,12.69v.16l.1.08c6.25,13.17,21.3,22.46,38.9,22.46s32.64-9.28,38.89-22.44l.11-.09v-.16A31.45,31.45,0,0,0,673,87h0V81Zm77.37,14.52H595.63A31.45,31.45,0,0,1,591.85,87h78.31A31.44,31.44,0,0,1,666.37,95.52Z"/><path class="cls-2" d="M57.08,72.33V87.5l.75,7.5h-7.5l.75-7.5v-33L50.33,47h7.5l-.75,7.5V68.16H81.84V54.5L81.09,47h7.5l-.75,7.5v33l.75,7.5h-7.5l.75-7.5V72.33Z"/><path class="cls-2" d="M106.5,63V95h-5.58V71.08L99.67,63Zm.75-16.79v7.5h-7.5V46.2Z"/><path class="cls-2" d="M122.13,105.67H116.5l4.08-20.59V82.42l6.75.25Z"/><path class="cls-2" d="M155.83,47l-.75,7.5v33l.75,7.5h-7.5l.75-7.5v-33l-.75-7.5Z"/><path class="cls-2" d="M173.92,53.58l-3.12,18h-5.71l2.08-13.83V51.49h6.75Z"/><path class="cls-2" d="M226.76,79.71c0,5.13-.08,11.46-.42,15.29h-5.75c.33-3.71.5-10.67.5-16.08,0-8.38-.25-12.67-6.17-12.67A12,12,0,0,0,207.09,69a60.27,60.27,0,0,1,.58,10.75c0,5.13-.08,11.46-.42,15.29H201.5c.33-3.71.5-10.67.5-16.08,0-8.38-.25-12.67-6.17-12.67A9.77,9.77,0,0,0,188,69.83V95h-5.58V71.08L181.17,63h6.17l.5,2.92H188c2.42-2.79,6.29-3.83,9.88-3.83,4.46,0,6.92,1.25,8.21,3.88h.17c2.42-2.83,7.13-3.88,10.71-3.88C226.34,62.08,226.76,67.58,226.76,79.71Z"/><path class="cls-2" d="M264.38,95.92c-6.88,0-10.38-1-10.38-8.17h6.08c0,3.67,1.38,4.33,5.17,4.33s5.17-.75,5.17-4.58v-33l-.75-7.5h7.5l-.75,7.5V88.67c0,6.54-4.25,7.25-11.21,7.25Z"/><path class="cls-2" d="M314.42,81.17h-21c.54,8.38,3.54,10.58,9.67,10.58a18.48,18.48,0,0,0,10-2.67l1,4a23.52,23.52,0,0,1-12.25,3c-8.13,0-14.17-2.71-14.17-16s6.17-17.79,15.54-17.79c6.08,0,11.21,1.83,11.21,11Zm-5.79-7c0-6.71-2.33-7.79-6-7.79-7.63,0-9.17,5.21-9.33,10.67h15.29Z"/><path class="cls-2" d="M341.92,70.75h-4.75V67.16h-7.42l.25,2.5V95h-5.58V71.08L323.17,63h18.75Z"/><path class="cls-2" d="M374.84,81.17h-21c.54,8.38,3.54,10.58,9.67,10.58a18.48,18.48,0,0,0,10-2.67l1,4a23.52,23.52,0,0,1-12.25,3c-8.13,0-14.17-2.71-14.17-16s6.17-17.79,15.54-17.79c6.08,0,11.21,1.83,11.21,11Zm-5.79-7c0-6.71-2.33-7.79-6-7.79-7.63,0-9.17,5.21-9.33,10.67H369Z"/><path class="cls-2" d="M429.17,79.71c0,5.13-.08,11.46-.42,15.29H423c.33-3.71.5-10.67.5-16.08,0-8.38-.25-12.67-6.17-12.67A12,12,0,0,0,409.5,69a60.27,60.27,0,0,1,.58,10.75c0,5.13-.08,11.46-.42,15.29h-5.75c.33-3.71.5-10.67.5-16.08,0-8.38-.25-12.67-6.17-12.67a9.77,9.77,0,0,0-7.83,3.58V95h-5.58V71.08L383.58,63h6.17l.5,2.92h.17c2.42-2.79,6.29-3.83,9.88-3.83,4.46,0,6.92,1.25,8.21,3.88h.17c2.42-2.83,7.13-3.88,10.71-3.88C428.75,62.08,429.17,67.58,429.17,79.71Z"/><path class="cls-2" d="M465.67,63v2.92l-8.75,30.42-3.33,13.17h-6.75l4.58-12.25L452,95h-4.37L435.5,63h6.42l9.42,26.25h2.38l6.21-21.67L459.83,63Z"/><path class="cls-2" d="M484.58,91l-5.67,5.67L473.25,91l5.67-5.67Zm-2.67-44-.67,35.25h-4.92L475.66,47Z"/></svg>