<?xml version="1.0" encoding="utf-8"?>
<!-- Generator: Adobe Illustrator 22.0.1, SVG Export Plug-In . SVG Version: 6.00 Build 0)  -->
<svg version="1.1" xmlns="http://www.w3.org/2000/svg" xmlns:xlink="http://www.w3.org/1999/xlink" x="0px" y="0px"
	 viewBox="0 0 180 180" style="enable-background:new 0 0 180 180;" xml:space="preserve">
<style type="text/css">
	.st0{fill:#ED5400;}
	.st1{fill:#6943DF;}
	.st2{fill:#333333;}
	.st3{fill:#896F42;}
	.st4{fill:#E7B96D;}
	.st5{fill:#1AD1F2;}
	.st6{fill:#85941E;}
	.st7{fill:#B8B8B8;}
	.st8{fill:#C9C9C9;}
	.st9{fill:#A6A6A6;}
	.st10{fill:#DBDBDB;}
	.st11{fill:#11DDAA;}
	.st12{fill:#FF6699;}
	.st13{fill:#2255FF;}
	.st14{fill:#DDAA00;}
	.st15{fill:#FFDDA0;}
	.st16{fill:#FF5A27;}
	.st17{fill:#11DDFF;}
	.st18{fill:#C5C5C5;}
	.st19{fill:#A7A7A7;}
	.st20{fill:#B0B0B0;}
	.st21{fill:#A4A4A4;}
	.st22{fill:#868686;}
	.st23{fill:#9A9A9A;}
	.st24{fill:#585858;}
	.st25{fill:#C0C0C0;}
	.st26{fill:#C8C8C8;}
	.st27{fill:#D0D0D0;}
	.st28{fill:#D8D8D8;}
	.st29{fill:#EAEAEA;}
	.st30{fill:#0033FF;}
	.st31{fill:#EE5588;}
	.st32{fill:#D463A4;}
	.st33{fill:#FFD100;}
	.st34{fill:#00659B;}
	.st35{fill:#524FA1;}
	.st36{fill:#FFFFFF;}
	.st37{fill:none;stroke:#FFD100;stroke-miterlimit:10;}
	.st38{fill:#FF7F57;}
	.st39{fill:#FF0000;}
	.st40{fill:#00CC99;}
	.st41{clip-path:url(#SVGID_2_);}
	.st42{fill:#E5E5E5;}
	.st43{fill:#ED3024;}
	.st44{fill:#D4A04A;}
	.st45{fill:#AE6E04;}
	.st46{fill:#543500;}
	.st47{fill:#BCA6FF;}
	.st48{fill:#3B2287;}
	.st49{fill:#B0BA67;}
	.st50{fill:#343A09;}
	.st51{fill:#A13800;}
	.st52{fill:#73EBFF;}
	.st53{fill:#18C8E8;}
	.st54{fill:#DFB269;}
	.st55{fill:#E7621B;}
	.st56{fill:#E35000;}
	.st57{fill:#088AA1;}
	.st58{fill:#613DD3;}
	.st59{fill:#282828;}
	.st60{fill:#7C8A18;}
	.st61{fill:#C472E4;}
	.st62{fill:#4D4D4D;}
	.st63{fill:#231F20;}
	.st64{fill:#ADADAD;}
	.st65{fill:#7F673D;}
	.st66{fill:#CCCCCC;}
	.st67{fill:#979797;}
	.st68{fill:#BFBFBF;}
	.st69{fill:#BCBCBC;}
	.st70{fill:#00CCFF;}
	.st71{clip-path:url(#SVGID_4_);fill:#B8B8B8;}
	.st72{fill:#0099FF;}
	.st73{fill:#FF3300;}
	.st74{fill:#FFCC00;}
	.st75{fill:#9966CC;}
	.st76{fill:#CC9900;}
	.st77{fill:#949494;}
	.st78{fill:#6B6B6B;}
	.st79{fill:#898989;}
	.st80{fill:#9F9F9F;}
	.st81{fill:#3A3A3A;}
	.st82{fill:#B6B6B6;}
	.st83{fill:#818181;}
	.st84{fill:#767676;}
	.st85{display:none;}
	.st86{display:inline;}
</style>
<g id="Layer_2">
	<rect x="0" y="-1077" class="st0" width="180" height="180"/>
	<rect x="200" y="-1077" class="st1" width="180" height="180"/>
	<rect x="400" y="-1077" class="st2" width="180" height="180"/>
	<rect x="-200" y="-1077" class="st3" width="180" height="180"/>
	<rect x="-1596" y="-176" class="st4" width="180" height="180"/>
	<rect x="-400" y="-1077" class="st5" width="180" height="180"/>
	<rect x="600" y="-1077" class="st6" width="180" height="180"/>
	<rect x="0" y="-831.7" class="st7" width="180" height="180"/>
	<rect x="-400" y="-1336.9" class="st8" width="180" height="180"/>
	<rect x="200" y="-1336.9" class="st7" width="180" height="180"/>
	<rect x="-200" y="-1336.9" class="st9" width="180" height="180"/>
	<rect x="400" y="-1336.9" class="st8" width="180" height="180"/>
	<rect x="0" y="-1338" class="st7" width="180" height="180"/>
	<rect x="600" y="-1336.9" class="st10" width="180" height="180"/>
	<rect x="-400" y="526.1" class="st11" width="180" height="180"/>
	<rect x="200" y="526.1" class="st12" width="180" height="180"/>
	<rect x="-200" y="526.1" class="st13" width="180" height="180"/>
	<rect x="400" y="526" class="st14" width="180" height="180"/>
	<rect x="-720" y="-399.9" class="st15" width="180" height="180"/>
	<rect x="0" y="526" class="st16" width="180" height="180"/>
	<rect x="-200" y="209" class="st16" width="180" height="180"/>
	<rect x="600" y="526.1" class="st17" width="180" height="180"/>
	<rect x="-400" y="209" class="st17" width="180" height="180"/>
	<rect x="-200" y="-1553.9" class="st18" width="180" height="180"/>
	<rect x="-200" y="-3003.9" class="st19" width="180" height="180"/>
	<rect x="0" y="-3004" class="st20" width="180" height="180"/>
	<rect x="-400" y="-3003.9" class="st20" width="180" height="180"/>
	<rect x="200" y="-3003.9" class="st19" width="180" height="180"/>
	<rect x="400" y="-3003.9" class="st21" width="180" height="180"/>
	<rect x="600" y="-3003.9" class="st20" width="180" height="180"/>
	<rect x="-200" y="-1992.9" class="st19" width="180" height="180"/>
	<rect x="0" y="-1993" class="st22" width="180" height="180"/>
	<rect x="-400" y="-1992.9" class="st23" width="180" height="180"/>
	<rect x="200" y="-1992.9" class="st20" width="180" height="180"/>
	<rect x="400" y="-1992.9" class="st21" width="180" height="180"/>
	<rect x="600" y="-1992.9" class="st24" width="180" height="180"/>
	<rect x="-200" y="-600" class="st25" width="180" height="180"/>
	<rect x="0" y="-600" class="st26" width="180" height="180"/>
	<rect x="600" y="209.1" class="st27" width="180" height="180"/>
	<rect x="400" y="209.1" class="st28" width="180" height="180"/>
	<rect x="200" y="209.1" class="st27" width="180" height="180"/>
	<rect x="-200" y="194" class="st25" width="180" height="180"/>
	<rect x="-400" y="-599.9" class="st27" width="180" height="180"/>
	<rect x="200" y="-599.9" class="st25" width="180" height="180"/>
	<rect x="600" y="-599.9" class="st28" width="180" height="180"/>
	<rect x="400" y="-599.9" class="st27" width="180" height="180"/>
	<polygon class="st29" points="-151,-627 -151,-677 -201,-677 	"/>
	<g>
		<path class="st29" d="M-32.9-638.7l3.7,4l-3,2.5l-3.5-4.4l-3.5,4.4l-3-2.5l3.7-4l-5.1-2.1l1.6-3.5l4.4,2.3l-0.2-5h3.9l-0.2,5
			l4.4-2.3l1.6,3.5L-32.9-638.7z"/>
	</g>
	<text transform="matrix(1 0 0 1 -94.0767 -639.5078)" class="st20" style="font-family:'Ergata-Talhertz7'; font-size:36px;">*</text>
	<polygon class="st28" points="-434.7,-772 -372.3,-664 -310,-772 	"/>
	<g>
		<path class="st30" d="M420,20v140h140V20H420z M480,40h20v60h-20V40z M540,140H440V40h20v80h60V40h20V140z"/>
	</g>
	<rect x="400" y="-199.9" class="st28" width="180" height="180"/>
	<g>
		<path class="st26" d="M420-180v140h140v-140H420z M480-160h20v60h-20V-160z M540-60H440v-100h20v80h60v-80h20V-60z"/>
	</g>
	<text transform="matrix(1 0 0 1 584.7598 456.2266)"><tspan x="0" y="0" class="st12" style="font-family:'Neurune-Blood'; font-size:12px; letter-spacing:-7;">N</tspan><tspan x="0" y="0" class="st17" style="font-family:'Neurune-Tendon'; font-size:12px; letter-spacing:-7;">N</tspan><tspan x="0" y="0" class="st13" style="font-family:'Neurune-Bone'; font-size:12px; letter-spacing:-7;">N</tspan></text>
	<text transform="matrix(1 0 0 1 423.7598 374.2266)" class="st13" style="font-family:'Dolores-Five'; font-size:12px;">a</text>
	<g>
		<path class="st31" d="M302.7,128.9v-78h-78v-26h104v104H302.7z M302.7,128.9v26h-78v-52h26v26H302.7z M276.7,102.9h-26v-26h26
			V102.9z M354.8,128.9v26h-26v-26H354.8z"/>
	</g>
	<rect x="200" y="-199.9" class="st27" width="180" height="180"/>
	<g>
		<path class="st25" d="M302.7-71.1v-78h-78v-26h104v104H302.7z M302.7-71.1v26h-78v-52h26v26H302.7z M276.7-97.1h-26v-26h26V-97.1z
			 M354.8-71.1v26h-26v-26H354.8z"/>
	</g>
	<g>
		<path class="st12" d="M-463.5,33v7.2h-0.5V33H-463.5z"/>
		<path class="st17" d="M-459.6,31.8v8.4h-1.2v-4.6l-3.6-2.9v7.4h-1.2v-9.6l4.8,3.8v-2.6H-459.6z"/>
		<path class="st13" d="M-464.4,31.8v8.4h-1.2v-8.4H-464.4z M-459.6,31.8v8.4h-1.2v-8.4H-459.6z"/>
	</g>
	<rect x="-400" y="-199.9" class="st25" width="180" height="180"/>
	<g>
		<path class="st20" d="M-321.4-142.4v97.5h-6.5v-97.5H-321.4z"/>
		<path class="st20" d="M-269.4-158.7v113.8h-16.2v-61.8l-48.8-39v100.7h-16.2v-130l65,52v-35.8H-269.4z"/>
		<path class="st7" d="M-334.4-158.7v113.8h-16.2v-113.8H-334.4z M-269.4-158.7v113.8h-16.2v-113.8H-269.4z"/>
	</g>
	<g>
		<path class="st14" d="M-321.4,57.6v97.5h-6.5V57.6H-321.4z"/>
		<path class="st14" d="M-269.4,41.3v113.8h-16.2V93.3l-48.8-39v100.7h-16.2v-130l65,52V41.3H-269.4z"/>
		<path class="st14" d="M-334.4,41.3v113.8h-16.2V41.3H-334.4z M-269.4,41.3v113.8h-16.2V41.3H-269.4z"/>
	</g>
	<g>
		<path class="st32" d="M90-38.1c12.1,0,24.5-3,35.7-9.5c34.2-19.7,45.9-63.4,26.2-97.6L90-109.5L90-38.1z"/>
		<path class="st33" d="M151.9-145.2c-6.1-10.5-14.8-19.7-26.1-26.2c-34.2-19.7-77.9-8-97.6,26.2L90-109.5L151.9-145.2z"/>
		<g>
			<path class="st33" d="M103.1-158.4c9.9,17.1,4,38.9-13.1,48.8c9.9,17.1,31.7,22.9,48.8,13.1c17.1-9.9,22.9-31.7,13.1-48.8
				C142-162.4,120.2-168.2,103.1-158.4L103.1-158.4L103.1-158.4z"/>
		</g>
		<path class="st34" d="M41.2-96.5c9.9-17.1,31.7-22.9,48.8-13.1c9.9-17.1,4-38.9-13.1-48.8c-17.1-9.9-38.9-4-48.8,13.1
			C18.2-128.2,24.1-106.3,41.2-96.5L41.2-96.5L41.2-96.5z"/>
		<g>
			<path class="st34" d="M28.2-145.3c-6.1,10.5-9.6,22.7-9.6,35.7c0,39.5,32,71.5,71.5,71.5v-71.5L28.2-145.3z"/>
			<path class="st35" d="M90-38.1c4.1,0,8.1-0.4,12-1.1L90-38.1z"/>
		</g>
		<path class="st32" d="M90-38.1c19.7,0,35.7-16,35.7-35.7c-19.7,0-35.7-16-35.7-35.7c-19.7,0-35.7,16-35.7,35.7S70.3-38.1,90-38.1z
			"/>
	</g>
	<rect y="-199.9" class="st26" width="180" height="180"/>
	<g>
		<g>
			<g>
				<path class="st7" d="M90.1-38.2c-4.2,0-8.4-0.4-12.6-1.1c-39-6.9-65.1-44.2-58.2-83.1c3.3-18.9,13.8-35.3,29.5-46.3
					c15.7-11,34.7-15.2,53.6-11.9c18.9,3.3,35.3,13.8,46.3,29.5c11,15.7,15.2,34.7,11.9,53.6c-3.3,18.9-13.8,35.3-29.5,46.3
					C119-42.7,104.7-38.2,90.1-38.2z M89.8-177.8c-13.8,0-27.2,4.2-38.7,12.3c-14.8,10.4-24.7,25.9-27.9,43.7
					c-6.5,36.8,18.2,72,55,78.5c17.8,3.1,35.8-0.8,50.6-11.2c14.8-10.4,24.7-25.9,27.9-43.7l0,0c3.1-17.8-0.8-35.8-11.2-50.6
					s-25.9-24.7-43.7-27.9C97.8-177.4,93.8-177.8,89.8-177.8z"/>
			</g>
			<g>
				<path class="st7" d="M124.7-50L29.3-75.6l60.5-104.7L124.7-50z M35-77.9l84.4,22.6L88.5-170.5L35-77.9z"/>
			</g>
		</g>
	</g>
	<g>
		<g>
			<g>
				<path class="st36" d="M90.1,161.8c-4.2,0-8.4-0.4-12.6-1.1c-39-6.9-65.1-44.2-58.2-83.1c3.3-18.9,13.8-35.3,29.5-46.3
					c15.7-11,34.7-15.2,53.6-11.9c18.9,3.3,35.3,13.8,46.3,29.5c11,15.7,15.2,34.7,11.9,53.6c-3.3,18.9-13.8,35.3-29.5,46.3
					C119,157.3,104.7,161.8,90.1,161.8z M89.8,22.2c-13.8,0-27.2,4.2-38.7,12.3C36.3,44.9,26.4,60.4,23.3,78.2
					c-6.5,36.8,18.2,72,55,78.5c17.8,3.1,35.8-0.8,50.6-11.2c14.8-10.4,24.7-25.9,27.9-43.7l0,0c3.1-17.8-0.8-35.8-11.2-50.6
					s-25.9-24.7-43.7-27.9C97.8,22.6,93.8,22.2,89.8,22.2z"/>
			</g>
			<g>
				<path class="st36" d="M124.7,150l-95.4-25.6L89.8,19.7L124.7,150z M35,122.1l84.4,22.6L88.5,29.5L35,122.1z"/>
			</g>
		</g>
	</g>
	<g>
		<circle class="st37" cx="1367.2" cy="225.3" r="197.5"/>
		<polygon class="st37" points="1366.9,26.5 1465.9,395.9 1195.4,323.4 		"/>
	</g>
	<g>
		<path class="st32" d="M1367.2,309.1c14.2,0,28.6-3.5,41.7-11.1c39.9-23.1,53.6-74.1,30.6-114l-72.3,41.7L1367.2,309.1z"/>
		<path class="st33" d="M1439.4,184c-7.1-12.3-17.3-23-30.5-30.6c-39.9-23.1-91-9.4-114,30.6l72.3,41.7L1439.4,184z"/>
		<g>
			<path class="st33" d="M1382.5,168.7c11.5,20,4.7,45.5-15.3,57c11.5,20,37.1,26.8,57,15.3c20-11.5,26.8-37.1,15.3-57
				C1427.9,164,1402.4,157.1,1382.5,168.7L1382.5,168.7L1382.5,168.7z"/>
		</g>
		<path class="st34" d="M1310.2,241c11.5-20,37.1-26.8,57-15.3c11.5-20,4.7-45.5-15.3-57c-20-11.5-45.5-4.7-57,15.3
			C1283.4,203.9,1290.2,229.4,1310.2,241L1310.2,241L1310.2,241z"/>
		<g>
			<path class="st34" d="M1294.9,184c-7.1,12.3-11.2,26.5-11.2,41.7c0,46.1,37.4,83.5,83.5,83.5v-83.5L1294.9,184z"/>
			<path class="st35" d="M1367.2,309.2c4.8,0,9.4-0.5,14-1.3L1367.2,309.2z"/>
		</g>
		<path class="st32" d="M1367.2,309.2c23.1,0,41.7-18.7,41.7-41.7c-23.1,0-41.7-18.7-41.7-41.7c-23.1,0-41.7,18.7-41.7,41.7
			C1325.4,290.5,1344.1,309.2,1367.2,309.2z"/>
	</g>
	<g>
		<polygon class="st20" points="1360,-1084 1250,-1094 1250,-1128 1326,-1118 1316,-1194 1350,-1194 		"/>
	</g>
	<g>
		<polygon class="st20" points="1370,-1084 1380,-1194 1414,-1194 1404,-1118 1480,-1128 1480,-1094 		"/>
	</g>
	<g>
		<polygon class="st20" points="1370,-1074 1480,-1064 1480,-1030 1404,-1040 1414,-964 1380,-964 		"/>
	</g>
	<g>
		<polygon class="st20" points="1360,-1074 1350,-964 1316,-964 1326,-1040 1250,-1030 1250,-1064 		"/>
	</g>
	<circle class="st20" cx="1365" cy="-1079" r="5"/>
	<g>
		<polygon class="st20" points="1042,-1084 932,-1094 932,-1128 1008,-1118 998,-1194 1032,-1194 		"/>
	</g>
	<g>
		<polygon class="st20" points="1052,-1084 1062,-1194 1096,-1194 1086,-1118 1162,-1128 1162,-1094 		"/>
	</g>
	<g>
		<polygon class="st20" points="1052,-1074 1162,-1064 1162,-1030 1086,-1040 1096,-964 1062,-964 		"/>
	</g>
	<g>
		<polygon class="st20" points="1042,-1074 1032,-964 998,-964 1008,-1040 932,-1030 932,-1064 		"/>
	</g>
	<polygon class="st20" points="1047,-1132.1 1065.8,-1097.8 1100.1,-1079 1065.8,-1060.2 1047,-1025.9 1028.2,-1060.2 993.9,-1079 
		1028.2,-1097.8 	"/>
	<g>
		<polygon class="st20" points="1442.1,-1655.5 1393.1,-1704.7 1369,-1680.7 1409.8,-1634 1369,-1587.3 1393.1,-1563.3 
			1442.1,-1612.5 1428.4,-1634 		"/>
		<polygon class="st20" points="1541.7,-1760 1495,-1719.2 1448.3,-1760 1424.3,-1735.9 1473.5,-1686.9 1495,-1700.6 
			1516.5,-1686.9 1565.7,-1735.9 		"/>
		<polygon class="st20" points="1547.9,-1612.5 1596.9,-1563.3 1621,-1587.3 1580.2,-1634 1621,-1680.7 1596.9,-1704.7 
			1547.9,-1655.5 1561.6,-1634 		"/>
		<polygon class="st20" points="1473.5,-1581.1 1424.3,-1532.1 1448.3,-1508 1495,-1548.8 1541.7,-1508 1565.7,-1532.1 
			1516.5,-1581.1 1495,-1567.4 		"/>
	</g>
	<g>
		<path class="st38" d="M-119.8,127.2v18.5l55.3-27.4V99.8L-119.8,127.2z M-119.8,99.3v18.5l55.3-27.4V71.9L-119.8,99.3z M-64.5,44
			l-55.3,27.4v18.5l55.3-27.4V44z"/>
		<path class="st39" d="M-147.5,90.3v18.5l27.7,36.9v-18.5L-147.5,90.3z M-147.5,62.4v18.5l27.7,36.9V99.3L-147.5,62.4z
			 M-147.5,52.9l27.7,36.9V71.4l-27.7-36.9V52.9z"/>
	</g>
	<rect x="-200" y="-199.9" class="st25" width="180" height="180"/>
	<g>
		<path class="st26" d="M-119.8-72.8v18.5l55.3-27.4v-18.5L-119.8-72.8z M-119.8-100.7v18.5l55.3-27.4v-18.5L-119.8-100.7z
			 M-64.5-156l-55.3,27.4v18.5l55.3-27.4V-156z"/>
		<path class="st7" d="M-147.5-109.7v18.5l27.7,36.9v-18.5L-147.5-109.7z M-147.5-137.6v18.5l27.7,36.9v-18.5L-147.5-137.6z
			 M-147.5-147.1l27.7,36.9v-18.5l-27.7-36.9V-147.1z"/>
	</g>
	<path class="st40" d="M742.8,52.9h-75V71h75V52.9z M708.2,52.9L722,30h-68l13.8,22.9H708.2z M708.2,79.2h-40.3l-34.7,34.7V150
		h109.7v-36.1L708.2,79.2z"/>
	<rect x="600" y="-199.9" class="st27" width="180" height="180"/>
	<path class="st25" d="M742.8-147.1h-75v18.2h75V-147.1z M708.2-147.1L722-170h-68l13.8,22.9H708.2z M708.2-120.8h-40.3l-34.7,34.7
		V-50h109.7v-36.1L708.2-120.8z"/>
	<g>
		<defs>
			<rect id="SVGID_1_" x="68" y="272" width="180" height="180"/>
		</defs>
		<clipPath id="SVGID_2_">
			<use xlink:href="#SVGID_1_"  style="overflow:visible;"/>
		</clipPath>
		<g class="st41">
			<path class="st12" d="M217.4,476.1c19.7-10.1,37.1-25.2,49.9-45.1c38.9-60.4,21.5-140.8-38.9-179.7L158,360.5L217.4,476.1z"/>
			<path class="st14" d="M228.4,251.3c-18.6-12-40.4-19.5-64-20.6c-71.7-3.5-132.7,51.8-136.2,123.6l129.9,6.3L228.4,251.3z"/>
			<g>
				<path class="st14" d="M138.5,270.6c30.2,19.4,38.9,59.7,19.5,89.9c30.2,19.4,70.4,10.7,89.9-19.5c19.4-30.2,10.7-70.4-19.5-89.9
					C198.2,231.7,158,240.4,138.5,270.6L138.5,270.6L138.5,270.6z"/>
			</g>
			<path class="st13" d="M89.9,422.3c1.7-35.9,32.2-63.5,68.1-61.8c1.7-35.9-25.9-66.3-61.8-68.1c-35.9-1.7-66.3,25.9-68.1,61.8
				C26.4,390,54,420.5,89.9,422.3L89.9,422.3L89.9,422.3z"/>
			<g>
				<path class="st13" d="M28.2,354.2c-1.1,22.1,3.3,44.7,14.1,65.8c32.8,63.9,111.2,89,175.1,56.1L158,360.5L28.2,354.2z"/>
				<path class="st35" d="M217.5,476.1c6.6-3.4,12.7-7.4,18.5-11.7L217.5,476.1z"/>
			</g>
			<path class="st12" d="M217.5,476.1c31.9-16.4,44.5-55.6,28.1-87.5c-31.9,16.4-71.1,3.9-87.5-28.1c-31.9,16.4-44.5,55.6-28.1,87.5
				S185.5,492.5,217.5,476.1z"/>
		</g>
	</g>
	<g>
		<path class="st32" d="M90,361.9c12.1,0,24.5-3,35.7-9.5c34.2-19.7,45.9-63.4,26.2-97.6L90,290.5L90,361.9z"/>
		<path class="st33" d="M151.9,254.8c-6.1-10.5-14.8-19.7-26.1-26.2c-34.2-19.7-77.9-8-97.6,26.2L90,290.5L151.9,254.8z"/>
		<g>
			<path class="st33" d="M103.1,241.6c9.9,17.1,4,38.9-13.1,48.8c9.9,17.1,31.7,22.9,48.8,13.1c17.1-9.9,22.9-31.7,13.1-48.8
				C142,237.6,120.2,231.8,103.1,241.6L103.1,241.6L103.1,241.6z"/>
		</g>
		<path class="st34" d="M41.2,303.5c9.9-17.1,31.7-22.9,48.8-13.1c9.9-17.1,4-38.9-13.1-48.8c-17.1-9.9-38.9-4-48.8,13.1
			C18.2,271.8,24.1,293.7,41.2,303.5L41.2,303.5L41.2,303.5z"/>
		<g>
			<path class="st34" d="M28.2,254.7c-6.1,10.5-9.6,22.7-9.6,35.7c0,39.5,32,71.5,71.5,71.5v-71.5L28.2,254.7z"/>
			<path class="st35" d="M90,361.9c4.1,0,8.1-0.4,12-1.1L90,361.9z"/>
		</g>
		<path class="st32" d="M90,361.9c19.7,0,35.7-16,35.7-35.7c-19.7,0-35.7-16-35.7-35.7c-19.7,0-35.7,16-35.7,35.7
			C54.3,345.9,70.3,361.9,90,361.9z"/>
	</g>
</g>
<g id="Layer_1">
	<rect x="-1106" y="-40.7" class="st42" width="210.8" height="210.8"/>
	<rect x="-1435.4" y="120.6" class="st43" width="24" height="24"/>
	<rect x="-1363.4" y="144.6" class="st44" width="24" height="24"/>
	<rect x="-1339.4" y="144.6" class="st45" width="24" height="24"/>
	<rect x="-1315.4" y="144.6" class="st46" width="24" height="24"/>
	<rect x="-1363.4" y="168.6" class="st47" width="24" height="24"/>
	<rect x="-1012.6" y="17.1" class="st47" width="24" height="24"/>
	<rect x="-1339.4" y="168.6" class="st1" width="24" height="24"/>
	<rect x="-1315.4" y="168.6" class="st48" width="24" height="24"/>
	<rect x="32.6" y="442.6" class="st49" width="24" height="24"/>
	<rect x="56.6" y="442.6" class="st6" width="24" height="24"/>
	<rect x="80.6" y="442.6" class="st50" width="24" height="24"/>
	<rect x="-1411.4" y="120.6" class="st51" width="24" height="24"/>
	<rect x="-1387.4" y="120.6" class="st0" width="24" height="24"/>
	<rect x="-1339.4" y="120.6" class="st52" width="24" height="24"/>
	<rect x="-1315.4" y="120.6" class="st5" width="24" height="24"/>
	<g>
		<rect x="805" y="-397.4" class="st42" width="80" height="174"/>
		<rect x="809" y="-369.4" class="st5" width="24" height="24"/>
		<rect x="833" y="-369.4" class="st53" width="24" height="24"/>
		<rect x="809" y="-345.4" class="st4" width="24" height="24"/>
		<rect x="833" y="-345.4" class="st54" width="24" height="24"/>
		<rect x="857" y="-345.4" class="st55" width="24" height="24"/>
		<rect x="809" y="-321.4" class="st0" width="24" height="24"/>
		<rect x="833" y="-321.4" class="st56" width="24" height="24"/>
		<rect x="857" y="-321.4" class="st57" width="24" height="24"/>
		<rect x="809" y="-297.4" class="st1" width="24" height="24"/>
		<rect x="833" y="-297.4" class="st58" width="24" height="24"/>
		<rect x="809" y="-273.4" class="st2" width="24" height="24"/>
		<rect x="833" y="-273.4" class="st59" width="24" height="24"/>
		<rect x="809" y="-250.7" class="st6" width="24" height="24"/>
		<rect x="833" y="-250.7" class="st60" width="24" height="24"/>
		<rect x="857" y="-297.4" class="st61" width="24" height="24"/>
		<rect x="809" y="-393.4" class="st62" width="24" height="24"/>
	</g>
	<rect x="-1396" y="-210" class="st57" width="24" height="24"/>
	<rect x="-1196" y="-210" class="st61" width="24" height="24"/>
	<rect x="-1900" y="-210" class="st55" width="24" height="24"/>
	<rect x="-1596" y="-210" class="st63" width="24" height="24"/>
	<path class="st64" d="M63.9-709.6c0-17.8,10.6-29.7,55.8-32.1v37.9c-8.4,12-22.6,19.8-34.1,19.8C73.4-684,63.9-692.7,63.9-709.6
		 M121-686.4c0.4,5.1,1.3,11.2,3.1,17.2l24-3.8c-2.9-11.9-4-25-4-39V-769c0-31.4-16-47.7-46.1-47.7c-14.6,0-40.8,4-53.1,8.9
		l6.4,20.7c9.1-4.4,29-11.4,43-11.4c16.2,0,25.3,9.4,25.3,33.2v8c-61.3,2.9-81,22.6-81,49.1c0,24.7,16.9,39.5,40.5,39.5
		c18.2,0,33-8.9,41.2-17.6L121-686.4L121-686.4z"/>
	<path class="st65" d="M-100.2-793.3c-4,1.9-11.4,3-16,3c-12.4,0-20.9-6.7-20.9-22c0-10.4,1.9-14.8,5.3-19.1
		c4-1.9,10.9-2.9,15.5-2.9c12.7,0,21.6,6.6,21.6,22C-94.6-802-96.7-797.6-100.2-793.3L-100.2-793.3z M-62.9-833v-13.8
		c-15.9,2.1-33.5,1.5-53.3,1.5c-19,0-38.7,9.8-38.7,33.2c0,14.8,8.1,24.1,18.9,28.8c-2.5,5.3-7.9,9.8-17.9,17.5l7.9,17.8
		c5.8-0.4,18.3-1,30-1c22.2,0,32.9,2.1,32.9,16c0,5.3-1.4,11.9-3.7,18.4c-5.3,2.4-15.1,3.7-24.6,3.6c-18.9-0.6-29.7-6.7-29.7-17.6
		c0-4.8,2.2-8.6,4.7-12.5l-7.8-1c-4.8,3.7-12.4,10.2-12.4,20.4c0,13.7,12.4,24.7,39.7,24.7c31.3,0,50-16.6,50-39.5
		c0-22.1-17.9-28.4-46.9-28.4c-5,0-15.9,0.2-21.5,0.2l-0.6-0.6l9.3-14.9c3.4,0.6,6.8,1,10.3,1c19.4,0,39.5-9.7,39.5-32.8
		c0-8.8-4-15.5-10.8-20.2v-1.2L-62.9-833L-62.9-833z"/>
	<path class="st65" d="M-225.2-793.3c-4,1.9-11.4,3-16,3c-12.4,0-20.9-6.7-20.9-22c0-10.4,1.9-14.8,5.3-19.1
		c4-1.9,10.9-2.9,15.5-2.9c12.7,0,21.6,6.6,21.6,22C-219.6-802-221.7-797.6-225.2-793.3L-225.2-793.3z M-187.9-833v-13.8
		c-15.9,2.1-33.5,1.5-53.3,1.5c-19,0-38.7,9.8-38.7,33.2c0,14.8,8.1,24.1,18.9,28.8c-2.5,5.3-7.9,9.8-17.9,17.5l7.9,17.8
		c5.8-0.4,18.3-1,30-1c22.2,0,32.9,2.1,32.9,16c0,5.3-1.4,11.9-3.7,18.4c-5.3,2.4-15.1,3.7-24.6,3.6c-18.9-0.6-29.7-6.7-29.7-17.6
		c0-4.8,2.2-8.6,4.7-12.5l-7.8-1c-4.8,3.7-12.4,10.2-12.4,20.4c0,13.7,12.4,24.7,39.7,24.7c31.3,0,50-16.6,50-39.5
		c0-22.1-17.9-28.4-46.9-28.4c-5,0-15.9,0.2-21.5,0.2l-0.6-0.6l9.3-14.9c3.4,0.6,6.8,1,10.3,1c19.4,0,39.5-9.7,39.5-32.8
		c0-8.8-4-15.5-10.8-20.2v-1.2L-187.9-833L-187.9-833z"/>
	<path class="st54" d="M-1496.2-107.3c-4,1.9-11.4,3-16,3c-12.4,0-20.9-6.7-20.9-22c0-10.4,1.9-14.8,5.3-19.1
		c4-1.9,10.9-2.9,15.5-2.9c12.7,0,21.6,6.6,21.6,22C-1490.6-116-1492.7-111.6-1496.2-107.3L-1496.2-107.3z M-1458.9-147v-13.8
		c-15.9,2.1-33.5,1.5-53.3,1.5c-19,0-38.7,9.8-38.7,33.2c0,14.8,8.1,24.1,18.9,28.8c-2.5,5.3-7.9,9.8-17.9,17.5l7.9,17.8
		c5.8-0.4,18.3-1,30-1c22.2,0,32.9,2.1,32.9,16c0,5.3-1.4,11.9-3.7,18.4c-5.3,2.4-15.1,3.7-24.6,3.6c-18.9-0.6-29.7-6.7-29.7-17.6
		c0-4.8,2.2-8.6,4.7-12.5l-7.8-1c-4.8,3.7-12.4,10.2-12.4,20.4c0,13.7,12.4,24.7,39.7,24.7c31.3,0,50-16.6,50-39.5
		c0-22.1-17.9-28.4-46.9-28.4c-5,0-15.9,0.2-21.5,0.2l-0.6-0.6l9.3-14.9c3.4,0.6,6.8,1,10.3,1c19.4,0,39.5-9.7,39.5-32.8
		c0-8.8-4-15.5-10.8-20.2v-1.2L-1458.9-147L-1458.9-147z"/>
	<text transform="matrix(1 0 0 1 -1562.5 53.945)" class="st65" style="font-family:'Runa-Regular'; font-size:60px;">abcdefgh</text>
	<text transform="matrix(1 0 0 1 -988.5 -148.055)" class="st65" style="font-family:'AktivoPoster-02Book'; font-size:60px;">s</text>
	<g>
		<path class="st40" d="M332.1-310v37.8l-7.6,14.7l-16.4,6.9h-42l-18.3-21.4l14.9-9.5l14.1,16.6h30.9l6.3-9v-26.9l-6.1-4.6h-35.5
			l-11.6,2.5l-8-17.4v-38.9l7.6-6.1l10.7-5.3h43.9l12.4,3.6l4.2,12.6l-12.8,4.4l-3.8-6.7h-39.3l-5.5,1.9l0.6,38l10.7-1.9h39.5
			L332.1-310"/>
	</g>
	<g>
		<path class="st31" d="M-2054.9-11v37.8l-7.6,14.7l-16.4,6.9h-42l-18.3-21.4l14.9-9.5l14.1,16.6h30.9l6.3-9V-1.7l-6.1-4.6h-35.5
			l-11.6,2.5l-8-17.4v-38.9l7.6-6.1l10.7-5.3h43.9l12.4,3.6l4.2,12.6l-12.8,4.4l-3.8-6.7h-39.3l-5.5,1.9l0.6,38l10.7-1.9h39.5
			L-2054.9-11"/>
	</g>
	<g>
		<path class="st66" d="M-852.1-704.3l-6.2,2.1l0.7,43.1l12.1-2.1h44.8l12.4,9.8v42.9l-8.6,16.7l-18.6,7.9H-863l-20.7-24.3
			l16.9-10.7l16,18.8h35l7.1-10.2v-30.5l-6.9-5.2h-40.3l-13.1,2.9l-9.1-19.8v-44.1l8.6-6.9l12.1-6h49.8l14,4.1l4.8,14.3l-14.5,5
			l-4.3-7.6H-852.1z"/>
	</g>
	<text transform="matrix(1 0 0 1 -743.5 -26.055)" class="st65" style="font-family:'Fokuso-Ymirsson4'; font-size:60px;">A</text>
	<path class="st67" d="M-100.2-1269.3c-4,1.9-11.4,3-16,3c-12.4,0-20.9-6.7-20.9-22c0-10.4,1.9-14.8,5.3-19.1
		c4-1.9,10.9-2.9,15.5-2.9c12.7,0,21.6,6.6,21.6,22C-94.6-1278-96.7-1273.6-100.2-1269.3L-100.2-1269.3z M-62.9-1309v-13.8
		c-15.9,2.1-33.5,1.5-53.3,1.5c-19,0-38.7,9.8-38.7,33.2c0,14.8,8.1,24.1,18.9,28.8c-2.5,5.3-7.9,9.8-17.9,17.5l7.9,17.8
		c5.8-0.4,18.3-1,30-1c22.2,0,32.9,2.1,32.9,16c0,5.3-1.4,11.9-3.7,18.4c-5.3,2.4-15.1,3.7-24.6,3.6c-18.9-0.6-29.7-6.7-29.7-17.6
		c0-4.8,2.2-8.6,4.7-12.5l-7.8-1c-4.8,3.7-12.4,10.2-12.4,20.4c0,13.7,12.4,24.7,39.7,24.7c31.3,0,50-16.6,50-39.5
		c0-22.1-17.9-28.4-46.9-28.4c-5,0-15.9,0.2-21.5,0.2l-0.6-0.6l9.3-14.9c3.4,0.6,6.8,1,10.3,1c19.4,0,39.5-9.7,39.5-32.8
		c0-8.8-4-15.5-10.8-20.2v-1.2L-62.9-1309L-62.9-1309z"/>
	<path class="st64" d="M357.4-1219.8v-41.1c0-20.9-12.3-30.1-27.3-30.1c-15.7,0-25.5,9.8-30.3,17.5h-2.5
		c-3.9-12-13.9-17.5-25.4-17.5c-15.7,0-25.5,9.8-30.3,17.5h-0.7v-16.5c-6.9,0.5-18,1.2-33.3,1.9v5.5c15.4,0.5,16.6,1.2,16.6,9.9
		v52.9c0,8.3-1.3,9.2-15.5,9.2v5.5h47.6v-5.5c-14.2,0-15.5-0.9-15.5-9.2v-32.2c0-3.8,0.1-8.2,2.3-13.4c4.2-9.8,14.3-19.8,24.7-19.8
		c10.5,0,14.6,10.2,14.6,25.1v40.3c0,8.3-1.3,9.2-15.5,9.2v5.5h47.6v-5.5c-14.2,0-15.5-0.9-15.5-9.2v-32.2c0-3.8,0.1-8.2,2.3-13.4
		c4.2-9.8,14.3-19.8,24.7-19.8c10.5,0,14.6,10.2,14.6,25.1v40.3c0,8.3-1.3,9.2-15.5,9.2v5.5h47.6v-5.5
		C358.6-1210.5,357.3-1211.5,357.4-1219.8L357.4-1219.8z"/>
	<path class="st68" d="M-310.4-1302.9c16.1,0,31.6,7.3,31.6,28.7c0,2.9-0.3,5.8-0.6,9.3l-69.5,1.6
		C-345.8-1289.7-331.9-1302.9-310.4-1302.9L-310.4-1302.9z M-349.7-1245.6c14.8-0.2,71.3-1.6,88.8-1.6c1.6-9.7,2.6-18.9,2.6-26.4
		c0-34.2-23-48-50-48c-38.3,0-63.7,29.3-63.7,75.7c0,49.5,27.4,71.5,61.4,71.5c19.5,0,40.7-7.7,51.1-14.7v-22.7
		c-13.8,11-31.3,17.4-46.7,17.4C-334.2-1194.3-348.5-1213.8-349.7-1245.6L-349.7-1245.6z"/>
	<path class="st69" d="M763.2-1211.2c-4.6,0-7.2-2.4-7.2-7v-58.9c0-16.1-8.9-25.2-24.8-25.2h-49.1v17.6H696v73.5h-13.9v17.6h47.2
		v-17.6h-13.7v-73.5h8.3c8.1,0,12.6,5,12.6,13v60.5c0,11.1,6.7,17.6,17.8,17.6h15.6v-17.6H763.2z M644-1211.2
		c-8.5,0-12.4-4.6-12.4-13.1c0-8.5,3.9-13.1,12.4-13.1h11.3v26.1H644z M674.9-1211.2v-68.7c0-13.3-8.9-22.4-22.1-22.4h-35.4v17.6
		h25.2c8.3,0,12.8,5,12.8,13.1v16.5h-13.9c-19.1,0-29.3,11.7-29.3,30.9c0,19.1,10.4,30.6,29.3,30.6h47.4v-17.6H674.9z"/>
	<path class="st70" d="M762.2-273.2c-4.6,0-7.2-2.4-7.2-7v-58.9c0-16.1-8.9-25.2-24.8-25.2h-49.1v17.6H695v73.5h-13.9v17.6h47.2
		v-17.6h-13.7v-73.5h8.3c8.1,0,12.6,5,12.6,13v60.5c0,11.1,6.7,17.6,17.8,17.6h15.6v-17.6H762.2z M643-273.2
		c-8.5,0-12.4-4.6-12.4-13.1c0-8.5,3.9-13.1,12.4-13.1h11.3v26.1H643z M673.9-273.2V-342c0-13.3-8.9-22.4-22.1-22.4h-35.4v17.6h25.2
		c8.3,0,12.8,5,12.8,13.1v16.5h-13.9c-19.1,0-29.3,11.7-29.3,30.9c0,19.1,10.4,30.6,29.3,30.6h47.4v-17.6H673.9z"/>
	<g>
		<defs>
			<rect id="SVGID_3_" x="446.1" y="-1321" width="80.7" height="146"/>
		</defs>
		<clipPath id="SVGID_4_">
			<use xlink:href="#SVGID_3_"  style="overflow:visible;"/>
		</clipPath>
		<path class="st71" d="M521-1317c-10.3-1.8-20.4-4-34.7-4c-24.6,0-40.3,16.5-40.3,31.9c0,18.8,23.2,33.3,39.3,45.6
			c12.5,9.5,26,20.6,26,37.3c0,13.3-8.9,26.2-25.2,26.2c-17.5,0-30.2-14.5-36.3-31.3h-2.4v31.7c10.9,1.8,27.4,4.6,38.7,4.6
			c25.4,0,40.7-16.9,40.7-35.3c0-20.2-16.9-33.1-31.7-44.2c-13.9-10.5-33.5-23.8-33.5-39.1c0-11.9,11.7-22.4,24.8-22.4
			c13.9,0,25.6,10.9,33.5,28.8h1.2V-1317z"/>
	</g>
	<g>
		<path class="st64" d="M63.4-1174.3c-16.1,0-28.3-5.6-28.3-28.4v-24.1c0-12,5.6-16.5,16.7-19.8l66.1-20.2v-13.5
			c0-17.6-4.3-22.8-17-22.8h-9c-14.2,0-27.5,2.4-26.2,18.3H42.1c-3-34.8,33.5-37.1,50.5-37.1h11c29.4,0,39.3,10.9,39.3,37.1v80.9
			c0,8,6.2,11.2,13.9,11.2l-6.4,18.7c-15.2,0-29.6-4.7-32.6-20.2h-0.4c-9.7,16.1-27.5,20-44.7,20H63.4z M117.9-1212.8v-34.2
			l-57.3,17.8v19.7c0,13.3,4.5,15.7,14.4,15.7h3.7C92.8-1193.9,107.6-1199.2,117.9-1212.8z"/>
	</g>
	<g>
		<path class="st56" d="M-1297.3-71.4c-3,0-5.2-1-5.2-5.3v-4.5c0-2.2,1-3.1,3.1-3.7l12.3-3.8v-2.5c0-3.3-0.8-4.2-3.2-4.2h-1.7
			c-2.6,0-5.1,0.5-4.9,3.4h-4.4c-0.6-6.5,6.2-6.9,9.4-6.9h2c5.5,0,7.3,2,7.3,6.9v15c0,1.5,1.1,2.1,2.6,2.1l-1.2,3.5
			c-2.8,0-5.5-0.9-6-3.8h-0.1c-1.8,3-5.1,3.7-8.3,3.7H-1297.3z M-1287.2-78.6v-6.4l-10.6,3.3v3.6c0,2.5,0.8,2.9,2.7,2.9h0.7
			C-1291.8-75.1-1289.1-76-1287.2-78.6z"/>
	</g>
	<text transform="matrix(1 0 0 1 -1923.5 -33.0557)" class="st63" style="font-family:'Runa-Italic'; font-size:60px;">abcdefgh</text>
	<rect id="XMLID_30_" x="377" y="-756" class="st72" width="64" height="64"/>
	<rect id="XMLID_29_" x="561" y="-836" class="st73" width="64" height="64"/>
	<rect id="XMLID_28_" x="472" y="-888" class="st74" width="64" height="64"/>
	<rect id="XMLID_26_" x="380" y="-810" class="st40" width="64" height="64"/>
	<rect id="XMLID_25_" x="404" y="-721" class="st30" width="64" height="64"/>
	<rect id="XMLID_24_" x="534" y="-716" class="st75" width="64" height="64"/>
	<path class="st31" d="M-307.3-359.9c20.5-0.2,39.6,6.2,38.1,40l0,0.4l-82.6,9.2l0-1.3C-352-344.3-333.9-359.7-307.3-359.9
		 M-307.6-260c-22.7,0.2-41-12.8-43.9-40.6l94.8-10.4l-1.8-8c2.7-42-22.2-51.3-48.8-51.1c-33.4,0.3-56,19.2-55.7,61.1
		c0.3,41,24.1,59.1,56.2,58.9c20.7-0.2,36.8-6.8,48.4-22.8l-7.3-7.4C-275-265.9-292-260.1-307.6-260"/>
	<g>
		<path class="st39" d="M100.6-370c23.8,0,31.9,8.8,31.9,30.1v65.6c0,6.5,5,9.1,11.2,9.1l-5.2,15.2c-12.3,0-24-3.8-26.4-16.4h-0.3
			c-7.9,13.1-22.3,16.3-36.3,16.3H68c-13.1,0-22.9-4.6-22.9-23.1v-19.6c0-9.7,4.6-13.4,13.5-16.1l53.6-16.4v-10.9
			c0-14.3-3.5-18.5-13.8-18.5h-7.3c-11.5,0-22.3,2-21.3,14.9H50.7c-2.4-28.3,27.2-30.1,41-30.1H100.6z M80.4-266.1
			c11.4,0,23.4-4.3,31.7-15.3v-27.8l-46.5,14.4v15.9c0,10.8,3.6,12.8,11.7,12.8H80.4z"/>
	</g>
	<path class="st30" d="M-49-329.7v-17.4h-33.5v-34.3h-18.6v34.3h-16.4v17.4h16.4v51.5c0,19.5,11.1,27.5,27.5,27.5
		c9.6,0,18.1-2.7,24.7-6.3v-18.1c-6.1,4-14.7,7.1-21.9,7.1c-5.5,0-11.7-1.9-11.7-13.5v-48.1H-49z M-111.1-329.7v-17.4h-60.1v95.4
		h18.6v-78H-111.1z"/>
	<path class="st76" d="M-557,394.3v-17.4h-33.5v-34.3h-18.6v34.3h-16.4v17.4h16.4v51.5c0,19.5,11.1,27.5,27.5,27.5
		c9.6,0,18.1-2.7,24.7-6.3v-18.1c-6.1,4-14.7,7.1-21.9,7.1c-5.5,0-11.7-1.9-11.7-13.5v-48.1H-557z M-619.1,394.3v-17.4h-60.1v95.4
		h18.6v-78H-619.1z"/>
	<path class="st74" d="M-569-329.7v-17.4h-33.5v-34.3h-18.6v34.3h-16.4v17.4h16.4v51.5c0,19.5,11.1,27.5,27.5,27.5
		c9.6,0,18.1-2.7,24.7-6.3v-18.1c-6.1,4-14.7,7.1-21.9,7.1c-5.5,0-11.7-1.9-11.7-13.5v-48.1H-569z M-631.1-329.7v-17.4h-60.1v95.4
		h18.6v-78H-631.1z"/>
	<g>
		<path class="st75" d="M1433.4-240h-17l-13-29.5v-35.7h-60.5l0.3,46.8l8.2,5.7h5.2l18.5-0.5l0.5,5.2l-3.7,8h-34l-6.5-4.2l-4.5-11
			V-287l1.2-29.2l18.8-2.5h56.5v-37.5l-3.3-5.3l-6-5l-45.5,0.2l-19.5,3.3v-12.3l15-4.7h61.3l4.5,5l8.5,16.7v82L1433.4-240z"/>
	</g>
	<g>
		<path class="st72" d="M-544.4-612.8v34.4h-17.2v-34.4H-544.4z M-492.8-664.4v86H-510v-86H-492.8z"/>
	</g>
	<g>
		<path class="st77" d="M273.9-2966.3l-6.2,2.1l0.7,43.1l12.1-2.1h44.8l12.4,9.8v42.9l-8.6,16.7l-18.6,7.9H263l-20.7-24.3l16.9-10.7
			l16,18.8h35l7.1-10.2v-30.5l-6.9-5.2h-40.3l-13.1,2.9l-9.1-19.8v-44.1l8.6-6.9l12.1-6h49.8l14,4.1l4.8,14.3l-14.5,5l-4.3-7.6
			H273.9z"/>
	</g>
	<path class="st77" d="M562.2-2877.2c-4.6,0-7.2-2.4-7.2-7v-58.9c0-16.1-8.9-25.2-24.8-25.2h-49.1v17.6H495v73.5h-13.9v17.6h47.2
		v-17.6h-13.7v-73.5h8.3c8.1,0,12.6,5,12.6,13v60.5c0,11.1,6.7,17.6,17.8,17.6h15.6v-17.6H562.2z M443-2877.2
		c-8.5,0-12.4-4.6-12.4-13.1c0-8.5,3.9-13.1,12.4-13.1h11.3v26.1H443z M473.9-2877.2v-68.7c0-13.3-8.9-22.4-22.1-22.4h-35.4v17.6
		h25.2c8.3,0,12.8,5,12.8,13.1v16.5h-13.9c-19.1,0-29.3,11.7-29.3,30.9c0,19.1,10.4,30.6,29.3,30.6h47.4v-17.6H473.9z"/>
	<g>
		<path class="st78" d="M102.1-2988c29.4,0,39.3,10.9,39.3,37.1v80.9c0,8.1,6.2,11.2,13.9,11.2l-6.4,18.7
			c-15.2,0-29.6-4.7-32.6-20.2H116c-9.7,16.1-27.5,20-44.8,20h-9.4c-16.1,0-28.3-5.6-28.3-28.5v-24.2c0-12,5.6-16.5,16.7-19.9
			l66.1-20.2v-13.5c0-17.6-4.3-22.9-17-22.9h-9c-14.2,0-27.5,2.4-26.2,18.4H40.5c-3-34.8,33.5-37.1,50.6-37.1H102.1z M77.2-2859.9
			c14.1,0,28.9-5.2,39.2-18.9v-34.3L59-2895.3v19.7c0,13.3,4.5,15.7,14.4,15.7H77.2z"/>
	</g>
	<path class="st67" d="M-49-2933.7v-17.4h-33.5v-34.3h-18.6v34.3h-16.4v17.4h16.4v51.5c0,19.5,11.1,27.5,27.5,27.5
		c9.6,0,18.1-2.7,24.7-6.3v-18.1c-6.1,4-14.7,7.1-21.9,7.1c-5.5,0-11.7-1.9-11.7-13.5v-48.1H-49z M-111.1-2933.7v-17.4h-60.1v95.4
		h18.6v-78H-111.1z"/>
	<g>
		<path class="st78" d="M763.3-2848h-22.9v-111.4h-18.4v111.4H658v-111.4l-18.4,0.1v111.3h-22.9v-131.9l41.3-0.1h22.9v111.4h18.5
			V-2980h64V-2848z"/>
	</g>
	<path class="st79" d="M-306.7-2975.6c25.3-0.2,48.8,7.7,46.9,49.3l0,0.5l-101.9,11.4l0-1.7
		C-361.9-2956.2-339.5-2975.3-306.7-2975.6 M-307-2852.3c-28.1,0.2-50.5-15.8-54.1-50l116.9-12.8l-2.3-9.9
		c3.3-51.7-27.4-63.3-60.2-63c-41.3,0.3-69.1,23.6-68.7,75.3c0.4,50.6,29.7,73,69.3,72.7c25.5-0.2,45.4-8.4,59.7-28.1l-9.1-9.1
		C-266.9-2859.6-287.8-2852.5-307-2852.3"/>
	<g>
		<path class="st80" d="M273.9-1955.3l-6.2,2.1l0.7,43.1l12.1-2.1h44.8l12.4,9.8v42.9l-8.6,16.7l-18.6,7.9H263l-20.7-24.3l16.9-10.7
			l16,18.8h35l7.1-10.2v-30.5l-6.9-5.2h-40.3l-13.1,2.9l-9.1-19.8v-44.1l8.6-6.9l12.1-6h49.8l14,4.1l4.8,14.3l-14.5,5l-4.3-7.6
			H273.9z"/>
	</g>
	<path class="st77" d="M562.2-1866.2c-4.6,0-7.2-2.4-7.2-7v-58.9c0-16.1-8.9-25.2-24.8-25.2h-49.1v17.6H495v73.5h-13.9v17.6h47.2
		v-17.6h-13.7v-73.5h8.3c8.1,0,12.6,5,12.6,13v60.5c0,11.1,6.7,17.6,17.8,17.6h15.6v-17.6H562.2z M443-1866.2
		c-8.5,0-12.4-4.6-12.4-13.1c0-8.5,3.9-13.1,12.4-13.1h11.3v26.1H443z M473.9-1866.2v-68.7c0-13.3-8.9-22.4-22.1-22.4h-35.4v17.6
		h25.2c8.3,0,12.8,5,12.8,13.1v16.5h-13.9c-19.1,0-29.3,11.7-29.3,30.9c0,19.1,10.4,30.6,29.3,30.6h47.4v-17.6H473.9z"/>
	<g>
		<path class="st78" d="M102.1-1977c29.4,0,39.3,10.9,39.3,37.1v80.9c0,8.1,6.2,11.2,13.9,11.2l-6.4,18.7
			c-15.2,0-29.6-4.7-32.6-20.2H116c-9.7,16.1-27.5,20-44.8,20h-9.4c-16.1,0-28.3-5.6-28.3-28.5v-24.2c0-12,5.6-16.5,16.7-19.9
			l66.1-20.2v-13.5c0-17.6-4.3-22.9-17-22.9h-9c-14.2,0-27.5,2.4-26.2,18.4H40.5c-3-34.8,33.5-37.1,50.6-37.1H102.1z M77.2-1848.9
			c14.1,0,28.9-5.2,39.2-18.9v-34.3L59-1884.3v19.7c0,13.3,4.5,15.7,14.4,15.7H77.2z"/>
	</g>
	<path class="st67" d="M-49-1922.7v-17.4h-33.5v-34.3h-18.6v34.3h-16.4v17.4h16.4v51.5c0,19.5,11.1,27.5,27.5,27.5
		c9.6,0,18.1-2.7,24.7-6.3v-18.1c-6.1,4-14.7,7.1-21.9,7.1c-5.5,0-11.7-1.9-11.7-13.5v-48.1H-49z M-111.1-1922.7v-17.4h-60.1v95.4
		h18.6v-78H-111.1z"/>
	<g>
		<path class="st81" d="M763.3-1837h-22.9v-111.4h-18.4v111.4H658v-111.4l-18.4,0.1v111.3h-22.9v-131.9l41.3-0.1h22.9v111.4h18.5
			V-1969h64V-1837z"/>
	</g>
	<path class="st79" d="M-306.7-1964.6c25.3-0.2,48.8,7.7,46.9,49.3l0,0.5l-101.9,11.4l0-1.7
		C-361.9-1945.2-339.5-1964.3-306.7-1964.6 M-307-1841.3c-28.1,0.2-50.5-15.8-54.1-50l116.9-12.8l-2.3-9.9
		c3.3-51.7-27.4-63.3-60.2-63c-41.3,0.3-69.1,23.6-68.7,75.3c0.4,50.6,29.7,73,69.3,72.7c25.5-0.2,45.4-8.4,59.7-28.1l-9.1-9.1
		C-266.9-1848.6-287.8-1841.5-307-1841.3"/>
	<path class="st82" d="M-49-1483.7v-17.4h-33.5v-34.3h-18.6v34.3h-16.4v17.4h16.4v51.5c0,19.5,11.1,27.5,27.5,27.5
		c9.6,0,18.1-2.7,24.7-6.3v-18.1c-6.1,4-14.7,7.1-21.9,7.1c-5.5,0-11.7-1.9-11.7-13.5v-48.1H-49z M-111.1-1483.7v-17.4h-60.1v95.4
		h18.6v-78H-111.1z"/>
	<g>
		<path class="st83" d="M1433.4-440h-17l-13-29.5v-35.7h-60.5l0.3,46.8l8.2,5.7h5.2l18.5-0.5l0.5,5.2l-3.7,8h-34l-6.5-4.2l-4.5-11
			V-487l1.2-29.2l18.8-2.5h56.5v-37.5l-3.3-5.3l-6-5l-45.5,0.2l-19.5,3.3v-12.3l15-4.7h61.3l4.5,5l8.5,16.7v82L1433.4-440z"/>
	</g>
	<g>
		<path class="st72" d="M1039.2-384v17.2l-77.4,62V-322L1039.2-384z M1032.9-344.4l6.4-5.2v91.2H1022v-25.8L961.8-236v-17.2l8.6-6.9
			v-17.2l-8.6,6.9v-17.2l60.2-48.2v-8.6H1032.9z M1022-318.6l-34.4,27.5v17.2l34.4-27.5V-318.6z"/>
	</g>
	<g>
		<path class="st84" d="M1039.2-584v17.2l-77.4,62V-522L1039.2-584z M1032.9-544.4l6.4-5.2v91.2H1022v-25.8L961.8-436v-17.2l8.6-6.9
			v-17.2l-8.6,6.9v-17.2l60.2-48.2v-8.6H1032.9z M1022-518.6l-34.4,27.5v17.2l34.4-27.5V-518.6z"/>
	</g>
	<g>
		<path class="st84" d="M-544.4-812.8v34.4h-17.2v-34.4H-544.4z M-492.8-864.4v86H-510v-86H-492.8z"/>
	</g>
	<g>
		<path class="st76" d="M556.6-250h-20.8v-101.3h-16.7V-250h-58.3v-101.3l-16.7,0.1V-250h-20.8v-119.9l37.5-0.1h20.8v101.2h16.8
			V-370h58.2V-250z"/>
	</g>
	<g>
		<path class="st20" d="M275.8-556.6l-5.5,1.9l0.6,38l10.7-1.9h39.5l10.9,8.6v37.8l-7.6,14.7l-16.4,6.9h-42l-18.3-21.4l14.9-9.5
			l14.1,16.6h30.9l6.3-9v-26.9l-6.1-4.6h-35.5l-11.6,2.5l-8-17.4v-38.9l7.6-6.1l10.7-5.3h43.9l12.4,3.6l4.2,12.6l-12.8,4.4l-3.8-6.7
			H275.8z"/>
	</g>
	<path class="st26" d="M762.2-473.2c-4.6,0-7.2-2.4-7.2-7v-58.9c0-16.1-8.9-25.2-24.8-25.2h-49.1v17.6H695v73.5h-13.9v17.6h47.2
		v-17.6h-13.7v-73.5h8.3c8.1,0,12.6,5,12.6,13v60.5c0,11.1,6.7,17.6,17.8,17.6h15.6v-17.6H762.2z M643-473.2
		c-8.5,0-12.4-4.6-12.4-13.1c0-8.5,3.9-13.1,12.4-13.1h11.3v26.1H643z M673.9-473.2V-542c0-13.3-8.9-22.4-22.1-22.4h-35.4v17.6h25.2
		c8.3,0,12.8,5,12.8,13.1v16.5h-13.9c-19.1,0-29.3,11.7-29.3,30.9c0,19.1,10.4,30.6,29.3,30.6h47.4v-17.6H673.9z"/>
	<path class="st25" d="M-307.3-559.9c20.5-0.2,39.6,6.2,38.1,40l0,0.4l-82.6,9.2l0-1.3C-352-544.3-333.9-559.7-307.3-559.9
		 M-307.6-460c-22.7,0.2-41-12.8-43.9-40.6l94.8-10.4l-1.8-8c2.7-42-22.2-51.3-48.8-51.1c-33.4,0.3-56,19.2-55.7,61.1
		c0.3,41,24.1,59.1,56.2,58.9c20.7-0.2,36.8-6.8,48.4-22.8l-7.3-7.4C-275-465.9-292-460.1-307.6-460"/>
	<g>
		<path class="st7" d="M100.6-570c23.8,0,31.9,8.8,31.9,30.1v65.6c0,6.5,5,9.1,11.2,9.1l-5.2,15.2c-12.3,0-24-3.8-26.4-16.4h-0.3
			c-7.9,13.1-22.3,16.3-36.3,16.3H68c-13.1,0-22.9-4.6-22.9-23.1v-19.6c0-9.7,4.6-13.4,13.5-16.1l53.6-16.4v-10.9
			c0-14.3-3.5-18.5-13.8-18.5h-7.3c-11.5,0-22.3,2-21.3,14.9H50.7c-2.4-28.3,27.2-30.1,41-30.1H100.6z M80.4-466.1
			c11.4,0,23.4-4.3,31.7-15.3v-27.8l-46.5,14.4v15.9c0,10.8,3.6,12.8,11.7,12.8H80.4z"/>
	</g>
	<path class="st20" d="M-49-529.7v-17.4h-33.5v-34.3h-18.6v34.3h-16.4v17.4h16.4v51.5c0,19.5,11.1,27.5,27.5,27.5
		c9.6,0,18.1-2.7,24.7-6.3v-18.1c-6.1,4-14.7,7.1-21.9,7.1c-5.5,0-11.7-1.9-11.7-13.5v-48.1H-49z M-111.1-529.7v-17.4h-60.1v95.4
		h18.6v-78H-111.1z"/>
	<g>
		<path class="st25" d="M556.6-450h-20.8v-101.3h-16.7V-450h-58.3v-101.3l-16.7,0.1V-450h-20.8v-119.9l37.5-0.1h20.8v101.2h16.8
			V-570h58.2V-450z"/>
	</g>
	<rect x="-200" y="-256" class="st29" width="180" height="36"/>
	<g>
		<path class="st62" d="M-177-242.8h-6.7v4.5h6.7v3h-6.7v6.1h-3.2v-16.7h9.9V-242.8z"/>
		<path class="st62" d="M-169.4-237.2c-1.2,0-2,0.1-2.7,0.2l-0.6,0.1v7.8h-3v-11.1h3v1.3h0.1l0.6-0.4c0.8-0.6,1.9-0.9,3.6-0.9h0.1
			v3.1H-169.4z"/>
		<path class="st62" d="M-156.9-233.6h-7.7c0.4,1.5,1.6,2.3,3.6,2.3c1.3,0,2.6-0.3,3.4-0.5v2.3c-0.9,0.4-2.3,0.8-3.9,0.8
			c-3.8,0-5.9-2.4-5.9-6c0-3.6,2.2-6,5.7-6c3.2,0,4.8,1.9,4.8,5.4V-233.6z M-164.6-236h4.9v-0.3c0-1.4-1.1-1.7-2.1-1.7
			C-163.1-238.1-164.2-237.5-164.6-236z"/>
		<path class="st62" d="M-144.8-233.6h-7.7c0.4,1.5,1.6,2.3,3.6,2.3c1.3,0,2.6-0.3,3.4-0.5v2.3c-0.9,0.4-2.3,0.8-3.9,0.8
			c-3.8,0-5.9-2.4-5.9-6c0-3.6,2.2-6,5.7-6c3.2,0,4.8,1.9,4.8,5.4V-233.6z M-152.5-236h4.9v-0.3c0-1.4-1.1-1.7-2.1-1.7
			C-151-238.1-152.1-237.5-152.5-236z"/>
		<path class="st62" d="M-138-245.8h5.1c6.3,0,9.2,3.4,9.2,8.3c0,5.1-3.1,8.3-9.4,8.3h-4.9V-245.8z M-133.7-232.2
			c4.4,0,6.6-2.1,6.6-5.3c0-3.3-2.2-5.3-6.6-5.3h-1.2v10.6H-133.7z"/>
		<path class="st62" d="M-110.2-234.7c0,3.6-2.2,5.8-6.1,5.8c-3.9,0-6.1-2.2-6.1-5.8c0-3.6,2.2-5.8,6.1-5.8
			C-112.4-240.5-110.2-238.3-110.2-234.7z M-119.2-234.7c0,1.8,1.1,3,2.9,3s2.9-1.2,2.9-3s-1.1-3-2.9-3S-119.2-236.5-119.2-234.7z"
			/>
		<path class="st62" d="M-106.8-240.2l2.6,5.8h0.1l3.6-6.1l3.5,6.1h0.1l3-5.8h3.2l-5.9,11.9l-3.9-6.9h-0.1l-4,6.9l-5.6-11.9H-106.8z
			"/>
		<path class="st62" d="M-86.3-229.1h-3v-11.1h3v1.3h0.1l0.4-0.4c0.7-0.7,1.6-1.1,3.1-1.1c2.4,0,4,1.3,4,3.8v7.6h-3v-6.9
			c0-1.1-0.3-1.5-1.8-1.5c-0.8,0-1.5,0.1-2.3,0.5l-0.3,0.1V-229.1z"/>
		<path class="st62" d="M-73-247.6v18.5h-3v-18.5H-73z"/>
		<path class="st62" d="M-58.6-234.7c0,3.6-2.2,5.8-6.1,5.8c-3.9,0-6.1-2.2-6.1-5.8c0-3.6,2.2-5.8,6.1-5.8
			C-60.9-240.5-58.6-238.3-58.6-234.7z M-67.6-234.7c0,1.8,1.1,3,2.9,3c1.9,0,2.9-1.2,2.9-3s-1.1-3-2.9-3
			C-66.6-237.6-67.6-236.5-67.6-234.7z"/>
		<path class="st62" d="M-53.3-235.8l3.4-0.3v-0.4c0-0.9-1-1.5-2.7-1.5c-1.2,0-2.5,0.3-3.6,0.8v-2.7c1.1-0.4,2.5-0.7,3.9-0.7
			c2.6,0,5.3,1.1,5.3,3.8v7.6H-50v-0.9H-50l-0.5,0.3c-0.9,0.5-1.9,0.8-2.8,0.8c-2.1,0-3.7-1.4-3.7-3.7
			C-57-234.2-56.3-235.5-53.3-235.8z M-52.3-231.4c0.5,0,1.1-0.1,1.7-0.3l0.6-0.2v-2l-2.7,0.3c-0.8,0.1-1.1,0.5-1.1,1.1
			C-53.8-231.8-53.2-231.4-52.3-231.4z"/>
		<path class="st62" d="M-39.7-240.3c1.1,0,2,0.2,2.9,0.7l0.5,0.2h0.1v-8.2h3v18.5h-3v-1.3h-0.1l-0.5,0.4c-0.8,0.6-2,0.9-3.2,0.9
			c-3.1,0-5-2.1-5-5.6C-45-238.3-42.9-240.3-39.7-240.3z M-39.1-231.9c0.7,0,1.5-0.2,2.3-0.4l0.6-0.2v-4.5l-0.6-0.1
			c-0.7-0.1-1.5-0.2-2.1-0.2c-1.8,0-2.9,0.8-2.9,2.7C-41.9-233-41-231.9-39.1-231.9z"/>
	</g>
	<rect x="-1718.5" y="-150.5" class="st29" width="122" height="24"/>
	<text transform="matrix(1 0 0 1 -1713.1182 -132.0078)" class="st62" style="font-family:'Ergata-Talhertz7'; font-size:18px;">Free Download</text>
</g>
<g id="Layer_3" class="st85">
	<rect x="-180.6" y="-380" style="display:inline;fill:none;" width="140" height="140"/>
	<text transform="matrix(1 0 0 1 -180.6348 -365.0903)" class="st86"><tspan x="0" y="0" class="st36" style="font-family:'Heldin-Regular'; font-size:21px;">RUNA</tspan><tspan x="0" y="25.2" class="st36" style="font-family:'Heldin-Regular'; font-size:21px;">_____</tspan><tspan x="0" y="75.6" class="st36" style="font-family:'Heldin-Regular'; font-size:21px;">A Robust  </tspan><tspan x="0" y="100.8" class="st36" style="font-family:'Heldin-Regular'; font-size:21px;">Glyphic Slab</tspan></text>
	<rect x="-383.9" y="-380" style="display:inline;fill:none;" width="140" height="140"/>
	<text transform="matrix(1 0 0 1 -383.9353 -365.0903)" class="st86"><tspan x="0" y="0" class="st36" style="font-family:'Heldin-Regular'; font-size:21px;">SUBJECT SANS</tspan><tspan x="0" y="25.2" class="st36" style="font-family:'Heldin-Regular'; font-size:21px;">_____</tspan><tspan x="0" y="75.6" class="st36" style="font-family:'Heldin-Regular'; font-size:21px;">A Geometric </tspan><tspan x="0" y="100.8" class="st36" style="font-family:'Heldin-Regular'; font-size:21px;">Humanist</tspan></text>
	<rect x="23.5" y="-380" style="display:inline;fill:none;" width="140" height="140"/>
	<text transform="matrix(1 0 0 1 23.4569 -365.0903)" class="st86"><tspan x="0" y="0" class="st36" style="font-family:'Heldin-Regular'; font-size:21px;">HELDIN</tspan><tspan x="0" y="25.2" class="st36" style="font-family:'Heldin-Regular'; font-size:21px;">_____</tspan><tspan x="0" y="75.6" class="st36" style="font-family:'Heldin-Regular'; font-size:21px;">A Heroic Sans</tspan></text>
	<rect x="220.6" y="-380" style="display:inline;fill:none;" width="140" height="140"/>
	<text transform="matrix(1 0 0 1 220.6337 -365.0903)" class="st86"><tspan x="0" y="0" class="st36" style="font-family:'Heldin-Regular'; font-size:21px;">WILLAMETTE</tspan><tspan x="0" y="25.2" class="st36" style="font-family:'Heldin-Regular'; font-size:21px;">_____</tspan><tspan x="0" y="75.6" class="st36" style="font-family:'Heldin-Regular'; font-size:21px;">A Rational</tspan><tspan x="0" y="100.8" class="st36" style="font-family:'Heldin-Regular'; font-size:21px;">Compromise</tspan></text>
	<rect x="420" y="-380" style="display:inline;fill:none;" width="140" height="140"/>
	<text transform="matrix(1 0 0 1 419.9989 -365.0903)" class="st86"><tspan x="0" y="0" class="st36" style="font-family:'Heldin-Regular'; font-size:21px;">DIRECTIVE</tspan><tspan x="0" y="25.2" class="st36" style="font-family:'Heldin-Regular'; font-size:21px;">_____</tspan><tspan x="0" y="75.6" class="st36" style="font-family:'Heldin-Regular'; font-size:21px;">Authoritative </tspan><tspan x="0" y="100.8" class="st36" style="font-family:'Heldin-Regular'; font-size:21px;">Drop Caps</tspan></text>
	<rect x="620" y="-380" style="display:inline;fill:none;" width="140" height="140"/>
	<text transform="matrix(1 0 0 1 620 -365.0903)" class="st86"><tspan x="0" y="0" class="st36" style="font-family:'Heldin-Regular'; font-size:21px;">HANS</tspan><tspan x="0" y="25.2" class="st36" style="font-family:'Heldin-Regular'; font-size:21px;">_____</tspan><tspan x="0" y="75.6" class="st36" style="font-family:'Heldin-Regular'; font-size:21px;">Geometric </tspan><tspan x="0" y="100.8" class="st36" style="font-family:'Heldin-Regular'; font-size:21px;">Script</tspan></text>
</g>
</svg>
