<svg xmlns="http://www.w3.org/2000/svg" viewBox="0 0 180 180"><defs><style>.cls-1{fill:#0cf;}</style></defs><title>thumb_hans-2</title><g id="Layer_1" data-name="Layer 1"><path class="cls-1" d="M162.16,126.75c-4.56,0-7.17-2.39-7.17-7V60.86c0-16.08-8.9-25.19-24.76-25.19H81.1V53.25H95v73.5H81.1v17.58h47.16V126.75H114.55V53.25h8.27c8.05,0,12.62,5,12.62,13v60.46c0,11.07,6.73,17.58,17.8,17.58H168.9V126.75ZM43,126.75c-8.49,0-12.4-4.57-12.4-13.06s3.92-13.06,12.4-13.06H54.36v26.11Zm30.85,0V58c0-13.25-8.9-22.37-22.15-22.37H16.31V53.25H41.52c8.27,0,12.84,5,12.84,13.06V82.84H40.43c-19.13,0-29.33,11.72-29.33,30.86s10.42,30.64,29.33,30.64H87.81V126.75Z"/></g></svg>