<?xml version="1.0" encoding="utf-8"?>
<!-- Generator: Adobe Illustrator 22.0.1, SVG Export Plug-In . SVG Version: 6.00 Build 0)  -->
<svg version="1.1" xmlns="http://www.w3.org/2000/svg" xmlns:xlink="http://www.w3.org/1999/xlink" x="0px" y="0px"
	 viewBox="0 0 180 180" style="enable-background:new 0 0 180 180;" xml:space="preserve">
<style type="text/css">
	.st0{fill:#ED5400;}
	.st1{fill:#6943DF;}
	.st2{fill:#333333;}
	.st3{fill:#896F42;}
	.st4{fill:#E7B96D;}
	.st5{fill:#1AD1F2;}
	.st6{fill:#85941E;}
	.st7{fill:#B8B8B8;}
	.st8{fill:#C9C9C9;}
	.st9{fill:#A6A6A6;}
	.st10{fill:#DBDBDB;}
	.st11{fill:#11DDAA;}
	.st12{fill:#FF6699;}
	.st13{fill:#2255FF;}
	.st14{fill:#DDAA00;}
	.st15{fill:#FFDDA0;}
	.st16{fill:#FF5A27;}
	.st17{fill:#11DDFF;}
	.st18{fill:#C5C5C5;}
	.st19{fill:#A7A7A7;}
	.st20{fill:#B0B0B0;}
	.st21{fill:#A4A4A4;}
	.st22{fill:#868686;}
	.st23{fill:#9A9A9A;}
	.st24{fill:#585858;}
	.st25{fill:#C0C0C0;}
	.st26{fill:#C8C8C8;}
	.st27{fill:#D0D0D0;}
	.st28{fill:#D8D8D8;}
	.st29{fill:#EAEAEA;}
	.st30{fill:#E5E5E5;}
	.st31{fill:#ED3024;}
	.st32{fill:#D4A04A;}
	.st33{fill:#AE6E04;}
	.st34{fill:#543500;}
	.st35{fill:#BCA6FF;}
	.st36{fill:#3B2287;}
	.st37{fill:#B0BA67;}
	.st38{fill:#343A09;}
	.st39{fill:#A13800;}
	.st40{fill:#73EBFF;}
	.st41{fill:#18C8E8;}
	.st42{fill:#DFB269;}
	.st43{fill:#E7621B;}
	.st44{fill:#E35000;}
	.st45{fill:#088AA1;}
	.st46{fill:#613DD3;}
	.st47{fill:#282828;}
	.st48{fill:#7C8A18;}
	.st49{fill:#C472E4;}
	.st50{fill:#4D4D4D;}
	.st51{fill:#231F20;}
	.st52{fill:#ADADAD;}
	.st53{fill:#7F673D;}
	.st54{fill:#00CC99;}
	.st55{fill:#EE5588;}
	.st56{fill:#CCCCCC;}
	.st57{fill:#979797;}
	.st58{fill:#BFBFBF;}
	.st59{fill:#BCBCBC;}
	.st60{fill:#00CCFF;}
	.st61{clip-path:url(#SVGID_2_);fill:#B8B8B8;}
	.st62{fill:#0099FF;}
	.st63{fill:#FF3300;}
	.st64{fill:#FFCC00;}
	.st65{fill:#0033FF;}
	.st66{fill:#9966CC;}
	.st67{fill:#CC9900;}
	.st68{fill:#949494;}
	.st69{fill:#6B6B6B;}
	.st70{fill:#898989;}
	.st71{fill:#9F9F9F;}
	.st72{fill:#3A3A3A;}
	.st73{fill:#B6B6B6;}
	.st74{fill:#818181;}
	.st75{fill:#767676;}
	.st76{display:none;}
	.st77{display:inline;}
	.st78{fill:#FFFFFF;}
	.st79{display:inline;fill:none;}
	.st80{font-family:'Heldin-Regular';}
	.st81{font-size:21px;}
</style>
<g id="Layer_2">
</g>
<g id="Layer_1">
	<g>
		<path class="st63" d="M100.6,30c23.8,0,31.9,8.8,31.9,30.1v65.6c0,6.5,5,9.1,11.2,9.1l-5.2,15.2c-12.3,0-24-3.8-26.4-16.4h-0.3
			c-7.9,13.1-22.3,16.3-36.3,16.3H68c-13.1,0-22.9-4.6-22.9-23.1v-19.6c0-9.7,4.6-13.4,13.5-16.1l53.6-16.4V63.7
			c0-14.3-3.5-18.5-13.8-18.5h-7.3c-11.5,0-22.3,2-21.3,14.9H50.7C48.2,31.8,77.9,30,91.7,30H100.6z M80.4,133.9
			c11.4,0,23.4-4.3,31.7-15.3V90.8l-46.5,14.4v15.9c0,10.8,3.6,12.8,11.7,12.8H80.4z"/>
	</g>
</g>
<g id="Layer_3" class="st76">
	<rect x="23.5" y="20" class="st79" width="140" height="140"/>
	<text transform="matrix(1 0 0 1 23.4569 34.9097)" class="st77"><tspan x="0" y="0" class="st78 st80 st81">HELDIN</tspan><tspan x="0" y="25.2" class="st78 st80 st81">_____</tspan><tspan x="0" y="75.6" class="st78 st80 st81">A Heroic Sans</tspan></text>
</g>
</svg>
