<?xml version="1.0" encoding="utf-8"?>
<!-- Generator: Adobe Illustrator 22.0.1, SVG Export Plug-In . SVG Version: 6.00 Build 0)  -->
<svg version="1.1" xmlns="http://www.w3.org/2000/svg" xmlns:xlink="http://www.w3.org/1999/xlink" x="0px" y="0px"
	 viewBox="0 0 180 180" style="enable-background:new 0 0 180 180;" xml:space="preserve">
<style type="text/css">
	.st0{fill:#ED5400;}
	.st1{fill:#6943DF;}
	.st2{fill:#333333;}
	.st3{fill:#896F42;}
	.st4{fill:#E7B96D;}
	.st5{fill:#1AD1F2;}
	.st6{fill:#85941E;}
	.st7{fill:#B8B8B8;}
	.st8{fill:#C9C9C9;}
	.st9{fill:#A6A6A6;}
	.st10{fill:#DBDBDB;}
	.st11{fill:#11DDAA;}
	.st12{fill:#FF6699;}
	.st13{fill:#2255FF;}
	.st14{fill:#DDAA00;}
	.st15{fill:#FFDDA0;}
	.st16{fill:#FF5A27;}
	.st17{fill:#11DDFF;}
	.st18{fill:#C5C5C5;}
	.st19{fill:#A7A7A7;}
	.st20{fill:#B0B0B0;}
	.st21{fill:#A4A4A4;}
	.st22{fill:#868686;}
	.st23{fill:#9A9A9A;}
	.st24{fill:#585858;}
	.st25{fill:#C0C0C0;}
	.st26{fill:#C8C8C8;}
	.st27{fill:#D0D0D0;}
	.st28{fill:#D8D8D8;}
	.st29{fill:#EAEAEA;}
	.st30{fill:#0033FF;}
	.st31{fill:#EE5588;}
	.st32{fill:#00CCFF;}
	.st33{fill:#D463A4;}
	.st34{fill:#FFD100;}
	.st35{fill:#00659B;}
	.st36{fill:#524FA1;}
	.st37{fill:#CC9900;}
	.st38{fill:none;stroke:#FFD100;stroke-miterlimit:10;}
	.st39{fill:#FF7F57;}
	.st40{fill:#FF0000;}
	.st41{fill:#00CC99;}
	.st42{clip-path:url(#SVGID_2_);}
	.st43{fill:#E5E5E5;}
	.st44{fill:#ED3024;}
	.st45{fill:#D4A04A;}
	.st46{fill:#AE6E04;}
	.st47{fill:#543500;}
	.st48{fill:#BCA6FF;}
	.st49{fill:#3B2287;}
	.st50{fill:#B0BA67;}
	.st51{fill:#343A09;}
	.st52{fill:#A13800;}
	.st53{fill:#73EBFF;}
	.st54{fill:#18C8E8;}
	.st55{fill:#DFB269;}
	.st56{fill:#E7621B;}
	.st57{fill:#E35000;}
	.st58{fill:#088AA1;}
	.st59{fill:#613DD3;}
	.st60{fill:#282828;}
	.st61{fill:#7C8A18;}
	.st62{fill:#C472E4;}
	.st63{fill:#4D4D4D;}
	.st64{fill:#231F20;}
	.st65{fill:#ADADAD;}
	.st66{fill:#7F673D;}
	.st67{fill:#CCCCCC;}
	.st68{fill:#979797;}
	.st69{fill:#BFBFBF;}
	.st70{fill:#BCBCBC;}
	.st71{clip-path:url(#SVGID_4_);fill:#B8B8B8;}
	.st72{fill:#0099FF;}
	.st73{fill:#FF3300;}
	.st74{fill:#FFCC00;}
	.st75{fill:#9966CC;}
	.st76{fill:#949494;}
	.st77{fill:#6B6B6B;}
	.st78{fill:#898989;}
	.st79{fill:#9F9F9F;}
	.st80{fill:#3A3A3A;}
	.st81{fill:#B6B6B6;}
	.st82{fill:#818181;}
	.st83{fill:#767676;}
	.st84{display:none;}
	.st85{display:inline;}
	.st86{fill:#FFFFFF;}
</style>
<g id="Layer_2">
	<g>
		<path class="st33" d="M90,161.9c12.1,0,24.5-3,35.7-9.5c34.2-19.7,45.9-63.4,26.2-97.6L90,90.5L90,161.9z"/>
		<path class="st34" d="M151.9,54.8c-6.1-10.5-14.8-19.7-26.1-26.2c-34.2-19.7-77.9-8-97.6,26.2L90,90.5L151.9,54.8z"/>
		<g>
			<path class="st34" d="M103.1,41.6c9.9,17.1,4,38.9-13.1,48.8c9.9,17.1,31.7,22.9,48.8,13.1c17.1-9.9,22.9-31.7,13.1-48.8
				C142,37.6,120.2,31.8,103.1,41.6L103.1,41.6L103.1,41.6z"/>
		</g>
		<path class="st35" d="M41.2,103.5C51.1,86.4,72.9,80.6,90,90.4c9.9-17.1,4-38.9-13.1-48.8c-17.1-9.9-38.9-4-48.8,13.1
			C18.2,71.8,24.1,93.7,41.2,103.5L41.2,103.5L41.2,103.5z"/>
		<g>
			<path class="st35" d="M28.2,54.7c-6.1,10.5-9.6,22.7-9.6,35.7c0,39.5,32,71.5,71.5,71.5V90.4L28.2,54.7z"/>
			<path class="st36" d="M90,161.9c4.1,0,8.1-0.4,12-1.1L90,161.9z"/>
		</g>
		<path class="st33" d="M90,161.9c19.7,0,35.7-16,35.7-35.7c-19.7,0-35.7-16-35.7-35.7c-19.7,0-35.7,16-35.7,35.7
			S70.3,161.9,90,161.9z"/>
	</g>
	<rect y="0.1" class="st26" width="180" height="180"/>
	<g>
		<g>
			<g>
				<path class="st7" d="M90.1,161.8c-4.2,0-8.4-0.4-12.6-1.1c-39-6.9-65.1-44.2-58.2-83.1c3.3-18.9,13.8-35.3,29.5-46.3
					c15.7-11,34.7-15.2,53.6-11.9c18.9,3.3,35.3,13.8,46.3,29.5c11,15.7,15.2,34.7,11.9,53.6c-3.3,18.9-13.8,35.3-29.5,46.3
					C119,157.3,104.7,161.8,90.1,161.8z M89.8,22.2c-13.8,0-27.2,4.2-38.7,12.3C36.3,44.9,26.4,60.4,23.3,78.2
					c-6.5,36.8,18.2,72,55,78.5c17.8,3.1,35.8-0.8,50.6-11.2c14.8-10.4,24.7-25.9,27.9-43.7l0,0c3.1-17.8-0.8-35.8-11.2-50.6
					s-25.9-24.7-43.7-27.9C97.8,22.6,93.8,22.2,89.8,22.2z"/>
			</g>
			<g>
				<path class="st7" d="M124.7,150l-95.4-25.6L89.8,19.7L124.7,150z M35,122.1l84.4,22.6L88.5,29.5L35,122.1z"/>
			</g>
		</g>
	</g>
</g>
<g id="Layer_1">
</g>
<g id="Layer_3" class="st84">
</g>
</svg>
