<svg xmlns="http://www.w3.org/2000/svg" viewBox="0 0 180 180"><defs><style>.cls-1{fill:#e58;}</style></defs><title>thumb_antoinette-2</title><g id="Layer_1" data-name="Layer 1"><path class="cls-1" d="M92.73,40.09c20.51-.15,39.59,6.25,38.06,40v.45L48.21,89.79V88.45C48,55.74,66.12,40.29,92.73,40.09M92.44,140c-22.74.17-41-12.78-43.86-40.56l94.76-10.38-1.84-8c2.66-42-22.24-51.28-48.84-51.08-33.44.25-56,19.16-55.73,61.09.31,41,24.08,59.15,56.19,58.91,20.66-.16,36.81-6.82,48.44-22.82l-7.34-7.38C125,134.12,108,139.9,92.44,140"/></g></svg>