<svg xmlns="http://www.w3.org/2000/svg" viewBox="0 0 180 180"><defs><style>.cls-1{fill:#f30;}</style></defs><title>thumb_ymirsson-2</title><g id="Layer_1" data-name="Layer 1"><path class="cls-1" d="M100.64,30c23.85,0,31.9,8.81,31.9,30.08v65.62c0,6.53,5,9.12,11.24,9.12L138.62,150c-12.3,0-24-3.8-26.43-16.41h-.31c-7.9,13.06-22.33,16.26-36.3,16.26H68c-13.06,0-22.94-4.56-22.94-23.09V107.17c0-9.72,4.56-13.37,13.52-16.1l53.62-16.4V63.72c0-14.28-3.49-18.53-13.82-18.53H91.07c-11.54,0-22.33,2-21.27,14.89H50.67C48.24,31.82,77.86,30,91.68,30ZM80.44,133.9c11.39,0,23.39-4.25,31.75-15.34V90.76L65.71,105.19v15.95c0,10.78,3.65,12.76,11.7,12.76Z"/></g></svg>