<svg xmlns="http://www.w3.org/2000/svg" viewBox="0 0 180 180"><defs><style>.cls-1{fill:#03f;}.cls-2{fill:#eaeaea;}.cls-3{fill:#4d4d4d;}</style></defs><title>thumb_talhertz-2</title><g id="Layer_1" data-name="Layer 1"><path class="cls-1" d="M151,70.34V52.95H117.46V18.66H98.83V52.95H82.43V70.34h16.4v51.55c0,19.5,11.06,27.45,27.45,27.45A51.94,51.94,0,0,0,151,143V124.87c-6.09,4-14.66,7.08-21.86,7.08-5.47,0-11.68-1.86-11.68-13.54V70.34Zm-62.1,0V52.95H28.77v95.4H47.41v-78Z"/><rect class="cls-2" x="15" y="112" width="122" height="24"/><path class="cls-3" d="M28.32,120.88H23.72v2.93H28v2.4H23.72v4.28h-2.5v-12h7.11Z"/><path class="cls-3" d="M33.78,124.57a3.29,3.29,0,0,0-1.56.42l-.67.33v5.17H29.36v-8h2.19v.71h0L32,123a4.93,4.93,0,0,1,2.11-.51h.45v2.09Z"/><path class="cls-3" d="M42.49,127.3H37.3a2.33,2.33,0,0,0,2.36,1.29,6.17,6.17,0,0,0,2.46-.55V130a5.59,5.59,0,0,1-2.87.7,3.83,3.83,0,0,1-4.1-4.16,4,4,0,0,1,4.1-4.22c2.24,0,3.24,1.45,3.24,3.53Zm-5.18-1.77h2.85v-.07A1,1,0,0,0,39,124.38,1.8,1.8,0,0,0,37.31,125.53Z"/><path class="cls-3" d="M51.07,127.3H45.88a2.33,2.33,0,0,0,2.36,1.29A6.17,6.17,0,0,0,50.7,128V130a5.59,5.59,0,0,1-2.87.7,3.83,3.83,0,0,1-4.1-4.16,4,4,0,0,1,4.1-4.22c2.24,0,3.24,1.45,3.24,3.53Zm-5.18-1.77h2.85v-.07a1,1,0,0,0-1.17-1.07A1.8,1.8,0,0,0,45.89,125.53Z"/><path class="cls-3" d="M56,118.49h3.66c4.52,0,6.6,2.45,6.6,6s-2.23,6-6.74,6H56ZM59.25,128c2.93,0,4.43-1.39,4.43-3.58s-1.44-3.55-4.4-3.55h-.77V128Z"/><path class="cls-3" d="M76.16,126.49c0,2.63-1.6,4.21-4.38,4.21s-4.38-1.61-4.38-4.21,1.58-4.21,4.38-4.21S76.16,123.88,76.16,126.49Zm-6.48,0a2.11,2.11,0,1,0,2.11-2.13A2,2,0,0,0,69.67,126.49Z"/><path class="cls-3" d="M79.26,122.49l1.44,3.42h0l1.88-3.6,1.94,3.6h0l1.54-3.42h2.44l-3.52,8.25-2.43-4.14h0l-2.41,4.14-3.5-8.25Z"/><path class="cls-3" d="M91.9,130.49H89.72v-8H91.9v.42h0l.19-.09a4.35,4.35,0,0,1,2-.49A2.55,2.55,0,0,1,97,125v5.46H94.82v-5c0-.76-.22-1.1-1.05-1.1a4.6,4.6,0,0,0-1.62.35l-.25.09Z"/><path class="cls-3" d="M101.18,117.15v13.34H99V117.15Z"/><path class="cls-3" d="M111.49,126.49c0,2.63-1.6,4.21-4.38,4.21s-4.38-1.61-4.38-4.21,1.58-4.21,4.38-4.21S111.49,123.88,111.49,126.49Zm-6.48,0a2.11,2.11,0,1,0,2.11-2.13A2,2,0,0,0,105,126.49Z"/><path class="cls-3" d="M115.78,125.82h2.17v-.21c0-.87-.54-1.27-1.67-1.27a8.11,8.11,0,0,0-2.76.57v-2.16a10.08,10.08,0,0,1,2.9-.5c1.52,0,3.72.56,3.72,2.52v5.71h-2.19v-.62h0l-.38.21a4.33,4.33,0,0,1-2.1.58,2.39,2.39,0,0,1-2.58-2.42C112.84,127.18,113.37,125.82,115.78,125.82Zm.59,2.9a3.28,3.28,0,0,0,1.12-.22l.46-.17v-.74h-2c-.44,0-.65.24-.65.5S115.69,128.72,116.37,128.72Z"/><path class="cls-3" d="M125.4,122.43a5.34,5.34,0,0,1,2.27.5l.42.2h0v-6h2.19v13.34h-2.19v-.68h0l-.39.19a5.41,5.41,0,0,1-2.37.55c-2.28,0-3.75-1.52-3.75-4.06S123.16,122.43,125.4,122.43Zm.54,6a4.29,4.29,0,0,0,1.75-.37l.44-.21v-2.77l-.5-.23a4.08,4.08,0,0,0-1.68-.35c-1.24,0-2.07.57-2.07,2A1.82,1.82,0,0,0,125.95,128.47Z"/></g></svg>