<?xml version="1.0" encoding="utf-8"?>
<!-- Generator: Adobe Illustrator 22.0.1, SVG Export Plug-In . SVG Version: 6.00 Build 0)  -->
<svg version="1.1" xmlns="http://www.w3.org/2000/svg" xmlns:xlink="http://www.w3.org/1999/xlink" x="0px" y="0px"
	 viewBox="0 0 180 180" style="enable-background:new 0 0 180 180;" xml:space="preserve">
<style type="text/css">
	.st0{fill:#ED5400;}
	.st1{fill:#6943DF;}
	.st2{fill:#333333;}
	.st3{fill:#896F42;}
	.st4{fill:#E7B96D;}
	.st5{fill:#1AD1F2;}
	.st6{fill:#85941E;}
	.st7{fill:#B8B8B8;}
	.st8{fill:#C9C9C9;}
	.st9{fill:#A6A6A6;}
	.st10{fill:#DBDBDB;}
	.st11{fill:#11DDAA;}
	.st12{fill:#FF6699;}
	.st13{fill:#2255FF;}
	.st14{fill:#DDAA00;}
	.st15{fill:#FFDDA0;}
	.st16{fill:#FF5A27;}
	.st17{fill:#11DDFF;}
	.st18{fill:#C5C5C5;}
	.st19{fill:#A7A7A7;}
	.st20{fill:#B0B0B0;}
	.st21{fill:#A4A4A4;}
	.st22{fill:#868686;}
	.st23{fill:#9A9A9A;}
	.st24{fill:#585858;}
	.st25{fill:#C0C0C0;}
	.st26{fill:#C8C8C8;}
	.st27{fill:#D0D0D0;}
	.st28{fill:#D8D8D8;}
	.st29{fill:#EAEAEA;}
	.st30{fill:#0033FF;}
	.st31{fill:#EE5588;}
	.st32{fill:#D463A4;}
	.st33{fill:#FFD100;}
	.st34{fill:#00659B;}
	.st35{fill:#524FA1;}
	.st36{fill:#00CCFF;}
	.st37{fill:none;stroke:#FFD100;stroke-miterlimit:10;}
	.st38{fill:#FF7F57;}
	.st39{fill:#FF0000;}
	.st40{fill:#00CC99;}
	.st41{clip-path:url(#SVGID_2_);}
	.st42{fill:#E5E5E5;}
	.st43{fill:#ED3024;}
	.st44{fill:#D4A04A;}
	.st45{fill:#AE6E04;}
	.st46{fill:#543500;}
	.st47{fill:#BCA6FF;}
	.st48{fill:#3B2287;}
	.st49{fill:#B0BA67;}
	.st50{fill:#343A09;}
	.st51{fill:#A13800;}
	.st52{fill:#73EBFF;}
	.st53{fill:#18C8E8;}
	.st54{fill:#DFB269;}
	.st55{fill:#E7621B;}
	.st56{fill:#E35000;}
	.st57{fill:#088AA1;}
	.st58{fill:#613DD3;}
	.st59{fill:#282828;}
	.st60{fill:#7C8A18;}
	.st61{fill:#C472E4;}
	.st62{fill:#4D4D4D;}
	.st63{fill:#231F20;}
	.st64{fill:#ADADAD;}
	.st65{fill:#7F673D;}
	.st66{fill:#CCCCCC;}
	.st67{fill:#979797;}
	.st68{fill:#BFBFBF;}
	.st69{fill:#BCBCBC;}
	.st70{clip-path:url(#SVGID_4_);fill:#B8B8B8;}
	.st71{fill:#0099FF;}
	.st72{fill:#FF3300;}
	.st73{fill:#FFCC00;}
	.st74{fill:#9966CC;}
	.st75{fill:#CC9900;}
	.st76{fill:#949494;}
	.st77{fill:#6B6B6B;}
	.st78{fill:#898989;}
	.st79{fill:#9F9F9F;}
	.st80{fill:#3A3A3A;}
	.st81{fill:#B6B6B6;}
	.st82{fill:#818181;}
	.st83{fill:#767676;}
	.st84{display:none;}
	.st85{display:inline;fill:none;}
	.st86{display:inline;}
	.st87{fill:#FFFFFF;}
	.st88{font-family:'Heldin-Regular';}
	.st89{font-size:21px;}
</style>
<g id="Layer_2">
</g>
<g id="Layer_1">
	<path class="st30" d="M151,70.3V52.9h-33.5V18.7H98.8v34.3H82.4v17.4h16.4v51.5c0,19.5,11.1,27.5,27.5,27.5
		c9.6,0,18.1-2.7,24.7-6.3v-18.1c-6.1,4-14.7,7.1-21.9,7.1c-5.5,0-11.7-1.9-11.7-13.5V70.3H151z M88.9,70.3V52.9H28.8v95.4h18.6v-78
		H88.9z"/>
	<rect y="144" class="st29" width="180" height="36"/>
	<g>
		<path class="st62" d="M23,157.2h-6.7v4.5H23v3h-6.7v6.1h-3.2v-16.7H23V157.2z"/>
		<path class="st62" d="M30.6,162.8c-1.2,0-2,0.1-2.7,0.2l-0.6,0.1v7.8h-3v-11.1h3v1.3h0.1l0.6-0.4c0.8-0.6,1.9-0.9,3.6-0.9h0.1v3.1
			H30.6z"/>
		<path class="st62" d="M43.1,166.4h-7.7c0.4,1.5,1.6,2.3,3.6,2.3c1.3,0,2.6-0.3,3.4-0.5v2.3c-0.9,0.4-2.3,0.8-3.9,0.8
			c-3.8,0-5.9-2.4-5.9-6c0-3.6,2.2-6,5.7-6c3.2,0,4.8,1.9,4.8,5.4V166.4z M35.4,164h4.9v-0.3c0-1.4-1.1-1.7-2.1-1.7
			C36.9,161.9,35.8,162.5,35.4,164z"/>
		<path class="st62" d="M55.2,166.4h-7.7c0.4,1.5,1.6,2.3,3.6,2.3c1.3,0,2.6-0.3,3.4-0.5v2.3c-0.9,0.4-2.3,0.8-3.9,0.8
			c-3.8,0-5.9-2.4-5.9-6c0-3.6,2.2-6,5.7-6c3.2,0,4.8,1.9,4.8,5.4V166.4z M47.5,164h4.9v-0.3c0-1.4-1.1-1.7-2.1-1.7
			C49,161.9,47.9,162.5,47.5,164z"/>
		<path class="st62" d="M62,154.2H67c6.3,0,9.2,3.4,9.2,8.3c0,5.1-3.1,8.3-9.4,8.3H62V154.2z M66.3,167.8c4.4,0,6.6-2.1,6.6-5.3
			c0-3.3-2.2-5.3-6.6-5.3h-1.2v10.6H66.3z"/>
		<path class="st62" d="M89.8,165.3c0,3.6-2.2,5.8-6.1,5.8c-3.9,0-6.1-2.2-6.1-5.8c0-3.6,2.2-5.8,6.1-5.8
			C87.6,159.5,89.8,161.7,89.8,165.3z M80.8,165.3c0,1.8,1.1,3,2.9,3s2.9-1.2,2.9-3s-1.1-3-2.9-3S80.8,163.5,80.8,165.3z"/>
		<path class="st62" d="M93.2,159.8l2.6,5.8h0.1l3.6-6.1l3.5,6.1h0.1l3-5.8h3.2l-5.9,11.9l-3.9-6.9h-0.1l-4,6.9l-5.6-11.9H93.2z"/>
		<path class="st62" d="M113.7,170.9h-3v-11.1h3v1.3h0.1l0.4-0.4c0.7-0.7,1.6-1.1,3.1-1.1c2.4,0,4,1.3,4,3.8v7.6h-3V164
			c0-1.1-0.3-1.5-1.8-1.5c-0.8,0-1.5,0.1-2.3,0.5l-0.3,0.1V170.9z"/>
		<path class="st62" d="M127,152.4v18.5h-3v-18.5H127z"/>
		<path class="st62" d="M141.4,165.3c0,3.6-2.2,5.8-6.1,5.8c-3.9,0-6.1-2.2-6.1-5.8c0-3.6,2.2-5.8,6.1-5.8
			C139.1,159.5,141.4,161.7,141.4,165.3z M132.4,165.3c0,1.8,1.1,3,2.9,3c1.9,0,2.9-1.2,2.9-3s-1.1-3-2.9-3
			C133.4,162.4,132.4,163.5,132.4,165.3z"/>
		<path class="st62" d="M146.7,164.2l3.4-0.3v-0.4c0-0.9-1-1.5-2.7-1.5c-1.2,0-2.5,0.3-3.6,0.8v-2.7c1.1-0.4,2.5-0.7,3.9-0.7
			c2.6,0,5.3,1.1,5.3,3.8v7.6H150V170H150l-0.5,0.3c-0.9,0.5-1.9,0.8-2.8,0.8c-2.1,0-3.7-1.4-3.7-3.7
			C143,165.8,143.7,164.5,146.7,164.2z M147.7,168.6c0.5,0,1.1-0.1,1.7-0.3l0.6-0.2v-2l-2.7,0.3c-0.8,0.1-1.1,0.5-1.1,1.1
			C146.2,168.2,146.8,168.6,147.7,168.6z"/>
		<path class="st62" d="M160.3,159.7c1.1,0,2,0.2,2.9,0.7l0.5,0.2h0.1v-8.2h3v18.5h-3v-1.3h-0.1l-0.5,0.4c-0.8,0.6-2,0.9-3.2,0.9
			c-3.1,0-5-2.1-5-5.6C155,161.7,157.1,159.7,160.3,159.7z M160.9,168.1c0.7,0,1.5-0.2,2.3-0.4l0.6-0.2v-4.5l-0.6-0.1
			c-0.7-0.1-1.5-0.2-2.1-0.2c-1.8,0-2.9,0.8-2.9,2.7C158.1,167,159,168.1,160.9,168.1z"/>
	</g>
</g>
<g id="Layer_3" class="st84">
	<rect x="19.4" y="20" class="st85" width="140" height="140"/>
	<text transform="matrix(1 0 0 1 19.3652 34.9097)" class="st86"><tspan x="0" y="0" class="st87 st88 st89">RUNA</tspan><tspan x="0" y="25.2" class="st87 st88 st89">_____</tspan><tspan x="0" y="75.6" class="st87 st88 st89">A Robust  </tspan><tspan x="0" y="100.8" class="st87 st88 st89">Glyphic Slab</tspan></text>
</g>
</svg>
