<svg xmlns="http://www.w3.org/2000/svg" viewBox="0 0 180 180"><defs><style>.cls-1{fill:silver;}.cls-2{fill:#eaeaea;}.cls-3{fill:#b0b0b0;}</style></defs><title>thumb_talhertz-1</title><g id="Layer_2" data-name="Layer 2"><rect class="cls-1" width="180" height="180"/><path class="cls-2" d="M167.15,16.29l3.71,4-3,2.54-3.52-4.4-3.52,4.4-3-2.54,3.71-4-5.06-2.15,1.6-3.48L162.59,13l-.17-5h3.92l-.17,5,4.44-2.33,1.6,3.48Z"/></g><g id="Layer_1" data-name="Layer 1"><path class="cls-3" d="M151,70.34V52.95H117.46V18.66H98.83V52.95H82.43V70.34h16.4v51.55c0,19.5,11.06,27.45,27.45,27.45A51.94,51.94,0,0,0,151,143V124.87c-6.09,4-14.66,7.08-21.86,7.08-5.47,0-11.68-1.86-11.68-13.54V70.34Zm-62.1,0V52.95H28.77v95.4H47.41v-78Z"/></g></svg>