<?xml version="1.0" encoding="utf-8"?>
<!-- Generator: Adobe Illustrator 22.0.1, SVG Export Plug-In . SVG Version: 6.00 Build 0)  -->
<svg version="1.1" id="Layer_1" xmlns="http://www.w3.org/2000/svg" xmlns:xlink="http://www.w3.org/1999/xlink" x="0px" y="0px"
	 viewBox="0 0 720 180" style="enable-background:new 0 0 720 180;" xml:space="preserve">
<style type="text/css">
	.st0{fill:#C0C0C0;}
	.st1{fill:none;}
	.st2{fill:#B0B0B0;}
	.st3{fill:#34454E;}
	.st4{fill:#FFCC00;}
</style>
<g>
	<rect x="60" class="st1" width="600" height="180"/>
	<path class="st3" d="M594.2,115.9v-14.8l29.4,7.4V40.8H412.9l-29-29H333v29l-108.1,0L240.7,25H66.6l29.8,29.8v94h203.8v18.9h44.5
		v-18.9l281.9,0L594.2,115.9z"/>
	<g>
		<polygon class="st4" points="178.1,117.3 129.1,117.3 129.1,38.6 99.5,38.6 110,49.2 110,135.2 197.3,135.2 197.3,49.2 
			207.8,38.6 178.1,38.6 		"/>
		<rect x="143.4" y="38.6" class="st4" width="20.4" height="66"/>
		<path class="st4" d="M260.6,54.4h-50.3v15.8h33v14.5h-33v50.5h26.5l6.9-6.9l6.9,6.9h27.8l-17.9-17.9V54.4z M243.4,119.4h-16.2
			v-18.9h16.2V119.4z"/>
		<polygon class="st4" points="303,70.2 314,70.2 314,119.4 304.1,119.4 291.5,106.8 291.5,54.4 274.2,54.4 274.2,114.2 
			295.2,135.2 314,135.2 314,154.1 331.2,154.1 331.2,54.4 303,54.4 		"/>
		<path class="st4" d="M426.9,54.4h-63.3V41.2h30.5l-15.8-15.8h-31.5v29h-10.3v15.8h10.3v65h16.8v-65h46.1v14.5h-33v50.5h26.5
			l6.9-6.9l6.9,6.9h27.8l-17.9-17.9V54.4z M409.7,119.4h-16.2v-18.9h16.2V119.4z"/>
		<polygon class="st4" points="461.8,65.6 461.8,54.4 432.2,54.4 432.2,70.2 445,70.2 445,127.8 452.4,135.2 475.3,135.2 
			461.8,121.5 461.8,70.2 474.5,70.2 474.5,86.8 491.3,91 491.3,54.4 473,54.4 		"/>
		<path class="st4" d="M610.1,91V54.4h-18.3l-11.2,11.2V54.4H551v15.8h12.8v49.2h-51.1v-15.8h33V54.4h-49.2v80.8h97.6l-13.5-13.7
			V70.2h12.6v16.6L610.1,91z M512.8,70.2h18.3v17.7h-18.3V70.2z"/>
	</g>
</g>
</svg>
