<svg id="Layer_1" data-name="Layer 1" xmlns="http://www.w3.org/2000/svg" viewBox="0 0 680 220"><defs><style>.cls-1{fill:#6943df;}.cls-2{fill:#fe8065;}</style></defs><title>will-assets</title><path class="cls-1" d="M56.84,20.8c0.52,1.35,1.11,1.61,3.24,1.61V23.3h-9V22.41c2.41,0,3-.15,2.69-1.11l-1.43-3.91h-7l-1.39,4.13c-0.31.93,0.56,0.89,2.46,0.93V23.3H40.19V22.41c2,0,2.35-.13,2.69-1.09L49.54,2.48h0.22L56.84,20.8h0ZM52,16.42l-3.3-9-3,9H52Z"/><path class="cls-1" d="M64.41,2.85H73c3.63,0,6.72,1.28,6.72,4.5,0,2.13-1.28,4.39-4.8,5.21v0.07c3.87,0.19,6.21,1.81,6.21,4.76a5.67,5.67,0,0,1-3.26,5.24A13,13,0,0,1,73,23.3H64.41V22.41c2.71,0,2.78-.33,2.78-1.67V5.4c0-1.33-.07-1.67-2.78-1.67V2.85h0Zm5.74,1v8.58a10.67,10.67,0,0,0,4.33-.59c1.74-.83,2.3-2.83,2.3-4.35,0-3-2.09-3.69-4.3-3.69-0.43,0-1.85,0-2.33.06h0Zm2.19,18.56c3.22,0,5.63-1.78,5.63-5,0-2.67-1.69-4-5.22-4-0.72,0-1.56,0-2.59.09v8.74A18.9,18.9,0,0,0,72.34,22.37Z"/><path class="cls-1" d="M97.29,22.52a6.76,6.76,0,0,0,6.26-3.74l0.76,0.61c-1.19,2.41-4,4.2-7.72,4.2a9.9,9.9,0,0,1-10.1-10.3c0-7.11,5.26-10.82,10.84-10.82,2.8,0,5.32.37,7,.22l0.18,0.22-1.13,5.26h-0.67c-0.28-3.61-2.43-4.74-5.26-4.74-4.72,0-7.45,4-7.45,9.3,0,5.56,2.8,9.78,7.28,9.78h0Z"/><path class="cls-1" d="M113.4,2.85c1.69,0,4.19-.06,5.22-0.06a14.07,14.07,0,0,1,5,.74,10.2,10.2,0,0,1,6.24,9.54,10.25,10.25,0,0,1-6.24,9.54,13.67,13.67,0,0,1-5,.74c-1,0-3.54-.06-5.22-0.06h-4V22.41c2.71,0,2.78-.33,2.78-1.67V5.4c0-1.33-.07-1.67-2.78-1.67V2.85h4Zm1.74,19.36c0.85,0.09,2.59.11,3.61,0.11,5.19,0,7.56-3.54,7.56-9.24s-2.37-9.24-7.56-9.24c-1,0-2.76,0-3.61.11V22.2h0Z"/><path class="cls-1" d="M150.54,17.63l0.63,0-0.54,5.83a38.19,38.19,0,0,0-4-.19H134.76V22.41c2.71,0,2.78-.33,2.78-1.67V5.4c0-1.33-.07-1.67-2.78-1.67V2.85h12.3A18.72,18.72,0,0,0,150,2.66l0.22,0.19L149.47,8l-0.67.06c-0.28-3.41-1.2-4.32-4.45-4.32H140.5v8.69h2c2.5,0,3.83-.48,3.83-3.09h0.56l0,7h-0.56c0-2.61-1.32-3.09-3.82-3.09h-2v9h4.61c2.72,0,4.3-.89,5.43-4.71h0Z"/><path class="cls-1" d="M172.1,2.85L171.36,8l-0.67.06c-0.28-3.41-1.2-4.32-4.45-4.32h-3.85v9.06h2c2.5,0,3.83-.48,3.83-3.09h0.56l0,7h-0.56c0-2.61-1.32-3.09-3.82-3.09h-2v7.06c0,1.33.07,1.67,2.78,1.67V23.3h-8.52V22.41c2.71,0,2.78-.33,2.78-1.67V5.4c0-1.33-.07-1.67-2.78-1.67V2.85h12.3a18.71,18.71,0,0,0,2.93-.19Z"/><path class="cls-1" d="M188.53,14h8.22v0.89c-2.7,0-2.78.33-2.78,1.67V23.3h-1.43l-0.63-1.48a9.31,9.31,0,0,1-5.67,1.78,9.91,9.91,0,0,1-10.11-10.3c0-7.11,5.28-10.82,10.86-10.82,2.78,0,5.3.37,7,.22l0.18,0.22L193,8.18h-0.67c-0.28-3.61-2.43-4.74-5.26-4.74-4.72,0-7.45,4-7.45,9.3,0,5.56,2.8,9.78,7.28,9.78a7.45,7.45,0,0,0,4.61-1.59l-0.24-.59V16.52c0-1.33-.07-1.67-2.78-1.67V14h0Z"/><path class="cls-1" d="M221.13,5.4V20.74c0,1.33.07,1.67,2.78,1.67V23.3h-8.52V22.41c2.7,0,2.78-.33,2.78-1.67V13.37H206.49v7.37c0,1.33.07,1.67,2.78,1.67V23.3h-8.52V22.41c2.71,0,2.78-.33,2.78-1.67V5.4c0-1.33-.07-1.67-2.78-1.67V2.85h8.52V3.73c-2.7,0-2.78.33-2.78,1.67v6.93h11.67V5.4c0-1.33-.07-1.67-2.78-1.67V2.85h8.52V3.73C221.2,3.73,221.13,4.07,221.13,5.4Z"/><path class="cls-1" d="M235.12,20.74c0,1.33.07,1.67,2.78,1.67V23.3h-8.52V22.41c2.71,0,2.78-.33,2.78-1.67V5.4c0-1.33-.07-1.67-2.78-1.67V2.85h8.52V3.73c-2.71,0-2.78.33-2.78,1.67V20.74Z"/><path class="cls-1" d="M246.17,20.85V5.4c0-1.33-.07-1.67-2.78-1.67V2.85h8.52V3.73c-2.7,0-2.78.33-2.78,1.67V20.85c0,3.3-1.93,4.71-4.72,4.71-0.48,0-1,0-1.58-.06V24.56c0.28,0,.56,0,0.78,0,2.24,0,2.56-1.19,2.56-3.72h0Z"/><path class="cls-1" d="M277.54,22.41V23.3h-8V22.41c2.44,0,2.37-.09,1.63-1.32l-5.11-8.35L262.83,16v4.71c0,1.33.07,1.67,2.78,1.67V23.3h-8.52V22.41c2.71,0,2.78-.33,2.78-1.67V5.4c0-1.33-.07-1.67-2.78-1.67V2.85h8.52V3.73c-2.71,0-2.78.33-2.78,1.67v9h0.07L272.1,5c1.11-1.15.35-1.32-1.83-1.43V2.77L277,2.92V3.48c-1.76.52-3.22,1.3-7,5.13l-2,2,6.59,10.48C275.56,22.44,275.93,22.41,277.54,22.41Z"/><path class="cls-1" d="M291.23,22.33c2.72,0,4.3-.89,5.43-4.71l0.63,0-0.54,5.83a38,38,0,0,0-4-.19H281.35V22.41c2.71,0,2.78-.33,2.78-1.67V5.4c0-1.33-.07-1.67-2.78-1.67V2.85h8.52V3.73c-2.71,0-2.78.33-2.78,1.67V22.33h4.13Z"/><path class="cls-1" d="M328.07,3.73c-2.7,0-2.78.33-2.78,1.67V20.74c0,1.33.07,1.67,2.78,1.67V23.3h-8.52V22.41c2.71,0,2.78-.33,2.78-1.67V5.55l-8.6,18.12h-0.22l-8.17-17a7.17,7.17,0,0,0-.5-0.94V21c0,1.33.07,1.48,2.59,1.56v0.7h-6.15v-0.7c2.52-.07,2.59-0.22,2.59-1.56V4.51a5.26,5.26,0,0,0-3.11-.65v-1h6.11L314.51,19l7.78-16.17h5.78V3.73h0Z"/><path class="cls-1" d="M348.89,2.85h6.37v0.7c-2.52.06-2.59,0.2-2.59,1.54V23.67h-0.22L338.79,7.9c-0.7-.81-1.31-1.48-1.83-2V21c0,1.33.07,1.48,2.59,1.56v0.7h-6.37v-0.7c2.52-.07,2.59-0.22,2.59-1.56V4.77a4.62,4.62,0,0,0-3.3-1.22V2.85h5.85L351.48,18V5.09c0-1.33-.07-1.48-2.59-1.54V2.85h0Z"/><path class="cls-1" d="M370.81,2.36a10.49,10.49,0,0,1,10.67,10.76,10.67,10.67,0,0,1-21.34,0A10.68,10.68,0,0,1,370.81,2.36ZM378,13.13c0-4.87-2.22-9.69-7.17-9.69s-7.17,4.82-7.17,9.69,2.22,9.58,7.17,9.58S378,18,378,13.13Z"/><path class="cls-1" d="M394.19,13.5h-2v7.24c0,1.33.07,1.67,3,1.67V23.3h-8.71V22.41c2.71,0,2.78-.33,2.78-1.67V5.4c0-1.26-.07-1.67-2.78-1.67V2.85h8.45a11,11,0,0,1,5.08.87,4.76,4.76,0,0,1,2.3,4.22c0,3.95-3.39,5.56-8,5.56h0Zm0.15-9.8c-0.74,0-1.56,0-2.19.09v8.78h1c1.89,0,3.13,0,4.24-.63s1.69-1.72,1.69-3.63c0-3.59-1.67-4.61-4.74-4.61h0Z"/><path class="cls-1" d="M429.49,25.35c-0.82,1.94-2.21,3.48-3.87,3.48-2.17,0-3.59-2.61-5-5.59a11.13,11.13,0,0,1-3.46.54,10.4,10.4,0,0,1-10.67-10.65A10.68,10.68,0,0,1,417.19,2.36a10.5,10.5,0,0,1,10.67,10.76,10.45,10.45,0,0,1-4.82,9c1.15,2.52,2.19,4.56,3.5,4.56,0.83,0,1.52-.8,2.06-2Zm-19.4-8.95h0.07a5.26,5.26,0,0,1,4.91-3.82c3.45,0,5.5,4.06,7.21,7.82a11.36,11.36,0,0,0,2.33-7.28c0-4.87-2.41-9.69-7.43-9.69s-7.5,4.82-7.5,9.69a13.09,13.09,0,0,0,.41,3.28h0Zm7.09,6.3a6.75,6.75,0,0,0,2.95-.63c-1.59-3.61-3.2-7.32-5.95-7.32a3.11,3.11,0,0,0-3,3.22c0,2.41,2.45,4.72,6,4.72h0Z"/><path class="cls-1" d="M452.46,20.89l0.63,0.74a4.87,4.87,0,0,1-3.85,2.26c-4.06,0-4.06-7.11-6.45-9.52a3.15,3.15,0,0,0-2.48-.87h-1.78v7.24c0,1.33.07,1.67,3,1.67V23.3h-8.71V22.41c2.71,0,2.78-.33,2.78-1.67V5.4c0-1.26-.07-1.67-2.78-1.67V2.85h8.45a11,11,0,0,1,5.08.87,4.76,4.76,0,0,1,2.3,4.22c0,2.83-1.76,4.46-4.46,5.17v0.06c2.87,0.48,3.78,9,6.52,9a2.72,2.72,0,0,0,1.8-1.24h0Zm-12.93-8.32c1.89,0,3.13,0,4.24-.63s1.69-1.72,1.69-3.63c0-3.59-1.67-4.61-4.74-4.61-0.74,0-1.56,0-2.19.09v8.78h1Z"/><path class="cls-1" d="M468.53,18.61c0-5.5-11-3.63-11-10.28,0-3.3,2.93-5.85,6.85-5.85,2.32,0,4.65.37,6.34,0.22l0.18,0.22-1.13,5.26h-0.67c-0.28-3.61-2.24-4.74-4.71-4.74s-4.3,1.48-4.3,3.82c0,5.5,11,3.48,11,10.23,0,3.28-2.76,6.19-7.24,6.19a32.83,32.83,0,0,1-6.33-.78l-0.19-.22L458.49,17h0.67c0.28,4.54,2.7,5.67,4.91,5.67A4.2,4.2,0,0,0,468.53,18.61Z"/><path class="cls-1" d="M482.65,3.77h-0.89c-2.72,0-4.39.89-5.63,4.33l-0.63,0,0.72-5.43a38.16,38.16,0,0,0,4,.19h9a18.71,18.71,0,0,0,2.93-.19l0.22,0.19,0.44,5.21-0.67.06c-1.46-3.43-2.2-4.33-5.45-4.33h-1v17c0,1.33.07,1.67,2.78,1.67V23.3h-8.52V22.41c2.7,0,2.78-.33,2.78-1.67v-17h0Z"/><path class="cls-1" d="M502.61,5.4v9.84c0,4,.83,7.13,5.09,7.13,3.71,0,5.76-2.35,5.76-6.63V5.09c0-1.33-.07-1.48-2.59-1.54V2.85h6.34v0.7c-2.52.06-2.59,0.2-2.59,1.54v10.3c0,5-2.41,8.28-7.63,8.28s-7.48-3.43-7.48-7.46V5.4c0-1.33-.07-1.67-2.78-1.67V2.85h8.67V3.73c-2.7,0-2.78.33-2.78,1.67h0Z"/><path class="cls-1" d="M540.69,2.85V3.73c-2,0-2.35.13-2.69,1.09l-6.67,18.84h-0.22L524,5.35c-0.52-1.35-1.11-1.61-3.24-1.61V2.85h9V3.73c-2.41,0-3,.15-2.69,1.11l5.08,13.86L537,4.62c0.31-.93-0.56-0.89-2.46-0.93V2.85h6.19Z"/><path class="cls-1" d="M568.77,2.85H575V3.73c-2,0-2.3.13-2.69,1.09l-7.41,18.84h-0.22L560.09,13l-5.26,10.71H554.6L547,5.35c-0.56-1.35-1.11-1.61-3.24-1.61V2.85h8.84V3.73c-2.22,0-2.89.15-2.5,1.11l6,14.5,3.59-7.48-2.78-6.52c-0.57-1.35-1.13-1.61-3.26-1.61V2.85h13.19V3.73c-2,0-2.22.17-2.69,1.09l-2.26,4.59,3.91,9.41,5.5-14.21c0.35-.93-0.56-0.89-2.46-0.93V2.85h0Zm-8.85,2,1.43,3.41,1.74-3.63c0.45-.93.2-0.89-1.46-0.89-2,0-2.19-.06-1.71,1.11h0Z"/><path class="cls-1" d="M593.83,20.7c0.91,1.57,1.13,1.7,3.39,1.7V23.3h-8.34V22.41c2.33,0,2.41-.19,1.63-1.54L587,14.72l-4.15,6.17c-0.89,1.31-1,1.52,1.24,1.52V23.3h-6V22.41c1.85,0,2.48-.11,3.37-1.45l4.95-7.34-4.71-8.17c-0.89-1.56-1.07-1.72-3.45-1.72V2.85h8.15V3.73c-2.15,0-2.15.2-1.39,1.54l3.22,5.61,3.89-5.76c0.8-1.17.58-1.39-1.52-1.39V2.85h5.8V3.73c-1.74,0-2,.09-3,1.46L588.81,12l5,8.72h0Z"/><path class="cls-1" d="M614.11,2.85h6.19V3.73c-2,0-2.15.2-2.69,1.09l-5.39,8.84v7.08c0,1.33.07,1.67,3,1.67V23.3h-8.71V22.41c2.71,0,2.78-.33,2.78-1.67V13.81l-5.69-8.47c-0.81-1.2-1.11-1.61-3.24-1.61V2.85h9.06V3.73c-2.41,0-3.24.26-2.69,1.11l5.06,7.67,4.82-7.89c0.5-.83-0.56-0.89-2.46-0.93V2.85h0Z"/><path class="cls-1" d="M639,17.65l-0.54,5.84a38,38,0,0,0-4-.19H623.81V23.07l11.26-19.3h-5c-2.72,0-4.37.89-5.61,4.33l-0.63,0,0.72-5.43a38,38,0,0,0,4,.19h10.37V3.07L627.69,22.33h5.22c2.72,0,4.3-.89,5.43-4.71Z"/><path class="cls-1" d="M53.63,69.22l0.56,0.7a3.61,3.61,0,0,1-2.89,1.7A2.18,2.18,0,0,1,49,69.15V68.81H49a4.83,4.83,0,0,1-4.33,2.82,3.16,3.16,0,0,1-3.46-3.15c0-3,3.83-4.54,7.76-4.43V61.7c0-2.24-.3-3.3-2.5-3.3a9.28,9.28,0,0,0-1.93.22,4.83,4.83,0,0,1,.17,1.22,1.56,1.56,0,0,1-1.56,1.67A1.46,1.46,0,0,1,41.67,60c0-1.8,2.91-2.5,5-2.5,2.83,0,4.91,1.28,4.91,4.06v7.21c0,0.89.22,1.5,0.76,1.5a1.88,1.88,0,0,0,1.26-1.06h0ZM48.95,65a6.81,6.81,0,0,0-3.85.8,2.79,2.79,0,0,0-1.15,2.43c0,1.46.78,2.26,1.74,2.26,1.28,0,2.41-1.41,2.87-2.52a5.84,5.84,0,0,0,.39-2.33V65Z"/><path class="cls-1" d="M61.87,49.07V48.18C63.94,48.1,66.05,48,67.2,48V60.52h0.07A5.3,5.3,0,0,1,72,57.66a6.58,6.58,0,0,1,6.45,7,6.59,6.59,0,0,1-6.45,7,5.3,5.3,0,0,1-4.71-2.85H67.2a17.89,17.89,0,0,0-.95,2.56H64.53V50.62C64.53,49.21,64.33,49.1,61.87,49.07Zm5.3,15.56c0,3.7,2.24,6.08,4.54,6.08s3.61-2.54,3.61-6.08-1.2-6.08-3.61-6.08-4.54,2.33-4.54,6.08h0Z"/><path class="cls-1" d="M96.1,58.57c-2.82,0-4,2.48-4,5.85s1.17,6.09,3.91,6.09a4.83,4.83,0,0,0,4-2.48l0.76,0.65a6.54,6.54,0,0,1-5.46,2.91c-3.8,0-6.35-2.89-6.35-6.76a6.79,6.79,0,0,1,7.13-7.17c2.09,0,3.89.63,3.89,2.15a1.5,1.5,0,0,1-1.48,1.59A1.48,1.48,0,0,1,97,59.89a7.11,7.11,0,0,1,.15-1.22,7.66,7.66,0,0,0-1.09-.09h0Z"/><path class="cls-1" d="M124.14,68.81c0,1.41.2,1.52,2.48,1.59v0.89c-2.26.11-4,.22-5.08,0.3V68.81h-0.07a5.08,5.08,0,0,1-4.63,2.93A5.78,5.78,0,0,1,111,65.61c0-4.37,3.22-7.84,8.19-7.84h2.28V50.62c0-1.41-.2-1.52-2.67-1.56V48.18C120.88,48.1,123,48,124.14,48V68.81h0Zm-2.67-10c-0.63-.06-1.41-0.11-2-0.11-4.19,0-5.37,2.83-5.37,6.5s1.26,5.46,3.28,5.46,3.19-1.67,3.69-2.95a6.17,6.17,0,0,0,.39-2.33V58.85Z"/><path class="cls-1" d="M147.59,68.29l0.59,0.78a7.16,7.16,0,0,1-5.39,2.52c-3.8,0-6.24-2.89-6.24-6.76,0-4.5,2.93-7.17,6.41-7.17s5.41,2.58,5.41,6.22h-8.71v0.54c0,3.43,1,6.09,3.72,6.09A5.94,5.94,0,0,0,147.59,68.29Zm-7.85-5.37h5.74c-0.09-2.11-.74-4.41-2.65-4.41S140,60.33,139.74,62.92Z"/><path class="cls-1" d="M170.94,50.1a1.5,1.5,0,0,1-1.48,1.59,1.48,1.48,0,0,1-1.52-1.52,7.11,7.11,0,0,1,.15-1.2,7.12,7.12,0,0,0-1.17-.11c-3.09,0-3.24,3.2-3.24,5.95V58h3.41v1h-3.41v10c0,1.33.2,1.48,2.48,1.48V71.3h-7.63V70.41c2.28,0,2.48-.15,2.48-1.48v-10h-2.48V58H161V55.2a11.42,11.42,0,0,1,.45-3.83c0.74-2,3-3.41,5.78-3.41C169.14,48,170.94,48.58,170.94,50.1Z"/><path class="cls-1" d="M190.88,57.74l-0.09,1.7-3.48,0a3.8,3.8,0,0,1,.91,2.52c0,2.89-2.8,4.28-5.21,4.28a6.67,6.67,0,0,1-1.8-.24c-1,.54-1.8,1.2-1.8,2s0.87,1.07,2.41,1.13l3.63,0.15c3.22,0.13,4.69,1.24,4.69,3.35,0,3.17-3.13,5.5-7.48,5.5-3.52,0-6.15-1.52-6.15-3.26,0-.78.52-2.06,3-3.45a2.41,2.41,0,0,1-2.11-2.28c0-1.19.87-2.57,2.95-3.46A4,4,0,0,1,177.8,62c0-2.91,2.76-4.32,5.21-4.32a6.24,6.24,0,0,1,2.8.65l5.08-.57h0Zm-10,13.88a4.54,4.54,0,0,1-.52,0A3.8,3.8,0,0,0,179,74.3c0,1.76,1.85,2.59,4.17,2.59,2.5,0,5.37-1.06,5.37-3.19,0-1.54-1.46-1.91-4-2ZM185.77,62c0-1.7-.65-3.39-2.76-3.39s-2.76,1.69-2.76,3.39,0.65,3.43,2.76,3.43S185.77,63.66,185.77,62Z"/><path class="cls-1" d="M214.3,68.93c0,1.33.2,1.48,2.48,1.48V71.3h-7.63V70.41c2.28,0,2.48-.15,2.48-1.48V62.53c0-2.39-.52-4.06-2.33-4.06s-3.45,1.61-4.09,3.24a5.46,5.46,0,0,0-.35,2.11v5.09c0,1.33.2,1.48,2.48,1.48V71.3H199.7V70.41c2.28,0,2.48-.15,2.48-1.48V50.62c0-1.41-.2-1.52-2.67-1.56V48.18c2.08-.07,4.19-0.13,5.34-0.18V60.27H205a5.82,5.82,0,0,1,4.95-2.76c2.48,0,4.39,1.46,4.39,4.63v6.78h0Z"/><path class="cls-1" d="M226,71.3V70.41c2.28,0,2.48-.15,2.48-1.48V60.44c0-1.41-.2-1.52-2.67-1.59V58c2.45-.11,4.22-0.22,5.33-0.3V68.92c0,1.33.2,1.48,2.48,1.48V71.3H226Zm1.67-19A1.67,1.67,0,1,1,229.38,54,1.68,1.68,0,0,1,227.71,52.29Z"/><path class="cls-1" d="M247.84,57.59V74.24c0,2.32-2.7,2.61-5.15,2.61V76c2.41,0,2.48-.28,2.48-1.72v-14c0-1.33-.2-1.37-2.48-1.37V58c2.26-.11,4-0.26,5.15-0.37h0Zm-3.48-5.3A1.67,1.67,0,1,1,246,54,1.68,1.68,0,0,1,244.36,52.29Z"/><path class="cls-1" d="M275.3,70.41V71.3h-7.61V70.41c2.45,0,2.39-.11,1.63-1.32l-3.09-4.87-2.59,2v2.67c0,1.33.2,1.48,2.48,1.48V71.3h-7.63V70.41c2.28,0,2.48-.15,2.48-1.48V50.62c0-1.41-.2-1.52-2.67-1.56V48.18c2.08-.07,4.19-0.13,5.33-0.19V64.92h0.07L270.08,60c1.17-.91.63-1.2-1.56-1.32V57.81L274.67,58v0.56c-1.57.52-3.28,1.65-6.13,3.89l-0.24.2,4.17,6.48C273.32,70.41,273.69,70.41,275.3,70.41Z"/><path class="cls-1" d="M284,49.07V48.18c2.08-.07,4.19-0.13,5.33-0.19V68.92c0,1.33.2,1.48,2.48,1.48V71.3H284.2V70.41c2.28,0,2.48-.15,2.48-1.48V50.62C286.68,49.21,286.47,49.1,284,49.07Z"/><path class="cls-1" d="M325.25,68.93c0,1.33.2,1.48,2.48,1.48V71.3H320.1V70.41c2.28,0,2.48-.15,2.48-1.48V62.46c0-2.39-.65-4-2.33-4s-3.3,1.59-4,3.17a5.14,5.14,0,0,0-.37,2.15v5.17c0,1.33.2,1.48,2.48,1.48V71.3h-7.63V70.41c2.28,0,2.48-.15,2.48-1.48V62.46c0-2.39-.65-4-2.33-4s-3.3,1.59-4,3.17a5.15,5.15,0,0,0-.37,2.15v5.17c0,1.33.2,1.48,2.48,1.48V71.3h-7.63V70.41c2.28,0,2.48-.15,2.48-1.48V60.44c0-1.41-.2-1.52-2.67-1.59V58c2.45-.11,4.22-0.22,5.33-0.3v2.65h0.11a5.69,5.69,0,0,1,4.85-2.8,4,4,0,0,1,4.08,2.8H316a5.69,5.69,0,0,1,4.85-2.8c2.41,0,4.37,1.46,4.37,4.82v6.59h0Z"/><path class="cls-1" d="M351.6,68.93c0,1.33.2,1.48,2.48,1.48V71.3h-7.63V70.41c2.28,0,2.48-.15,2.48-1.48V62.53c0-2.39-.52-4.06-2.33-4.06s-3.45,1.61-4.09,3.24a5.46,5.46,0,0,0-.35,2.11v5.09c0,1.33.2,1.48,2.48,1.48V71.3H337V70.41c2.28,0,2.48-.15,2.48-1.48V60.44c0-1.41-.2-1.52-2.67-1.59V58c2.45-.11,4.22-0.22,5.33-0.3v2.61h0.11a5.82,5.82,0,0,1,4.95-2.76c2.48,0,4.39,1.46,4.39,4.63v6.78h0Z"/><path class="cls-1" d="M377.64,64.63a7,7,0,1,1-7-7A6.88,6.88,0,0,1,377.64,64.63Zm-10.87,0c0,3.2.87,6.08,3.89,6.08s3.89-2.87,3.89-6.08c0-3.39-.87-6.08-3.89-6.08S366.77,61.24,366.77,64.63Z"/><path class="cls-1" d="M394.77,71.48h-2.26v6.33c0,1.33.2,1.48,2.48,1.48v0.89h-7.63V79.3c2.28,0,2.48-.15,2.48-1.48V60.44c0-1.41-.2-1.52-2.67-1.59V58c2.44-.11,4.19-0.22,5.26-0.3v2.78h0.07a5.08,5.08,0,0,1,4.63-2.93A5.78,5.78,0,0,1,403,63.65c0,4.37-3.24,7.84-8.21,7.84h0Zm-2.26-7.65v6.58c0.63,0.06,1.41.11,2,.11,4.17,0,5.37-2.83,5.37-6.5s-1.26-5.46-3.28-5.46-3.19,1.67-3.69,2.95a6.16,6.16,0,0,0-.39,2.33h0Z"/><path class="cls-1" d="M427.47,77.82c0,1.33.2,1.48,2.48,1.48v0.89h-7.63V79.3c2.28,0,2.48-.15,2.48-1.48V68.74h-0.07A5.31,5.31,0,0,1,420,71.59a6.58,6.58,0,0,1-6.45-7,6.59,6.59,0,0,1,6.45-7,5.31,5.31,0,0,1,4.71,2.85h0.07a17.75,17.75,0,0,0,.94-2.56h1.72V77.82h0ZM420.3,58.55c-2.41,0-3.61,2.54-3.61,6.08s1.2,6.08,3.61,6.08,4.54-2.33,4.54-6.08S422.59,58.55,420.3,58.55Z"/><path class="cls-1" d="M448.2,57.48a1.89,1.89,0,0,1,2.13,1.91,1.55,1.55,0,0,1-1.54,1.69,1.41,1.41,0,0,1-1.44-1.44,2.68,2.68,0,0,1,.37-1.22V58.33a4.6,4.6,0,0,0-3.41,2.8,5.73,5.73,0,0,0-.35,2.33v5.46c0,1.33.2,1.48,2.48,1.48V71.3h-7.63V70.41c2.28,0,2.48-.15,2.48-1.48V60.44c0-1.41-.2-1.52-2.67-1.59V58c2.45-.11,4.22-0.22,5.33-0.3v2.26H444a5.39,5.39,0,0,1,4.17-2.45h0Z"/><path class="cls-1" d="M465,70.81c1.78,0,2.76-1,2.76-2.26,0-3.41-7.43-2.24-7.43-6.85,0-2.48,2.09-4.11,4.76-4.11a21.4,21.4,0,0,1,4.13.46l-0.56,3.48h-0.56c-0.65-2-1.33-3.09-3.17-3.09-1.54,0-2.61.78-2.61,2.07,0,3.41,7.45,2,7.45,6.82,0,2.48-2,4.33-5,4.33a18.59,18.59,0,0,1-4.37-.7l0.37-3.56h0.56c0.72,2.32,1.82,3.41,3.69,3.41h0Z"/><path class="cls-1" d="M480,58.92V58c0.28,0,.63,0,0.93,0,1.59-.09,1.59-0.72,1.59-2.67V53.72h2.37V58h3.37v1h-3.37V68c0,1.91.48,2.43,1,2.43a2.37,2.37,0,0,0,1.65-1.28l0.7,0.52a4.14,4.14,0,0,1-3.41,2c-1.72,0-2.63-1.19-2.63-3.06V58.92H480Z"/><path class="cls-1" d="M512.41,68.81c0,1.41.2,1.52,2.67,1.59V71.3c-2.45.11-4.22,0.22-5.33,0.3V69h-0.11a5.82,5.82,0,0,1-4.95,2.76c-2.48,0-4.39-1.46-4.39-4.63V60.44c0-1.41-.2-1.52-2.67-1.59V58c2.45-.11,4.22-0.22,5.34-0.3v9.06c0,2.39.52,4.06,2.33,4.06s3.45-1.61,4.09-3.24a5.48,5.48,0,0,0,.35-2.11v-5c0-1.41-.2-1.52-2.67-1.59V58c2.45-.11,4.22-0.22,5.33-0.3V68.81h0Z"/><path class="cls-1" d="M539,58v0.89c-1.61,0-1.82.06-2.28,1.11l-3.95,9-1.28,2.91h-0.22L525.75,60c-0.5-1.07-.65-1.11-2.45-1.11V58h7v0.89c-2,0-2.07.09-1.74,0.81l3.76,8.17,3.39-7.91c0.44-1,.28-1.07-1.89-1.07V58H539Z"/><path class="cls-1" d="M563,58h5.67v0.89c-1.87,0-2,.17-2.3,1.17l-2.69,8.48v0h0l-1.06,3.33h-0.22L558,61.79l-2.65,6.69,0,0h0L554,71.85h-0.22l-4-12.13c-0.28-.82-0.52-0.87-2.3-0.87V58h7.19v0.89c-2.15,0-2.28.13-2,.87l2.3,7.3,3.8-9.43h0.22L563,67l2.06-7c0.31-1.07.26-1.17-2.08-1.17V58h0Z"/><path class="cls-1" d="M590.3,68.7c1.09,1.41,1.5,1.7,3.2,1.7V71.3h-8V70.41c2.45,0,2.58-.31,1.63-1.54l-2.3-3-2.67,3c-1,1.17-1,1.52,1.24,1.52V71.3h-6V70.41c1.85,0,2.32-.24,3.37-1.44l3.45-3.91-3.45-4.48c-1.06-1.37-1.56-1.72-3.26-1.72V58h7.83v0.89c-2.28,0-2.3.35-1.39,1.54l2,2.65,2.48-2.8c0.93-1.06.57-1.39-1.52-1.39V58h5.8v0.89c-1.74,0-1.85.2-3,1.46l-3.15,3.56,3.7,4.83h0Z"/><path class="cls-1" d="M612.7,58h5.22v0.89c-1.61,0-1.8.06-2.28,1.11l-7.34,16.19c-0.67,1.44-1.06,3.11-2.26,3.11a1.25,1.25,0,0,1-1.24-1.3,2,2,0,0,1,.44-1.19A3.5,3.5,0,0,0,608,74.54l1.67-3.7-5-10.87c-0.5-1.07-.65-1.11-2.45-1.11V58h6.95v0.89c-2,0-2.07.09-1.74,0.81l3.71,8,3.5-7.76c0.46-1,.28-1.07-1.89-1.07V58h0Z"/><path class="cls-1" d="M638.38,66.76h0.56l-0.24,4.54h-11.5V70.83l8.15-12h-3.28c-2.43,0-2.91.46-3.33,3.13h-0.56l-0.37-4h11.06v0.46l-8.15,12h3.8c2.24,0,2.83-.39,3.87-3.65h0Z"/><path class="cls-1" d="M58.71,112.41v0.89h-8v-0.89c1.85,0,2.39-.11,2.07-0.87l-1.09-2.59H44.89l-1.22,2.8c-0.26.61-.19,0.69,2,0.7v0.85H40.3v-0.85c1.93,0,1.95-.11,2.28-0.85l6.56-14.86h0.22L55.88,111C56.47,112.3,56.8,112.41,58.71,112.41ZM51.32,108l-2.95-7-3.06,7h6Z"/><path class="cls-1" d="M65.48,97.74h7.72c3.32,0,5.67,1,5.67,3.43,0,1.61-1,3.33-4.21,4v0.06c3.5,0.13,5.26,1.37,5.26,3.61a4.29,4.29,0,0,1-2.46,4,10.11,10.11,0,0,1-3.76.5H65.48v-0.89c2.71,0,2.78-.33,2.78-1.67V100.29c0-1.33-.07-1.67-2.78-1.67V97.74h0ZM71,104.81a8.43,8.43,0,0,0,3.43-.32,3.55,3.55,0,0,0,1.63-3.26c0-2.26-1.59-2.63-3.26-2.63-0.33,0-1.43,0-1.8.06v6.15Zm1.69,7.59c2.45,0,4.28-1.17,4.28-3.61,0-2-1.28-3-4-3-0.54,0-1.17,0-2,.07v6.41A14.22,14.22,0,0,0,72.69,112.41Z"/><path class="cls-1" d="M101.13,109.72l0.76,0.61a6.8,6.8,0,0,1-6.13,3.26A7.49,7.49,0,0,1,88,105.74c0-5.39,3.91-8.3,8.32-8.3,2.22,0,4.13.41,5.39,0.3l0.15,0.17L100.69,103H100c-0.2-3.11-1.35-4.63-3.76-4.63-3.32,0-5.19,2.93-5.19,6.91,0,4.19,1.93,7.21,5.32,7.21A5.25,5.25,0,0,0,101.13,109.72Z"/><path class="cls-1" d="M112.89,97.74c1.3,0,3.69,0,4.48,0a10.48,10.48,0,0,1,3.78.56,7.93,7.93,0,0,1,0,14.52,10.48,10.48,0,0,1-3.78.56c-0.8,0-3.19,0-4.48,0h-3.41v-0.89c2.06,0,2.11-.24,2.11-1.26V99.88c0-1-.06-1.26-2.11-1.26V97.74h3.41Zm4.19,14.6c3.95,0,5.74-2.48,5.74-6.82s-1.8-6.82-5.74-6.82c-0.78,0-2.09,0-2.74.07v13.49C115,112.33,116.3,112.33,117.08,112.33Z"/><path class="cls-1" d="M148.45,107.63l0.63,0-0.54,5.84a38,38,0,0,0-4-.19H133.63v-0.89c2.71,0,2.78-.33,2.78-1.67V100.29c0-1.33-.07-1.67-2.78-1.67V97.74H145a18.8,18.8,0,0,0,2.93-.18l0.22,0.18-0.74,5.19-0.67.06c-0.28-3.41-1.2-4.32-4.45-4.32h-3.11v6.26h1.22c2.5,0,3.83-.48,3.83-3.09h0.56l0,7h-0.56c0-2.61-1.31-3.09-3.82-3.09h-1.22v6.56H143c2.72,0,4.3-.89,5.43-4.71h0Z"/><path class="cls-1" d="M171.56,97.74l-0.74,5.19-0.67.06c-0.28-3.41-1.2-4.32-4.45-4.32h-3.11v7h1.59c2.5,0,3.83-.48,3.83-3.09h0.56l0,7H168c0-2.61-1.32-3.09-3.82-3.09h-1.59v4.22c0,1.33.07,1.67,3.15,1.67v0.89h-8.67v-0.89c2.71,0,2.78-.33,2.78-1.67V100.29c0-1.33-.07-1.67-2.78-1.67V97.74h11.34a18.8,18.8,0,0,0,2.93-.18Z"/><path class="cls-1" d="M194.93,105.81v0.89c-2.71,0-2.78.33-2.78,1.67v4.93h-1.24l-0.69-.91a7.36,7.36,0,0,1-4.2,1.2,7.49,7.49,0,0,1-7.76-7.85c0-5.39,3.91-8.3,8.5-8.3,2.41,0,4.32.41,5.58,0.3l0.15,0.17L191.32,103h-0.67c-0.2-3.11-1.35-4.63-3.95-4.63-3.5,0-5.37,2.93-5.37,6.91,0,4.19,1.93,7.21,5.32,7.21a5.57,5.57,0,0,0,3-.89v-3.26c0-1.33-.07-1.67-2.78-1.67v-0.89h8Z"/><path class="cls-1" d="M218.23,100.29v10.45c0,1.33.07,1.67,2.78,1.67v0.89h-8.3v-0.89c2.71,0,2.78-.33,2.78-1.67v-5h-8.74v5c0,1.33.07,1.67,2.78,1.67v0.89h-8.3v-0.89c2.7,0,2.78-.33,2.78-1.67V100.29c0-1.33-.07-1.67-2.78-1.67V97.74h8.3v0.89c-2.71,0-2.78.33-2.78,1.67v4.45h8.74v-4.45c0-1.33-.07-1.67-2.78-1.67V97.74H221v0.89C218.3,98.63,218.23,99,218.23,100.29Z"/><path class="cls-1" d="M234.26,110.74c0,1.33.07,1.67,2.78,1.67v0.89h-8.3v-0.89c2.71,0,2.78-.33,2.78-1.67V100.29c0-1.33-.07-1.67-2.78-1.67V97.74H237v0.89c-2.7,0-2.78.33-2.78,1.67v10.45Z"/><path class="cls-1" d="M247.56,100.29c0-1.33-.07-1.67-2.78-1.67V97.74h8.3v0.89c-2.71,0-2.78.33-2.78,1.67V114c0,3.06-2.22,3.35-5.59,3.35v-0.89c2.78,0,2.85-.28,2.85-2.46V100.29Z"/><path class="cls-1" d="M279.8,112.41v0.89h-8.87v-0.89c2.85,0,2.91-.24,1.89-1.54l-4.21-5.37-2.43,1.91v3.33c0,1.33.07,1.67,2.78,1.67v0.89h-8.3v-0.89c2.71,0,2.78-.33,2.78-1.67V100.29c0-1.33-.07-1.67-2.78-1.67V97.74H269v0.89c-2.7,0-2.78.33-2.78,1.67v5.56h0.09l7.43-5.78c1.37-1.06.74-1.41-1.82-1.54V97.59l7.19,0.19v0.59c-1.83.59-3.83,1.91-7.17,4.54l-0.91.72,5.5,7.24C277.62,112.33,277.93,112.41,279.8,112.41Z"/><path class="cls-1" d="M295.34,112.33c2.72,0,4.3-.89,5.43-4.71l0.63,0-0.54,5.83a38,38,0,0,0-4-.19H286.5v-0.89c2.71,0,2.78-.33,2.78-1.67V100.29c0-1.33-.07-1.67-2.78-1.67V97.74h8.3v0.89c-2.7,0-2.78.33-2.78,1.67v12h3.32Z"/><path class="cls-1" d="M330.17,98.63c-2.7,0-2.78.33-2.78,1.67v10.45c0,1.33.07,1.67,2.78,1.67v0.89h-8.3v-0.89c2.71,0,2.78-.33,2.78-1.67V100.46l-6.19,13.21h-0.22l-6.13-12.15c-0.17-.35-0.33-0.65-0.5-0.93V111c0,1.33.07,1.48,2.59,1.56v0.7h-6.15v-0.7c2.52-.07,2.59-0.22,2.59-1.56V99.44c-0.7-.56-1.57-0.65-3.11-0.69v-1h5.8l5.74,11.63,5.54-11.63h5.56v0.89h0Z"/><path class="cls-1" d="M356.28,97.74v0.7c-2.52.06-2.59,0.2-2.59,1.54v13.69h-0.22l-10.32-10.87c-0.8-.83-1.44-1.52-2-2.06V111c0,1.33.07,1.48,2.59,1.56v0.7h-6.37v-0.7c2.52-.07,2.59-0.22,2.59-1.56V99.68a4.79,4.79,0,0,0-3.3-1.24v-0.7h5.63l10.23,10.8V100c0-1.33-.08-1.48-2.59-1.54v-0.7h6.37Z"/><path class="cls-1" d="M371.17,97.4a8.11,8.11,0,1,1-8.22,8.15A8.17,8.17,0,0,1,371.17,97.4Zm5,8.15c0-3.56-1.45-7.08-5-7.08s-5,3.52-5,7.08,1.45,7,5,7S376.21,109.13,376.21,105.55Z"/><path class="cls-1" d="M394.45,106.54h-1.8v4.2c0,1.33.07,1.67,2.78,1.67v0.89h-8.3v-0.89c2.71,0,2.78-.33,2.78-1.67V100.29c0-1.26-.07-1.67-2.78-1.67V97.74H395a8.82,8.82,0,0,1,4.11.7A3.94,3.94,0,0,1,401,102c0,3.09-2.78,4.58-6.54,4.58h0Zm-0.24-7.91c-0.48,0-1.06,0-1.56.06v6.93h0.78a6.59,6.59,0,0,0,3.3-.54,3,3,0,0,0,1.52-2.91c0-2.91-1.74-3.54-4-3.54h0Z"/><path class="cls-1" d="M427.62,114.94c-0.7,1.54-2,3.15-3.63,3.15-2,0-3.28-2.52-4.45-5.28a8.37,8.37,0,0,1-3.7.81,8,8,0,0,1-8.22-8.08,8.17,8.17,0,0,1,8.22-8.15,8,8,0,0,1,8.22,8.15,7.92,7.92,0,0,1-2.5,5.91c1.06,2.45,2,4.52,3.35,4.52,0.78,0,1.35-.69,1.82-1.74Zm-17.15-6.74h0.06c0.52-2.89,2.41-4.3,4.5-4.3,2.69,0,4.32,2.65,5.61,5.46a9.54,9.54,0,0,0,.72-3.82c0-3.56-1.61-7.08-5.52-7.08s-5.52,3.52-5.52,7.08a25.64,25.64,0,0,0,.15,2.65h0Zm8.54,3.33c-1.22-2.87-2.5-5.59-4.69-5.59a2.87,2.87,0,0,0-2.82,3c0,2.19,1.83,3.61,4.33,3.61A5.06,5.06,0,0,0,419,111.54Z"/><path class="cls-1" d="M448.39,110.89l0.63,0.74a4.84,4.84,0,0,1-3.76,2.26c-3.22,0-3.24-5-4.93-6.72a2.24,2.24,0,0,0-1.76-.63h-1.26v4.21c0,1.33.07,1.67,2.78,1.67v0.89h-8.3v-0.89c2.71,0,2.78-.33,2.78-1.67V100.29c0-1.26-.07-1.67-2.78-1.67V97.74h7.85a8.82,8.82,0,0,1,4.11.7,3.94,3.94,0,0,1,1.89,3.52c0,2.24-1.46,3.65-3.71,4.24v0.11c2,0.33,2.39,5.82,4.61,5.82a2.7,2.7,0,0,0,1.83-1.24h0Zm-7-5.82a3,3,0,0,0,1.52-2.91c0-2.91-1.74-3.54-4-3.54-0.48,0-1.06,0-1.56.06v6.93h0.78A6.59,6.59,0,0,0,441.39,105.07Z"/><path class="cls-1" d="M461.45,112.7c2.3,0,3.37-1.28,3.37-2.67,0-3.95-8.63-2.7-8.63-8,0-2.69,2.17-4.52,5.32-4.52,2.11,0,3.87.28,5.15,0.17l0.13,0.17-0.93,4.71h-0.67c0-2.91-1.45-4.08-3.82-4.08-1.93,0-3.09.87-3.09,2.39,0,4.19,8.65,2.67,8.65,8,0,2.65-2.06,4.76-5.8,4.76a24.27,24.27,0,0,1-5-.59l-0.15-.17,0.93-5h0.67c0.06,3.8,1.8,4.78,3.83,4.78h0Z"/><path class="cls-1" d="M480.39,98.66c-2.72,0-4.37.89-5.61,4.33l-0.63,0,0.72-5.43a38.19,38.19,0,0,0,4,.19h8.22a18.73,18.73,0,0,0,2.93-.19l0.22,0.19,0.44,5.21L490,103c-1.46-3.43-2.2-4.33-5.45-4.33h-0.8v12.08c0,1.33.07,1.67,2.78,1.67v0.89h-8.3v-0.89c2.7,0,2.78-.33,2.78-1.67V98.66h-0.63Z"/><path class="cls-1" d="M503,100.29V106c0,4.22,1.35,6.43,4.72,6.43,3.15,0,5.39-2,5.39-5.93V100c0-1.33-.07-1.48-2.59-1.54v-0.7h6.33v0.7c-2.52.06-2.59,0.2-2.59,1.54v6.15c0,4.67-2.59,7.54-7.19,7.54s-7-2.69-7-6.91v-6.46c0-1.33-.07-1.67-2.78-1.67V97.74h8.45v0.89c-2.71,0-2.78.33-2.78,1.67h0Z"/><path class="cls-1" d="M540,97.74v0.85c-1.93,0-2,.11-2.28.85l-5.93,14.41h-0.22l-6-13.82c-0.57-1.31-.93-1.41-2.83-1.41V97.74h7.78v0.89c-1.85,0-2.39.11-2.08,0.87l4,9.95,4.11-10.15c0.24-.61.19-0.69-2-0.7V97.74H540Z"/><path class="cls-1" d="M566.12,97.74h5.41v0.85c-1.93,0-2,.11-2.28.85l-5.93,14.41H563.1l-3.82-8.22-4.74,8.22h-0.22L548.05,100c-0.59-1.3-.93-1.41-2.83-1.41V97.74H553v0.89c-1.85,0-2.41.11-2.08,0.87l4.63,10.5,3.19-5.5L556.67,100c-0.59-1.26-.94-1.41-2.67-1.41V97.74h11.12v0.85c-1.93,0-1.87.15-2.28,0.85L561,102.7l3.06,6.8,4.13-10.21c0.24-.61.19-0.69-2-0.7V97.74h0Zm-5.67,3.82,1.39-2.39c0.26-.44.28-0.57-1.2-0.57s-1.46.11-1.24,0.61Z"/><path class="cls-1" d="M595.67,112.41v0.89h-8.95v-0.89c2.85,0,3-.39,1.89-1.8l-2.89-3.69-3.26,3.7c-1.2,1.37-1.15,1.78,1.45,1.78v0.89h-7.06v-0.89c2.17,0,2.72-.3,3.95-1.69L585,106l-4.17-5.33c-1.24-1.59-1.82-2-3.82-2V97.74h8.74v0.89c-2.67,0-2.72.41-1.63,1.8l2.7,3.45,3.17-3.63c1.07-1.22.67-1.61-1.78-1.61V97.74H595v0.89c-2,0-2.17.22-3.46,1.7l-3.95,4.5,4.37,5.59C593.21,112.06,593.67,112.41,595.67,112.41Z"/><path class="cls-1" d="M617.89,97.74v0.89c-1.59,0-1.65.17-2.09,0.85l-4.58,7v4.28c0,1.33.07,1.67,3,1.67v0.89H605.7v-0.89c2.71,0,2.78-.33,2.78-1.67v-4.28l-4.72-6.59c-0.65-.91-0.87-1.24-2.54-1.24V97.74H609v0.89c-1.89,0-2.56.2-2.09,0.85l4,5.63,3.8-5.8c0.43-.65-0.43-0.69-1.93-0.72V97.74h5.13Z"/><path class="cls-1" d="M637.78,107.63l0.63,0-0.54,5.84a38,38,0,0,0-4-.19h-9.71v-0.22l10.45-14.41h-4.17c-2.72,0-4.37.89-5.61,4.33l-0.63,0,0.72-5.43a38.18,38.18,0,0,0,4,.19h9.45V98l-10.43,14.37h4.41c2.72,0,4.3-.89,5.43-4.71h0Z"/><path class="cls-2" d="M49.32,158.87c-1.2,1.72-2.48,2.72-4.19,2.72-3,0-4.59-2.95-3.82-6.95,0.74-3.8,3.06-7,6.19-7A3.35,3.35,0,0,1,51,150.4H51L51.5,148h2.3l-1.89,9.82c-0.37,1.93,0,2.56.54,2.56s1.43-.78,2.43-3.08l0.67,0.82c-1,2.3-2.41,3.59-3.91,3.59a2.38,2.38,0,0,1-2.24-2.8H49.32Zm-5.48-4.3c-0.59,3.13-.26,6.06,1.72,6.06,1.8,0,3.85-2.35,4.59-6.15s-0.5-5.89-2.17-5.89C46,148.59,44.41,151.55,43.83,154.57Z"/><path class="cls-2" d="M66.66,139.14l0.11-1c1.71,0,4.52-.22,5.59-0.3l-1.76,12.5h0.07a5.18,5.18,0,0,1,4.3-2.72c3,0,4.91,2.94,4.33,6.95-0.54,3.8-2.83,7-6,7a3.94,3.94,0,0,1-3.91-2.74H69.36L69,161.3h-2.3l3.09-22C69.14,139.27,67.34,139.2,66.66,139.14Zm10.13,15.47c0.43-3.13-.39-6-2.28-6-1.71,0-3.95,2.32-4.46,6s1.09,6,2.8,6C74.77,160.59,76.38,157.63,76.79,154.61Z"/><path class="cls-2" d="M94.26,154.65c-0.43,3.08.43,5.8,2.72,5.8,1.43,0,2.95-1.15,4-3.09l0.65,0.7a6.13,6.13,0,0,1-5.26,3.54c-3.35,0-5.15-3.13-4.61-6.95s3.15-7,6.76-7c1.65,0,3.45.7,3.45,2.22a1.44,1.44,0,0,1-1.48,1.52,1.48,1.48,0,0,1-1.52-1.52,7.78,7.78,0,0,1,.22-1.44H98.65C96.29,148.44,94.66,151.74,94.26,154.65Z"/><path class="cls-2" d="M128.53,158.07c-0.87,2-2.15,3.59-3.95,3.59-1.45,0-2.15-1-2.11-2.74H122.4a4.73,4.73,0,0,1-4.13,2.82c-2.72,0-5-2.32-4.39-6.5,0.56-4,3.95-7.46,7.91-7.46a7.44,7.44,0,0,1,2.11.33l1.24-8.84c-0.69,0-2.48-.08-3.17-0.13l0.11-1c1.7,0,4.52-.22,5.59-0.3L124.9,157.7c-0.33,1.89,0,2.63.54,2.63s1.52-.91,2.43-3.08Zm-5.41-4.46,0.65-4.54a5.28,5.28,0,0,0-1.85-.33c-3.15,0-4.82,2.83-5.28,6.19-0.52,3.67.52,5.78,2.28,5.78,1.32,0,2.56-1.17,3.39-3.37a17,17,0,0,0,.81-3.72h0Z"/><path class="cls-2" d="M144.9,160.44c1.43,0,2.95-1.15,4-3.09l0.65,0.7a6.13,6.13,0,0,1-5.26,3.54c-3.35,0-5.15-3.13-4.61-6.95s3.15-6.91,6.76-6.91c1.76,0,3.41.72,3.41,2.33,0,1.08-.7,3.28-7.33,4,0,0.18-.07.37-0.09,0.55-0.43,3.08.2,5.8,2.5,5.8h0Zm1.26-11.93c-1.65,0-2.91,2.32-3.5,4.8,4.52-.56,4.95-2.67,4.95-3.39a1.35,1.35,0,0,0-1.44-1.41h0Z"/><path class="cls-2" d="M172.82,140.07a1.66,1.66,0,0,1-1.65,1.69,1.69,1.69,0,0,1-1.7-1.76,4.58,4.58,0,0,1,.13-1c-1.76.15-3,2.09-3.43,6L165.85,148h3.39l-0.15,1h-3.33l-1.46,13.65a16.48,16.48,0,0,1-.59,3.37,6.09,6.09,0,0,1-5.74,4.61c-1.95,0-2.82-1.15-2.82-2.19a1.66,1.66,0,0,1,1.65-1.69,1.69,1.69,0,0,1,1.7,1.76,4.66,4.66,0,0,1-.13,1c2.26-.15,3.13-2.17,3.57-6.32l1.52-14.17h-2.8l0.15-1h2.74l0.28-2.58a15.64,15.64,0,0,1,.43-2.58c1.11-4.08,3.8-4.93,5.58-4.93C171.95,137.88,172.82,139,172.82,140.07Z"/><path class="cls-2" d="M192.47,147.05a1.39,1.39,0,0,1-1.31,1.33,1.35,1.35,0,0,0-1.08-.63,1.72,1.72,0,0,0-1.35.72,3.68,3.68,0,0,1,1.41,3.67,5,5,0,0,1-2.65,3.83,8.87,8.87,0,0,1-2.46.72c-1.74.3-2.78,0.56-2.83,1.17-0.19,1.71,7.87,1.58,7.87,5.46,0,2.37-2.87,4-6.06,4s-5.59-1.46-5.59-3.5a2.5,2.5,0,0,1,2.33-2.56,1.37,1.37,0,0,1,1.52,1.39c0,1.08-.85,1.83-2.7,1.54,0.56,1.41,2.78,2.19,4.91,2.19,2.33,0,3.93-.89,3.93-2.17,0-2.17-4.76-2.43-7.13-4a2.33,2.33,0,0,1-1.33-2.06c0.18-1.46,2.48-1.93,3.74-2.13V156c-1.57-.19-3.08-2-2.76-4.41a4.85,4.85,0,0,1,5-3.95,4.9,4.9,0,0,1,2.35.56,3.45,3.45,0,0,1,2.83-2.3A1.22,1.22,0,0,1,192.47,147.05Zm-6.63,1.43c-1.56,0-2.58,1.52-2.83,3.19-0.3,1.91.46,3.93,2.22,3.93s2.59-1.78,2.82-3.46C188.32,150.05,187.44,148.48,185.84,148.48Z"/><path class="cls-2" d="M216.5,158.07c-1,2.17-2.19,3.59-3.87,3.59-1.43,0-2.22-1-2.11-3.3s1-5.17,1.13-7.52c0.06-1.45-.33-2.19-1-2.19-1.22,0-3.35,2.69-4.3,5.35a14,14,0,0,0-.61,2.46l-0.69,4.82H202.7l3.09-22c-0.69,0-2.48-.07-3.17-0.13l0.11-1c1.7,0,4.56-.22,5.63-0.3l-1.95,13.84h0.06c1.17-2.61,3-4.09,4.83-4.09s2.8,1.2,2.67,3.43c-0.11,1.95-1,5.76-1.11,7.71-0.05,1.17.19,1.54,0.58,1.54,0.63,0,1.48-.91,2.39-3Z"/><path class="cls-2" d="M230.89,149.05c-0.69,0-2.48-.07-3.17-0.13l0.11-1c1.7,0,4.54-.22,5.61-0.3l-1.78,10c-0.33,1.89,0,2.63.54,2.63s1.52-.91,2.43-3.07l0.67,0.81c-0.87,2-2.15,3.59-3.95,3.59s-2.52-1.5-2.06-4l1.59-8.65h0Zm-0.57-6.54a1.67,1.67,0,1,1,1.67,1.67A1.68,1.68,0,0,1,230.32,142.51Z"/><path class="cls-2" d="M249.09,151.37c0.18-1.54,0-2.33-.61-2.33s-1.59.91-2.63,2.82l-0.5-.89c0.91-1.59,2.19-3.19,4-3.19s2.35,1.46,2.09,3.59l-1.22,10a16.55,16.55,0,0,1-.59,3.37,6.09,6.09,0,0,1-5.74,4.61c-1.94,0-2.82-1.15-2.82-2.19a1.66,1.66,0,0,1,1.65-1.69,1.69,1.69,0,0,1,1.7,1.76,4.58,4.58,0,0,1-.13,1c2.26-.15,3.13-2.17,3.54-6.32Zm-0.22-8.85a1.67,1.67,0,1,1,1.67,1.67A1.68,1.68,0,0,1,248.86,142.51Z"/><path class="cls-2" d="M277.89,157.11l0.46,0.93c-1,2.22-2.48,3.78-4.11,3.78a1.93,1.93,0,0,1-1.89-1.44c-0.8-2.22.19-6.37-2.59-6.37a4.72,4.72,0,0,0-1.56.31l-1,7h-2.37l3.09-22c-0.69,0-2.48-.07-3.17-0.13l0.11-1c1.7,0,4.56-.22,5.63-0.3l-2.17,15.43a8.93,8.93,0,0,1,2-.41c0.78-2.61,3.07-5.5,5.37-5.5a1.83,1.83,0,0,1,2,1.82,1.63,1.63,0,0,1-1.69,1.67,1.66,1.66,0,0,1-1.63-2,6.71,6.71,0,0,0-2.85,4.13c3.71,0.87,1.83,7.41,3.54,7.41,0.63,0,1.59-.93,2.78-3.28h0Z"/><path class="cls-2" d="M290,139.14l0.11-1c1.7,0,4.54-.22,5.61-0.3L292.9,157.7c-0.26,1.91,0,2.63.54,2.63s1.52-.91,2.43-3.08l0.67,0.82c-0.87,2-2.15,3.59-3.95,3.59s-2.41-1.46-2.06-4l2.59-18.43C292.43,139.27,290.64,139.2,290,139.14Z"/><path class="cls-2" d="M310.59,149.05c-0.69,0-2.48-.07-3.17-0.13l0.11-1c1.7,0,4.43-.22,5.5-0.3-0.22,1.37-.56,3.17-0.85,4.74h0.09c1.39-3.3,3-4.78,4.8-4.78,2,0,2.72,1.82,2.17,4.78h0.09c1.39-3.3,3-4.78,4.82-4.78s2.8,1.2,2.67,3.43c-0.11,1.95-1,5.76-1.11,7.71-0.06,1.17.19,1.54,0.57,1.54,0.63,0,1.48-.91,2.39-3l0.67,0.81c-1,2.17-2.19,3.59-3.87,3.59-1.43,0-2.22-1-2.11-3.3s1-5.17,1.13-7.52c0.06-1.45-.33-2.19-1-2.19-1.22,0-3,2.67-3.95,5.37a17.49,17.49,0,0,0-.78,3.54l-0.52,3.72h-2.33l1.46-10.45c0.2-1.46-.31-2.19-1-2.19-1.22,0-3,2.67-3.93,5.37a17.55,17.55,0,0,0-.78,3.54l-0.52,3.72h-2.33l1.72-12.24h0Z"/><path class="cls-2" d="M345.21,152.4h0.09c1.5-3.3,3.19-4.78,5-4.78s2.8,1.2,2.67,3.43c-0.11,1.95-1,5.65-1.11,7.71-0.06,1.17.19,1.54,0.57,1.54,0.63,0,1.48-.91,2.39-3l0.67,0.82c-1,2.17-2.19,3.59-3.87,3.59-1.43,0-2.22-1-2.11-3.3s1-5.17,1.13-7.52c0.06-1.44-.33-2.19-1-2.19-1.22,0-3.15,2.69-4.11,5.37a16.32,16.32,0,0,0-.78,3.54l-0.52,3.72h-2.33l1.72-12.24c-0.69,0-2.48-.07-3.17-0.13l0.11-1c1.7,0,4.43-.22,5.5-0.3C345.84,149,345.51,150.83,345.21,152.4Z"/><path class="cls-2" d="M366.83,154.65c0.56-3.83,3.58-7,7.22-7,3.39,0,5.58,3.09,5,6.95s-3.58,7-7.22,7C368.48,161.59,366.29,158.5,366.83,154.65Zm2.52,0.11c-0.43,3.17.41,5.95,2.71,5.95s4.09-3.15,4.52-6.21-0.41-5.95-2.7-5.95S369.77,151.7,369.35,154.76Z"/><path class="cls-2" d="M405.39,154c-0.56,4-3.95,7.47-7.91,7.47a6.31,6.31,0,0,1-2.09-.35l-1.17,8.19c1.39-.06,2.59-0.09,3-0.09l-0.15,1c-2.15,0-6.33.3-8.08,0.44l0.15-1c0.41,0,1.44-.11,2.67-0.17l2.78-19.88-3.19,4.33h-1.5l1.56-2a28.32,28.32,0,0,0,3.22-4.71l0.37-.85h2.28l-0.56,4h0.07a4.73,4.73,0,0,1,4.13-2.82C403.73,147.51,406,149.83,405.39,154Zm-5-5.46c-1.32,0-2.58,1.17-3.39,3.37a17,17,0,0,0-.82,3.72l-0.63,4.54a5.1,5.1,0,0,0,1.83.33c3.15,0,4.8-2.83,5.28-6.19C403.15,150.66,402.12,148.55,400.36,148.55Z"/><path class="cls-2" d="M426.51,158.87h-0.07a5.18,5.18,0,0,1-4.3,2.72c-3,0-4.91-2.95-4.33-6.95,0.54-3.8,2.83-7,6-7a3.94,3.94,0,0,1,3.91,2.74h0.07l0.33-2.45h2.3l-2.8,19.86c-0.19,1.33,0,1.48,2.28,1.48l-0.13.89h-7.3l0.13-.89c2.28,0,2.5-.15,2.69-1.48Zm-2.24-10.21c-1.93,0-3.54,3-3.95,6s0.39,6,2.28,6c1.7,0,3.95-2.32,4.46-6s-1.09-6-2.8-6h0Z"/><path class="cls-2" d="M447.3,152h0.09c1.32-3.11,2.56-4.39,4.17-4.39a2.27,2.27,0,0,1,2.52,2.22,1.44,1.44,0,0,1-1.48,1.52,1.48,1.48,0,0,1-1.52-1.52,7.31,7.31,0,0,1,.22-1.39c-1.18-.18-2.67,2.15-3.74,5.58a22.43,22.43,0,0,0-.78,3.54l-0.52,3.72h-2.33l1.72-12.24c-0.69,0-2.48-.07-3.17-0.13l0.11-1c1.7,0,4.43-.22,5.5-0.3-0.22,1.37-.56,3.17-0.8,4.35h0Z"/><path class="cls-2" d="M471.53,158.68c0.31-3.15-6.63-3-6-7.24a4.73,4.73,0,0,1,5-3.85c1.8,0,3.5.7,3.5,2.15a1.36,1.36,0,0,1-1.41,1.45,1.4,1.4,0,0,1-1.44-1.45,5.09,5.09,0,0,1,.22-1.22,11.16,11.16,0,0,0-1.13-.07c-1.85,0-2.72.94-2.85,2.07-0.35,3.26,6.74,2.8,6.11,7.08-0.32,2.21-2.56,4.08-5.39,4.08-1.76,0-3.71-.72-3.71-2.22a1.4,1.4,0,0,1,1.44-1.48,1.45,1.45,0,0,1,1.5,1.48,5.73,5.73,0,0,1-.22,1.3,9.28,9.28,0,0,0,1.24.07C469.92,160.81,471.38,160.07,471.53,158.68Z"/><path class="cls-2" d="M490.42,148.92l-1.11,7.93c-0.33,2.3-.15,3.41.8,3.41s2.08-1.26,2.95-3.11l0.67,0.82c-0.87,1.7-2.3,3.59-4.28,3.59s-2.85-1.82-2.45-4.71l1.11-7.93h-2.7l0.13-1h2.71l0.59-4.24h2.33L490.57,148H494l-0.13,1h-3.41Z"/><path class="cls-2" d="M514.4,157.33l0.09-.48H514.4c-1.5,3.3-3.19,4.78-5,4.78s-2.8-1.2-2.67-3.43c0.11-1.94,1-5.74,1.11-7.59,0-1-.07-1.76-0.65-1.76s-1.41.91-2.26,2.82l-0.5-.89c0.72-1.59,1.82-3.19,3.52-3.19,1.52,0,2.3,1.11,2.19,3.15s-1,5.32-1.07,7.67c-0.06,1.45.33,2.19,1,2.19,1.22,0,3.15-2.69,4.11-5.37a16.35,16.35,0,0,0,.78-3.54l0.52-3.72h2.33l-1.54,10.91c-0.17,1.15.18,1.54,0.57,1.54,0.63,0,1.48-.91,2.41-3.26l0.46,0.93c-0.82,2.17-2,3.59-3.69,3.59s-2.15-1.67-1.63-4.33h0Z"/><path class="cls-2" d="M539.92,147.48c1.46,0,2.87,1.06,2.87,4.58,0,5.39-3.69,9.54-7.41,9.54a3.46,3.46,0,0,1-3.71-3.8,17.82,17.82,0,0,1,2.58-7.87,4.36,4.36,0,0,0-1.11-.19,2,2,0,0,0-1.95,1.37,2.62,2.62,0,0,1-1.06-1.95,1.77,1.77,0,0,1,2-1.72c1.13,0,1.91.82,3,1.09l0.5-.72a1.11,1.11,0,0,1,1.17,1.11,1.18,1.18,0,0,1-1.11,1.19,25,25,0,0,0-1.24,7.22c0,1.74.46,2.82,2,2.82,2.37,0,5.22-3,5.22-7.85a8.61,8.61,0,0,0-.5-3,2.24,2.24,0,0,1-1.8,1A1.34,1.34,0,0,1,538,149a1.72,1.72,0,0,1,2-1.54h0Z"/><path class="cls-2" d="M569.6,147.48c1.46,0,2.87,1.06,2.87,4.76,0,5.21-2.95,9.35-6.67,9.35a4.32,4.32,0,0,1-3.5-1.72,5.54,5.54,0,0,1-3.61,1.72A3.8,3.8,0,0,1,555,157.5c0-2,1-4.87,2.59-7.58a4.25,4.25,0,0,0-1.09-.19,2,2,0,0,0-1.95,1.37,2.62,2.62,0,0,1-1.06-1.95,1.77,1.77,0,0,1,2-1.72c1.13,0,1.91.82,3,1.09l0.5-.72a1.11,1.11,0,0,1,1.17,1.11,1.2,1.2,0,0,1-1.09,1.19,28.19,28.19,0,0,0-1.3,7.11c0,1.69.74,2.95,2,2.95a3.29,3.29,0,0,0,2.08-.94,8,8,0,0,1-.89-3.89c0-4,1.74-7.54,4.09-7.54,0.94,0,1.94.57,1.94,2.43s-1.24,5.22-3.08,7.76a3.26,3.26,0,0,0,2.89,2.17c2.37,0,4.48-3,4.48-7.67a8.2,8.2,0,0,0-.5-3.15,2.24,2.24,0,0,1-1.8,1,1.34,1.34,0,0,1-1.39-1.35,1.72,1.72,0,0,1,2-1.54h0ZM563.21,154a10.55,10.55,0,0,0,.41,3.07,13.77,13.77,0,0,0,2.11-6.54c0-1-.26-1.67-0.85-1.67C563.56,148.87,563.21,152.13,563.21,154Z"/><path class="cls-2" d="M594.51,157.26l0.67,0.82c-0.87,2.24-2.61,3.78-4.15,3.78-0.87,0-1.76-.41-2.26-2.3-0.24-.93-0.46-2.13-0.7-3.39-1.33,1.76-2.06,3.08-3.21,4.46a2.89,2.89,0,0,1-1.63,1.18,0.61,0.61,0,0,1-.65-0.61,3.06,3.06,0,0,1,1-1.52c1.46-1.52,2.72-2.7,4.32-4.65-0.56-3-1.13-6-2.07-6-0.5,0-1.48.72-2.76,3.08l-0.43-.93c1.09-2,2.61-3.78,4.37-3.78,0.83,0,1.46.37,1.87,1.93,0.26,1,.48,2.22.69,3.5,1.17-1.61,1.93-2.83,3-4.15a2.81,2.81,0,0,1,1.69-1.13,0.6,0.6,0,0,1,.63.61,2.82,2.82,0,0,1-1,1.46,46.76,46.76,0,0,0-4.13,4.46c0.52,3.11,1.09,6.09,2.26,6.09,0.48,0,1.5-.44,2.5-2.93h0Z"/><path class="cls-2" d="M615.54,147.48c1.37,0,2.71,1,2.71,3.83,0,6.72-7.26,16.47-12.36,16.47-1.48,0-2-.82-2-1.54a1.73,1.73,0,0,1,1.8-1.69,2,2,0,0,1,1.89,1.83,11.1,11.1,0,0,0,3.67-2.58c-1.07-7.69-1.69-11.39-2-12.8-0.43-1.8-.93-2.21-1.35-2.21-0.63,0-1.41.91-2.26,2.82l-0.5-.89c0.72-1.59,1.89-3.22,3.58-3.22,1.17,0,1.94.78,2.52,2.67a86.4,86.4,0,0,1,2.09,11.23c2.22-3,3.85-6.8,3.85-9.87a8.33,8.33,0,0,0-.28-2.2,2.3,2.3,0,0,1-1.83,1,1.24,1.24,0,0,1-1.39-1.35,1.68,1.68,0,0,1,1.87-1.54h0Z"/><path class="cls-2" d="M640.26,161.56c-0.65,1.3-2.13,2.89-3.35,2.89-2.22,0-1.43-5.37-4.43-5.37a2.07,2.07,0,0,0-1.32.46,2.16,2.16,0,0,1-1.24.8,0.6,0.6,0,0,1-.63-0.52,2.4,2.4,0,0,1,.8-1.28,41.77,41.77,0,0,0,4.09-5c0.78-1.13,1.35-2.06,1.89-2.87-1.93-.46-3.06-1.26-3.87-1.26a2.27,2.27,0,0,0-1.91,1.87l-0.65-.7c0.56-1.67,2-3.13,3.54-3.13,1.09,0,2.26.81,4.28,1.32a2.06,2.06,0,0,1,.18-0.22,2.46,2.46,0,0,1,1.48-.94,0.57,0.57,0,0,1,.61.56,2.14,2.14,0,0,1-.82,1.2,23.81,23.81,0,0,0-4.09,4.65c-1.15,1.74-2,3.37-3,4.71a5.67,5.67,0,0,1,2.35-.93c2.3,0,2.35,5,3.78,5,0.65,0,1.33-1.07,1.8-2.08Z"/><path class="cls-1" d="M283.05,208.41v0.89h-8v-0.89c2.65,0,2.85-.15,2.85-1.48v-10h-6.48v10c0,1.33.2,1.48,2.48,1.48v0.89h-7.63v-0.89c2.28,0,2.48-.15,2.48-1.48v-10h-2.48v-1h2.48v-2a12.86,12.86,0,0,1,.43-3.74c0.8-2.69,2.67-4.24,6.41-4.24,2.59,0,4.72.74,4.72,2.32a1.59,1.59,0,0,1-1.59,1.61,1.57,1.57,0,0,1-1.59-1.59,7.1,7.1,0,0,1,.15-1.2,9,9,0,0,0-1.91-.22c-3.85,0-3.95,3.21-3.95,6.69V196h4.3a26.38,26.38,0,0,0,4.85-.46v11.43C280.57,208.26,280.77,208.41,283.05,208.41Z"/><path class="cls-1" d="M301.2,188.7c-3.63,0-3.78,3.22-3.78,6.71V196h5.67v1h-5.67v10c0,1.33.2,1.48,2.48,1.48v0.89h-7.63v-0.89c2.28,0,2.48-.15,2.48-1.48v-10h-2.48v-1h2.48v-0.54a11.16,11.16,0,0,1,.43-3.74c0.78-2.26,2.83-3.87,6.08-3.87a10.56,10.56,0,0,1,4,.8l-0.52.83a10.11,10.11,0,0,0-3.52-.74h0Z"/><path class="cls-1" d="M310.16,186c1.91,0,3.7.63,3.7,2.15a1.5,1.5,0,0,1-1.48,1.59,1.48,1.48,0,0,1-1.52-1.52A7.1,7.1,0,0,1,311,187a7.11,7.11,0,0,0-1.17-.11c-3.09,0-3.24,3.21-3.24,5.95V196H310v1h-3.41v10c0,1.33.2,1.48,2.48,1.48v0.89h-7.63v-0.89c2.28,0,2.48-.15,2.48-1.48v-10h-2.48v-1h2.48V193.2a11.41,11.41,0,0,1,.45-3.83c0.74-2,3-3.41,5.78-3.41h0Z"/><path class="cls-1" d="M336.5,208.41v0.89h-7.63v-0.89c2.28,0,2.48-.15,2.48-1.48v-10h-6.78v10c0,1.33.2,1.48,2.48,1.48v0.89h-7.63v-0.89c2.28,0,2.48-.15,2.48-1.48v-10h-2.48v-1h2.48v-2a12.87,12.87,0,0,1,.43-3.74A5.61,5.61,0,0,1,328,186a8.4,8.4,0,0,1,3.91,1l0.35-1.17H334v21.12C334,208.26,334.22,208.41,336.5,208.41ZM331.35,196v-7l0.28-.94a8.22,8.22,0,0,0-3.82-1.17c-3.09,0-3.24,3.2-3.24,6.69V196h6.78Z"/><path class="cls-1" d="M347.55,195.27c-0.54.54-1.7,0.46-2.54,0.69a3.83,3.83,0,0,1,.69-2.54c0.65-.63,1.7-0.46,2.58-0.72A3.71,3.71,0,0,1,347.55,195.27Zm0.72-3.39a3.71,3.71,0,0,1-2.58-.72c-0.54-.54-0.46-1.7-0.68-2.54a3.84,3.84,0,0,1,2.54.69c0.63,0.65.46,1.7,0.72,2.57h0Zm0.82,0.82a3.71,3.71,0,0,1,2.57.72c0.54,0.54.46,1.71,0.69,2.54a3.84,3.84,0,0,1-2.54-.69c-0.63-.65-0.46-1.7-0.72-2.57h0Zm0.72-3.39c0.54-.54,1.7-0.46,2.54-0.69a3.84,3.84,0,0,1-.69,2.54c-0.65.63-1.7,0.46-2.57,0.72A3.71,3.71,0,0,1,349.81,189.31Z"/><path class="cls-2" d="M375.27,206.07c-1,2-2.3,3.59-4.09,3.59s-2.37-1.46-2.06-4l1.13-8.78H365.1l-1.43,13.65a16.48,16.48,0,0,1-.59,3.37c-1.11,3.5-3.83,4.61-5.46,4.61a2.32,2.32,0,0,1-2.54-2.19,1.66,1.66,0,0,1,1.65-1.69,1.69,1.69,0,0,1,1.7,1.76,4.59,4.59,0,0,1-.13,1c1.71-.15,2.58-2.17,3-6.32l1.52-14.17H360l0.15-1h2.78l0.28-2.58a15.64,15.64,0,0,1,.43-2.58c1.11-4.08,3.76-4.93,6.19-4.93,2.76,0,3.63,1.15,3.63,2.19a1.66,1.66,0,0,1-1.65,1.69,1.69,1.69,0,0,1-1.7-1.76,4.59,4.59,0,0,1,.13-1c-3.8-.15-4.32,2.09-4.8,6.74L365.22,196h7.54l-1.26,9.74c-0.24,1.91,0,2.71.54,2.71s1.59-.91,2.78-3.26Z"/><path class="cls-2" d="M389.09,193.33l-0.3,2.63h4.15l-0.15,1h-4.11l-1.11,9.95a17.85,17.85,0,0,1-.59,3.37,6.09,6.09,0,0,1-5.74,4.61c-1.95,0-2.82-1.15-2.82-2.19a1.66,1.66,0,0,1,1.65-1.69,1.69,1.69,0,0,1,1.7,1.76,4.59,4.59,0,0,1-.13,1c2.26-.15,3.11-2.17,3.58-6.32l1.19-10.47h-2.8l0.15-1h2.76l0.26-2.28a15.53,15.53,0,0,1,.43-2.57c1.09-4,3.76-4.93,5.54-4.93a9.25,9.25,0,0,1,4.54,1.5L397,188.86a10,10,0,0,0-4.28-1.54C390.86,187.33,389.53,189.29,389.09,193.33Z"/><path class="cls-2" d="M403.14,188.07a1.66,1.66,0,0,1-1.65,1.69,1.69,1.69,0,0,1-1.7-1.76,4.58,4.58,0,0,1,.13-1c-1.76.15-3,2.09-3.43,6L396.18,196h3.39l-0.15,1h-3.33l-1.46,13.65a16.48,16.48,0,0,1-.59,3.37,6.09,6.09,0,0,1-5.74,4.61c-1.95,0-2.82-1.15-2.82-2.19a1.66,1.66,0,0,1,1.65-1.69,1.69,1.69,0,0,1,1.7,1.76,4.66,4.66,0,0,1-.13,1c2.26-.15,3.13-2.17,3.57-6.32l1.52-14.17H391l0.15-1h2.74l0.28-2.58a15.64,15.64,0,0,1,.43-2.58c1.11-4.08,3.8-4.93,5.58-4.93C402.27,185.88,403.14,187,403.14,188.07Z"/><path class="cls-2" d="M422.63,206.07c-0.87,2-2.15,3.59-3.95,3.59-1.44,0-2.15-1-2.15-2.76a9.5,9.5,0,0,1,.09-1.2l1.24-8.78h-5.41l-1.76,13.65a19.47,19.47,0,0,1-.59,3.37,6.09,6.09,0,0,1-5.74,4.61c-1.94,0-2.82-1.15-2.82-2.19a1.66,1.66,0,0,1,1.65-1.69,1.69,1.69,0,0,1,1.7,1.76,4.59,4.59,0,0,1-.13,1c2.26-.15,3-2.17,3.57-6.32l1.82-14.17h-3.09l0.15-1h3.08l0.3-2.28a17.75,17.75,0,0,1,.43-2.58c1.09-4,3.76-4.93,5.54-4.93a9.17,9.17,0,0,1,2.74.5l0.07-.5h2.37L419,205.7a10.26,10.26,0,0,0-.11,1.33c0,0.93.24,1.3,0.65,1.3,0.63,0,1.52-.91,2.43-3.08ZM418,196l1.13-8a7.61,7.61,0,0,0-2.56-.63c-1.89,0-3.13,1.93-3.65,6L412.59,196H418Z"/></svg>