<svg id="Layer_3" data-name="Layer 3" xmlns="http://www.w3.org/2000/svg" viewBox="0 0 680 274"><defs><style>.cls-1{fill:#01849b;}.cls-2{fill:#ec8148;}</style></defs><title>subj-sans-assets</title><path class="cls-1" d="M53.6,17.72H45.21L43.07,24H40.44l8-22h2.26l8,22H55.75Zm-0.8-2.33-3.43-10L46,15.39h6.8Z"/><path class="cls-1" d="M79.69,17.68A6,6,0,0,1,73.45,24H66.28V2h6.15c4.26,0,6.09,2.37,6.09,4.95a5.1,5.1,0,0,1-2.93,4.63v0.11A6.2,6.2,0,0,1,79.69,17.68ZM68.87,11.22H71.8c2.59,0,4.13-1.48,4.13-3.58,0-1.83-1.19-3.5-3.8-3.5H68.87v7.08Zm4.32,10.6a3.67,3.67,0,0,0,3.91-3.93,4.36,4.36,0,0,0-4.56-4.52H68.87v8.45h4.32Z"/><path class="cls-1" d="M89.24,12.9c0,5.43,3,9.1,7.52,9.1a12.32,12.32,0,0,0,6.52-2.22v3a16.83,16.83,0,0,1-6.93,1.72c-4.85,0-9.84-3.56-9.84-11.23,0-7.06,4.5-11.71,10.39-11.71A15.33,15.33,0,0,1,103.28,3v3A15.61,15.61,0,0,0,96.56,4C92.06,4,89.24,7.77,89.24,12.9Z"/><path class="cls-1" d="M111.7,24V2.16c2.2-.22,4.87-0.48,6.74-0.48,5.37,0,10.82,3,10.82,10.63,0,7.43-4.78,11.82-11,11.82-1.3,0-2.59-.07-4.71-0.13H111.7ZM118,4.14a33.18,33.18,0,0,0-3.72.17V21.44c1.87,0.11,3.5.22,4.33,0.22,5.24,0,7.91-4,7.91-8.95,0-5.8-3.48-8.58-8.52-8.58h0Z"/><path class="cls-1" d="M150,21.67V24H137.5V2h11.89l-0.22,2.33h-9.08v6.85h7.63V13.4h-7.63v8.26H150Z"/><path class="cls-1" d="M161.09,4.33v7.78h7.59v2.22h-7.59V24H158.5V2h11.86l-0.22,2.33h-9Z"/><path class="cls-1" d="M191.13,17.83a16.14,16.14,0,0,0-.46-3.61h2.63a10.5,10.5,0,0,1,.46,2.83c0,4.54-3.46,7.41-7.85,7.41-4.85,0-9.84-3.56-9.84-11.23,0-7.06,4.5-11.71,10.39-11.71A15.33,15.33,0,0,1,192.83,3v3A15.61,15.61,0,0,0,186.11,4c-4.5,0-7.32,3.78-7.32,8.91,0,5.43,3,9.1,7.52,9.1C189.44,22,191.13,20.24,191.13,17.83Z"/><path class="cls-1" d="M219.41,2V24h-2.59V13.66h-12V24h-2.59V2h2.59v9.34h12V2h2.59Z"/><path class="cls-1" d="M229.31,24V2h2.59V24h-2.59Z"/><path class="cls-1" d="M246.42,18.26V2H249V17.7c0,4-1.63,6.76-5.95,6.76a15.18,15.18,0,0,1-3.67-.56V21.2a9,9,0,0,0,3.93.93c2.19,0,3.09-1.31,3.09-3.87h0Z"/><path class="cls-1" d="M258.33,2h2.59V24h-2.59V2ZM265,12.72A61.37,61.37,0,0,1,273.29,24H270a45.37,45.37,0,0,0-8.22-11c3.37-3.32,7.39-8.19,10.08-11.45l1.85,1.61Z"/><path class="cls-1" d="M281.31,24V2h2.59V21.63h9.84V24H281.31Z"/><path class="cls-1" d="M320.94,2V24h-2.59V6h-0.11l-6.32,13h-2.2L303.77,6.46h-0.09V24h-2.41l0.19-22h3l6.61,13.89L317.9,2h3Z"/><path class="cls-1" d="M333.29,6.74V24h-2.45V2h2.22l12.86,17.32,0.07-.06V2h2.45V24h-2.22L333.36,6.68l-0.07.06h0Z"/><path class="cls-1" d="M367.27,24.46c-5.5,0-10.6-4.17-10.6-11.47s5.09-11.47,10.6-11.47c5.3,0,10.6,4.19,10.6,11.47S372.57,24.46,367.27,24.46ZM367.1,4c-4.87,0-7.71,4.13-7.71,8.67,0,4.71,3.24,9.34,8.32,9.34,4.87,0,7.43-4,7.43-8.52,0-4.85-3.09-9.48-8-9.48h0Z"/><path class="cls-1" d="M391.32,1.88c4.59,0,7.72,2.2,7.72,5.95,0,4.17-3.33,6.58-7.43,6.58a18.67,18.67,0,0,1-2.93-.26V24H386.1V2.09c1.56-.07,3.85-0.2,5.22-0.2h0Zm5,6.28c0-2.56-1.74-4-5.06-4-0.67,0-1.7,0-2.59.09v7.52a24,24,0,0,0,3.33.33C395,12.07,396.34,10.46,396.34,8.16Z"/><path class="cls-1" d="M415.14,24.46c-5.5,0-10.6-4.17-10.6-11.47s5.09-11.47,10.6-11.47c5.3,0,10.6,4.19,10.6,11.47S420.44,24.46,415.14,24.46Zm-7.89-11.8c0,4.71,3.26,9.35,8.34,9.35,4.87,0,7.45-4,7.45-8.54C423,8.63,419.92,4,415,4S407.25,8.13,407.25,12.66ZM419,29.28h-7.78V26.87H419v2.41Z"/><path class="cls-1" d="M449.31,24H446a78.43,78.43,0,0,0-5.8-9.61c-0.24,0-.48,0-0.72,0a18.73,18.73,0,0,1-2.93-.26V24H434V2.09c1.56-.07,3.85-0.2,5.22-0.2,4.59,0,7.72,2.2,7.72,5.95a6.2,6.2,0,0,1-4.3,6.06A121.19,121.19,0,0,1,449.31,24h0ZM436.56,11.74a24,24,0,0,0,3.33.33c3,0,4.32-1.61,4.32-3.91,0-2.56-1.74-4-5.06-4-0.67,0-1.7,0-2.59.09v7.52Z"/><path class="cls-1" d="M461.75,22c2.45,0,4.39-1.09,4.39-3.65,0-2.3-1.59-3.32-4.69-4.33-4.13-1.35-6.5-2.82-6.5-6.3,0-3.95,3.06-6.21,7.11-6.21a18.21,18.21,0,0,1,5.35.94v3A13.53,13.53,0,0,0,461.86,4c-2.59,0-4.21,1-4.21,3.39,0,2,1.09,3.11,4.69,4.3,3.91,1.3,6.5,2.69,6.5,6.33,0,4.37-3.67,6.46-7.26,6.46a29.87,29.87,0,0,1-6.11-.94v-3A16.44,16.44,0,0,0,461.75,22h0Z"/><path class="cls-1" d="M481.75,4.33h-7.37V2h17.34l-0.22,2.33h-7.15V24h-2.59V4.33Z"/><path class="cls-1" d="M512.51,2h2.59V24h-2.59V18.5h-0.08c-3.45,3.26-6.15,5.8-9,5.8a4.08,4.08,0,0,1-4-3.11,8.6,8.6,0,0,1-.3-2.59V2h2.59V18.22a8.57,8.57,0,0,0,.19,2.11,2,2,0,0,0,2,1.63c2.24,0,5.11-2.82,8.63-6.35V2h0Z"/><path class="cls-1" d="M540.94,2l-7.8,22h-2.26L522.52,2h2.85l6.78,18.78L538.34,2h2.59Z"/><path class="cls-1" d="M573.88,2L567,24h-2.26l-4.37-13.63L555.89,24h-2.26L546,2h2.85l6,18.1L559.3,7l-1.61-5h2.83l5.59,18.21L571.29,2h2.59Z"/><path class="cls-1" d="M596,24h-3.28l-5.15-9.3L581.93,24H579l7.3-11.26L579.33,2h3.39l5,8.56,5.48-8.85,2.63,0.37L589,12.53Z"/><path class="cls-1" d="M618.91,2.07l-7.63,11.39V24h-2.59V13.2L600.72,2H604l6.26,9,6.06-9.34Z"/><path class="cls-1" d="M638.6,2V3.62l-10.69,18H638.6V24H624.48V22.37l10.69-18H624.5V2h14.1Z"/><path class="cls-1" d="M55.3,69.48v2a4.32,4.32,0,0,1-2.45.94,2.49,2.49,0,0,1-2.43-2.65H50.36c-1.78,1.91-3.54,2.65-4.95,2.65-2.2,0-3.93-1.83-3.93-4.43,0-3,2.28-4.91,6.19-4.91h2.78l0-2c0.06-3-2.2-3.28-3.33-3.28a9.39,9.39,0,0,0-4.63,1.28v-2.5a16.54,16.54,0,0,1,5.21-1c1.93,0,5.15.89,5.08,5.11l-0.13,7.8c0,0.87.15,1.67,1,1.67A3,3,0,0,0,55.3,69.48Zm-4.93-2,0-2.43H48.15c-2.8,0-4.26.61-4.26,2.72,0,1.46.7,2.54,2.15,2.54C47.26,70.31,48.76,69.48,50.37,67.48Z"/><path class="cls-1" d="M72.71,55.63c3.56,0,6.85,2.61,6.85,7.74,0,5.52-3.59,9-8.21,9a30.28,30.28,0,0,1-5.76-.8V48H68v8.56h0.07a14.3,14.3,0,0,1,4.63-.93h0ZM71.36,70.07c3.24,0,5.65-2,5.65-6.22,0-3.59-1.8-5.93-4.72-5.93a13,13,0,0,0-4.28,1V69.67a19.46,19.46,0,0,0,3.35.41h0Z"/><path class="cls-1" d="M92.61,63.76c0,4,1.63,6.41,5,6.41a7.84,7.84,0,0,0,4.95-2v2.58a10.25,10.25,0,0,1-5.45,1.69c-3.87,0-7-2.54-7-8.22,0-5.33,2.89-8.71,7.24-8.71a14.3,14.3,0,0,1,5.19,1.17v2.74A12.46,12.46,0,0,0,97,57.83C94.26,57.83,92.61,59.72,92.61,63.76Z"/><path class="cls-1" d="M127,48V72H124.6V69.59h-0.07a8.54,8.54,0,0,1-1.67,1.57A6.71,6.71,0,0,1,119,72.44c-3.26,0-6-2.69-6-7.82,0-5.52,3.41-9,8-9a13.29,13.29,0,0,1,3.58.43V48H127ZM124.6,58.4a14,14,0,0,0-3.57-.48c-3.24,0-5.5,2-5.5,6.22,0,3.59,1.46,6.08,3.85,6.08a5.28,5.28,0,0,0,3.26-1.39,14.92,14.92,0,0,0,2-2.09V58.4Z"/><path class="cls-1" d="M141,64.28c0.13,3.65,1.76,5.89,4.95,5.89a8.87,8.87,0,0,0,5.32-2v2.61a11.7,11.7,0,0,1-5.82,1.69c-3.87,0-7-2.54-7-8.22,0-5.33,2.89-8.71,7.24-8.71,3.08,0,5.69,1.59,5.69,5.52a19.31,19.31,0,0,1-.3,3c-2,0-8.41.17-10.1,0.19h0Zm4.46-6.6c-2.44,0-4,1.52-4.39,4.56l7.91-.19c0-.41.07-0.74,0.07-1.07,0-2.46-1.76-3.3-3.59-3.3h0Z"/><path class="cls-1" d="M166.76,53.74v2.78h5.59l-0.2,2.15h-5.39V72h-2.41V58.66h-3.63V56.51h3.63V54.66c0-4.41,1.78-7.13,6.09-7.13a15.19,15.19,0,0,1,3.67.56V50.6a9.43,9.43,0,0,0-4-.93C167.89,49.68,166.76,51.18,166.76,53.74Z"/><path class="cls-1" d="M196,57.5a18.59,18.59,0,0,1-4.43-.19v0.07a4.29,4.29,0,0,1,1.93,3.71c0,3.65-3.46,4.83-6.32,5.71-1.78.54-3.59,1.3-3.59,2.32,0,1.69,5,.7,7.91,1.26,1.83,0.35,3.72,1.37,3.72,3.87,0,4.15-5.09,5.46-8.6,5.46-2.69,0-6.3-.83-6.3-3.48,0-1.43,1.22-2.83,2.72-4.11a2.33,2.33,0,0,1-1.93-2.3c0-1.44,1-2.78,3.63-3.74V66a5,5,0,0,1-4.06-4.91c0-3.54,3.17-5.5,6.91-5.5,4,0,6.34.11,8.39-.31V57.5h0ZM184.45,72.41a5.43,5.43,0,0,0-1.8,3.19c0,1.67,2.91,1.85,4.46,1.85,3.35,0,5.74-1,5.74-2.76C192.86,72.09,187.93,72.87,184.45,72.41ZM191,61c0-1.85-1.31-3.46-3.93-3.48s-3.93,1.63-3.93,3.48,1.32,3.46,3.93,3.48S191,62.87,191,61Z"/><path class="cls-1" d="M218.79,58.64a9.64,9.64,0,0,1,.26,2.57V72h-2.41V61.7a8,8,0,0,0-.17-2.11A1.93,1.93,0,0,0,214.53,58a6.83,6.83,0,0,0-3.5,1.56c-0.72.52-1.58,1.24-2.28,1.87V72h-2.41V48h2.41V58.81h0.07c0.61-.5,1.3-1.06,1.95-1.5a8.12,8.12,0,0,1,4.37-1.61,3.61,3.61,0,0,1,3.65,2.94h0Z"/><path class="cls-1" d="M230.77,50.33A1.67,1.67,0,1,1,232.44,52,1.66,1.66,0,0,1,230.77,50.33ZM231.24,72V56h2.41V72h-2.41Z"/><path class="cls-1" d="M246.5,56h2.41V71.07c0,4.41-1.67,7.13-6,7.13a14.13,14.13,0,0,1-3.56-.56V75.13a9,9,0,0,0,3.93.93c2.18,0,3.2-1.5,3.2-4.06V56ZM246,50.33A1.67,1.67,0,1,1,247.71,52,1.66,1.66,0,0,1,246,50.33Z"/><path class="cls-1" d="M261.25,48h2.41V72h-2.41V48Zm13.41,9.21-6.78,6.32A90.51,90.51,0,0,1,274.66,72h-3.33a48.11,48.11,0,0,0-6.56-8.37c2.61-2.39,5.85-5.65,8.08-8l1.82,1.57h0Z"/><path class="cls-1" d="M285.22,72V48h2.41V72h-2.41Z"/><path class="cls-1" d="M322.68,58.64a9,9,0,0,1,.3,2.58V72h-2.41V61.7a8,8,0,0,0-.17-2.11A1.93,1.93,0,0,0,318.45,58a6.51,6.51,0,0,0-3.54,1.57c-0.68.52-1.54,1.28-2.24,1.91V72h-2.41V61.7a8,8,0,0,0-.17-2.11A2,2,0,0,0,308.15,58a6.32,6.32,0,0,0-3.54,1.57c-0.69.52-1.54,1.28-2.24,1.91V72H300V55.92h2.41v2.89h0.07c0.61-.5,1.3-1.06,1.95-1.5a8.12,8.12,0,0,1,4.37-1.61,3.59,3.59,0,0,1,3.61,2.94,3,3,0,0,1,.09.39l0.28-.22c0.61-.5,1.3-1.06,1.94-1.5a8.13,8.13,0,0,1,4.37-1.61,3.6,3.6,0,0,1,3.61,2.94h0Z"/><path class="cls-1" d="M347.61,58.65a9.64,9.64,0,0,1,.26,2.57V72h-2.41V61.7a8,8,0,0,0-.17-2.11A2,2,0,0,0,343.35,58a6.61,6.61,0,0,0-3.5,1.56c-0.72.52-1.58,1.24-2.28,1.87V72h-2.41V55.92h2.41v2.89h0.07c0.61-.5,1.3-1.06,1.95-1.5A8.12,8.12,0,0,1,344,55.7a3.61,3.61,0,0,1,3.65,2.94h0Z"/><path class="cls-1" d="M366.91,72.46c-4.35,0-7.78-3.54-7.78-8.47s3.43-8.47,7.78-8.47,7.78,3.54,7.78,8.47S371.26,72.46,366.91,72.46Zm-5.3-8.69c0,3.22,2.26,6.39,5.58,6.39s5-2.76,5-5.85c0-3.32-2.17-6.48-5.39-6.48S361.61,60.66,361.61,63.78Z"/><path class="cls-1" d="M394.06,55.62c3.26,0,6,2.69,6,7.82,0,5.52-3.41,9-8,9a13.27,13.27,0,0,1-3.57-.43v8H386.1V55.77h2.41v2.7h0.07a8.62,8.62,0,0,1,1.67-1.57,6.72,6.72,0,0,1,3.82-1.28h0Zm-2,14.52c3.24,0,5.5-2,5.5-6.22,0-3.59-1.46-6.08-3.85-6.08a5.28,5.28,0,0,0-3.26,1.39,14.92,14.92,0,0,0-2,2.09v8.34a14,14,0,0,0,3.58.48h0Z"/><path class="cls-1" d="M424.55,56.42V80h-2.41V71.44h-0.07a14.28,14.28,0,0,1-4.63.93c-3.56,0-6.85-2.61-6.85-7.74,0-5.52,3.59-9,8.21-9A30.26,30.26,0,0,1,424.55,56.42Zm-2.41,12.69V58.33a19.46,19.46,0,0,0-3.35-.41c-3.24,0-5.65,2-5.65,6.22,0,3.59,1.8,5.93,4.72,5.93a13,13,0,0,0,4.28-1h0Z"/><path class="cls-1" d="M441.47,57.22a10.54,10.54,0,0,1,3.43-1.67V58a6.67,6.67,0,0,0-3.32,1.52,29.45,29.45,0,0,0-2.28,1.87V72h-2.41V55.92h2.41v2.89h0.07c0.61-.5,1.3-1.06,2.09-1.59h0Z"/><path class="cls-1" d="M459.75,70.31c1.41,0,3.22-.63,3.22-2.41,0-1.2-.63-1.7-3.58-2.78s-5.06-2.09-5.06-4.93c0-3,2.8-4.67,5.67-4.67a25.43,25.43,0,0,1,4.52.57v2.7a14.9,14.9,0,0,0-4.83-1.13c-1.7,0-2.91.72-2.91,2.37,0,1.44.8,1.93,3.74,3s4.89,1.76,4.89,4.65c0,3.26-3.22,4.76-6,4.76a17.88,17.88,0,0,1-4.71-.74V69a14.57,14.57,0,0,0,5,1.3h0Z"/><path class="cls-1" d="M486.44,58.66H480.7v9.76a1.7,1.7,0,0,0,2,1.76,7.79,7.79,0,0,0,3.74-1.46v2.17A7,7,0,0,1,482,72.43c-2.69,0-3.72-1.76-3.72-4.13V58.66H475V56.51h3.28V52h2.41v4.52h5.95l-0.2,2.15h0Z"/><path class="cls-1" d="M510,56V72.07h-2.41V69.18h-0.07c-0.61.5-1.3,1.06-1.95,1.5a8.12,8.12,0,0,1-4.37,1.61,3.6,3.6,0,0,1-3.61-2.95,9,9,0,0,1-.3-2.57V56h2.41v10.3a8.07,8.07,0,0,0,.17,2.11A1.93,1.93,0,0,0,501.84,70a6.51,6.51,0,0,0,3.54-1.57c0.69-.52,1.54-1.28,2.24-1.91V56H510Z"/><path class="cls-1" d="M537,56l-7.22,16H527.7l-7.41-16h2.78l5.76,13.1L534.44,56H537Z"/><path class="cls-1" d="M567.67,56l-5.46,16h-2.08l-3.78-11.73-4,11.73h-2.08l-5.39-16h2.74l3.83,12.45,4-11.71h2.22l3.61,11.65L565.19,56h2.48Z"/><path class="cls-1" d="M592.23,56l-6.65,7.69L592,72h-3.33L584,65.48,579.26,72h-3.15l6.72-8-6.54-8h3.3l4.76,6.15L589,56h3.19Z"/><path class="cls-1" d="M611.05,70l-1.28,0a11.55,11.55,0,0,1,1,4c0,3.41-2.74,4.78-5.46,4.78a11.06,11.06,0,0,1-3.87-.74V75.24a9.81,9.81,0,0,0,4.26,1.41A2.42,2.42,0,0,0,608.35,74c0-1.8-1-3.61-2.89-7.87L600.9,56h2.78l4,9.15c0.56,1.28,1.07,2.41,1.5,3.43L614.78,56h2.56Z"/><path class="cls-1" d="M638.6,57.63l-9.23,12h9.23V72H626.15V70.37l9.22-12h-9.21V56H638.6v1.63Z"/><path class="cls-2" d="M53.49,115.5H45L43.19,120H40.63l7.61-17.49H50.5L58.12,120H55.38Zm-0.91-2.19-3.33-8-3.3,8h6.63Z"/><path class="cls-2" d="M76.28,110.11a4.49,4.49,0,0,1,3.58,4.54c0,3.11-2.35,5.35-6.11,5.35H67.26V102.51h6.82c2.56,0,4.69,1.32,4.69,3.74A4.21,4.21,0,0,1,76.28,110v0.07h0Zm-6.61-5.56v5l3.08,0c2.52,0,3.61-1.26,3.61-2.82s-1.26-2.22-3-2.22H69.66Zm3.69,13.34c2.19,0,4.09-.74,4.09-3.26s-1.67-2.93-4.22-2.93H69.67v6.11c1,0,2.89.07,3.69,0.07h0Z"/><path class="cls-2" d="M91.59,111c0,4,2.07,7.15,5.89,7.15a9.61,9.61,0,0,0,5.69-2.11v2.72a11.86,11.86,0,0,1-6,1.69c-4.43,0-8.1-2.91-8.1-9,0-5.71,3.39-9.45,8.11-9.45a18.27,18.27,0,0,1,6,1.17v2.93a14.93,14.93,0,0,0-6.19-1.8C93.9,104.35,91.59,107,91.59,111Z"/><path class="cls-2" d="M113,120V102.81c1.74-.17,4.59-0.44,6.09-0.44,4.24,0,8.59,2.33,8.59,8.41,0,5.89-3.83,9.35-8.78,9.35-1,0-2.8-.06-4.48-0.11H113Zm2.41-15.21v12.84c1.32,0.07,2.85.19,3.82,0.19,3.71,0,5.95-3,5.95-6.74,0-4.33-2.82-6.43-6.39-6.43C117.75,104.66,116.12,104.72,115.46,104.81Z"/><path class="cls-2" d="M140,117.74h10.11V120H137.62V102.51h11.56L149,104.77h-9v5.17h8.06v2.26H140v5.54h0Z"/><path class="cls-2" d="M171.66,104.77H162.5v5.54h7.82v2.26H162.5V120H160.1V102.51h11.74l-0.19,2.26h0Z"/><path class="cls-2" d="M182.06,111c0,4,2,7.15,5.8,7.15,3.13,0,4.45-2.11,4.45-4.71a15.39,15.39,0,0,0-.46-3.24h2.52a10.19,10.19,0,0,1,.46,3c0,4.39-3,7.26-7.37,7.26s-7.91-2.91-7.91-9c0-5.71,3.39-9.45,8.11-9.45a18.27,18.27,0,0,1,6,1.17v2.93a14.93,14.93,0,0,0-6.19-1.8c-3.08,0-5.39,2.63-5.39,6.67h0Z"/><path class="cls-2" d="M219.3,102.51V120h-2.41v-7.65h-9.67V120h-2.41V102.51h2.41v7.65h9.67v-7.65h2.41Z"/><path class="cls-2" d="M230.66,120V102.51h2.41V120h-2.41Z"/><path class="cls-2" d="M249,102.51h2.41v10.8c0,4.41-1.3,7.13-5.61,7.13a14.13,14.13,0,0,1-3.56-.56v-2.52a9,9,0,0,0,3.93.93c2.19,0,2.83-1.5,2.83-4.06V102.51Z"/><path class="cls-2" d="M262.38,102.51h2.41V120h-2.41V102.51Zm6.52,8.5a59.34,59.34,0,0,1,7.33,9H273a43.68,43.68,0,0,0-7.45-8.76c2.85-2.61,6.56-6.54,9-9.1l1.83,1.72L268.9,111h0Z"/><path class="cls-2" d="M287.78,102.51v15.23h9.15V120H285.38V102.51h2.41Z"/><path class="cls-2" d="M320.23,102.51h2.85V120h-2.41V106.2h-0.11l-5.39,11.21H313l-5-10.91h-0.09V120h-2.33l0.18-17.49h2.95l5.69,12.06,5.89-12.06h0Z"/><path class="cls-2" d="M336.78,120h-2.33V102.51h2.11l10.89,13.32,0.07-.06V102.51h2.33V120h-2.11l-10.89-13.32-0.07.06V120Z"/><path class="cls-2" d="M368.68,120.41c-4.87,0-8.95-3.35-8.95-9.21s4.08-9.21,8.95-9.21,8.95,3.35,8.95,9.21S373.55,120.41,368.68,120.41Zm0.59-2.3c3.93,0,5.85-2.95,5.85-6.58s-2.3-7.24-6.93-7.24c-4,0-5.95,2.83-5.95,6.58s2.37,7.24,7,7.24h0Z"/><path class="cls-2" d="M392.74,102.37c4.41,0,6.45,1.93,6.45,5.3,0,3.61-2.8,5.56-6.52,5.56a16.35,16.35,0,0,1-2.74-.26v7h-2.41V102.57c1.56-.07,4-0.2,5.22-0.2h0Zm4,5.37c0-2.48-1.61-3.11-4.19-3.11-0.48,0-1.7,0-2.59.09v5.95a17.2,17.2,0,0,0,3,.33C395.48,111,396.7,109.92,396.7,107.74Z"/><path class="cls-2" d="M416,120.41c-4.87,0-8.95-3.35-8.95-9.21S411.1,102,416,102s8.95,3.35,8.95,9.21S420.84,120.41,416,120.41Zm0.59-2.3c3.93,0,5.85-2.95,5.85-6.58s-2.3-7.24-6.93-7.24c-4,0-5.95,2.83-5.95,6.58s2.37,7.24,7,7.24h0Zm3.67,7.17h-7.78v-2.41h7.78v2.41Z"/><path class="cls-2" d="M448.21,120h-3.08a52,52,0,0,0-4.35-6.82c-0.26,0-.56,0-0.83,0a16.4,16.4,0,0,1-2.74-.26v7H434.8V102.57c1.56-.07,4-0.2,5.22-0.2,4.41,0,6.45,1.93,6.45,5.3a5.13,5.13,0,0,1-3.32,5,50.73,50.73,0,0,1,5.06,7.35h0Zm-11-9.34a17.23,17.23,0,0,0,3,.33c2.59,0,3.82-1.07,3.82-3.26,0-2.48-1.61-3.11-4.19-3.11-0.48,0-1.7,0-2.59.09v5.95Z"/><path class="cls-2" d="M465.32,115.57c0-1.69-1.13-2.28-4.21-3.39-3.32-1.2-5.39-2.33-5.39-5.46,0-3.48,3-4.67,6.08-4.67a26,26,0,0,1,4.89.57v2.7a15,15,0,0,0-5.21-1.13c-1.89,0-3.28.46-3.28,2.33s1.15,2.48,4,3.5c3.3,1.17,5.56,2.13,5.56,5.3,0,3.45-3.08,5.13-6.41,5.13a18.41,18.41,0,0,1-5.08-.74V117a14.54,14.54,0,0,0,5.41,1.3C463.69,118.31,465.32,117.61,465.32,115.57Z"/><path class="cls-2" d="M481.65,104.77h-6.74v-2.26h15.71l-0.19,2.26h-6.37V120h-2.41V104.77Z"/><path class="cls-2" d="M512.72,102.51v17.56h-2.41v-4.32h-0.07a34.38,34.38,0,0,1-3.46,2.93,8.12,8.12,0,0,1-4.37,1.61,3.6,3.6,0,0,1-3.61-2.95,9,9,0,0,1-.3-2.57V102.51h2.41v11.78a8.07,8.07,0,0,0,.17,2.11A1.93,1.93,0,0,0,503,118a6.51,6.51,0,0,0,3.54-1.57c0.69-.52,1.54-1.28,3.76-3.33V102.51h2.41Z"/><path class="cls-2" d="M536.42,102.51H539L531.55,120h-2.26l-7.8-17.49h2.74l6.3,14.67,5.89-14.67h0Z"/><path class="cls-2" d="M571.24,102.51L564.77,120h-2.26l-4-10.87L554.4,120h-2.26l-6.35-17.49h2.93l4.8,14.39,4-10.65-1.37-3.74h2.74l4.85,14.17,4.93-14.17h2.59Z"/><path class="cls-2" d="M587.93,111l6.71,9h-3.28l-5-7.06L581.12,120H578l7.17-8.85-7-8.63h3.45l5,6.82,5.54-7.19,2.82,0.48Z"/><path class="cls-2" d="M611.08,113.28V120h-2.41v-6.72l-7.26-10.76h3l5.56,8.54,5.59-8.54h2.74Z"/><path class="cls-2" d="M628.59,117.63h10.23V120H625.26v-1.63l9.85-13.49h-9.84v-2.37h13.17v1.63l-9.86,13.49h0Z"/><path class="cls-1" d="M47,168H44.63V152.7H41.3v-2.19H47V168Z"/><path class="cls-1" d="M81,165.48v0.07h9.22V168H76.66v-1.63l2.22-1.8c4.52-3.67,7.95-6,7.95-8.93,0-2.67-2.89-3.35-4.69-3.35a10.68,10.68,0,0,0-5,1.28v-2.5a19.09,19.09,0,0,1,5.58-1c2.48,0,6.71,1.11,6.71,5.28,0,3-2,5.58-8.43,10.15h0Z"/><path class="cls-1" d="M117.46,153v-2.45h13v1.63l-6,6.95v0.09c3.3,0.81,5.69,3,5.69,6.32a7.11,7.11,0,0,1-7.39,7.13,13.18,13.18,0,0,1-5-1.17v-2.74a11.64,11.64,0,0,0,5.32,1.61,4.2,4.2,0,0,0,4.58-4.35c0-3.54-3.28-5-6.61-4.85l0.09-1.24,6.15-6.84,0-.09h-9.71Z"/><path class="cls-1" d="M172.3,165.28h-3.52v6.89h-2.41v-6.89H157v-1.63l8.52-13.28,2.09,0.15h1.17v12.58h3.52v2.19Zm-5.93-2.19V152.5l-6.67,10.6h6.67Z"/><path class="cls-1" d="M201.49,158.26c5.46,0.35,9.76,2.71,9.76,7.24a7.11,7.11,0,0,1-7.39,7.13,13.18,13.18,0,0,1-5-1.17v-2.74a11.66,11.66,0,0,0,5.32,1.61,4.2,4.2,0,0,0,4.58-4.35c0-3.61-3.48-5.5-9.37-5.5v-10h10.93V153h-8.8v5.3h0Z"/><path class="cls-1" d="M242.83,151.18l4.17-4.83h3.11l-4.72,5.24c-0.74.83-1.5,1.7-2.37,2.65h0.17a5.92,5.92,0,0,1,3.46-1.08,7.12,7.12,0,0,1,7.15,7.45,7.78,7.78,0,1,1-15.56,0C238.24,157.11,240.24,154.2,242.83,151.18Zm3.19,15a5.28,5.28,0,0,0,5.24-5.56,5.24,5.24,0,0,0-10.48,0A5.28,5.28,0,0,0,246,166.17Z"/><path class="cls-1" d="M293.9,152.14l-10.37,20h-2.74l10-19.12,0-.09h-11v-2.45H293.9v1.63Z"/><path class="cls-1" d="M327.83,145.57c3.48,0,6.59,2.37,6.59,5.8a5.62,5.62,0,0,1-3.87,5.26v0.09c2.82,0.74,4.52,2.65,4.52,5.35,0,4-3.54,6.39-7.24,6.39s-7.24-2.35-7.24-6.39c0-2.7,1.7-4.61,4.52-5.35v-0.09a5.62,5.62,0,0,1-3.87-5.26c0-3.43,3.11-5.8,6.59-5.8h0Zm4.72,16.52a4.74,4.74,0,0,0-9.45,0c0,2.5,2.2,4.21,4.72,4.21S332.55,164.59,332.55,162.09ZM332,151.57a4.23,4.23,0,1,0-4.22,4A3.91,3.91,0,0,0,332,151.57Z"/><path class="cls-1" d="M373.24,167.33l-4.17,4.83H366l4.72-5.24c0.74-.83,1.5-1.7,2.37-2.65h-0.17a5.92,5.92,0,0,1-3.46,1.07,7.12,7.12,0,0,1-7.15-7.45,7.78,7.78,0,1,1,15.56,0C377.84,161.41,375.84,164.31,373.24,167.33Zm-3.19-15a5.28,5.28,0,0,0-5.24,5.56,5.24,5.24,0,0,0,10.48,0A5.28,5.28,0,0,0,370.06,152.35Z"/><path class="cls-1" d="M404.89,159.26a8.84,8.84,0,1,1,8.84,9.21A9,9,0,0,1,404.89,159.26ZM420,159.68a7,7,0,0,0-6.71-7.06,6,6,0,0,0-5.93,6.21,7,7,0,0,0,6.71,7.06A6,6,0,0,0,420,159.68Z"/><path class="cls-1" d="M463.74,163.55c1.87,2.17,3.11,4.13,3.11,6.17a4.59,4.59,0,0,1-4.5,4.85,13.56,13.56,0,0,1-2.41-.3v-2.52a7.56,7.56,0,0,0,2.35.5c1.43,0,2.09-1.48,2.09-2.59,0-1.28-.89-2.72-2.2-4.32a10.14,10.14,0,0,1-6.76,3.11c-3.78,0-6.37-2.7-6.37-5.74,0-2.41,1.65-4.72,4.46-6.67-1.37-1.48-2.26-2.85-2.26-4.78,0-3.43,3.09-5.28,6.93-5.28a15.79,15.79,0,0,1,5.21.95v2.89a12.9,12.9,0,0,0-5.61-1.59c-2.35,0-4,1.17-4,2.76,0,2.2,2.78,4.69,5.76,7.93,1,1.06,1.91,2,2.76,3a8.07,8.07,0,0,0,1.24-4.17,9.16,9.16,0,0,0-.65-3.19h2.45a9,9,0,0,1,.54,3.06,10.5,10.5,0,0,1-2.09,6h0Zm-3,.17c-1-1.09-2.11-2.26-3.19-3.46s-1.85-2-2.69-2.78c-2.08,1.45-3.22,3.22-3.22,4.85a3.83,3.83,0,0,0,4,3.72A7.65,7.65,0,0,0,460.77,163.72Z"/><path class="cls-1" d="M498.65,149.74v2.78h5.59l-0.2,2.15h-5.39V168h-2.41V154.66h-3.63v-2.15h3.63v-1.85c0-4.41,1.78-7.13,6.09-7.13a15.16,15.16,0,0,1,3.67.56v2.52a9.42,9.42,0,0,0-4-.93C499.78,145.68,498.65,147.18,498.65,149.74Z"/><path class="cls-1" d="M541,154.66h-5V168h-2.41V154.66H530v-2.15h3.63v-2.59c0-3.67,1-6.39,5-6.39a5.07,5.07,0,0,1,2.56.56v2.52a5.78,5.78,0,0,0-2.82-.93c-1.93,0-2.32,1.5-2.32,3.32v3.52h5.22Z"/><path class="cls-1" d="M543.49,146.33a1.67,1.67,0,1,1,1.67,1.67A1.66,1.66,0,0,1,543.49,146.33ZM544,168V152h2.41v16H544Z"/><path class="cls-1" d="M585,154.66h-5V168h-2.41V154.66H574v-2.15h3.63v-2.59c0-3.67,1-6.39,5-6.39a5.07,5.07,0,0,1,2.56.56v2.52a5.78,5.78,0,0,0-2.82-.93c-1.93,0-2.32,1.5-2.32,3.32v3.52h5.22Z"/><path class="cls-1" d="M588,168V144h2.41v24H588Z"/><path class="cls-1" d="M624,149.55v3h5.21l-0.2,2.15h-5V168h-2.41V154.66H618v-2.15h3.63v-2c0-4,1.78-6.76,5.72-6.76a13.33,13.33,0,0,1,3.48.56v2.52a9.62,9.62,0,0,0-3.74-.93C625,145.86,624,147.36,624,149.55Z"/><path class="cls-1" d="M633.72,149.74v2.78h5.59l-0.2,2.15h-5.39V168h-2.41V154.66h-3.63v-2.15h3.63v-1.85c0-4.41,1.78-7.13,6.09-7.13a15.16,15.16,0,0,1,3.67.56v2.52a9.42,9.42,0,0,0-4-.93C634.86,145.68,633.72,147.18,633.72,149.74Z"/><path class="cls-1" d="M54.49,210.91H46L44.3,216H40.22l8-22h4.3l8,22H56.23Zm-1.2-3.52-3.06-8.89-3,8.89h6.06Z"/><path class="cls-1" d="M81.76,209.68c0,3.39-2.35,6.32-6.61,6.32H67V194h7.72c3.89,0,5.91,2.37,5.91,4.95a5.54,5.54,0,0,1-3.48,5v0.11C79.82,205,81.76,206.65,81.76,209.68Zm-10.91-7.06h2.76c1.89,0,3.09-1.11,3.09-2.69a2.68,2.68,0,0,0-3-2.69H70.85v5.37Zm7,6.71c0-2.15-1.57-3.37-4.22-3.37h-2.8v6.67h3.39C76.54,212.63,77.87,211.35,77.87,209.33Z"/><path class="cls-1" d="M91.87,204.92c0,4.67,2.71,7.84,6.8,7.84,1.82,0,3.32-.35,5.89-1.91V215a17.69,17.69,0,0,1-6.93,1.46c-4.85,0-9.84-3.56-9.84-11.23,0-7.06,4.5-11.71,10.39-11.71a18.93,18.93,0,0,1,6.37,1.24v4.15a14.34,14.34,0,0,0-6.08-1.69C94.4,197.24,91.87,200.5,91.87,204.92Z"/><path class="cls-1" d="M111.7,216V194.16c3-.22,5.72-0.48,7.63-0.48,5.48,0,11.1,3,11.1,10.63,0,7.43-4.93,11.82-11.32,11.82-1.32,0-2.72-.07-4.5-0.13H111.7Zm6.82-18.62a18.59,18.59,0,0,0-2.74.15v14.71c1.37,0.09,2.54.18,3.3,0.18,4.83,0,7.28-3.43,7.28-7.69,0-5-3.21-7.35-7.84-7.35h0Z"/><path class="cls-1" d="M150.94,212.48V216H137.56V194H150.1l-0.37,3.52h-8.28v5.11h7.35V206h-7.35v6.52h9.48Z"/><path class="cls-1" d="M162,197.51v5.85h7v3.71h-7V216h-3.89V194h12.54l-0.37,3.52H162Z"/><path class="cls-1" d="M186.32,212.76a3,3,0,0,0,3.35-3.33,23.8,23.8,0,0,0-.56-3.95h4.08a12.85,12.85,0,0,1,.56,3.58c0,4.54-3.46,7.41-7.85,7.41-4.85,0-9.84-3.56-9.84-11.23,0-7.06,4.5-11.71,10.39-11.71a18.93,18.93,0,0,1,6.37,1.24v4.15a14.34,14.34,0,0,0-6.08-1.69c-4.08,0-6.61,3.26-6.61,7.69,0,4.67,2.71,7.84,6.19,7.84h0Z"/><path class="cls-1" d="M219.22,194v22h-3.89v-9.74H204.59V216H200.7V194h3.89v8.74h10.74V194h3.89Z"/><path class="cls-1" d="M227.11,216V194H231v22h-3.89Z"/><path class="cls-1" d="M244.33,194h3.89V209.7c0,4-1.91,6.76-6.22,6.76a14.46,14.46,0,0,1-4.41-.74v-4a9.21,9.21,0,0,0,3.93,1c2.19,0,2.82-1.43,2.82-4V194Z"/><path class="cls-1" d="M254.9,194h3.89v22H254.9V194Zm17.76,22h-4.83c-0.95-3.28-5.37-8.3-8.41-11,3.37-3.32,7.39-8.41,10.08-11.67l2.82,2.2-8,9.17C267.14,207.35,271.55,212.54,272.66,216Z"/><path class="cls-1" d="M279.32,216V194h3.89v18.49h9.48V216H279.32Z"/><path class="cls-1" d="M319.08,194v22h-3.89V200.2h-0.07L310.38,211h-4.11l-4.37-10.87h-0.07V216h-3.71l0.28-22h4.93l5.3,12.86L314.23,194h4.85Z"/><path class="cls-1" d="M330,216h-3.71V194h3.37l11.71,14.86,0.11-.05V194h3.71v22h-3.37l-11.71-14.86-0.11.06V216Z"/><path class="cls-1" d="M363.13,216.46c-5.59,0-10.78-4.17-10.78-11.47s5.19-11.47,10.78-11.47c5.39,0,10.78,4.19,10.78,11.47S368.52,216.46,363.13,216.46Zm-6.72-11.76c0,4.06,2.76,8.06,7.09,8.06,4.15,0,6.32-3.48,6.32-7.35,0-4.17-2.63-8.17-6.83-8.17S356.41,200.79,356.41,204.7Z"/><path class="cls-1" d="M386.92,193.88c4.59,0,8.37,1.83,8.37,6.32S391.5,207,387.4,207a15.65,15.65,0,0,1-2.46-.2V216H381V194.12c1.56-.09,4.5-0.24,5.87-0.24h0Zm4.37,6.46c0-2-1.46-3.13-4.41-3.13-0.67,0-1.43.06-1.95,0.09v5.84a19.07,19.07,0,0,0,2.69.26C390.22,203.4,391.29,202.16,391.29,200.35Z"/><path class="cls-1" d="M411.36,216.46c-5.59,0-10.78-4.17-10.78-11.47s5.19-11.47,10.78-11.47c5.39,0,10.78,4.19,10.78,11.47S416.75,216.46,411.36,216.46Zm-6.72-11.76c0,4.06,2.76,8.06,7.09,8.06,4.15,0,6.32-3.48,6.32-7.35,0-4.17-2.63-8.17-6.83-8.17S404.64,200.79,404.64,204.7Zm11.91,17.23H406.18v-3.71h10.37v3.71Z"/><path class="cls-1" d="M440.84,216.26a49.5,49.5,0,0,1-4.37-9.34c-0.28,0-.56,0-0.83,0a15.67,15.67,0,0,1-2.46-.2V216h-3.89V194.12c1.56-.09,4.5-0.24,5.87-0.24,4.59,0,8.37,1.83,8.37,6.32a6.22,6.22,0,0,1-3.78,5.91A60,60,0,0,0,445.1,216Zm-7.67-13.12a19.06,19.06,0,0,0,2.69.26c2.59,0,3.67-1.24,3.67-3.06,0-2-1.46-3.13-4.41-3.13-0.67,0-1.43.06-1.95,0.09v5.83h0Z"/><path class="cls-1" d="M458.3,212.91c2.3,0,3.95-1.28,3.95-3.09s-1.54-2.33-4.22-3.17c-4.06-1.26-6.74-2.65-6.74-6.56,0-4.32,3.11-6.56,7.17-6.56a25.82,25.82,0,0,1,6.3.94v4.3a13.55,13.55,0,0,0-6.11-1.69c-2.41,0-3.48,1.22-3.48,2.65s1,2.21,4.19,3.19c4.06,1.26,6.76,2.63,6.76,6.54,0,4.74-4.15,7-8.11,7a25.8,25.8,0,0,1-6.3-.94v-4.33a18.62,18.62,0,0,0,6.61,1.72h0Z"/><path class="cls-1" d="M477.93,197.51H471.2V194h17.34l-0.37,3.52h-6.35V216h-3.89V197.51Z"/><path class="cls-1" d="M508,194h3.89v22H508v-2.85h-0.07a14.41,14.41,0,0,1-1.2,1.24,7.79,7.79,0,0,1-5.46,2.07c-3.59,0-6.67-2-6.67-7.21V194h3.89v14.19c0,3.22.95,4.85,3.41,4.85a6.27,6.27,0,0,0,4.37-2,16.6,16.6,0,0,0,1.74-2.19V194h0Z"/><path class="cls-1" d="M538.65,194l-8,22h-4.3l-8-22h4.26l6,17.51L534.57,194h4.08Z"/><path class="cls-1" d="M568.76,194h4.08l-6.13,22h-4.3l-3.91-12.87-4,12.87h-4.3l-6.69-22h4.26l4.8,17.15,4.32-13.36-1.15-3.8H560l4.67,16.71L568.76,194h0Z"/><path class="cls-1" d="M588.75,204.44L595.2,216H590.6l-4.11-8.22L582.12,216h-4.33l6.8-11.26L577.93,194h4.59l4.08,7.34L591,193.7l3.82,0.37-6.09,10.37h0Z"/><path class="cls-1" d="M611.51,206v10h-3.89V205.79L599.93,194h4.54l5.32,8.76,5.45-9.06,3.59,0.37Z"/><path class="cls-1" d="M639.45,195.62l-9.87,16.89h9.87V216h-15v-1.63l9.87-16.89h-9.86V194h15v1.63Z"/><path class="cls-1" d="M55.65,260.37v3.15a7.21,7.21,0,0,1-3.28.94,2.73,2.73,0,0,1-2.89-2.74H49.41a4.88,4.88,0,0,1-4.3,2.74c-2.57,0-4.3-1.83-4.3-4.8,0-3.41,2.09-5.09,5.45-5.09h3.28l0-1.24c0-2.07-1.58-2.37-2.71-2.37a10.69,10.69,0,0,0-5,1.28v-3.59a19.26,19.26,0,0,1,5.76-1c2.3,0,5.63.89,5.56,4.74L53,259.91a0.92,0.92,0,0,0,.89,1.17A3.44,3.44,0,0,0,55.65,260.37Zm-6.21-1.22,0-1.91H46.56a1.74,1.74,0,0,0-2,1.87,1.89,1.89,0,0,0,1.89,2.13A3.86,3.86,0,0,0,49.45,259.15Z"/><path class="cls-1" d="M80.35,255.46c0,5.52-3.65,9-8.52,9a48.77,48.77,0,0,1-6.78-.65V240h3.7v8.95h0.07a11,11,0,0,1,4.74-1.32C77.18,247.63,80.35,250.33,80.35,255.46Zm-4,.5c0-3-1.26-5-3.46-5a10.61,10.61,0,0,0-4.13,1.3v8.46a18.21,18.21,0,0,0,3.13.39C74.74,261.13,76.35,259.48,76.35,256Z"/><path class="cls-1" d="M93.75,255.76c0,3.41,1.26,5.15,4,5.15a7.89,7.89,0,0,0,4.95-2v3.87a10.25,10.25,0,0,1-5.45,1.69c-3.87,0-7.35-2.54-7.35-8.22,0-5.33,2.89-8.71,7.24-8.71a16.55,16.55,0,0,1,5.56,1.17v3.87a12.32,12.32,0,0,0-5.48-1.48C95.21,251.09,93.75,251.9,93.75,255.76Z"/><path class="cls-1" d="M123.69,240h3.7v24h-3.7v-2.43h-0.07a10.46,10.46,0,0,1-1.65,1.61,6,6,0,0,1-3.65,1.28c-3.24,0-6.41-2.8-6.41-7.93,0-5.52,3.46-9,8.15-9a13.7,13.7,0,0,1,3.63.43v-8h0Zm0,11.26a12.72,12.72,0,0,0-3.13-.41c-2.85,0-4.65,1.67-4.65,5.19,0,3,1.26,5.08,3.35,5.08A4.12,4.12,0,0,0,121.9,260a8,8,0,0,0,1.8-2v-6.71Z"/><path class="cls-1" d="M141.46,256.63c0.2,2.83,1.46,4.28,4,4.28a8.87,8.87,0,0,0,5.32-2v3.87a11.69,11.69,0,0,1-5.82,1.69c-3.87,0-7.35-2.54-7.35-8.22,0-5.33,3.26-8.71,7.61-8.71,3.08,0,5.69,1.59,5.69,5.52a23.74,23.74,0,0,1-.3,3.41c-1.7,0-6.72.11-9.15,0.17h0Zm0.09-2.59,5.67-.11a8.82,8.82,0,0,0,.06-0.94c0-1.72-.83-2.56-2.3-2.56C143.11,250.42,141.93,251.66,141.56,254Z"/><path class="cls-1" d="M166.2,246.29v2.22h4.67l-0.2,3.26H166.2V264h-3.71V251.77h-3.26v-3.26h3.26v-2.41c0-4.41,1.59-6.58,6.09-6.58a15.79,15.79,0,0,1,4,.56v3.82a12.45,12.45,0,0,0-3.89-.93C167.11,243,166.2,243.92,166.2,246.29Z"/><path class="cls-1" d="M194.51,250.24a20,20,0,0,1-5-.37v0.07c1.59,1,2.39,2.13,2.39,3.63,0,3-3.17,4.06-5.56,4.91-1.89.67-3.35,1.28-3.35,2.22,0,1.52,3.74.55,6.82,1.11,1.91,0.35,4.08,1.37,4.08,4.08,0,4.32-5.52,6-9.56,6-2.44,0-6.41-1-6.41-3.52,0-1.54,1.46-3,3.54-3.83-1.48-.33-2.52-1-2.52-2.43,0-1.82,1.61-3.08,3.43-4V258a5.08,5.08,0,0,1-3.87-4.91c0-3.54,3.32-5.5,7.24-5.5,4.17,0,6.63.11,8.78-.32v3h0Zm-4,16.23c0-1.95-4.41-1.35-7.78-1.72a4,4,0,0,0-1.11,2.3c0,1.5,2.17,1.85,3.8,1.85,3.15,0,5.09-1.15,5.09-2.43h0Zm-2.17-13.26a3.13,3.13,0,1,0-3.11,2.83A2.83,2.83,0,0,0,188.34,253.2Z"/><path class="cls-1" d="M218.14,252.48V264h-3.71V253.33c0-1.5-.59-2.32-1.76-2.32a4.15,4.15,0,0,0-2.67,1.33,14.06,14.06,0,0,0-2.17,2.52V264h-3.71V240h3.71v10.8h0.07a9.41,9.41,0,0,1,1.76-1.78,6.09,6.09,0,0,1,3.78-1.33A4.52,4.52,0,0,1,218.14,252.48Z"/><path class="cls-1" d="M228.24,242.88a2.22,2.22,0,1,1,2.22,2.22A2.21,2.21,0,0,1,228.24,242.88ZM228.61,264V247.92h3.71V264h-3.71Z"/><path class="cls-1" d="M243.27,248H247v15.63c0,4.41-1.59,6.58-6.09,6.58a15.84,15.84,0,0,1-4-.56v-3.82a12.45,12.45,0,0,0,3.89.93c1.63,0,2.54-.95,2.54-3.32V248Zm-0.37-5.11a2.22,2.22,0,1,1,2.22,2.22A2.21,2.21,0,0,1,242.9,242.88Z"/><path class="cls-1" d="M257.75,240h3.71v24h-3.71V240Zm8.45,15.67c1.46,1.93,3.91,5,7,8.34l-4.93.19c-3.45-4.28-5.21-6.63-6.56-8.56,2.61-2.39,6.21-6,8.43-8.35l2.56,2.39-6.46,6h0Z"/><path class="cls-1" d="M282.33,264V240H286v24h-3.7Z"/><path class="cls-1" d="M321.3,252.48V264h-3.71V253.33c0-1.5-.59-2.32-1.76-2.32a4.15,4.15,0,0,0-2.67,1.33,14.11,14.11,0,0,0-2.17,2.52V264h-3.7V253.33c0-1.5-.59-2.32-1.76-2.32a4.15,4.15,0,0,0-2.67,1.33,14.1,14.1,0,0,0-2.17,2.52V264H297V247.92h3.71v2.87h0.07a9.39,9.39,0,0,1,1.76-1.78,6.09,6.09,0,0,1,3.78-1.33,4.4,4.4,0,0,1,4.52,3.43l0.24-.32a10,10,0,0,1,1.76-1.78,6.09,6.09,0,0,1,3.78-1.33A4.52,4.52,0,0,1,321.3,252.48Z"/><path class="cls-1" d="M346,252.48V264h-3.71V253.33c0-1.5-.59-2.32-1.76-2.32a4.15,4.15,0,0,0-2.67,1.33,14.06,14.06,0,0,0-2.17,2.52V264H332V247.92h3.71v2.87h0.07a9.41,9.41,0,0,1,1.76-1.78,6.09,6.09,0,0,1,3.78-1.33A4.52,4.52,0,0,1,346,252.48Z"/><path class="cls-1" d="M364,264.46a8.47,8.47,0,1,1,8.15-8.46A8.12,8.12,0,0,1,364,264.46ZM363.88,251c-2.63,0-4.28,2.32-4.28,4.85s1.87,5.22,4.61,5.22,4.13-2.26,4.13-4.78c0-2.7-1.8-5.3-4.46-5.3h0Z"/><path class="cls-1" d="M397.8,255.46c0,5.52-3.46,9-8.15,9A13.7,13.7,0,0,1,386,264v8h-3.71V248H386v2.43h0.07a10.49,10.49,0,0,1,1.65-1.61,6,6,0,0,1,3.65-1.28C394.63,247.53,397.8,250.33,397.8,255.46Zm-4,.5c0-3-1.26-5.08-3.35-5.08a4.12,4.12,0,0,0-2.63,1.11,8,8,0,0,0-1.8,2v6.71a12.76,12.76,0,0,0,3.13.41C392,261.15,393.8,259.48,393.8,256Z"/><path class="cls-1" d="M422.68,248.27v3.8l0,19.93H419v-8.85H418.9a11,11,0,0,1-4.74,1.32c-3.61,0-6.78-2.7-6.78-7.83,0-5.52,3.65-9,8.52-9A48.78,48.78,0,0,1,422.68,248.27ZM419,259.81v-8.47a18.28,18.28,0,0,0-3.13-.39c-2.85,0-4.46,1.65-4.46,5.17,0,3,1.26,5,3.46,5a10.63,10.63,0,0,0,4.13-1.3h0Z"/><path class="cls-1" d="M443,251.11a12.39,12.39,0,0,0-5.67,3.06V264h-3.71V247.92h3.71V251c1.46-1.61,3.54-3.33,5.67-3.58v3.71Z"/><path class="cls-1" d="M459.76,259.54c0-.83-0.46-1.15-2.89-1.91-3.33-1-5.32-1.93-5.32-4.76,0-3.22,2.39-5.35,6.24-5.33a30.91,30.91,0,0,1,4.61.57v3.82a14.39,14.39,0,0,0-4.76-1.13c-1.5,0-2.3.46-2.3,1.54,0,0.69.32,1.19,2.72,1.93,3.3,1,5.48,1.91,5.48,4.71,0,3.26-2.83,5.5-6.43,5.5a20.21,20.21,0,0,1-5-.74v-3.82a14.33,14.33,0,0,0,5.17,1.3C459,261.2,459.76,260.57,459.76,259.54Z"/><path class="cls-1" d="M484.57,251.77h-5.72v7.52a1.73,1.73,0,0,0,2,1.8,7.29,7.29,0,0,0,3.74-1.46v3.26a7.66,7.66,0,0,1-4.76,1.54c-3.06,0-4.65-1.76-4.65-4.32v-8.34h-3.26v-3.26h3.26V244h3.7v4.52h5.93l-0.2,3.26h0Z"/><path class="cls-1" d="M504.33,248H508v16.08h-3.71V261.2h-0.07A9.39,9.39,0,0,1,502.5,263a6.09,6.09,0,0,1-3.78,1.33,4.52,4.52,0,0,1-4.69-4.8V248h3.71v10.67c0,1.5.59,2.32,1.76,2.32a4.16,4.16,0,0,0,2.67-1.33,14.15,14.15,0,0,0,2.17-2.52V248h0Z"/><path class="cls-1" d="M535.79,248l-7.06,16h-4.11l-7.41-16h4.37L527,260.55,531.64,248h4.15Z"/><path class="cls-1" d="M566,248l-4.67,16H557l-2.56-11.37L551.54,264h-4.3l-4.06-16h3.87l2.46,12.47,3.22-11.73h3.89l2.61,12L562.32,248H566Z"/><path class="cls-1" d="M584.91,255.5l6.54,8.5h-4.93l-3.93-5.72L578.48,264h-4.82l6.84-8.11L574,248h4.89l3.82,5,3.83-5h4.95Z"/><path class="cls-1" d="M617.79,248l-6.09,14h-0.89a9.13,9.13,0,0,1,.41,2.54,5.93,5.93,0,0,1-6.09,6.26,17.18,17.18,0,0,1-4.61-.74v-4.11a9.8,9.8,0,0,0,4.26,1.41c1.39,0,2.54-.67,2.54-2.83,0-1.59-.69-3.35-2.54-7.28L600.4,248h4.41l3.24,7.32c0.54,1.22,1,2.28,1.43,3.22L613.87,248h3.93Z"/><path class="cls-1" d="M639.42,248v1.63l-7.91,10.89h7.91V264H626.23v-1.63l7.91-10.89h-7.71V248h13Z"/></svg>